<svg width="649" height="489" viewBox="0 0 649 489" fill="none" xmlns="http://www.w3.org/2000/svg">
<g opacity="0.05" clip-path="url(#clip0_1_180)">
<path d="M460.986 335.69H455.888L451.187 307.396H456.117L460.986 335.69Z" fill="#003D5B"/>
<path d="M649 318.255H643.414L644.757 321.681H649V318.255Z" fill="#003D5B"/>
<path d="M616.367 321.681H405.976L405.595 318.255H615.146L616.367 321.681Z" fill="#003D5B"/>
<path d="M518.712 351.428H513.522L506.333 319.968H511.324L518.712 351.428Z" fill="#003D5B"/>
<path d="M410.052 335.69H404.969L402.13 309.109H357.5L357.317 305.667H406.678L410.052 335.69Z" fill="#003D5B"/>
<path d="M649 305.667H404.221L404.603 309.109H649V305.667Z" fill="#003D5B"/>
<path d="M530.495 319.968H525.489L522.329 307.396H527.259L530.495 319.968Z" fill="#003D5B"/>
<path d="M591.03 319.968H586.039L581.979 307.396H586.893L591.03 319.968Z" fill="#003D5B"/>
<path d="M643.75 358.372H638.53L619.725 307.396H624.655L643.75 358.372Z" fill="#003D5B"/>
<path d="M620.9 356.123H615.68L603.073 319.432H608.064L620.9 356.123Z" fill="#003D5B"/>
<path d="M567.402 351.428H562.212L557.71 335.598H512.454L511.66 332.172H561.8L567.402 351.428Z" fill="#003D5B"/>
<path d="M586.909 305.591H581.994L571.859 274.314H576.591L586.909 305.591Z" fill="#003D5B"/>
<path d="M644.726 305.591H639.812L627.494 274.314H632.226L644.726 305.591Z" fill="#003D5B"/>
<path d="M649 288.232H635.385L636.744 291.673H649V288.232Z" fill="#003D5B"/>
<path d="M537.761 305.591H532.846L524.573 274.314H529.305L537.761 305.591Z" fill="#003D5B"/>
<path d="M488.628 305.591H483.713L477.287 274.314H482.019L488.628 305.591Z" fill="#003D5B"/>
<path d="M558.046 305.591H553.131L539.272 257.643H543.896L558.046 305.591Z" fill="#003D5B"/>
<path d="M439.479 305.591H434.565L430.001 274.314H434.733L439.479 305.591Z" fill="#003D5B"/>
<path d="M390.347 305.591H385.432L382.715 274.314H387.447L390.347 305.591Z" fill="#003D5B"/>
<path d="M649 272.601H556.825L557.878 276.042H649V272.601Z" fill="#003D5B"/>
<path d="M538.402 276.042H354.004L353.821 272.601H537.44L538.402 276.042Z" fill="#003D5B"/>
<path d="M387.446 274.314H382.715L376.228 199.785H380.517L387.446 274.314Z" fill="#003D5B"/>
<path d="M368.26 274.314H363.529L362.048 250.685H382.959L383.264 254.11H366.871L368.26 274.314Z" fill="#003D5B"/>
<path d="M411.609 274.314H406.877L403.504 245.53H327.416L327.339 242.104H407.64L411.609 274.314Z" fill="#003D5B"/>
<path d="M649 242.104H634.485L635.92 245.53H649V242.104Z" fill="#003D5B"/>
<path d="M530.327 245.53H459.932L459.276 242.104H529.35L530.327 245.53Z" fill="#003D5B"/>
<path d="M438.152 245.53H405.793L405.381 242.104H437.587L438.152 245.53Z" fill="#003D5B"/>
<path d="M632.165 275.354L627.57 273.289L638.087 256.206L619.832 212.372H624.182L643.185 257.353L632.165 275.354Z" fill="#003D5B"/>
<path d="M482.019 274.314H477.287L471.029 243.817H475.562L482.019 274.314Z" fill="#003D5B"/>
<path d="M455.75 274.314H451.019L444.593 237.057H449.095L455.75 274.314Z" fill="#003D5B"/>
<path d="M649 210.659H310.168L310.153 214.085H649V210.659Z" fill="#003D5B"/>
<path d="M381.051 229.517H310.076L310.092 226.091H380.746L381.051 229.517Z" fill="#003D5B"/>
<path d="M432.87 243.817H428.322L423.606 212.372H427.971L432.87 243.817Z" fill="#003D5B"/>
<path d="M311.618 235.054H307.115L307.588 178.144H311.74L311.618 235.054Z" fill="#003D5B"/>
<path d="M649 198.072H310.214L310.198 201.498H649V198.072Z" fill="#003D5B"/>
<path d="M444.684 212.372H440.334L438.152 199.785H442.441L444.684 212.372Z" fill="#003D5B"/>
<path d="M497.511 212.372H493.146L490.078 199.785H494.367L497.511 212.372Z" fill="#003D5B"/>
<path d="M530.953 212.372H526.588L522.94 199.785H527.229L530.953 212.372Z" fill="#003D5B"/>
<path d="M580.391 212.372H576.026L571.538 199.785H575.812L580.391 212.372Z" fill="#003D5B"/>
<path d="M620.717 213.412L603.317 200.84L605.851 198.745L623.297 211.317L620.717 213.412Z" fill="#003D5B"/>
<path d="M649 242.441L635.813 212.372H631.463L645.047 243.817H649V242.441Z" fill="#003D5B"/>
<path d="M521.047 243.817H516.499L510.775 222.176L527.076 210.996L530.465 213.749L515.659 223.904L521.047 243.817Z" fill="#003D5B"/>
<path d="M475.562 243.817H471.029L467.763 228.003H428.185L427.65 224.562H471.502L475.562 243.817Z" fill="#003D5B"/>
<path d="M535.334 219.897H616.718L630.715 254.202L621.465 267.936H552.795L547.605 250.776H540.019L537.043 240.728L529.808 237.057L526.74 226.29L535.334 219.897Z" fill="#FFF4AD"/>
<path d="M649 190.593L638.621 168.523H634.515L649 199.724V190.593Z" fill="#003D5B"/>
<path d="M610.445 199.785H606.156L593.502 168.523H597.608L610.445 199.785Z" fill="#003D5B"/>
<path d="M567.57 199.785H563.281L552.49 168.523H556.58L567.57 199.785Z" fill="#003D5B"/>
<path d="M524.711 199.785H520.422L511.462 168.523H515.568L524.711 199.785Z" fill="#003D5B"/>
<path d="M481.835 199.785H477.546L470.449 168.523H474.555L481.835 199.785Z" fill="#003D5B"/>
<path d="M431.36 200.121L427.04 199.464L429.421 168.187L433.557 168.845L431.36 200.121Z" fill="#003D5B"/>
<path d="M649 166.811H431.191L431.771 170.236H649V166.811Z" fill="#003D5B"/>
<path d="M588.267 199.785H583.978L575.141 176.156H598.173L599.577 179.581H580.59L588.267 199.785Z" fill="#003D5B"/>
<path d="M389.873 180.637L387.263 177.777L405.808 166.811H431.191L431.771 170.236H407.503L389.873 180.637Z" fill="#003D5B"/>
<path d="M544.828 199.785H540.538L535.578 183.971H476.051L475.272 180.53H538.676L544.828 199.785Z" fill="#003D5B"/>
<path d="M276.421 166L276.115 171.582H280.252L280.511 166H276.421Z" fill="#003D5B"/>
<path d="M312.518 166V174.917H287.929L287.807 178.342H316.67L316.609 166H312.518Z" fill="#003D5B"/>
<path d="M386.805 179.994C387.416 180.835 388.713 181.172 389.69 180.728C390.667 180.3 390.957 179.26 390.331 178.419L381.356 166H376.762L386.79 179.994H386.805Z" fill="#003D5B"/>
<path d="M429.802 187.106H328.453L328.011 166H323.92L324.271 188.819C324.271 189.767 325.248 190.532 326.408 190.532H430.367C431.542 190.532 432.351 189.767 432.199 188.819C432.046 187.871 430.962 187.106 429.802 187.106Z" fill="#003D5B"/>
<path d="M649 357.286L567.921 346.778L533.288 352.009L481.743 333.885H388.041L354.63 300.987L358.339 270.429L328.651 240.04L291.897 223.767L293.256 176.614L274.665 166H262.408L286.219 179.673L284.388 227.07L323.477 244.353L350.249 271.898L346.22 302.349L383.935 339.605H480.599L533.395 358.066L569.691 352.621L649 362.837V357.286Z" fill="#003D5B"/>
<path d="M39.868 166L30.8168 188.819H35.0448L43.9586 166H39.868Z" fill="#003D5B"/>
<path d="M80.7434 166L73.0354 188.819H77.2634L84.8188 166H80.7434Z" fill="#003D5B"/>
<path d="M121.604 166L115.254 188.819H119.482L125.694 166H121.604Z" fill="#003D5B"/>
<path d="M162.479 166L157.473 188.819H161.701L166.554 166H162.479Z" fill="#003D5B"/>
<path d="M203.339 166L199.706 188.819H203.919L207.43 166H203.339Z" fill="#003D5B"/>
<path d="M249.48 166L241.986 188.498L246.077 189.156L253.647 166H249.48Z" fill="#003D5B"/>
<path d="M0 187.106V190.547H243.863L244.199 187.106H0Z" fill="#003D5B"/>
<path d="M192.472 263.363H187.801L199.706 188.819H203.919L192.472 263.363Z" fill="#003D5B"/>
<path d="M222.342 212.464H198.104L198.653 209.038H218.419L221.045 188.819H225.273L222.342 212.464Z" fill="#003D5B"/>
<path d="M240.902 221.044H172.003L178.124 188.819H182.337L177.055 217.603H241.223L240.902 221.044Z" fill="#003D5B"/>
<path d="M0 217.603V221.044H174.217L174.858 217.603H0Z" fill="#003D5B"/>
<path d="M9.93648 188.819L0 212.173V219.331H1.35844L14.1644 188.819H9.93648Z" fill="#003D5B"/>
<path d="M45.3781 219.331H40.9822L52.155 188.819H56.383L45.3781 219.331Z" fill="#003D5B"/>
<path d="M67.159 219.331H62.7479L73.0354 188.819H77.2634L67.159 219.331Z" fill="#003D5B"/>
<path d="M111.179 219.331H106.783L115.254 188.819H119.482L111.179 219.331Z" fill="#003D5B"/>
<path d="M135.646 219.331H131.235L138.714 188.819H142.942L135.646 219.331Z" fill="#003D5B"/>
<path d="M0 249.063V252.489H18.6061L19.9035 249.063H0Z" fill="#003D5B"/>
<path d="M237.834 252.489H44.6607L45.8513 249.063H238.17L237.834 252.489Z" fill="#003D5B"/>
<path d="M239.33 237.057H194.257L194.792 233.616H239.666L239.33 237.057Z" fill="#003D5B"/>
<path d="M145.704 250.776H141.125L148.116 219.331H152.512L145.704 250.776Z" fill="#003D5B"/>
<path d="M270.132 190.547H243.863L244.199 187.106H269.063L288.646 176.721L290.844 179.581L270.132 190.547Z" fill="#003D5B"/>
<path d="M288.097 227.131H266.926L240.277 220.968L241.833 217.679L267.766 223.705H288.204L288.097 227.131Z" fill="#003D5B"/>
<path d="M309.466 237.057H239.33L239.666 233.616H309.481L309.466 237.057Z" fill="#003D5B"/>
<path d="M267.354 263.363H262.683L267.491 188.819H271.704L267.354 263.363Z" fill="#003D5B"/>
<path d="M346.556 265.076H234.278L241.925 188.819H246.138L239.269 261.65H346.418L346.556 265.076Z" fill="#003D5B"/>
<path d="M310.198 253.024H265.645L265.858 249.599H308.718L324.714 240.82L327.431 243.588L310.198 253.024Z" fill="#003D5B"/>
<path d="M0 261.65V265.076H236.613L236.949 261.65H0Z" fill="#003D5B"/>
<path d="M125.099 263.363H120.444L123.527 250.776H128.121L125.099 263.363Z" fill="#003D5B"/>
<path d="M68.6243 263.363H63.9537L67.9527 250.776H72.5317L68.6243 263.363Z" fill="#003D5B"/>
<path d="M32.8621 263.363H28.2068L40.9822 228.095H45.4392L32.8621 263.363Z" fill="#003D5B"/>
<path d="M13.386 250.776H8.79172L21.1703 219.331H25.5662L13.386 250.776Z" fill="#003D5B"/>
<path d="M56.5509 251.311H51.9566L62.7479 219.331H67.159L56.5509 251.311Z" fill="#003D5B"/>
<path d="M146.086 238.587H101.425L106.783 219.331H111.179L106.874 235.145H146.849L146.086 238.587Z" fill="#003D5B"/>
<path d="M57.7415 296.43H52.8877L62.8089 265.168H67.4795L57.7415 296.43Z" fill="#003D5B"/>
<path d="M7.81486 265.168L0 285.326V296.43H0.564746L12.4855 265.168H7.81486Z" fill="#003D5B"/>
<path d="M0 279.086V282.512H3.48006L4.79271 279.086H0Z" fill="#003D5B"/>
<path d="M106.34 296.43H101.471L109.561 265.168H114.231L106.34 296.43Z" fill="#003D5B"/>
<path d="M154.939 296.43H150.07L156.297 265.168H160.983L154.939 296.43Z" fill="#003D5B"/>
<path d="M81.6592 313.116H76.6986L90.2678 265.168H94.9384L81.6592 313.116Z" fill="#003D5B"/>
<path d="M203.538 296.43H198.668L203.049 265.168H207.72L203.538 296.43Z" fill="#003D5B"/>
<path d="M252.136 296.43H247.267L249.786 265.168H254.456L252.136 296.43Z" fill="#003D5B"/>
<path d="M300.674 296.751L295.927 296.093L304.887 264.832L309.481 265.489L300.674 296.751Z" fill="#003D5B"/>
<path d="M0 294.717V298.143H72.1501L73.1575 294.717H0Z" fill="#003D5B"/>
<path d="M298.262 298.143H92.1604L93.0915 294.717H298.323L298.262 298.143Z" fill="#003D5B"/>
<path d="M246.565 370.959H241.269L247.267 296.43H252.136L246.565 370.959Z" fill="#003D5B"/>
<path d="M275.642 320.059H247.862L248.137 316.633H270.819L271.841 296.43H276.695L275.642 320.059Z" fill="#003D5B"/>
<path d="M297.697 328.639H218.862L222.434 296.43H227.287L224.265 325.214H297.774L297.697 328.639Z" fill="#003D5B"/>
<path d="M161.395 328.639H83.384L84.315 325.213H162.006L161.395 328.639Z" fill="#003D5B"/>
<path d="M221.38 328.639H185.527L186.046 325.213H221.762L221.38 328.639Z" fill="#003D5B"/>
<path d="M149.047 326.926H144.01L150.07 296.43H154.939L149.047 326.926Z" fill="#003D5B"/>
<path d="M175.957 333.687H170.889L177.071 296.43H181.94L175.957 333.687Z" fill="#003D5B"/>
<path d="M0 356.658V360.1H297.133L297.194 356.658H0Z" fill="#003D5B"/>
<path d="M297.407 344.652H245.955L246.229 341.227H297.469L297.407 344.652Z" fill="#003D5B"/>
<path d="M192.044 358.372H186.809L191.327 326.927H196.364L192.044 358.372Z" fill="#003D5B"/>
<path d="M328.484 298.143H298.262L298.323 294.717H326.957L348.631 284.317L351.409 287.177L328.484 298.143Z" fill="#003D5B"/>
<path d="M328.697 334.864L296.995 328.578L298.476 325.275L328.041 331.178L365.711 316.847L368.291 319.86L328.697 334.864Z" fill="#003D5B"/>
<path d="M384.103 344.652H297.407L297.468 341.227H383.829L384.103 344.652Z" fill="#003D5B"/>
<path d="M331.674 370.959H326.377L325.294 296.43H330.147L331.674 370.959Z" fill="#003D5B"/>
<path d="M404.465 372.672H294.248L295.866 296.43H300.735L299.605 369.246H400.405L415.027 336.149L419.957 337.327L404.465 372.672Z" fill="#003D5B"/>
<path d="M380.715 360.635H328.85L328.789 357.194H376.472L383.493 336.287L388.499 337.189L380.715 360.635Z" fill="#003D5B"/>
<path d="M0 369.246V372.672H296.904L296.965 369.246H0Z" fill="#003D5B"/>
<path d="M169.989 370.959H164.692L166.783 358.372H172.004L169.989 370.959Z" fill="#003D5B"/>
<path d="M105.775 370.959H100.479L103.471 358.372H108.706L105.775 370.959Z" fill="#003D5B"/>
<path d="M65.1442 370.959H59.8326L63.4042 358.372H68.6243L65.1442 370.959Z" fill="#003D5B"/>
<path d="M4.16691 358.372L0 370.255V370.959H5.05219L9.38699 358.372H4.16691Z" fill="#003D5B"/>
<path d="M67.1742 359.763L64.8542 356.995L88.4514 346.84L93.5952 326.927H98.6321L93.1678 348.568L67.1742 359.763Z" fill="#003D5B"/>
<path d="M191.144 346.182H140.164L144.01 326.927H149.047L145.979 342.741H191.617L191.144 346.182Z" fill="#003D5B"/>
<path d="M73.997 330.016L76.7902 319.968H68.5174L73.4933 302.823H1.80108L0 304V350.847H63.0073L76.9734 344.469L79.9192 333.687L73.997 330.016Z" fill="#FFF4AD"/>
<path d="M9.95174 370.959L0 400.278V402.236H4.82324L15.2481 370.959H9.95174Z" fill="#003D5B"/>
<path d="M59.6952 402.236H54.2003L62.9615 370.959H68.2579L59.6952 402.236Z" fill="#003D5B"/>
<path d="M114.567 402.236H109.072L115.971 370.959H121.283L114.567 402.236Z" fill="#003D5B"/>
<path d="M169.332 402.557L164.051 401.899L178.521 370.637L183.619 371.28L169.332 402.557Z" fill="#003D5B"/>
<path d="M0 400.507V403.949H166.417L166.951 400.507H0Z" fill="#003D5B"/>
<path d="M98.5558 476.765H92.6336L109.072 402.236H114.567L98.5558 476.765Z" fill="#003D5B"/>
<path d="M137.935 425.865H106.676L107.424 422.439H132.96L136.806 402.236H142.301L137.935 425.865Z" fill="#003D5B"/>
<path d="M161.578 434.445H72.9438L81.0334 402.236H86.513L79.4613 431.004H162.128L161.578 434.445Z" fill="#003D5B"/>
<path d="M0 431.004V434.445H75.7828L76.6376 431.004H0Z" fill="#003D5B"/>
<path d="M0 402.236V416.704L4.82324 402.236H0Z" fill="#003D5B"/>
<path d="M26.1462 432.717H20.4835L29.8247 402.236H35.3043L26.1462 432.717Z" fill="#003D5B"/>
<path d="M0 462.464V465.89H156.603L157.137 462.464H0Z" fill="#003D5B"/>
<path d="M159.045 450.458H101.318L102.066 447.017H159.594L159.045 450.458Z" fill="#003D5B"/>
<path d="M39.1354 464.177H33.2895L42.2033 432.717H47.8813L39.1354 464.177Z" fill="#003D5B"/>
<path d="M200.531 403.949H166.417L166.951 400.507H199.294L225.273 390.123L228.005 392.983L200.531 403.949Z" fill="#003D5B"/>
<path d="M195.616 440.685L160.8 434.369L162.906 431.081L195.249 436.954L246.443 418.539L249.175 421.461L195.616 440.685Z" fill="#003D5B"/>
<path d="M270.895 450.458H159.045L159.594 447.017H271.048L270.895 450.458Z" fill="#003D5B"/>
<path d="M193.738 476.765H187.816L197.173 402.236H202.652L193.738 476.765Z" fill="#003D5B"/>
<path d="M294.309 478.478H151.642L163.944 402.236H169.424L158.114 475.036H294.37L294.309 478.478Z" fill="#003D5B"/>
<path d="M248.748 466.426H192.044L192.456 463H247.221L273.795 452.967L276.863 455.842L248.748 466.426Z" fill="#003D5B"/>
<path d="M0 475.036V478.478H154.603L155.153 475.036H0Z" fill="#003D5B"/>
<path d="M9.24962 489L16.6982 464.177H10.8523L3.25111 489H9.24962Z" fill="#003D5B"/>
<path d="M0 448.547V451.973H39.6391L40.6007 448.547H0Z" fill="#003D5B"/>
<path d="M114.43 390.214H32.1447L38.0669 370.959H43.3786L38.6012 386.788H115.178L114.43 390.214Z" fill="#003D5B"/>
<path d="M55.8488 489L58.5046 478.569H52.5672L49.8503 489H55.8488Z" fill="#003D5B"/>
<path d="M115.865 489L117.895 478.569H111.957L109.866 489H115.865Z" fill="#003D5B"/>
<path d="M175.865 489L177.284 478.569H171.347L169.866 489H175.865Z" fill="#003D5B"/>
<path d="M239.208 489L242.062 476.918L236.186 476.596L233.194 489H239.208Z" fill="#003D5B"/>
<path d="M401.428 402.236H395.933L393.14 370.959H398.451L401.428 402.236Z" fill="#003D5B"/>
<path d="M456.284 402.235H450.805L445.127 364H450.393L456.284 402.235Z" fill="#003D5B"/>
<path d="M511.156 402.236H505.677L496.946 360.222H502.181L511.156 402.236Z" fill="#003D5B"/>
<path d="M566.028 402.235H560.533L551.558 368.573H556.84L566.028 402.235Z" fill="#003D5B"/>
<path d="M620.9 402.235H615.405L604.431 368.573H609.712L620.9 402.235Z" fill="#003D5B"/>
<path d="M649 400.507H323.065L323.096 403.949H649V400.507Z" fill="#003D5B"/>
<path d="M645.657 476.765H639.72L615.405 402.236H620.9L645.657 476.765Z" fill="#003D5B"/>
<path d="M649 403.23L648.634 402.236H643.139L649 418.646V403.23Z" fill="#003D5B"/>
<path d="M649 422.439H624.807L625.937 425.865H649V422.439Z" fill="#003D5B"/>
<path d="M483.255 394.588H453.033L452.499 391.162H477.195L470.296 352.621H475.486L483.255 394.588Z" fill="#003D5B"/>
<path d="M649 431.004H601.531L592.846 402.236H587.366L596.891 434.445H649V431.004Z" fill="#003D5B"/>
<path d="M599.73 434.445H323.416L323.386 431.004H598.707L599.73 434.445Z" fill="#003D5B"/>
<path d="M376.304 432.717H370.641L368.81 402.236H374.289L376.304 432.717Z" fill="#003D5B"/>
<path d="M432.977 432.717H427.314L423.682 402.236H429.161L432.977 432.717Z" fill="#003D5B"/>
<path d="M461.001 432.717H455.323L450.805 402.236H456.284L461.001 432.717Z" fill="#003D5B"/>
<path d="M517.674 432.717H512.011L505.677 402.236H511.156L517.674 432.717Z" fill="#003D5B"/>
<path d="M549.162 432.717H543.484L536.158 402.236H541.637L549.162 432.717Z" fill="#003D5B"/>
<path d="M418.233 465.89H344.587L344.48 462.464H417.866L418.233 465.89Z" fill="#003D5B"/>
<path d="M649 462.464H450.973L451.461 465.89H649V462.464Z" fill="#003D5B"/>
<path d="M649 447.017H632.897L634.027 450.458H649V447.017Z" fill="#003D5B"/>
<path d="M579.353 464.177H573.507L565.219 432.717H570.882L579.353 464.177Z" fill="#003D5B"/>
<path d="M649 475.036H323.844L323.889 478.478H649V475.036Z" fill="#003D5B"/>
<path d="M563.036 489L556.916 464.177H551.055L557.038 489H563.036Z" fill="#003D5B"/>
<path d="M490.352 489L486.017 464.177H480.156L484.354 489H490.352Z" fill="#003D5B"/>
<path d="M444.348 489L438.197 441.496H432.489L438.35 489H444.348Z" fill="#003D5B"/>
<path d="M375.571 476.764H369.649L368.932 464.177H374.793L375.571 476.764Z" fill="#003D5B"/>
<path d="M361.132 464.177H355.286L353.943 432.717H359.606L361.132 464.177Z" fill="#003D5B"/>
<path d="M410.57 464.177H404.709L401.809 432.717H407.472L410.57 464.177Z" fill="#003D5B"/>
<path d="M465.931 464.713H460.085L455.323 432.717H461.001L465.931 464.713Z" fill="#003D5B"/>
<path d="M573.187 451.973H516.01L512.011 432.717H517.674L521.062 448.547H572.271L573.187 451.973Z" fill="#003D5B"/>
<path d="M614.199 390.214H531.914L526.74 368.573H532.021L536.478 386.788H613.07L614.199 390.214Z" fill="#003D5B"/>
<path d="M419.011 489L417.729 476.765H411.807L413.012 489H419.011Z" fill="#003D5B"/>
<path d="M362.338 489L361.834 478.569H355.897L356.339 489H362.338Z" fill="#003D5B"/>
<path d="M609.636 489L606.583 478.569H600.646L603.637 489H609.636Z" fill="#003D5B"/>
<path d="M317.143 489L326.561 477.483L321.173 476.031L310.503 489H317.143Z" fill="#003D5B"/>
<path d="M326.835 476.765H320.898L320.104 370.959H325.401L326.835 476.765Z" fill="#003D5B"/>
<path d="M294.309 478.478C294.217 478.478 294.126 478.478 294.034 478.478C293.027 478.432 292.142 478.08 291.699 477.56L224.158 392.356C223.563 391.514 224.174 390.474 225.547 390.046C226.921 389.618 228.524 389.939 229.119 390.78L294.904 473.614L304.459 466.563L305.207 383.668H175.834C174.354 383.668 173.27 382.904 173.408 381.955C173.56 381.007 174.873 380.242 176.353 380.242H307.909C309.389 380.242 310.58 381.007 310.58 381.955L310.32 467.16C310.32 467.542 310.091 467.909 309.694 468.215L296.644 477.851C296.064 478.263 295.194 478.508 294.294 478.508L294.309 478.478Z" fill="#003D5B"/>
<path d="M649 366.86H529.533L462.222 347.742H411.868L412.265 351.168H461.672L529.213 370.286H649V366.86Z" fill="#003D5B"/>
<path d="M470.571 346.794C461.107 346.794 453.399 342.083 453.399 336.271C453.399 330.459 461.107 325.749 470.571 325.749C480.034 325.749 487.742 330.459 487.742 336.271C487.742 342.083 480.034 346.794 470.571 346.794ZM470.571 328.563C463.626 328.563 457.978 332.019 457.978 336.271C457.978 340.523 463.626 343.98 470.571 343.98C477.516 343.98 483.163 340.523 483.163 336.271C483.163 332.019 477.516 328.563 470.571 328.563Z" fill="#EE332A"/>
<path d="M480.11 336.287C480.11 339.514 475.837 342.129 470.571 342.129C465.305 342.129 461.031 339.514 461.031 336.287C461.031 333.059 465.305 330.444 470.571 330.444C475.837 330.444 480.11 333.059 480.11 336.287Z" fill="#EE332A"/>
<path d="M455.765 333.885H387.874L354.538 300.987L358.232 270.429L328.636 240.04L291.989 223.767L293.347 176.614L274.802 166H262.592L286.326 179.673L284.495 227.07L323.477 244.353L350.173 271.898L346.159 302.349L383.768 339.605H455.765V333.885Z" fill="url(#paint0_linear_1_180)"/>
<rect y="166" width="649" height="181" fill="url(#paint1_linear_1_180)"/>
</g>
<path d="M425.061 131.561C425.061 229.613 331.744 284.377 299.284 350.846C296.934 355.656 290.066 355.656 287.716 350.846C255.256 284.377 161.939 229.613 161.939 131.561C161.939 58.9036 220.842 0 293.5 0C366.158 0 425.061 58.9036 425.061 131.561Z" fill="#EAEAEA"/>
<path d="M293.5 220.918C342.85 220.918 382.856 180.912 382.856 131.562C382.856 82.2117 342.85 42.2057 293.5 42.2057C244.15 42.2057 204.144 82.2117 204.144 131.562C204.144 180.912 244.15 220.918 293.5 220.918Z" fill="white"/>
<path d="M293.5 195.938C329.054 195.938 357.876 167.115 357.876 131.561C357.876 96.0075 329.054 67.1853 293.5 67.1853C257.946 67.1853 229.124 96.0075 229.124 131.561C229.124 167.115 257.946 195.938 293.5 195.938Z" fill="#EAEAEA"/>
<path d="M347.384 334.327C338.785 331.895 329.93 330.541 321.106 329.622C321.106 329.622 321.106 329.622 321.103 329.622C319.345 332.095 317.653 334.57 316.035 337.05C328.65 339.395 340.981 343.775 351.922 350.137C354.672 351.808 360.723 356.101 360.337 359.452C359.922 360.858 359.11 361.651 357.815 362.821C356.952 363.556 355.9 364.28 354.728 364.966C336.883 375.231 294.557 376.255 273.602 374.699C263.805 373.926 254.113 372.572 244.759 369.886C240.346 368.581 236.189 367.076 232.346 364.859C230.337 363.684 226.528 361.08 226.607 358.799C227.083 355.379 232.016 351.862 235.024 350.032C245.778 343.87 258.406 339.7 271.16 337.345C269.411 334.654 267.573 331.974 265.661 329.294C256.883 330.272 248.179 331.882 239.616 334.329C227.682 337.982 211.834 344.868 211.099 359.452C210.812 369.991 219.506 377.853 227.769 382.64C247.237 393.637 271.469 397.157 293.5 397.592C316.081 397.743 339.266 393.857 359.177 382.537C367.387 377.712 376.103 369.973 375.901 359.452C375.271 344.828 359.471 337.803 347.384 334.327Z" fill="#EAEAEA"/>
<path d="M487.63 392.813C487.63 417.877 463.776 431.876 455.478 448.867C454.878 450.096 453.122 450.096 452.522 448.867C444.224 431.876 420.37 417.877 420.37 392.813C420.37 374.24 435.427 359.183 454 359.183C472.573 359.183 487.63 374.24 487.63 392.813Z" fill="#E4E4E4"/>
<path d="M454 415.654C466.615 415.654 476.841 405.428 476.841 392.813C476.841 380.198 466.615 369.971 454 369.971C441.385 369.971 431.159 380.198 431.159 392.813C431.159 405.428 441.385 415.654 454 415.654Z" fill="white"/>
<path d="M454 409.269C463.088 409.269 470.456 401.901 470.456 392.813C470.456 383.725 463.088 376.357 454 376.357C444.912 376.357 437.544 383.725 437.544 392.813C437.544 401.901 444.912 409.269 454 409.269Z" fill="#E4E4E4"/>
<path d="M467.774 444.644C465.576 444.022 463.312 443.676 461.057 443.441C461.057 443.441 461.057 443.441 461.056 443.441C460.606 444.073 460.174 444.706 459.76 445.34C462.985 445.94 466.137 447.059 468.934 448.685C469.637 449.113 471.184 450.21 471.085 451.067C470.979 451.426 470.771 451.629 470.44 451.928C470.22 452.115 469.951 452.301 469.651 452.476C465.09 455.1 454.27 455.362 448.914 454.964C446.409 454.766 443.932 454.42 441.541 453.734C440.413 453.4 439.35 453.015 438.368 452.449C437.854 452.148 436.88 451.483 436.901 450.9C437.022 450.025 438.283 449.126 439.052 448.658C441.801 447.083 445.029 446.017 448.289 445.415C447.842 444.728 447.373 444.043 446.884 443.357C444.64 443.607 442.415 444.019 440.226 444.645C437.176 445.578 433.124 447.339 432.937 451.066C432.863 453.76 435.086 455.77 437.198 456.994C442.174 459.805 448.369 460.705 454 460.816C459.772 460.855 465.699 459.861 470.789 456.968C472.887 455.734 475.115 453.756 475.063 451.066C474.902 447.328 470.864 445.533 467.774 444.644Z" fill="#E4E4E4"/>
<g opacity="0.71">
<path d="M606.8 362.837C606.8 380.574 589.918 390.481 584.046 402.506C583.621 403.376 582.379 403.376 581.954 402.506C576.082 390.481 559.2 380.574 559.2 362.837C559.2 349.693 569.856 339.037 583 339.037C596.144 339.037 606.8 349.693 606.8 362.837Z" fill="#E4E4E4"/>
<path d="M583 379.001C591.927 379.001 599.165 371.764 599.165 362.837C599.165 353.909 591.927 346.672 583 346.672C574.073 346.672 566.835 353.909 566.835 362.837C566.835 371.764 574.073 379.001 583 379.001Z" fill="white"/>
<path d="M583 374.482C589.432 374.482 594.646 369.268 594.646 362.837C594.646 356.405 589.432 351.191 583 351.191C576.568 351.191 571.354 356.405 571.354 362.837C571.354 369.268 576.568 374.482 583 374.482Z" fill="#E4E4E4"/>
<path d="M592.748 399.517C591.192 399.077 589.59 398.832 587.994 398.666C587.994 398.666 587.994 398.666 587.994 398.666C587.675 399.114 587.369 399.561 587.077 400.01C589.359 400.434 591.589 401.227 593.569 402.377C594.066 402.68 595.161 403.456 595.091 404.063C595.016 404.317 594.869 404.46 594.635 404.672C594.479 404.805 594.288 404.936 594.076 405.06C590.848 406.917 583.191 407.102 579.4 406.821C577.628 406.681 575.875 406.436 574.183 405.95C573.384 405.714 572.632 405.442 571.937 405.041C571.574 404.828 570.885 404.357 570.899 403.945C570.985 403.326 571.878 402.69 572.422 402.358C574.367 401.244 576.652 400.489 578.959 400.063C578.642 399.577 578.31 399.092 577.964 398.607C576.376 398.784 574.801 399.075 573.252 399.518C571.093 400.179 568.226 401.424 568.094 404.063C568.042 405.969 569.614 407.391 571.109 408.257C574.631 410.247 579.015 410.883 583 410.962C587.085 410.99 591.279 410.287 594.881 408.239C596.366 407.366 597.943 405.966 597.906 404.063C597.793 401.417 594.934 400.146 592.748 399.517Z" fill="#E4E4E4"/>
</g>
<g opacity="0.2">
<path d="M524.63 243.813C524.63 268.877 500.776 282.876 492.478 299.867C491.878 301.096 490.122 301.096 489.522 299.867C481.224 282.876 457.37 268.877 457.37 243.813C457.37 225.24 472.427 210.183 491 210.183C509.573 210.183 524.63 225.24 524.63 243.813Z" fill="#E4E4E4"/>
<path d="M491 266.654C503.615 266.654 513.841 256.428 513.841 243.813C513.841 231.198 503.615 220.971 491 220.971C478.385 220.971 468.159 231.198 468.159 243.813C468.159 256.428 478.385 266.654 491 266.654Z" fill="white"/>
<path d="M491 260.269C500.088 260.269 507.456 252.901 507.456 243.813C507.456 234.725 500.088 227.357 491 227.357C481.912 227.357 474.544 234.725 474.544 243.813C474.544 252.901 481.912 260.269 491 260.269Z" fill="#E4E4E4"/>
<path d="M504.774 295.644C502.576 295.022 500.312 294.676 498.057 294.441C498.057 294.441 498.057 294.441 498.056 294.441C497.606 295.073 497.174 295.706 496.76 296.34C499.985 296.94 503.137 298.059 505.934 299.685C506.637 300.113 508.184 301.21 508.085 302.067C507.979 302.426 507.771 302.629 507.44 302.928C507.22 303.115 506.951 303.301 506.651 303.476C502.09 306.1 491.27 306.362 485.914 305.964C483.409 305.766 480.932 305.42 478.541 304.734C477.413 304.4 476.35 304.015 475.368 303.449C474.854 303.148 473.88 302.483 473.901 301.9C474.022 301.025 475.283 300.126 476.052 299.658C478.801 298.083 482.029 297.017 485.289 296.415C484.842 295.728 484.373 295.043 483.884 294.357C481.64 294.607 479.415 295.019 477.226 295.645C474.176 296.578 470.124 298.339 469.937 302.066C469.863 304.76 472.086 306.77 474.198 307.994C479.174 310.805 485.369 311.705 491 311.816C496.772 311.855 502.699 310.861 507.789 307.968C509.887 306.734 512.115 304.756 512.063 302.066C511.902 298.328 507.864 296.533 504.774 295.644Z" fill="#E4E4E4"/>
</g>
<g opacity="0.71">
<path d="M92.7669 405.032C92.7669 427.589 71.2983 440.188 63.8306 455.48C63.2901 456.587 61.7099 456.587 61.1694 455.48C53.7017 440.188 32.2331 427.589 32.2331 405.032C32.2331 388.316 45.7844 374.765 62.5 374.765C79.2156 374.765 92.7669 388.316 92.7669 405.032Z" fill="#E4E4E4"/>
<path d="M62.5 425.589C73.8534 425.589 83.0572 416.385 83.0572 405.032C83.0572 393.678 73.8534 384.474 62.5 384.474C51.1466 384.474 41.9428 393.678 41.9428 405.032C41.9428 416.385 51.1466 425.589 62.5 425.589Z" fill="white"/>
<path d="M62.5 419.842C70.6795 419.842 77.3103 413.211 77.3103 405.032C77.3103 396.852 70.6795 390.221 62.5 390.221C54.3205 390.221 47.6897 396.852 47.6897 405.032C47.6897 413.211 54.3205 419.842 62.5 419.842Z" fill="#E4E4E4"/>
<path d="M74.8964 451.68C72.9182 451.12 70.8811 450.809 68.851 450.597C68.851 450.597 68.851 450.597 68.8504 450.597C68.4458 451.166 68.0565 451.736 67.6844 452.306C70.5866 452.846 73.4235 453.853 75.9406 455.317C76.5731 455.701 77.9653 456.689 77.8764 457.46C77.781 457.783 77.5943 457.966 77.2963 458.235C77.0978 458.404 76.8558 458.571 76.5861 458.728C72.4806 461.09 62.7433 461.326 57.9223 460.968C55.6684 460.79 53.4387 460.478 51.2868 459.86C50.2715 459.56 49.3151 459.214 48.4311 458.704C47.9688 458.433 47.0924 457.834 47.1107 457.31C47.2202 456.523 48.3551 455.714 49.0471 455.293C51.5212 453.875 54.4264 452.916 57.3604 452.374C56.9582 451.755 56.5353 451.138 56.0954 450.522C54.0759 450.747 52.0735 451.117 50.1036 451.68C47.358 452.521 43.7119 454.105 43.5429 457.46C43.477 459.884 45.477 461.693 47.378 462.794C51.8568 465.324 57.4317 466.134 62.5 466.234C67.695 466.269 73.0289 465.375 77.6096 462.771C79.4983 461.661 81.5037 459.88 81.4571 457.46C81.3122 454.095 77.6773 452.479 74.8964 451.68Z" fill="#E4E4E4"/>
</g>
<g opacity="0.36">
<path d="M106.419 291.32C106.419 306.166 92.2904 314.457 87.3757 324.521C87.02 325.249 85.98 325.249 85.6243 324.521C80.7096 314.457 66.5807 306.166 66.5807 291.32C66.5807 280.319 75.4991 271.401 86.5 271.401C97.5009 271.401 106.419 280.319 106.419 291.32Z" fill="#E4E4E4"/>
<path d="M86.5 304.849C93.9719 304.849 100.029 298.792 100.029 291.32C100.029 283.848 93.9719 277.791 86.5 277.791C79.0281 277.791 72.9709 283.848 72.9709 291.32C72.9709 298.792 79.0281 304.849 86.5 304.849Z" fill="white"/>
<path d="M86.5 301.067C91.8831 301.067 96.247 296.703 96.247 291.32C96.247 285.937 91.8831 281.573 86.5 281.573C81.1169 281.573 76.753 285.937 76.753 291.32C76.753 296.703 81.1169 301.067 86.5 301.067Z" fill="#E4E4E4"/>
<path d="M94.6583 322.02C93.3564 321.652 92.0158 321.447 90.6797 321.307C90.6797 321.307 90.6797 321.307 90.6794 321.307C90.4131 321.682 90.1569 322.057 89.9119 322.432C91.822 322.787 93.689 323.45 95.3455 324.414C95.7618 324.667 96.678 325.317 96.6195 325.824C96.5567 326.037 96.4338 326.157 96.2377 326.334C96.1071 326.445 95.9478 326.555 95.7703 326.659C93.0685 328.213 86.6601 328.368 83.4873 328.132C82.004 328.015 80.5366 327.81 79.1204 327.404C78.4522 327.206 77.8227 326.978 77.241 326.643C76.9367 326.465 76.36 326.07 76.372 325.725C76.4441 325.207 77.191 324.675 77.6464 324.398C79.2746 323.465 81.1866 322.833 83.1175 322.477C82.8528 322.069 82.5745 321.664 82.285 321.258C80.956 321.406 79.6382 321.65 78.3417 322.02C76.5347 322.573 74.1352 323.616 74.024 325.824C73.9806 327.42 75.2968 328.61 76.5479 329.335C79.4955 331 83.1644 331.533 86.5 331.599C89.9189 331.621 93.4293 331.033 96.444 329.319C97.687 328.589 99.0067 327.417 98.9761 325.824C98.8807 323.61 96.4885 322.546 94.6583 322.02Z" fill="#E4E4E4"/>
</g>
<defs>
<linearGradient id="paint0_linear_1_180" x1="258.135" y1="158.751" x2="440.176" y2="361.034" gradientUnits="userSpaceOnUse">
<stop offset="0.2" stop-color="white"/>
<stop offset="0.29" stop-color="#FDEBEA"/>
<stop offset="0.48" stop-color="#F9B8B5"/>
<stop offset="0.74" stop-color="#F26861"/>
<stop offset="0.9" stop-color="#EE332A"/>
</linearGradient>
<linearGradient id="paint1_linear_1_180" x1="324.5" y1="166" x2="324.5" y2="347" gradientUnits="userSpaceOnUse">
<stop offset="0.197563" stop-color="#D9D9D9"/>
<stop offset="1" stop-color="white" stop-opacity="0"/>
</linearGradient>
<clipPath id="clip0_1_180">
<rect width="649" height="323" fill="white" transform="translate(0 166)"/>
</clipPath>
</defs>
</svg>
