<svg width="127" height="40" viewBox="0 0 127 40" fill="none" xmlns="http://www.w3.org/2000/svg">
<g clip-path="url(#clip0_1_788)">
<path d="M79.5123 34.9929H78.4099V37.9257C78.0684 37.9589 77.3988 38.0097 76.4168 38.0097C75.7084 38.0097 75.0525 37.9784 74.4178 37.914C74.4178 37.5355 74.4237 34.9929 74.4237 34.9929H73.0768V38.9404L73.2573 38.9853C73.3 38.997 74.3383 39.2487 76.4148 39.2487C78.5303 39.2565 79.5297 38.9951 79.5705 38.9834L79.7471 38.9365V34.9929H79.5103H79.5123Z" fill="#A6A6A6"/>
<path d="M81.387 35.2563L81.2065 35.3012L81.2007 38.9424L81.3851 38.9853C81.4297 38.9951 82.4816 39.2409 84.5019 39.2487C86.5125 39.2487 87.5644 39.0048 87.609 38.9931L87.7914 38.9502V37.676L87.4984 37.7501C87.4887 37.7521 86.4349 38.0155 84.4786 38.0155C83.5121 38.0155 82.8775 37.9687 82.534 37.9316V36.314C82.9668 36.2691 83.615 36.2222 84.4961 36.2222C86.4019 36.2222 87.4945 36.4837 87.5061 36.4876L87.7992 36.5598V36.2496L87.7895 35.2993L87.6109 35.2544C87.5682 35.2427 86.5358 34.991 84.4961 34.991C82.4563 34.991 81.4297 35.2427 81.387 35.2544" fill="#A6A6A6"/>
<path d="M89.5167 35.272L89.3401 35.3188V38.9541L89.5225 38.999C89.5652 39.0087 90.5957 39.2546 92.6355 39.2624C94.6519 39.2624 95.7057 39.0185 95.7484 39.0068L95.9308 38.9638V35.3071L95.7503 35.2622C95.7077 35.2505 94.681 34.9988 92.6355 34.9988C90.5899 34.9988 89.5575 35.2603 89.5167 35.272ZM94.6189 36.2203V36.2125L94.6073 38.0643C94.1745 38.1131 93.5301 38.1697 92.6277 38.1697C91.6049 38.1697 90.8772 38.0916 90.6384 38.0643L90.6443 36.2125C90.8674 36.1852 91.5409 36.1071 92.6296 36.1071C93.5204 36.1071 94.1764 36.1637 94.6208 36.2203" fill="#A6A6A6"/>
<path d="M70.2743 35.231C70.2743 35.231 70.2743 35.8964 70.2743 36.3315C69.8124 36.0876 69.1642 35.8027 68.3316 35.5744C66.2822 35.0105 65.2633 35.0046 65.2206 35.0046H64.9838V39.276H66.3288V36.3705C66.6548 36.4271 67.2545 36.5462 68.0133 36.7686C69.2302 37.1257 70.0259 37.6877 70.2723 37.8789C70.2723 38.0701 70.2723 39.2058 70.2723 39.2058H71.6522V34.9851H70.2704V35.2271L70.2743 35.231Z" fill="#A6A6A6"/>
<path d="M102.712 36.8838C102.349 36.9404 101.716 37.0145 100.734 37.0087L98.6713 36.8994V36.2477C98.8964 36.2164 99.5737 36.1345 100.74 36.1345C101.67 36.1345 102.349 36.1911 102.712 36.2555V36.8838ZM97.5223 35.3286L97.3884 35.3637V39.1746H98.6169C98.6169 39.1746 98.6169 38.1814 98.6169 37.9219C98.9527 37.916 99.7542 37.9238 100.641 38.1014C101.691 38.3122 102.407 38.6088 102.652 38.7414C102.652 38.8605 102.652 39.2429 102.652 39.2429H104.014L104.02 38.24L103.942 38.1853C103.921 38.1697 103.527 37.9004 102.749 37.6058C103.434 37.5355 103.795 37.4497 103.814 37.4458L103.952 37.4126V35.3618L103.818 35.3266C103.773 35.3149 102.725 35.0496 100.68 35.0496C98.6344 35.0496 97.5728 35.3149 97.5282 35.3266" fill="#A6A6A6"/>
<path d="M104.903 35.9842C104.561 35.9842 104.284 35.6993 104.284 35.348C104.284 34.9968 104.561 34.7119 104.903 34.7119C105.244 34.7119 105.522 34.9968 105.522 35.348C105.522 35.6993 105.244 35.9842 104.903 35.9842ZM104.903 34.7548C104.585 34.7548 104.327 35.0202 104.327 35.348C104.327 35.6759 104.585 35.9412 104.903 35.9412C105.221 35.9412 105.479 35.6759 105.479 35.348C105.479 35.0202 105.221 34.7548 104.903 34.7548Z" fill="#A6A6A6"/>
<path d="M104.767 35.2778H104.874C104.942 35.2778 104.986 35.2739 105.002 35.268C105.019 35.2622 105.033 35.2524 105.043 35.2368C105.052 35.2232 105.058 35.2036 105.058 35.1822C105.058 35.1568 105.052 35.1373 105.039 35.1236C105.025 35.108 105.008 35.0983 104.984 35.0944C104.973 35.0944 104.938 35.0924 104.88 35.0924H104.767V35.2778ZM104.623 35.6973V34.9695H104.926C105.002 34.9695 105.056 34.9753 105.091 34.989C105.126 35.0027 105.153 35.0261 105.175 35.0592C105.196 35.0924 105.206 35.1314 105.206 35.1744C105.206 35.229 105.19 35.2739 105.159 35.311C105.128 35.3461 105.081 35.3695 105.019 35.3793C105.05 35.3968 105.076 35.4183 105.097 35.4397C105.116 35.4612 105.144 35.5022 105.178 35.5588L105.266 35.7012H105.095L104.992 35.5432C104.955 35.4866 104.93 35.4515 104.916 35.4358C104.903 35.4202 104.889 35.4105 104.874 35.4066C104.858 35.4007 104.835 35.3988 104.802 35.3988H104.773V35.7032H104.629L104.623 35.6973Z" fill="#A6A6A6"/>
<path d="M61.4439 38.8467C61.5157 38.9052 61.6011 38.9345 61.702 38.9345C61.8224 38.9345 61.9407 38.9052 62.0533 38.8486C62.2435 38.753 62.3405 38.5969 62.3405 38.3803V38.0974C62.2978 38.1247 62.2454 38.1481 62.1775 38.1657C62.1115 38.1832 62.0475 38.1969 61.9834 38.2047L61.7758 38.232C61.6516 38.2496 61.5584 38.275 61.4944 38.312C61.3876 38.3725 61.3352 38.472 61.3352 38.6047C61.3352 38.7062 61.3721 38.7862 61.4439 38.8447M62.1659 37.8944C62.2454 37.8847 62.2978 37.8496 62.325 37.793C62.3405 37.7618 62.3483 37.7169 62.3483 37.6583C62.3483 37.5374 62.3075 37.4495 62.2241 37.3949C62.1406 37.3403 62.0223 37.313 61.867 37.313C61.6884 37.313 61.5604 37.3637 61.4866 37.4632C61.4439 37.5178 61.4167 37.5998 61.4051 37.7091H61.0849C61.0907 37.4495 61.1722 37.27 61.3294 37.1686C61.4866 37.0671 61.669 37.0164 61.8748 37.0164C62.1154 37.0164 62.3095 37.0632 62.4609 37.1569C62.6084 37.2505 62.684 37.3969 62.684 37.5959V38.8057C62.684 38.8428 62.6918 38.8721 62.7054 38.8935C62.7209 38.9169 62.75 38.9267 62.7985 38.9267C62.8141 38.9267 62.8315 38.9267 62.849 38.9247C62.8684 38.9228 62.8878 38.9208 62.9111 38.915V39.1745C62.8568 39.1901 62.816 39.1999 62.7888 39.2038C62.7617 39.2077 62.7229 39.2096 62.6743 39.2096C62.556 39.2096 62.4706 39.1667 62.4162 39.0808C62.3871 39.034 62.3677 38.9696 62.3561 38.8857C62.2862 38.9794 62.1853 39.0613 62.0552 39.1316C61.9233 39.1999 61.7797 39.235 61.6225 39.235C61.4323 39.235 61.277 39.1765 61.1567 39.0574C61.0364 38.9384 60.9762 38.7921 60.9762 38.6145C60.9762 38.4194 61.0344 38.2691 61.1528 38.1618C61.2712 38.0545 61.4264 37.9881 61.6186 37.9647L62.1659 37.8944Z" fill="#A6A6A6"/>
<path d="M121.865 37.0398C121.816 37.1744 121.71 37.4808 121.543 37.9608C121.419 38.3218 121.314 38.6165 121.23 38.8428C121.032 39.3775 120.893 39.7053 120.811 39.8224C120.73 39.9394 120.59 39.998 120.392 39.998C120.343 39.998 120.306 39.996 120.279 39.9921C120.254 39.9882 120.221 39.9804 120.184 39.9707V39.6487C120.244 39.6663 120.287 39.676 120.314 39.6799C120.341 39.6838 120.365 39.6858 120.384 39.6858C120.448 39.6858 120.495 39.6741 120.524 39.6526C120.553 39.6311 120.578 39.6038 120.6 39.5726C120.605 39.5628 120.629 39.5082 120.667 39.4126C120.706 39.315 120.735 39.2448 120.753 39.1979L119.996 37.0378H120.386L120.933 38.7472L121.485 37.0378H121.865" fill="#A6A6A6"/>
<path d="M107.649 37.1532C107.793 37.2683 107.88 37.4654 107.909 37.7464H107.575C107.556 37.6176 107.509 37.5102 107.435 37.4244C107.364 37.3385 107.247 37.2956 107.086 37.2956C106.867 37.2956 106.71 37.4049 106.616 37.6254C106.556 37.7678 106.525 37.9434 106.525 38.1522C106.525 38.361 106.568 38.5386 106.655 38.683C106.743 38.8254 106.878 38.8976 107.065 38.8976C107.206 38.8976 107.321 38.8528 107.404 38.763C107.488 38.6732 107.544 38.5523 107.577 38.3961H107.911C107.872 38.6752 107.777 38.8781 107.624 39.0069C107.47 39.1357 107.276 39.2001 107.038 39.2001C106.77 39.2001 106.558 39.1006 106.397 38.8996C106.238 38.6986 106.158 38.4488 106.158 38.1483C106.158 37.7795 106.246 37.4927 106.42 37.2878C106.595 37.0829 106.816 36.9795 107.086 36.9795C107.317 36.9795 107.503 37.0361 107.649 37.1512" fill="#A6A6A6"/>
<path d="M109.522 38.6437C109.605 38.4661 109.648 38.271 109.648 38.0544C109.648 37.8593 109.617 37.6993 109.557 37.5763C109.462 37.3832 109.297 37.2876 109.062 37.2876C108.854 37.2876 108.703 37.3695 108.61 37.5334C108.515 37.6973 108.468 37.8964 108.468 38.1286C108.468 38.3608 108.515 38.5383 108.61 38.6866C108.703 38.8349 108.852 38.9091 109.058 38.9091C109.283 38.9091 109.438 38.8213 109.522 38.6437ZM109.735 37.2505C109.916 37.43 110.007 37.6954 110.007 38.0447C110.007 38.3939 109.927 38.6613 109.768 38.8818C109.609 39.1023 109.363 39.2115 109.027 39.2115C108.747 39.2115 108.526 39.114 108.361 38.9189C108.198 38.7237 108.115 38.4622 108.115 38.1325C108.115 37.7812 108.2 37.5002 108.375 37.2915C108.548 37.0827 108.78 36.9773 109.074 36.9773C109.336 36.9773 109.557 37.0671 109.737 37.2485" fill="#A6A6A6"/>
<path d="M110.428 37.0397H110.768V37.3383C110.849 37.2349 110.923 37.1588 110.989 37.1119C111.102 37.0319 111.232 36.9929 111.375 36.9929C111.538 36.9929 111.668 37.0339 111.769 37.1159C111.825 37.1627 111.876 37.2329 111.921 37.3227C111.996 37.2095 112.087 37.1276 112.19 37.0729C112.293 37.0183 112.41 36.991 112.538 36.991C112.813 36.991 113 37.0924 113.099 37.2973C113.151 37.4066 113.178 37.5549 113.178 37.7403V39.1374H112.821V37.6798C112.821 37.5412 112.788 37.4437 112.72 37.3929C112.652 37.3403 112.569 37.3149 112.472 37.3149C112.338 37.3149 112.221 37.3617 112.122 37.4534C112.025 37.5471 111.977 37.7012 111.977 37.9178V39.1394H111.628V37.7695C111.628 37.6271 111.61 37.5237 111.577 37.4573C111.525 37.3598 111.428 37.311 111.286 37.311C111.156 37.311 111.038 37.3637 110.931 37.4651C110.824 37.5686 110.772 37.7559 110.772 38.0252V39.1394H110.428V37.0397Z" fill="#A6A6A6"/>
<path d="M114.948 38.6945C115.055 38.5559 115.107 38.351 115.107 38.0759C115.107 37.9081 115.084 37.7656 115.037 37.6447C114.948 37.4144 114.785 37.2973 114.546 37.2973C114.308 37.2973 114.145 37.4203 114.055 37.6642C114.009 37.7949 113.986 37.9608 113.986 38.1618C113.986 38.3237 114.009 38.4623 114.055 38.5754C114.145 38.792 114.308 38.9013 114.546 38.9013C114.707 38.9013 114.841 38.833 114.948 38.6945ZM113.656 37.0495H113.991V37.3285C114.061 37.2329 114.137 37.1588 114.218 37.108C114.335 37.03 114.471 36.991 114.628 36.991C114.861 36.991 115.057 37.0827 115.22 37.2641C115.381 37.4456 115.462 37.7071 115.462 38.0447C115.462 38.5032 115.346 38.8291 115.111 39.0242C114.964 39.1491 114.791 39.2116 114.593 39.2116C114.44 39.2116 114.308 39.1764 114.205 39.1081C114.143 39.0691 114.075 39.0008 113.999 38.9072V39.9784H113.656V37.0534V37.0495Z" fill="#A6A6A6"/>
<path d="M116.231 38.8213C116.303 38.8798 116.388 38.9091 116.489 38.9091C116.609 38.9091 116.728 38.8798 116.84 38.8233C117.031 38.7276 117.128 38.5715 117.128 38.3549V38.072C117.085 38.0993 117.032 38.1227 116.965 38.1403C116.899 38.1579 116.835 38.1715 116.77 38.1793L116.563 38.2066C116.439 38.2242 116.345 38.2496 116.281 38.2866C116.175 38.3471 116.122 38.4466 116.122 38.5793C116.122 38.6808 116.159 38.7608 116.231 38.8193M116.955 37.8691C117.034 37.8593 117.087 37.8242 117.114 37.7676C117.13 37.7364 117.137 37.6915 117.137 37.6329C117.137 37.512 117.097 37.4242 117.013 37.3695C116.93 37.3149 116.811 37.2876 116.656 37.2876C116.477 37.2876 116.349 37.3383 116.276 37.4378C116.233 37.4925 116.206 37.5744 116.194 37.6837H115.874C115.88 37.4242 115.961 37.2446 116.118 37.1432C116.276 37.0417 116.458 36.991 116.664 36.991C116.904 36.991 117.098 37.0378 117.25 37.1315C117.397 37.2251 117.473 37.3715 117.473 37.5705V38.7803C117.473 38.8174 117.481 38.8467 117.494 38.8681C117.51 38.8915 117.539 38.9013 117.588 38.9013C117.603 38.9013 117.621 38.9013 117.638 38.8994C117.657 38.8974 117.677 38.8954 117.7 38.8896V39.1491C117.646 39.1647 117.605 39.1745 117.578 39.1784C117.551 39.1823 117.512 39.1842 117.463 39.1842C117.345 39.1842 117.26 39.1413 117.205 39.0555C117.176 39.0086 117.157 38.9442 117.145 38.8603C117.075 38.954 116.974 39.0359 116.844 39.1062C116.712 39.1745 116.569 39.2096 116.411 39.2096C116.221 39.2096 116.066 39.1511 115.946 39.032C115.825 38.913 115.765 38.7667 115.765 38.5891C115.765 38.394 115.823 38.2437 115.942 38.1364C116.06 38.0291 116.215 37.9627 116.408 37.9393L116.955 37.8691Z" fill="#A6A6A6"/>
<path d="M118.034 37.0398H118.36V37.3383C118.457 37.2154 118.558 37.1276 118.667 37.0729C118.775 37.0202 118.896 36.9929 119.028 36.9929C119.319 36.9929 119.515 37.0963 119.616 37.3051C119.672 37.4183 119.699 37.5822 119.699 37.793V39.1394H119.35V37.8164C119.35 37.6876 119.332 37.5842 119.295 37.5061C119.235 37.3754 119.125 37.311 118.964 37.311C118.882 37.311 118.816 37.3188 118.764 37.3364C118.669 37.3656 118.587 37.4222 118.515 37.5081C118.457 37.5764 118.42 37.6486 118.403 37.7227C118.385 37.7969 118.377 37.9022 118.377 38.0388V39.1374H118.034V37.0378V37.0398Z" fill="#A6A6A6"/>
<path d="M15.8888 11.1206H9.44363V5.48715H6.60239V23.4763H9.44363V16.596H15.8888V24.7252L11.526 28.9107H4.72182L0 24.7232V4.23831L4.32203 0.0546875H11.528L15.8908 4.24026V11.1225L15.8888 11.1206Z" fill="#A6A6A6"/>
<path d="M25.0938 28.9087H18.4894V23.3533H25.0938V28.9087Z" fill="#A6A6A6"/>
<path d="M44.2236 28.9088H37.6193V17.197H34.8576V28.9088H28.2552V0.0546875H34.8576V11.7645H37.6193V0.0546875H44.2236V28.9088Z" fill="#A6A6A6"/>
<path d="M53.9079 28.9087H47.3036V23.3533H53.9079V28.9087Z" fill="#A6A6A6"/>
<path d="M66.7304 28.9088H57.1548V0.0546875H66.7304V28.9088Z" fill="#A6A6A6"/>
<path d="M76.7174 28.9087H70.1131V23.3533H76.7174V28.9087Z" fill="#A6A6A6"/>
<path d="M121.892 20.0498H108.598V28.9615H121.892V20.0498Z" fill="#A6A6A6"/>
<path d="M107.488 10.0259H94.1938V18.9375H107.488V10.0259Z" fill="#A6A6A6"/>
<path d="M121.892 10.0259H108.598V18.9375H121.892V10.0259Z" fill="#A6A6A6"/>
<path d="M107.488 20.0498H94.1938V28.9615H107.488V20.0498Z" fill="#A6A6A6"/>
<path d="M93.0856 20.0498H79.7916V28.9615H93.0856V20.0498Z" fill="#A6A6A6"/>
<path d="M93.0856 10.0259H79.7916V18.9375H93.0856V10.0259Z" fill="#A6A6A6"/>
<path d="M93.0856 0H79.7916V8.91165H93.0856V0Z" fill="#A6A6A6"/>
<path d="M107.488 0H94.1938V8.91165H107.488V0Z" fill="#A6A6A6"/>
<path d="M121.892 0H108.598V8.91165H121.892V0Z" fill="#A6A6A6"/>
<path d="M123.965 1.30942C124.048 1.11819 124.163 0.952329 124.306 0.809883C124.45 0.669388 124.619 0.558163 124.811 0.478159C125.003 0.398155 125.207 0.357178 125.422 0.357178C125.638 0.357178 125.841 0.396204 126.032 0.478159C126.222 0.558163 126.389 0.669388 126.532 0.809883C126.676 0.950377 126.788 1.11624 126.872 1.30942C126.955 1.50065 126.998 1.70749 126.998 1.92994C126.998 2.15239 126.955 2.36898 126.872 2.56216C126.788 2.75534 126.674 2.92316 126.532 3.0656C126.391 3.20805 126.224 3.31732 126.032 3.39733C125.841 3.47733 125.638 3.51636 125.422 3.51636C125.207 3.51636 125.003 3.47733 124.811 3.39733C124.619 3.31927 124.45 3.20805 124.306 3.0656C124.163 2.92316 124.048 2.75534 123.965 2.56216C123.881 2.36898 123.839 2.15824 123.839 1.92994C123.839 1.70163 123.881 1.50065 123.965 1.30942ZM124.223 2.4685C124.289 2.63241 124.38 2.77681 124.496 2.89779C124.613 3.01877 124.751 3.11439 124.908 3.18268C125.065 3.25098 125.238 3.2861 125.422 3.2861C125.607 3.2861 125.773 3.25098 125.931 3.18268C126.088 3.11439 126.224 3.01877 126.34 2.89779C126.457 2.77681 126.548 2.63436 126.614 2.4685C126.68 2.30264 126.713 2.12312 126.713 1.92994C126.713 1.73676 126.68 1.56504 126.614 1.40113C126.548 1.23722 126.457 1.09673 126.34 0.975744C126.224 0.856714 126.088 0.7611 125.931 0.692804C125.773 0.624508 125.605 0.589384 125.422 0.589384C125.24 0.589384 125.065 0.624508 124.908 0.692804C124.749 0.7611 124.613 0.856714 124.496 0.975744C124.38 1.09477 124.289 1.23722 124.223 1.40113C124.157 1.56504 124.124 1.74066 124.124 1.92994C124.124 2.11922 124.157 2.30459 124.223 2.4685ZM125.519 1.01282C125.739 1.01282 125.9 1.05575 126.004 1.14356C126.109 1.23137 126.162 1.36406 126.162 1.54163C126.162 1.70749 126.115 1.83042 126.024 1.90652C125.931 1.98457 125.816 2.02945 125.678 2.04311L126.204 2.85876H125.898L125.399 2.06458H125.096V2.85876H124.811V1.01282H125.521H125.519ZM125.395 1.83237C125.459 1.83237 125.521 1.83042 125.577 1.82652C125.634 1.82262 125.686 1.81091 125.731 1.79139C125.775 1.77188 125.81 1.74066 125.838 1.69968C125.865 1.6587 125.878 1.60212 125.878 1.52797C125.878 1.46552 125.867 1.41674 125.841 1.37967C125.818 1.34454 125.787 1.31527 125.748 1.29576C125.709 1.27625 125.667 1.26259 125.618 1.25478C125.57 1.24893 125.521 1.24503 125.473 1.24503H125.094V1.83237H125.393H125.395Z" fill="#A6A6A6"/>
</g>
<defs>
<clipPath id="clip0_1_788">
<rect width="127" height="40" fill="white"/>
</clipPath>
</defs>
</svg>
