<svg width="90" height="40" viewBox="0 0 90 40" fill="none" xmlns="http://www.w3.org/2000/svg">
<g clip-path="url(#clip0_1_828)">
<path fill-rule="evenodd" clip-rule="evenodd" d="M24.777 2.35303L20.3598 21.6202L22.2451 22.9873L23.2559 23.7143L24.8632 24.8579L27.5103 13.1815H24.4451L24.6176 12.4908H30.8162L29.8868 16.1467C31.1603 13.9751 33.0201 12.078 35.4652 12.078C36.8775 12.078 38.427 12.7663 38.427 14.6971C38.427 15.1383 38.3485 15.4805 38.252 15.8285L38.151 16.1815C39.4598 13.8354 41.4912 12.078 43.7299 12.078C45.2103 12.078 46.6907 12.8702 46.6907 14.7672C46.6907 15.329 46.5897 15.9158 46.4745 16.4418L45.2461 21.7677L44.9113 23.3373L44.7819 23.9746L44.7064 24.3702L44.6461 24.7172C44.6118 24.928 44.5912 25.0922 44.5912 25.1819C44.5912 25.7148 44.9098 25.8143 45.1025 25.8334L45.2103 25.8378L45.2824 25.8339L45.3706 25.8212L45.474 25.7971L45.5917 25.7594C46.1324 25.5633 47.0593 24.9158 48.1113 22.9579L48.2328 22.7261L48.8181 23.1133C47.3691 25.9055 45.5554 26.8084 44.3275 27.0016L44.1044 27.03L43.8961 27.0432L43.798 27.0447L43.6373 27.0398L43.4608 27.0231C42.6642 26.9236 41.526 26.4364 41.526 24.7334C41.526 24.3427 41.5873 23.9672 41.6686 23.5766L41.801 22.9751L43.3863 16.1819L43.5427 15.4687C43.6343 15.0241 43.6961 14.6403 43.6961 14.3192C43.6961 13.4236 42.9377 13.1819 42.4902 13.1819C42.1456 13.1819 41.6284 13.3192 40.9054 13.8707C39.0657 15.3334 38.1191 17.7123 37.5304 19.6677L37.3784 20.1898L37.1784 20.9202L37.1181 21.1467L35.8093 26.6643H32.7108L35.0181 16.8702L35.2255 15.93L35.3127 15.502C35.4059 15.0231 35.4662 14.6163 35.4662 14.3192C35.4662 13.4565 34.8113 13.1467 34.2608 13.1467C33.9152 13.1467 33.2961 13.2839 32.4348 13.9751C30.5868 15.4545 29.6701 17.8677 29.1569 19.7212L29.0314 20.1913L28.8735 20.8354L27.527 26.6285C36.9755 32.4815 46.6152 33.9462 56.0186 33.9462C61.7809 33.9462 67.1466 32.9672 71.8079 31.6168L72.7015 31.3506L73.577 31.0766C74.5868 30.752 75.5598 30.4128 76.4907 30.0653L77.2784 29.7663L78.0451 29.4633L78.7907 29.1594L79.5147 28.8535C79.6333 28.803 79.751 28.752 79.8681 28.7011L80.5583 28.3962L81.225 28.0922L81.8691 27.7913L82.1819 27.6422L82.7887 27.3462L83.3716 27.0555L83.9289 26.7712L84.7162 26.3565L85.4436 25.9614L86.1103 25.5878L86.5191 25.3525L87.252 24.9202L87.8667 24.5442L88.3588 24.2329L88.8603 23.9045L89.0696 23.7614L87.8363 29.1388C78.2794 36.5815 49.6961 43.9378 27.8863 28.88C26.0505 27.6128 24.1382 26.1251 22.2221 24.605L20.0691 22.8903L19.1961 26.6991H15.3235L16.8956 20.4089C15.3544 19.2339 13.8583 18.1599 12.449 17.2903L11.9824 17.0084L3.93431 25.9761H7.37745L7.09412 26.6991H0L0.283333 25.9761H2.79706L11.2799 16.6094C9.875 15.8364 8.57353 15.3187 7.42451 15.1717C6.35735 15.0344 5.31422 15.2432 5.05343 15.506C4.94657 15.6285 4.93824 15.7251 5.00441 15.9373L5.03775 16.0364C5.33186 16.8354 5.26667 17.4236 4.80147 17.9599C4.26373 18.5795 3.30784 18.6344 2.63137 18.0447C1.95539 17.4574 2.0701 16.5393 2.57451 15.6888C3.11863 14.7687 4.61176 13.6192 8.02696 14.281C9.19608 14.5074 10.3554 14.9623 11.6265 15.6471L11.976 15.8398L24.1907 2.35303H24.777ZM86.9069 31.027C87.0882 31.027 87.2564 31.0726 87.4118 31.1623C87.5686 31.252 87.6907 31.3761 87.7819 31.5315C87.8716 31.6888 87.9167 31.8565 87.9167 32.0364C87.9167 32.2172 87.8716 32.3844 87.7819 32.5418C87.6907 32.6976 87.5686 32.8207 87.4118 32.9114C87.2564 33.0011 87.0882 33.0452 86.9069 33.0452C86.7279 33.0452 86.5598 33.0011 86.4044 32.9114C86.249 32.8207 86.125 32.6976 86.0368 32.5418C85.9451 32.3849 85.8995 32.2172 85.8995 32.0369C85.8995 31.8565 85.9451 31.6888 86.0368 31.5319C86.125 31.3761 86.249 31.252 86.4044 31.1623C86.5598 31.0726 86.7279 31.027 86.9069 31.027ZM86.9069 31.2221C86.6824 31.2221 86.4922 31.3016 86.3324 31.4604C86.1745 31.6197 86.0936 31.8119 86.0936 32.0369C86.0936 32.2614 86.1745 32.453 86.3324 32.6128C86.4922 32.7717 86.6824 32.8516 86.9069 32.8516C87.1324 32.8516 87.3235 32.7717 87.4824 32.6128C87.6422 32.453 87.7206 32.2614 87.7206 32.0369C87.7206 31.8119 87.6422 31.6197 87.4824 31.4604C87.3235 31.3016 87.1324 31.2221 86.9069 31.2221ZM86.9328 31.4967C87.0696 31.4967 87.1691 31.5241 87.2289 31.58C87.2907 31.6344 87.3211 31.7079 87.3211 31.8006C87.3211 31.8731 87.2976 31.9364 87.2515 31.9883C87.2049 32.0422 87.1319 32.08 87.0304 32.1045C87.0721 32.1192 87.102 32.1373 87.1216 32.1545C87.1397 32.1707 87.1588 32.1927 87.1779 32.2197L87.223 32.2913L87.3829 32.5766H87.0662L86.973 32.3986L86.9044 32.2761C86.8848 32.2442 86.8696 32.2217 86.8578 32.2079C86.8221 32.1672 86.7868 32.1481 86.752 32.1481L86.7186 32.1516V32.5766H86.4505V31.4971L86.9328 31.4967ZM86.8466 31.6849H86.7186V31.9545H86.8348C86.9123 31.9545 86.9672 31.9413 86.9985 31.9168C87.0304 31.8922 87.0466 31.8594 87.0466 31.8202C87.0466 31.781 87.0309 31.7481 87.001 31.7226C86.9809 31.7055 86.951 31.6947 86.9123 31.6888L86.8466 31.6849ZM57.4054 12.078C58.4382 12.078 59.3005 12.4569 59.8853 12.9741C60.3348 13.3692 60.5559 13.7408 60.6971 14.052L60.7804 14.2501L61.1936 12.4908H64.327L62.025 22.2584L61.8956 22.8501L61.8216 23.2138L61.7005 23.8584L61.6142 24.3761L61.5456 24.8712L61.5378 24.9751C61.5378 25.4241 61.676 25.8378 62.2613 25.8378C62.6044 25.8378 63.0868 25.5952 63.6373 25.0447C64.1799 24.4766 64.5137 24.0069 64.9686 23.2025L65.2304 22.728L65.7221 23.1143L65.5422 23.4427C65.4471 23.6094 65.3451 23.781 65.2368 23.953L65.0113 24.2991C64.0726 25.6834 62.7221 27.0442 61.1593 27.0442C59.9191 27.0442 58.8863 26.1819 58.749 24.3207L58.5417 24.6403L58.4015 24.8413C57.7667 25.7226 56.4799 27.1128 54.3402 27.1128C52.102 27.1128 49.451 25.2516 49.451 21.4579C49.451 16.181 53.9608 12.078 57.4054 12.078ZM76.623 12.078C77.6569 12.078 78.3794 12.7329 78.3794 13.5604C78.3794 14.2163 77.8632 15.0766 76.899 15.0766C76.1618 15.0766 75.7461 14.6339 75.5299 14.3172L75.4441 14.1824L75.3833 14.0775L75.2892 13.931C75.201 13.7952 75.1162 13.6981 74.9363 13.6981C74.6382 13.6981 74.2627 14.0815 73.9338 14.4898L73.7427 14.7349L73.4897 15.0766L73.202 15.4834L73.0245 15.7481C72.9956 15.7918 72.9677 15.8354 72.9397 15.879L72.777 16.1422L72.623 16.4084C72.573 16.4981 72.524 16.5888 72.476 16.6815L72.3348 16.9648C72.2657 17.1099 72.198 17.2599 72.1319 17.4172L72.0005 17.7413L71.8706 18.0878L71.7412 18.4604L71.6113 18.8623L71.5456 19.0751L71.4123 19.527L71.2755 20.0172L71.0608 20.83L70.8304 21.7476L70.6667 22.4231L69.6667 26.6996H66.5676L69.7015 13.1819H66.5676L66.7402 12.4908H72.8358L71.9745 16.3192L72.277 15.7614L72.4387 15.478L72.6235 15.1707C73.4382 13.8496 74.826 12.078 76.623 12.078ZM87.95 12.078C88.9828 12.078 89.7059 12.7334 89.7059 13.5599C89.7059 14.2158 89.1897 15.0775 88.225 15.0775C87.4878 15.0775 87.073 14.6339 86.8574 14.3177L86.7711 14.1824L86.7108 14.078L86.6162 13.9315C86.527 13.7957 86.4431 13.6986 86.2627 13.6986C85.9343 13.6986 85.5127 14.1618 85.1623 14.6128L84.8941 14.9697L84.6201 15.3506L84.4373 15.6168L84.35 15.7481L84.1833 16.0104L84.025 16.2746L83.8745 16.5442L83.7309 16.8217L83.5922 17.1114L83.5245 17.2623L83.3922 17.5766L83.2613 17.9114L83.1319 18.2707L83.0025 18.6574L82.8721 19.0751L82.7387 19.527L82.6015 20.0172L82.3868 20.83L82.1564 21.7476L81.9927 22.4236L80.9931 26.6991H77.8931L81.0275 13.1815H78.8123L78.9848 12.4903H84.1628L83.3015 16.3192L83.5319 15.8918L83.6819 15.6231L83.8549 15.327C84.6539 13.9937 86.0804 12.078 87.95 12.078ZM57.9221 12.8364C56.8892 12.8364 55.5456 13.6628 54.5476 15.6633C54.2363 16.2864 53.8613 17.3035 53.5206 18.428L53.3392 19.0506C52.8961 20.6241 52.55 22.3006 52.55 23.3535C52.55 24.9751 53.2039 26.3888 54.8927 26.3888C56.6912 26.3888 57.8015 24.8687 58.5025 23.2285L58.652 22.8628L58.7882 22.4967L58.852 22.3143L58.9701 21.9535L59.127 21.4285L59.2613 20.9334L59.4093 20.3388L59.4711 20.077L59.5848 19.629L59.7123 19.1045L59.8436 18.5295L59.9716 17.931C60.1358 17.129 60.2647 16.3359 60.2647 15.8359C60.2647 13.9741 59.1961 12.8359 57.9216 12.8359L57.9221 12.8364ZM19.9672 8.11087L12.6691 16.2432C13.2191 16.5746 13.7941 16.9447 14.402 17.354L15.1471 17.8638C15.2745 17.9516 15.4029 18.0408 15.5333 18.1319L16.3324 18.6971L17.1716 19.2991L19.9672 8.11087Z" fill="#A6A6A6"/>
</g>
<defs>
<clipPath id="clip0_1_828">
<rect width="90" height="40" fill="white"/>
</clipPath>
</defs>
</svg>
