<svg width="179" height="40" viewBox="0 0 179 40" fill="none" xmlns="http://www.w3.org/2000/svg">
<path d="M38.1038 0.0124355C38.1038 3.86178 38.3124 7.32753 38.0432 10.7529C37.7875 14.0571 34.9813 17.0586 31.6434 17.1258C21.2461 17.3412 10.8489 17.2066 0.242975 17.2066C0.242975 13.2631 -0.0733172 9.46755 0.337189 5.7528C0.693859 2.56296 3.95772 0.0864596 7.34945 0.0528115C17.4304 -0.0414031 27.5181 0.0191639 38.0971 0.0191639L38.1038 0.0124355Z" fill="#A6A6A6"/>
<path d="M38.1645 37.3349C27.498 37.3349 17.417 37.409 7.34281 37.2946C3.48674 37.2542 0.438222 34.4345 0.135389 30.6457C-0.133796 27.328 0.081551 23.9632 0.081551 20.3427C1.19194 20.2417 2.14754 20.0802 3.10988 20.0802C11.8449 20.06 20.5867 20.0398 29.3217 20.0802C35.264 20.1071 38.1308 23.0412 38.1645 28.9902C38.1779 31.6484 38.1645 34.3066 38.1645 37.3349Z" fill="#A6A6A6"/>
<path d="M64.4098 21.6347H75.0426C75.0426 24.2054 75.2445 26.7492 74.9887 29.2459C74.733 31.7022 72.916 32.9741 70.5539 33.0347C65.8566 33.1558 61.1459 33.2433 56.4554 33.0145C52.8348 32.8395 51.2938 31.0562 51.2399 27.3347C51.1457 20.955 51.1457 14.5686 51.2332 8.18895C51.2803 4.91836 53.1444 2.91966 56.4285 2.7918C60.7892 2.61683 65.1635 2.62356 69.5243 2.7918C72.9026 2.92639 74.908 5.00585 75.1166 8.33028C75.2579 10.5443 75.1435 12.7786 75.1435 15.5108C72.021 15.5108 69.1407 15.6454 66.2873 15.4098C65.6278 15.356 64.6992 14.0841 64.5511 13.2564C64.255 11.6278 64.5376 9.89828 64.329 8.24279C64.2617 7.67751 63.4609 7.19297 62.9966 6.67479C62.5591 7.21316 61.7516 7.7448 61.7449 8.2899C61.6574 14.784 61.6574 21.2781 61.7449 27.7721C61.7516 28.3576 62.4918 28.9296 62.8956 29.5084C63.4003 28.9162 64.2819 28.3576 64.3425 27.7183C64.5309 25.7533 64.4098 23.7613 64.4098 21.6347Z" fill="#A6A6A6"/>
<path d="M116.914 32.476V39.7776H109.384V11.8093C112.042 12.24 114.498 12.7178 116.982 13.0072C117.742 13.0947 118.583 12.7447 119.35 12.4957C123.772 11.0422 126.975 13.2562 127.042 17.8727C127.083 20.7866 127.063 23.7006 127.042 26.6145C127.015 31.8501 124.909 33.6873 119.721 33.0076C118.953 32.9067 118.2 32.725 116.914 32.476ZM119.451 23.1151C119.451 23.1151 119.472 23.1151 119.485 23.1151C119.485 21.1029 119.559 19.0908 119.438 17.0853C119.411 16.5874 118.751 16.1297 118.381 15.6519C117.89 16.1297 116.982 16.5941 116.968 17.0853C116.854 20.9885 116.867 24.9052 116.968 28.8151C116.982 29.2592 117.762 29.6899 118.193 30.1206C118.617 29.6832 119.364 29.2659 119.398 28.8016C119.539 26.9106 119.458 25.0128 119.458 23.1084L119.451 23.1151Z" fill="#A6A6A6"/>
<path d="M88.5087 22.2806C88.5087 15.5151 91.9251 12.1324 98.7579 12.1324C99.9895 12.1324 101.221 12.1257 102.453 12.1324C105.454 12.166 107.042 13.7879 107.13 16.6883C107.244 20.605 107.244 24.5216 107.13 28.4382C107.042 31.5473 105.232 33.0817 102.156 33.1153C99.4713 33.1422 96.7794 33.1624 94.0943 33.1153C90.0902 33.0413 88.6164 31.5877 88.5087 27.6442C88.4616 25.8541 88.502 24.064 88.502 22.2739L88.5087 22.2806ZM99.1146 22.6912C99.1146 22.6912 99.1213 22.6912 99.1281 22.6912C99.1281 20.7934 99.2559 18.8889 99.0608 17.0114C98.9935 16.3653 98.1388 15.7933 97.6408 15.1944C97.2505 15.7933 96.5304 16.3788 96.517 16.9912C96.4228 20.8943 96.4295 24.7975 96.5439 28.694C96.5574 29.2391 97.338 29.7573 97.762 30.2889C98.2128 29.764 99.0137 29.2727 99.0608 28.7142C99.2223 26.7222 99.1213 24.7033 99.1213 22.6979L99.1146 22.6912Z" fill="#A6A6A6"/>
<path d="M147.756 33.129C142.992 33.129 138.799 33.1492 134.6 33.1222C132.137 33.1021 130.118 32.2003 129.492 29.6363C128.819 26.8704 129.008 24.1786 131.78 22.5164C133.698 21.3723 135.778 20.4975 137.736 19.414C138.382 19.0573 139.284 18.4921 139.344 17.9335C139.439 17.0788 138.914 16.1569 138.644 15.2686C138.066 15.8608 137.393 16.3857 136.955 17.0654C136.686 17.4826 136.787 18.1354 136.7 18.8958H129.741C128.873 14.6494 130.522 12.321 134.634 12.1595C137.319 12.0518 140.017 12.0585 142.709 12.1729C145.536 12.2941 147.561 13.8217 147.689 16.6616C147.918 22.0049 147.756 27.3617 147.756 33.129ZM139.486 25.4707C139.472 25.3765 139.452 25.2822 139.425 25.188C139.331 24.8785 139.19 24.5824 139.055 24.2863C138.718 23.5191 138.53 22.6913 138.079 21.978C137.689 23.1355 137.204 24.2728 136.942 25.4572C136.78 26.1975 136.794 27.0521 137.009 27.7722C137.164 28.2769 137.79 28.9768 138.2 28.9701C138.631 28.9701 139.284 28.2971 139.432 27.7924C139.526 27.4626 139.519 27.1194 139.526 26.7829C139.526 26.5541 139.526 26.3253 139.526 26.0965C139.526 25.8812 139.519 25.6793 139.486 25.4707Z" fill="#A6A6A6"/>
<path d="M156.72 36.2983C153.745 27.9805 151.02 20.3491 148.079 12.1255C150.098 12.1255 151.72 12.2399 153.315 12.0986C155.186 11.9303 156.148 12.5966 156.7 14.4405C157.521 17.1794 158.631 19.8242 159.923 23.3303C160.939 20.4837 161.686 18.4513 162.4 16.4055C163.512 13.2247 165.928 11.9326 169.648 12.5293C167.447 18.882 165.26 25.181 163.073 31.4799C162.925 31.9038 162.763 32.3211 162.615 32.7383C160.112 39.7775 158.537 40.7398 150.993 39.5891C150.327 39.4881 149.762 38.6806 149.149 38.2028C149.802 37.6577 150.394 36.7761 151.128 36.6415C152.729 36.3387 154.405 36.4127 156.72 36.305V36.2983Z" fill="#A6A6A6"/>
<path d="M77.8424 2.86572H86.2342V32.826H77.8424V2.86572Z" fill="#A6A6A6"/>
<path d="M174.567 18.3975C173.733 16.9305 172.299 15.4769 172.272 13.9963C172.259 13.0138 174.547 10.9949 175.287 11.2103C176.7 11.6208 178.531 13.2023 178.699 14.4876C178.854 15.6653 177.03 17.092 176.081 18.411C175.577 18.411 175.072 18.3975 174.567 18.3908V18.3975Z" fill="white"/>
</svg>
