<svg width="127" height="40" viewBox="0 0 127 40" fill="none" xmlns="http://www.w3.org/2000/svg">
<g clip-path="url(#clip0_1_730)">
<path fill-rule="evenodd" clip-rule="evenodd" d="M28.4671 23.5025L31.5495 17.8825L34.6903 23.5025H28.4671ZM25.0215 29.9673L26.5951 27.3089H36.4439L38.0135 29.9673H43.4215L34.7519 14.1057H28.4671L19.6447 29.9681L25.0215 29.9673Z" fill="#A6A6A6"/>
<path fill-rule="evenodd" clip-rule="evenodd" d="M28.4671 23.5026L31.5495 17.8826L34.6903 23.5026H28.4671ZM34.7519 14.105H28.4671L19.6447 29.9682H25.0223L26.5959 27.3098H36.4447L38.0143 29.9682H43.4223L34.7519 14.105Z" fill="#A6A6A6"/>
<path fill-rule="evenodd" clip-rule="evenodd" d="M49.8551 29.9392V24.2592L58.7991 14.1072H52.9695L47.4079 20.3904L42.0919 14.1072H35.9871L44.9311 24.2584V29.9384L49.8551 29.9392Z" fill="#A6A6A6"/>
<path fill-rule="evenodd" clip-rule="evenodd" d="M80.3384 29.9392V14.1072H75.4136V25.7112L65.8048 14.1072H58.4912V29.9392H63.416V18.3976L73.1144 29.9392H80.3384Z" fill="#A6A6A6"/>
<path fill-rule="evenodd" clip-rule="evenodd" d="M88.5288 29.9999H96.4128L97.3808 29.9695L98.2848 29.9087L99.1032 29.8215L99.828 29.6655L100.521 29.4887L101.097 29.2119L101.639 28.8799L102.06 28.4871L102.426 28.0695L102.728 27.5807L102.968 27.0087L103.151 26.3759L103.273 25.6791L103.334 24.9271L103.361 24.0799V19.6367L103.334 18.7911L103.273 18.0351L103.151 17.3407L102.968 16.7055L102.728 16.1623L102.426 15.6783L102.06 15.2271L101.639 14.8639L101.127 14.5615L100.522 14.2895L99.856 14.1087L99.132 13.9575L98.32 13.8671L97.4128 13.8055L96.4136 13.7751H88.4992L87.5008 13.8055L86.6256 13.8671L85.8096 13.9575L85.0552 14.1087L84.388 14.2895L83.8152 14.5615L83.2736 14.8639L82.8192 15.2575L82.424 15.7103L82.1232 16.2231L81.912 16.8279L81.7304 17.4623L81.6088 18.1863L81.548 18.9751L81.5176 19.8551V24.1751L81.548 24.9911L81.6088 25.7471L81.7304 26.4095L81.912 27.0495L82.152 27.5911L82.4544 28.0799L82.8184 28.4975L83.2728 28.8903L83.8144 29.2223L84.4544 29.4991L85.1176 29.6759L85.8752 29.8319L86.6872 29.9191L87.5672 29.9799L88.5288 29.9999ZM94.6 26.0111H90.3424L89.8288 25.9831L89.3424 25.9527L88.8912 25.8919L88.4992 25.8303L88.1368 25.7399L87.8336 25.6183L87.5616 25.4687L87.2912 25.2863L87.0792 25.0751L86.9296 24.8655L86.7776 24.5623L86.656 24.2599L86.5976 23.8967L86.5336 23.5047V20.3351L86.5976 19.9119L86.656 19.5471L86.7776 19.2151L86.896 18.9135L87.08 18.6735L87.2608 18.4623L87.5008 18.2807L87.772 18.0999L88.1064 17.9783L88.468 17.8871L88.8608 17.8263L89.2832 17.7663L89.7632 17.7367L90.3112 17.7063H94.5992L95.1144 17.7367L95.5944 17.7663L96.0176 17.8263L96.4096 17.8871L96.776 17.9783L97.1048 18.1295L97.3784 18.2807L97.6184 18.4311L97.8288 18.6423L98.008 18.9151L98.1328 19.1879L98.2544 19.5199L98.316 19.8831L98.3736 20.2743V23.4487L98.316 23.8703L98.2544 24.2335L98.1328 24.5351L98.008 24.8375L97.8288 25.0775L97.6184 25.2887L97.3784 25.4711L97.1048 25.6207L96.776 25.7423L96.4096 25.8327L96.0176 25.8943L95.5944 25.9551L95.1144 25.9855L94.6 26.0111Z" fill="#A6A6A6"/>
<path fill-rule="evenodd" clip-rule="evenodd" d="M108.769 29.9681V18.0345H116.631L117.085 18.0649L117.444 18.1561L117.748 18.2753L117.988 18.4881L118.17 18.7281L118.325 19.0329L118.379 19.3937L118.413 19.8145L118.379 20.3289L118.325 20.8145L118.2 21.1761L118.021 21.4481L117.781 21.6593L117.474 21.8105L117.089 21.9001L116.635 21.9313H115.332L114.49 21.9617H110.583V25.8881H116.685L117.171 25.9489L117.534 26.0417L117.835 26.1921L118.075 26.4025L118.225 26.7057L118.319 27.0681L118.347 27.5185V29.9681H123.302V26.7049L123.271 26.1305L123.153 25.5857L122.942 25.1353L122.667 24.7425L122.307 24.3769L121.853 24.1041L121.339 23.8641L120.736 23.6833L121.428 23.4713L122.002 23.1681L122.488 22.7761L122.85 22.2921L123.12 21.7185L123.303 21.0241L123.395 20.1777L123.424 19.2713L123.395 18.5449L123.333 17.8809L123.241 17.2769L123.092 16.7329L122.882 16.2489L122.61 15.8265L122.311 15.4657L121.946 15.1617L121.526 14.8921L121.039 14.6521L120.525 14.4689L119.919 14.3457L119.226 14.2249L118.501 14.1641L117.685 14.1057H103.814V29.9681H108.769Z" fill="#A6A6A6"/>
<path fill-rule="evenodd" clip-rule="evenodd" d="M4.9568 29.9681V18.0345H12.8128L13.2656 18.0649L13.6272 18.1561L13.9296 18.2753L14.1696 18.4881L14.3504 18.7281L14.5024 19.0329L14.56 19.3937L14.5936 19.8145L14.56 20.3289L14.5024 20.8145L14.38 21.1761L14.2296 21.4481L13.9896 21.6593L13.6848 21.8105L13.296 21.9001L12.816 21.9313H11.516L10.6696 21.9617H6.7728V25.8881H12.8776L13.3576 25.9489L13.7216 26.0417L14.0232 26.1921L14.2632 26.4025L14.4152 26.7057L14.5072 27.0681L14.5344 27.5185V29.9681H19.4944V26.7049L19.464 26.1305L19.3424 25.5857L19.132 25.1353L18.8584 24.7425L18.496 24.3769L18.0368 24.1057L17.5248 23.8657L16.9192 23.6849L17.6136 23.4729L18.1888 23.1697L18.6688 22.7777L19.0312 22.2937L19.3016 21.7201L19.4848 21.0257L19.576 20.1793L19.6032 19.2729L19.576 18.5465L19.5144 17.8825L19.4232 17.2785L19.272 16.7345L19.0616 16.2505L18.7872 15.8281L18.4856 15.4657L18.124 15.1617L17.7008 14.8921L17.2208 14.6521L16.7064 14.4689L16.1048 14.3457L15.4112 14.2249L14.684 14.1641L13.8688 14.1057H0V29.9681H4.9568Z" fill="#A6A6A6"/>
<path d="M59.9596 6.04744C81.9494 6.04061 101.955 10.1415 116.876 12.8663C103.191 8.13075 82.773 5.12627 59.9616 5.13224C37.1501 5.1382 16.7329 8.15858 3.05293 12.9032C17.9717 10.1687 37.9722 6.05508 59.9596 6.04744Z" fill="#A6A6A6"/>
<path d="M40.9553 12.2671L35.1219 8.52359L35.1216 -0.000334137L40.9549 4.19942L40.9553 12.2671Z" fill="#A6A6A6"/>
<path d="M124.974 28.8856V28.4656H125.25C125.393 28.4656 125.544 28.496 125.544 28.6648C125.544 28.8736 125.389 28.8856 125.217 28.8856H124.974ZM124.974 29.0576H125.206L125.565 29.6432H125.793L125.408 29.0488C125.456 29.0487 125.503 29.0387 125.547 29.0196C125.591 29.0005 125.631 28.9726 125.664 28.9376C125.697 28.9027 125.722 28.8614 125.739 28.8162C125.755 28.7711 125.762 28.7231 125.759 28.6752C125.759 28.4088 125.599 28.2912 125.283 28.2912H124.766V29.6432H124.974L124.974 29.0576ZM125.219 30.1352C125.374 30.137 125.527 30.108 125.67 30.0499C125.813 29.9918 125.944 29.9058 126.053 29.7969C126.163 29.6879 126.25 29.5582 126.309 29.4154C126.368 29.2725 126.398 29.1193 126.397 28.9648C126.397 28.8106 126.366 28.6578 126.307 28.5155C126.247 28.3732 126.16 28.2442 126.05 28.1361C125.94 28.0279 125.81 27.9428 125.667 27.8856C125.523 27.8284 125.37 27.8004 125.216 27.8032C125.061 27.8002 124.908 27.828 124.764 27.885C124.62 27.942 124.489 28.027 124.378 28.1351C124.267 28.2432 124.179 28.3722 124.119 28.5146C124.059 28.6571 124.027 28.8101 124.026 28.9648C124.026 29.1204 124.057 29.2744 124.118 29.4179C124.178 29.5614 124.266 29.6914 124.377 29.8004C124.488 29.9094 124.62 29.9951 124.764 30.0526C124.909 30.1101 125.064 30.1382 125.219 30.1352ZM124.259 28.964C124.256 28.8366 124.278 28.7098 124.325 28.5914C124.372 28.4729 124.443 28.3651 124.532 28.2746C124.622 28.1841 124.729 28.1126 124.847 28.0646C124.965 28.0166 125.092 27.993 125.219 27.9952C125.346 27.9945 125.471 28.0193 125.588 28.068C125.705 28.1168 125.811 28.1885 125.899 28.2789C125.988 28.3694 126.057 28.4767 126.103 28.5946C126.149 28.7124 126.171 28.8383 126.168 28.9648C126.172 29.0918 126.151 29.2184 126.105 29.3369C126.059 29.4554 125.989 29.5634 125.901 29.6546C125.812 29.7458 125.706 29.8182 125.589 29.8675C125.472 29.9168 125.346 29.942 125.219 29.9416C125.091 29.9435 124.964 29.9194 124.845 29.8707C124.727 29.822 124.62 29.7498 124.53 29.6584C124.44 29.567 124.37 29.4583 124.323 29.339C124.277 29.2196 124.255 29.092 124.259 28.964Z" fill="#A6A6A6"/>
<path d="M61.0927 33.1762C61.7812 33.1657 62.467 33.264 63.1247 33.4674L62.8231 34.7218C62.313 34.5022 61.7641 34.3867 61.2087 34.3818C60.1719 34.3818 59.6535 35.0882 59.6535 36.501C59.6267 37.061 59.749 37.6181 60.0079 38.1154C60.0959 38.2953 60.2324 38.447 60.402 38.5534C60.5717 38.6599 60.7677 38.7168 60.9679 38.7178C61.2623 38.7205 61.5528 38.6504 61.8135 38.5138V37.433C61.823 37.1079 61.8037 36.7826 61.7559 36.461H63.4959C63.4471 36.7825 63.427 37.1078 63.4359 37.433V39.0474C63.0293 39.3415 62.5805 39.5724 62.1047 39.7322C61.653 39.899 61.1766 39.9893 60.6951 39.9994C60.3025 40.018 59.9109 39.9456 59.5509 39.7878C59.1909 39.6301 58.8723 39.3911 58.6199 39.0898C58.0814 38.3704 57.8144 37.4837 57.8663 36.5866C57.8023 35.665 58.1006 34.7548 58.6975 34.0498C59.0137 33.7447 59.3902 33.5092 59.8029 33.3585C60.2155 33.2077 60.6552 33.1451 61.0935 33.1746" fill="#A6A6A6"/>
<path d="M65.9856 37.1904H67.2104L66.6184 35.0816L65.9856 37.1904ZM65.5856 34.216C65.728 33.8427 65.8253 33.5576 65.8776 33.3608H67.424L69.2512 38.2984C69.4329 38.825 69.6439 39.341 69.8832 39.844H67.9096C67.896 39.7592 67.852 39.556 67.7728 39.2312L67.6928 38.9216L67.5368 38.3856L67.4496 38.3768C67.3592 38.3768 67.2096 38.3768 66.9928 38.3672H66.5456C66.0728 38.3672 65.8 38.3672 65.7288 38.3768L65.6216 38.3856L65.3688 39.2416L65.2808 39.504C65.2752 39.5496 65.2584 39.628 65.2328 39.7376L65.2048 39.844H63.3768C63.5486 39.4997 63.7011 39.1461 63.8336 38.7848L64.0088 38.3048L65.5856 34.216Z" fill="#A6A6A6"/>
<path d="M71.84 34.5175V36.0143H72.1024C72.7189 36.0143 73.0269 35.7602 73.0264 35.2519C73.0264 34.7623 72.7378 34.5175 72.1608 34.5175H71.84ZM70.16 34.3327C70.1671 34.0079 70.1476 33.6831 70.1016 33.3615H72.4664C72.9736 33.3269 73.4807 33.4306 73.9336 33.6615C74.1668 33.8038 74.3575 34.0062 74.4858 34.2474C74.6141 34.4886 74.6754 34.7598 74.6632 35.0327C74.6632 35.7794 74.2157 36.2978 73.3208 36.5879C73.5665 36.645 73.7941 36.7628 73.9826 36.9305C74.1712 37.0982 74.3146 37.3104 74.4 37.5479L74.8376 38.8119C74.8376 38.8247 74.8776 38.9455 74.9536 39.1719C75.0217 39.4025 75.1094 39.6268 75.216 39.8423H73.3688C73.3136 39.5761 73.2426 39.3135 73.156 39.0559L72.8544 38.0959C72.7932 37.8337 72.6848 37.5848 72.5344 37.3615C72.4722 37.3035 72.3986 37.2593 72.3182 37.2317C72.2379 37.2042 72.1526 37.1939 72.068 37.2015H71.844V38.8711C71.8344 39.1962 71.8537 39.5214 71.9016 39.8431H70.1032C70.1488 39.5212 70.1683 39.1961 70.1616 38.8711L70.16 34.3327Z" fill="#A6A6A6"/>
<path d="M77.7473 37.1904H78.9721L78.3793 35.0816L77.7473 37.1904ZM77.3473 34.216C77.4897 33.8427 77.587 33.5576 77.6393 33.3608H79.1849L81.0129 38.2984C81.1945 38.825 81.4055 39.341 81.6449 39.844H79.6713C79.6577 39.7592 79.6129 39.556 79.5345 39.2312L79.4545 38.9216L79.2985 38.3856L79.2121 38.3768C79.1209 38.3768 78.9721 38.3768 78.7553 38.3672H78.3081C77.8353 38.3672 77.5625 38.3672 77.4921 38.3768L77.3849 38.3856L77.1321 39.2416L77.0449 39.504C77.0385 39.5499 77.0222 39.6278 76.9961 39.7376L76.9673 39.844H75.1393C75.3113 39.4998 75.4638 39.1462 75.5961 38.7848L75.7713 38.3048L77.3473 34.216Z" fill="#A6A6A6"/>
<path d="M84.5304 33.1761C85.2186 33.1656 85.9041 33.2639 86.5616 33.4673L86.26 34.7217C85.7501 34.5023 85.2015 34.3867 84.6464 34.3817C83.6101 34.3817 83.0917 35.0881 83.0912 36.5009C83.0646 37.0609 83.1869 37.618 83.4456 38.1153C83.5338 38.2951 83.6703 38.4466 83.8399 38.5531C84.0095 38.6595 84.2054 38.7165 84.4056 38.7177C84.6999 38.7203 84.9904 38.6503 85.2512 38.5137V37.4329C85.2599 37.1079 85.2406 36.7827 85.1936 36.4609H86.9328C86.8844 36.7826 86.8643 37.1078 86.8728 37.4329V39.0473C86.4663 39.3416 86.0174 39.5725 85.5416 39.7321C85.0899 39.8991 84.6135 39.9894 84.132 39.9993C83.7394 40.0179 83.3478 39.9454 82.9878 39.7876C82.6278 39.6299 82.3092 39.391 82.0568 39.0897C81.5183 38.3703 81.2516 37.4836 81.304 36.5865C81.2402 35.665 81.5384 34.7548 82.1352 34.0497C82.4518 33.7442 82.829 33.5085 83.2424 33.3577C83.6558 33.207 84.0962 33.1446 84.5352 33.1745" fill="#A6A6A6"/>
<path d="M87.6687 34.3432C87.6761 34.0148 87.6568 33.6862 87.6111 33.3608H91.7039V34.6056C91.7367 34.6056 91.7087 34.6056 91.6239 34.6L91.3039 34.5856L90.7303 34.5656H89.3807V35.8688H91.1591C91.2471 35.8704 91.3351 35.8656 91.4223 35.8544L91.5191 35.8408V37.1136C91.2671 37.088 90.9967 37.0752 90.7119 37.0752H89.3807V38.5912H91.4319C91.5684 38.5911 91.7048 38.5815 91.8399 38.5624V39.8424H87.6111C87.6562 39.5202 87.6754 39.1949 87.6687 38.8696V34.3432Z" fill="#A6A6A6"/>
<path d="M96.4665 34.5273V38.5897H96.9817C97.3204 38.6079 97.6597 38.5637 97.9825 38.4593C98.2022 38.3604 98.376 38.1816 98.4689 37.9593C98.6587 37.5211 98.7484 37.0461 98.7313 36.5689C98.7313 35.5385 98.4721 34.9129 97.9537 34.6921C97.5787 34.5642 97.183 34.5083 96.7873 34.5273H96.4665ZM94.7553 34.3329C94.7622 34.0079 94.743 33.6828 94.6977 33.3609H97.7217C98.248 33.3272 98.7736 33.4379 99.2417 33.6809C99.6875 33.998 100.041 34.428 100.266 34.9268C100.491 35.4256 100.579 35.9752 100.522 36.5193C100.536 37.193 100.381 37.8594 100.07 38.4577C99.8182 38.9732 99.3872 39.3795 98.8577 39.6009C98.2972 39.7854 97.7079 39.8667 97.1185 39.8409H94.6977C94.7422 39.5229 94.7614 39.2019 94.7553 38.8809V34.3329Z" fill="#A6A6A6"/>
<path d="M103.874 34.3807C103.676 34.3806 103.483 34.4369 103.317 34.5429C103.151 34.649 103.019 34.8003 102.936 34.9791C102.685 35.5021 102.569 36.0798 102.6 36.6591C102.6 38.0842 102.986 38.7973 103.757 38.7983C104.592 38.7983 105.011 38.0237 105.011 36.4743C105.011 35.0807 104.632 34.3839 103.874 34.3839M101.765 39.3479C101.427 38.9861 101.168 38.5587 101.003 38.0922C100.837 37.6258 100.77 37.1303 100.805 36.6367C100.752 35.7131 101.057 34.8046 101.655 34.0991C101.954 33.787 102.317 33.543 102.719 33.3836C103.121 33.2243 103.552 33.1535 103.984 33.1759C104.374 33.1553 104.764 33.2233 105.124 33.3749C105.485 33.5265 105.806 33.7577 106.064 34.0511C106.601 34.7503 106.867 35.6205 106.813 36.5007C106.867 37.4307 106.568 38.3469 105.978 39.0671C105.685 39.3818 105.327 39.6285 104.929 39.7898C104.531 39.9511 104.102 40.0231 103.673 40.0007C103.328 40.023 102.982 39.9768 102.655 39.8649C102.328 39.753 102.026 39.5776 101.767 39.3487" fill="#A6A6A6"/>
<path d="M109.615 34.3809C109.418 34.3806 109.225 34.4367 109.058 34.5428C108.892 34.6488 108.76 34.8003 108.677 34.9793C108.425 35.5022 108.31 36.0799 108.34 36.6593C108.34 38.0844 108.726 38.7975 109.498 38.7985C110.333 38.7985 110.751 38.0239 110.751 36.4745C110.751 35.0809 110.372 34.3841 109.614 34.3841M107.504 39.3513C107.166 38.9895 106.907 38.562 106.742 38.0956C106.577 37.6292 106.509 37.1337 106.544 36.6401C106.491 35.7164 106.795 34.8077 107.394 34.1025C107.693 33.7904 108.056 33.5464 108.458 33.3871C108.859 33.2278 109.291 33.1569 109.722 33.1793C110.113 33.159 110.502 33.2271 110.863 33.3787C111.223 33.5303 111.544 33.7613 111.802 34.0545C112.339 34.7541 112.605 35.6241 112.55 36.5041C112.604 37.4343 112.306 38.3506 111.714 39.0705C111.422 39.3851 111.064 39.6317 110.666 39.793C110.268 39.9543 109.84 40.0264 109.411 40.0041C109.066 40.0264 108.72 39.9802 108.393 39.8683C108.066 39.7564 107.765 39.581 107.506 39.3521" fill="#A6A6A6"/>
<path d="M115.166 34.5175V36.0143H115.428C116.045 36.0143 116.353 35.7602 116.352 35.2519C116.352 34.7623 116.063 34.5175 115.486 34.5175H115.166ZM113.486 34.3327C113.493 34.008 113.473 33.6832 113.428 33.3615H115.792C116.299 33.3268 116.806 33.4305 117.259 33.6615C117.491 33.8043 117.681 34.0067 117.808 34.2475C117.936 34.4884 117.996 34.7589 117.984 35.0311C117.984 35.7778 117.537 36.2962 116.642 36.5863C116.888 36.6435 117.116 36.7613 117.304 36.929C117.493 37.0967 117.636 37.3089 117.722 37.5463L118.159 38.8103C118.159 38.8231 118.198 38.9431 118.276 39.1703C118.344 39.401 118.432 39.6253 118.538 39.8407H116.691C116.636 39.5746 116.564 39.312 116.478 39.0543L116.176 38.0943C116.115 37.8321 116.007 37.5832 115.856 37.3599C115.794 37.302 115.72 37.2577 115.64 37.2302C115.559 37.2026 115.474 37.1923 115.39 37.1999H115.166V38.8711C115.157 39.1962 115.176 39.5215 115.224 39.8431H113.426C113.471 39.5212 113.49 39.1961 113.483 38.8711L113.486 34.3327Z" fill="#A6A6A6"/>
<path d="M120.862 40C120.159 39.9982 119.459 39.8834 118.792 39.66L119.112 38.4256C119.608 38.6506 120.143 38.7762 120.687 38.7952C120.921 38.8079 121.153 38.7445 121.347 38.6144C121.424 38.5604 121.486 38.4883 121.528 38.4046C121.569 38.3208 121.59 38.228 121.587 38.1344C121.584 38.0419 121.561 37.9511 121.519 37.8683C121.478 37.7855 121.419 37.7125 121.347 37.6544C121.046 37.4141 120.722 37.2042 120.379 37.028C119.843 36.7854 119.392 36.3885 119.083 35.888C118.967 35.6351 118.907 35.3599 118.909 35.0816C118.899 34.8193 118.949 34.5582 119.055 34.3181C119.161 34.0779 119.32 33.8652 119.521 33.696C119.981 33.3321 120.558 33.1473 121.144 33.176C121.751 33.1841 122.355 33.2646 122.942 33.416L122.641 34.616L122.486 34.5672C122.141 34.4447 121.781 34.3697 121.416 34.344C121.222 34.3346 121.03 34.3873 120.867 34.4944C120.802 34.5372 120.749 34.5957 120.712 34.6645C120.676 34.7333 120.657 34.8101 120.658 34.888C120.656 34.9644 120.672 35.0402 120.704 35.1096C120.736 35.179 120.784 35.24 120.843 35.288C121.175 35.522 121.523 35.7331 121.883 35.92C122.314 36.1402 122.695 36.4462 123.003 36.8192C123.235 37.1323 123.357 37.5136 123.349 37.9032C123.358 38.3648 123.21 38.8159 122.93 39.1832C122.657 39.5429 122.264 39.794 121.823 39.892C121.509 39.9659 121.186 40.0019 120.863 39.9992" fill="#A6A6A6"/>
</g>
<defs>
<clipPath id="clip0_1_730">
<rect width="126.4" height="40" fill="white"/>
</clipPath>
</defs>
</svg>
