<svg width="311" height="110" viewBox="0 0 311 110" fill="none" xmlns="http://www.w3.org/2000/svg">
<mask id="path-1-outside-1_1_1005" maskUnits="userSpaceOnUse" x="0" y="0" width="311" height="110" fill="black">
<rect fill="white" width="311" height="110"/>
<path d="M53.422 3.03999V14.944H15.662V41.184H45.102V53.088H15.662V92H1.07V3.03999H53.422ZM112.897 73.824H75.649L69.249 92H54.017L85.889 2.91199H102.785L134.657 92H119.297L112.897 73.824ZM108.801 61.92L94.337 20.576L79.745 61.92H108.801ZM209.699 108.128L194.083 91.232C190.243 92.3413 186.019 92.896 181.411 92.896C173.134 92.896 165.496 90.976 158.499 87.136C151.587 83.2107 146.083 77.792 141.987 70.88C137.976 63.8827 135.971 56.032 135.971 47.328C135.971 38.624 137.976 30.816 141.987 23.904C146.083 16.992 151.587 11.616 158.499 7.77599C165.496 3.85066 173.134 1.88799 181.411 1.88799C189.774 1.88799 197.411 3.85066 204.323 7.77599C211.32 11.616 216.824 16.992 220.835 23.904C224.846 30.816 226.851 38.624 226.851 47.328C226.851 55.52 225.059 62.944 221.475 69.6C217.976 76.1707 213.112 81.4613 206.883 85.472L228.259 108.128H209.699ZM150.947 47.328C150.947 53.8987 152.227 59.7013 154.787 64.736C157.432 69.6853 161.059 73.5253 165.667 76.256C170.275 78.9013 175.523 80.224 181.411 80.224C187.299 80.224 192.547 78.9013 197.155 76.256C201.763 73.5253 205.347 69.6853 207.907 64.736C210.552 59.7013 211.875 53.8987 211.875 47.328C211.875 40.7573 210.552 34.9973 207.907 30.048C205.347 25.0987 201.763 21.3013 197.155 18.656C192.547 16.0107 187.299 14.688 181.411 14.688C175.523 14.688 170.275 16.0107 165.667 18.656C161.059 21.3013 157.432 25.0987 154.787 30.048C152.227 34.9973 150.947 40.7573 150.947 47.328ZM236.209 3.03999H252.081L238.641 33.504H228.401L236.209 3.03999ZM282.825 93.152C277.278 93.152 272.286 92.1707 267.849 90.208C263.497 88.16 260.041 85.4293 257.481 82.016C254.921 78.5173 253.556 74.6347 253.385 70.368H268.489C268.745 73.3547 270.153 75.872 272.713 77.92C275.358 79.8827 278.644 80.864 282.569 80.864C286.665 80.864 289.822 80.096 292.041 78.56C294.345 76.9387 295.497 74.8907 295.497 72.416C295.497 69.7707 294.217 67.808 291.657 66.528C289.182 65.248 285.214 63.84 279.753 62.304C274.462 60.8533 270.153 59.4453 266.825 58.08C263.497 56.7147 260.596 54.624 258.121 51.808C255.732 48.992 254.537 45.28 254.537 40.672C254.537 36.9173 255.646 33.504 257.865 30.432C260.084 27.2747 263.241 24.8 267.337 23.008C271.518 21.216 276.297 20.32 281.673 20.32C289.694 20.32 296.137 22.368 301.001 26.464C305.95 30.4747 308.596 35.9787 308.937 42.976H294.345C294.089 39.8187 292.809 37.3013 290.505 35.424C288.201 33.5467 285.086 32.608 281.161 32.608C277.321 32.608 274.377 33.3333 272.329 34.784C270.281 36.2347 269.257 38.1547 269.257 40.544C269.257 42.4213 269.94 44 271.305 45.28C272.67 46.56 274.334 47.584 276.297 48.352C278.26 49.0347 281.161 49.9307 285.001 51.04C290.121 52.4053 294.302 53.8133 297.545 55.264C300.873 56.6293 303.732 58.6773 306.121 61.408C308.51 64.1387 309.748 67.7653 309.833 72.288C309.833 76.2987 308.724 79.8827 306.505 83.04C304.286 86.1973 301.129 88.672 297.033 90.464C293.022 92.256 288.286 93.152 282.825 93.152Z"/>
</mask>
<path d="M53.422 3.03999H54.422V2.03999H53.422V3.03999ZM53.422 14.944V15.944H54.422V14.944H53.422ZM15.662 14.944V13.944H14.662V14.944H15.662ZM15.662 41.184H14.662V42.184H15.662V41.184ZM45.102 41.184H46.102V40.184H45.102V41.184ZM45.102 53.088V54.088H46.102V53.088H45.102ZM15.662 53.088V52.088H14.662V53.088H15.662ZM15.662 92V93H16.662V92H15.662ZM1.07001 92H0.0700073V93H1.07001V92ZM1.07001 3.03999V2.03999H0.0700073V3.03999H1.07001ZM53.422 3.03999H52.422V14.944H53.422H54.422V3.03999H53.422ZM53.422 14.944V13.944H15.662V14.944V15.944H53.422V14.944ZM15.662 14.944H14.662V41.184H15.662H16.662V14.944H15.662ZM15.662 41.184V42.184H45.102V41.184V40.184H15.662V41.184ZM45.102 41.184H44.102V53.088H45.102H46.102V41.184H45.102ZM45.102 53.088V52.088H15.662V53.088V54.088H45.102V53.088ZM15.662 53.088H14.662V92H15.662H16.662V53.088H15.662ZM15.662 92V91H1.07001V92V93H15.662V92ZM1.07001 92H2.07001V3.03999H1.07001H0.0700073V92H1.07001ZM1.07001 3.03999V4.03999H53.422V3.03999V2.03999H1.07001V3.03999ZM112.897 73.824L113.84 73.4919L113.605 72.824H112.897V73.824ZM75.649 73.824V72.824H74.9409L74.7057 73.4919L75.649 73.824ZM69.249 92V93H69.957L70.1922 92.3321L69.249 92ZM54.017 92L53.0754 91.6631L52.5972 93H54.017V92ZM85.889 2.91199V1.91199H85.1847L84.9474 2.57514L85.889 2.91199ZM102.785 2.91199L103.727 2.57514L103.489 1.91199H102.785V2.91199ZM134.657 92V93H136.077L135.599 91.6631L134.657 92ZM119.297 92L118.354 92.3321L118.589 93H119.297V92ZM108.801 61.92V62.92H110.21L109.745 61.5898L108.801 61.92ZM94.337 20.576L95.2809 20.2458L94.3411 17.5596L93.394 20.2432L94.337 20.576ZM79.745 61.92L78.802 61.5872L78.3316 62.92H79.745V61.92ZM112.897 73.824V72.824H75.649V73.824V74.824H112.897V73.824ZM75.649 73.824L74.7057 73.4919L68.3057 91.6679L69.249 92L70.1922 92.3321L76.5922 74.1561L75.649 73.824ZM69.249 92V91H54.017V92V93H69.249V92ZM54.017 92L54.9586 92.3369L86.8306 3.24885L85.889 2.91199L84.9474 2.57514L53.0754 91.6631L54.017 92ZM85.889 2.91199V3.91199H102.785V2.91199V1.91199H85.889V2.91199ZM102.785 2.91199L101.843 3.24885L133.715 92.3369L134.657 92L135.599 91.6631L103.727 2.57514L102.785 2.91199ZM134.657 92V91H119.297V92V93H134.657V92ZM119.297 92L120.24 91.6679L113.84 73.4919L112.897 73.824L111.954 74.1561L118.354 92.3321L119.297 92ZM108.801 61.92L109.745 61.5898L95.2809 20.2458L94.337 20.576L93.3931 20.9062L107.857 62.2502L108.801 61.92ZM94.337 20.576L93.394 20.2432L78.802 61.5872L79.745 61.92L80.688 62.2528L95.28 20.9088L94.337 20.576ZM79.745 61.92V62.92H108.801V61.92V60.92H79.745V61.92ZM209.699 108.128L208.965 108.807L209.262 109.128H209.699V108.128ZM194.083 91.232L194.817 90.5533L194.398 90.1L193.805 90.2713L194.083 91.232ZM158.499 87.136L158.005 88.0056L158.011 88.0092L158.018 88.0127L158.499 87.136ZM141.987 70.88L141.119 71.3773L141.123 71.3836L141.127 71.3898L141.987 70.88ZM141.987 23.904L141.127 23.3942L141.122 23.4021L141.987 23.904ZM158.499 7.77599L158.985 8.65016L158.988 8.64814L158.499 7.77599ZM204.323 7.77599L203.829 8.64555L203.836 8.64915L203.842 8.65266L204.323 7.77599ZM220.835 23.904L219.97 24.4059V24.4059L220.835 23.904ZM221.475 69.6L220.594 69.1259L220.592 69.13L221.475 69.6ZM206.883 85.472L206.342 84.6312L205.33 85.2828L206.156 86.1583L206.883 85.472ZM228.259 108.128V109.128H230.577L228.986 107.442L228.259 108.128ZM154.787 64.736L153.896 65.1892L153.9 65.1984L153.905 65.2074L154.787 64.736ZM165.667 76.256L165.157 77.1164L165.169 77.1233L165.667 76.256ZM197.155 76.256L197.653 77.1233L197.665 77.1163L197.155 76.256ZM207.907 64.736L207.022 64.2709L207.019 64.2766L207.907 64.736ZM207.907 30.048L207.019 30.5075L207.025 30.5194L207.907 30.048ZM197.155 18.656L196.657 19.5233L197.155 18.656ZM165.667 18.656L166.165 19.5233V19.5233L165.667 18.656ZM154.787 30.048L153.905 29.5766L153.899 29.5886L154.787 30.048ZM209.699 108.128L210.433 107.449L194.817 90.5533L194.083 91.232L193.349 91.9107L208.965 108.807L209.699 108.128ZM194.083 91.232L193.805 90.2713C190.068 91.3509 185.939 91.896 181.411 91.896V92.896V93.896C186.099 93.896 190.418 93.3317 194.361 92.1927L194.083 91.232ZM181.411 92.896V91.896C173.295 91.896 165.824 90.0154 158.98 86.2593L158.499 87.136L158.018 88.0127C165.168 91.9366 172.972 93.896 181.411 93.896V92.896ZM158.499 87.136L158.993 86.2664C152.234 82.428 146.856 77.1341 142.847 70.3702L141.987 70.88L141.127 71.3898C145.31 78.4499 150.94 83.9933 158.005 88.0056L158.499 87.136ZM141.987 70.88L142.855 70.3827C138.938 63.5487 136.971 55.8718 136.971 47.328H135.971H134.971C134.971 56.1922 137.015 64.2167 141.119 71.3773L141.987 70.88ZM135.971 47.328H136.971C136.971 38.7841 138.938 31.152 142.852 24.4059L141.987 23.904L141.122 23.4021C137.015 30.48 134.971 38.4639 134.971 47.328H135.971ZM141.987 23.904L142.847 24.4138C146.854 17.6517 152.23 12.4026 158.985 8.65015L158.499 7.77599L158.013 6.90184C150.944 10.8294 145.312 16.3323 141.127 23.3942L141.987 23.904ZM158.499 7.77599L158.988 8.64814C165.831 4.80936 173.299 2.88799 181.411 2.88799V1.88799V0.887993C172.968 0.887993 165.161 2.89196 158.01 6.90385L158.499 7.77599ZM181.411 1.88799V2.88799C189.61 2.88799 197.076 4.81022 203.829 8.64555L204.323 7.77599L204.817 6.90643C197.746 2.8911 189.937 0.887993 181.411 0.887993V1.88799ZM204.323 7.77599L203.842 8.65266C210.679 12.4049 216.051 17.6512 219.97 24.4059L220.835 23.904L221.7 23.4021C217.598 16.3328 211.961 10.8271 204.804 6.89933L204.323 7.77599ZM220.835 23.904L219.97 24.4059C223.884 31.152 225.851 38.7841 225.851 47.328H226.851H227.851C227.851 38.4639 225.807 30.48 221.7 23.4021L220.835 23.904ZM226.851 47.328H225.851C225.851 55.3687 224.094 62.6276 220.595 69.1259L221.475 69.6L222.355 70.0741C226.024 63.2604 227.851 55.6713 227.851 47.328H226.851ZM221.475 69.6L220.592 69.13C217.174 75.5507 212.427 80.7134 206.342 84.6312L206.883 85.472L207.424 86.3128C213.798 82.2092 218.779 76.7906 222.358 70.07L221.475 69.6ZM206.883 85.472L206.156 86.1583L227.532 108.814L228.259 108.128L228.986 107.442L207.61 84.7857L206.883 85.472ZM228.259 108.128V107.128H209.699V108.128V109.128H228.259V108.128ZM150.947 47.328H149.947C149.947 54.0305 151.253 59.9929 153.896 65.1892L154.787 64.736L155.678 64.2828C153.201 59.4098 151.947 53.7669 151.947 47.328H150.947ZM154.787 64.736L153.905 65.2074C156.632 70.3099 160.384 74.2879 165.157 77.1163L165.667 76.256L166.177 75.3957C161.734 72.7628 158.232 69.0608 155.669 64.2646L154.787 64.736ZM165.667 76.256L165.169 77.1233C169.945 79.8647 175.368 81.224 181.411 81.224V80.224V79.224C175.678 79.224 170.605 77.9379 166.165 75.3887L165.667 76.256ZM181.411 80.224V81.224C187.454 81.224 192.877 79.8647 197.653 77.1233L197.155 76.256L196.657 75.3887C192.217 77.9379 187.144 79.224 181.411 79.224V80.224ZM197.155 76.256L197.665 77.1163C202.441 74.2861 206.153 70.3041 208.795 65.1954L207.907 64.736L207.019 64.2766C204.541 69.0665 201.085 72.7645 196.645 75.3957L197.155 76.256ZM207.907 64.736L208.792 65.2011C211.524 60.0022 212.875 54.0354 212.875 47.328H211.875H210.875C210.875 53.7619 209.581 59.4005 207.022 64.2709L207.907 64.736ZM211.875 47.328H212.875C212.875 40.621 211.524 34.6939 208.789 29.5766L207.907 30.048L207.025 30.5194C209.581 35.3007 210.875 40.8936 210.875 47.328H211.875ZM207.907 30.048L208.795 29.5886C206.151 24.4774 202.436 20.5345 197.653 17.7887L197.155 18.656L196.657 19.5233C201.09 22.0682 204.542 25.72 207.019 30.5074L207.907 30.048ZM197.155 18.656L197.653 17.7887C192.877 15.0473 187.454 13.688 181.411 13.688V14.688V15.688C187.144 15.688 192.217 16.9741 196.657 19.5233L197.155 18.656ZM181.411 14.688V13.688C175.368 13.688 169.945 15.0473 165.169 17.7887L165.667 18.656L166.165 19.5233C170.605 16.9741 175.678 15.688 181.411 15.688V14.688ZM165.667 18.656L165.169 17.7887C160.389 20.5328 156.634 24.4717 153.905 29.5766L154.787 30.048L155.669 30.5194C158.231 25.7257 161.729 22.0699 166.165 19.5233L165.667 18.656ZM154.787 30.048L153.899 29.5886C151.253 34.7033 149.947 40.626 149.947 47.328H150.947H151.947C151.947 40.8886 153.201 35.2914 155.675 30.5074L154.787 30.048ZM236.209 3.03999V2.03999H235.433L235.24 2.79172L236.209 3.03999ZM252.081 3.03999L252.996 3.44363L253.615 2.03999H252.081V3.03999ZM238.641 33.504V34.504H239.293L239.556 33.9076L238.641 33.504ZM228.401 33.504L227.432 33.2557L227.112 34.504H228.401V33.504ZM236.209 3.03999V4.03999H252.081V3.03999V2.03999H236.209V3.03999ZM252.081 3.03999L251.166 2.63635L237.726 33.1004L238.641 33.504L239.556 33.9076L252.996 3.44363L252.081 3.03999ZM238.641 33.504V32.504H228.401V33.504V34.504H238.641V33.504ZM228.401 33.504L229.37 33.7523L237.178 3.28827L236.209 3.03999L235.24 2.79172L227.432 33.2557L228.401 33.504ZM267.849 90.208L267.423 91.1128L267.434 91.1178L267.445 91.1225L267.849 90.208ZM257.481 82.016L256.674 82.6066L256.681 82.616L257.481 82.016ZM253.385 70.368V69.368H252.344L252.386 70.408L253.385 70.368ZM268.489 70.368L269.485 70.2826L269.407 69.368H268.489V70.368ZM272.713 77.92L272.088 78.7009L272.103 78.7122L272.117 78.7231L272.713 77.92ZM292.041 78.56L292.61 79.3822L292.617 79.3778L292.041 78.56ZM291.657 66.528L291.198 67.4163L291.21 67.4224L291.657 66.528ZM279.753 62.304L280.024 61.3413L280.017 61.3396L279.753 62.304ZM266.825 58.08L266.445 59.0052L266.825 58.08ZM258.121 51.808L257.359 52.455L257.364 52.4616L257.37 52.4681L258.121 51.808ZM257.865 30.432L258.676 31.0175L258.683 31.0069L257.865 30.432ZM267.337 23.008L266.943 22.0888L266.936 22.0918L267.337 23.008ZM301.001 26.464L300.357 27.2289L300.364 27.235L300.371 27.2409L301.001 26.464ZM308.937 42.976V43.976H309.987L309.936 42.9273L308.937 42.976ZM294.345 42.976L293.348 43.0568L293.423 43.976H294.345V42.976ZM290.505 35.424L291.137 34.6488L290.505 35.424ZM272.329 34.784L271.751 33.968L272.329 34.784ZM271.305 45.28L270.621 46.0095L271.305 45.28ZM276.297 48.352L275.933 49.2832L275.95 49.2902L275.969 49.2965L276.297 48.352ZM285.001 51.04L284.723 52.0007L284.733 52.0036L284.743 52.0062L285.001 51.04ZM297.545 55.264L297.137 56.1768L297.151 56.1832L297.165 56.1892L297.545 55.264ZM306.121 61.408L305.368 62.0665V62.0665L306.121 61.408ZM309.833 72.288H310.833V72.2786L310.833 72.2691L309.833 72.288ZM306.505 83.04L305.687 82.4651L306.505 83.04ZM297.033 90.464L296.632 89.5478L296.625 89.551L297.033 90.464ZM282.825 93.152V92.152C277.398 92.152 272.546 91.1923 268.253 89.2935L267.849 90.208L267.445 91.1225C272.026 93.1491 277.159 94.152 282.825 94.152V93.152ZM267.849 90.208L268.275 89.3032C264.052 87.3157 260.731 84.6828 258.281 81.416L257.481 82.016L256.681 82.616C259.351 86.1758 262.943 89.0043 267.423 91.1128L267.849 90.208ZM257.481 82.016L258.288 81.4255C255.843 78.0846 254.547 74.393 254.384 70.328L253.385 70.368L252.386 70.408C252.565 74.8764 253.999 78.9501 256.674 82.6065L257.481 82.016ZM253.385 70.368V71.368H268.489V70.368V69.368H253.385V70.368ZM268.489 70.368L267.493 70.4534C267.774 73.7401 269.337 76.4995 272.088 78.7009L272.713 77.92L273.338 77.1391C270.969 75.2445 269.716 72.9692 269.485 70.2826L268.489 70.368ZM272.713 77.92L272.117 78.7231C274.966 80.8367 278.471 81.864 282.569 81.864V80.864V79.864C278.816 79.864 275.751 78.9286 273.309 77.1169L272.713 77.92ZM282.569 80.864V81.864C286.77 81.864 290.158 81.0797 292.61 79.3822L292.041 78.56L291.472 77.7378C289.486 79.1123 286.56 79.864 282.569 79.864V80.864ZM292.041 78.56L292.617 79.3778C295.144 77.5992 296.497 75.2649 296.497 72.416H295.497H294.497C294.497 74.5164 293.546 76.2782 291.466 77.7422L292.041 78.56ZM295.497 72.416H296.497C296.497 70.9251 296.134 69.5779 295.375 68.4137C294.618 67.2541 293.508 66.3354 292.104 65.6336L291.657 66.528L291.21 67.4224C292.366 68.0006 293.176 68.7033 293.699 69.5063C294.22 70.3048 294.497 71.2615 294.497 72.416H295.497ZM291.657 66.528L292.116 65.6398C289.547 64.3109 285.498 62.8809 280.024 61.3413L279.753 62.304L279.482 63.2667C284.931 64.7991 288.817 66.1851 291.198 67.4162L291.657 66.528ZM279.753 62.304L280.017 61.3396C274.748 59.8947 270.481 58.499 267.205 57.1548L266.825 58.08L266.445 59.0052C269.825 60.3917 274.177 61.8119 279.489 63.2684L279.753 62.304ZM266.825 58.08L267.205 57.1548C264.025 55.8505 261.249 53.8531 258.872 51.1479L258.121 51.808L257.37 52.4681C259.942 55.3949 262.969 57.5788 266.445 59.0052L266.825 58.08ZM258.121 51.808L258.883 51.161C256.683 48.5671 255.537 45.1036 255.537 40.672H254.537H253.537C253.537 45.4564 254.781 49.4169 257.359 52.455L258.121 51.808ZM254.537 40.672H255.537C255.537 37.1296 256.579 33.9208 258.676 31.0175L257.865 30.432L257.054 29.8465C254.714 33.0872 253.537 36.705 253.537 40.672H254.537ZM257.865 30.432L258.683 31.0069C260.781 28.0218 263.783 25.6546 267.738 23.9242L267.337 23.008L266.936 22.0918C262.699 23.9454 259.387 26.5275 257.047 29.857L257.865 30.432ZM267.337 23.008L267.731 23.9271C271.767 22.1973 276.408 21.32 281.673 21.32V20.32V19.32C276.186 19.32 271.269 20.2347 266.943 22.0889L267.337 23.008ZM281.673 20.32V21.32C289.522 21.32 295.716 23.3211 300.357 27.2289L301.001 26.464L301.645 25.6991C296.558 21.4149 289.867 19.32 281.673 19.32V20.32ZM301.001 26.464L300.371 27.2409C305.076 31.0534 307.609 36.2799 307.938 43.0247L308.937 42.976L309.936 42.9273C309.582 35.6774 306.825 29.8959 301.631 25.6871L301.001 26.464ZM308.937 42.976V41.976H294.345V42.976V43.976H308.937V42.976ZM294.345 42.976L295.342 42.8952C295.065 39.4863 293.667 36.7104 291.137 34.6488L290.505 35.424L289.873 36.1992C291.951 37.8922 293.113 40.1511 293.348 43.0568L294.345 42.976ZM290.505 35.424L291.137 34.6488C288.604 32.5852 285.242 31.608 281.161 31.608V32.608V33.608C284.93 33.608 287.798 34.5082 289.873 36.1992L290.505 35.424ZM281.161 32.608V31.608C277.217 31.608 274.036 32.3494 271.751 33.968L272.329 34.784L272.907 35.6C274.718 34.3172 277.425 33.608 281.161 33.608V32.608ZM272.329 34.784L271.751 33.968C269.454 35.595 268.257 37.8115 268.257 40.544H269.257H270.257C270.257 38.4979 271.108 36.8744 272.907 35.6L272.329 34.784ZM269.257 40.544H268.257C268.257 42.6968 269.053 44.5398 270.621 46.0095L271.305 45.28L271.989 44.5505C270.826 43.4602 270.257 42.1459 270.257 40.544H269.257ZM271.305 45.28L270.621 46.0095C272.09 47.3868 273.866 48.4747 275.933 49.2832L276.297 48.352L276.661 47.4208C274.802 46.6933 273.251 45.7332 271.989 44.5505L271.305 45.28ZM276.297 48.352L275.969 49.2965C277.957 49.9881 280.879 50.8901 284.723 52.0007L285.001 51.04L285.279 50.0793C281.443 48.9713 278.562 48.0812 276.626 47.4075L276.297 48.352ZM285.001 51.04L284.743 52.0062C289.834 53.3638 293.96 54.7557 297.137 56.1768L297.545 55.264L297.953 54.3512C294.645 52.8709 290.408 51.4469 285.259 50.0738L285.001 51.04ZM297.545 55.264L297.165 56.1892C300.349 57.4952 303.08 59.4514 305.368 62.0665L306.121 61.408L306.874 60.7495C304.383 57.9033 301.397 55.7635 297.925 54.3388L297.545 55.264ZM306.121 61.408L305.368 62.0665C307.567 64.5793 308.751 67.9599 308.833 72.3069L309.833 72.288L310.833 72.2691C310.744 67.5707 309.453 63.698 306.874 60.7495L306.121 61.408ZM309.833 72.288H308.833C308.833 76.1015 307.782 79.483 305.687 82.4651L306.505 83.04L307.323 83.6149C309.665 80.2823 310.833 76.4958 310.833 72.288H309.833ZM306.505 83.04L305.687 82.4651C303.589 85.4501 300.587 87.8174 296.632 89.5478L297.033 90.464L297.434 91.3802C301.671 89.5266 304.984 86.9445 307.323 83.6149L306.505 83.04ZM297.033 90.464L296.625 89.551C292.77 91.2735 288.179 92.152 282.825 92.152V93.152V94.152C288.394 94.152 293.275 93.2385 297.441 91.377L297.033 90.464Z" fill="#E6E6E6" mask="url(#path-1-outside-1_1_1005)"/>
</svg>
