<svg width="36" height="36" viewBox="0 0 36 36" fill="none" xmlns="http://www.w3.org/2000/svg">
<path d="M23.625 4.5C21.7642 4.5 20.25 6.01425 20.25 7.875C20.25 9.73575 21.7642 11.25 23.625 11.25C26.343 11.25 28.6132 13.185 29.1375 15.75H23.625C21.7642 15.75 20.25 17.2642 20.25 19.125V28.125C20.25 29.9858 21.7642 31.5 23.625 31.5H32.625C34.4858 31.5 36 29.9858 36 28.125V16.875C36 10.0507 30.4493 4.5 23.625 4.5Z" fill="#9A433E"/>
<path d="M3.375 4.5C1.51425 4.5 0 6.01425 0 7.875C0 9.73575 1.51425 11.25 3.375 11.25C6.093 11.25 8.36325 13.185 8.8875 15.75H3.375C1.51425 15.75 0 17.2642 0 19.125V28.125C0 29.9858 1.51425 31.5 3.375 31.5H12.375C14.2358 31.5 15.75 29.9858 15.75 28.125V16.875C15.75 10.0507 10.1993 4.5 3.375 4.5Z" fill="#9A433E"/>
</svg>
