<svg width="1320" height="574" viewBox="0 0 1320 574" fill="none" xmlns="http://www.w3.org/2000/svg">
<rect width="1320" height="574" fill="white"/>
<path d="M546.12 60.8C546.12 58.6027 546.611 56.64 547.592 54.912C548.595 53.1627 549.949 51.808 551.656 50.848C553.384 49.8667 555.315 49.376 557.448 49.376C559.944 49.376 562.131 50.016 564.008 51.296C565.885 52.576 567.197 54.3467 567.944 56.608H562.792C562.28 55.5413 561.555 54.7413 560.616 54.208C559.699 53.6747 558.632 53.408 557.416 53.408C556.115 53.408 554.952 53.7173 553.928 54.336C552.925 54.9333 552.136 55.7867 551.56 56.896C551.005 58.0053 550.728 59.3067 550.728 60.8C550.728 62.272 551.005 63.5733 551.56 64.704C552.136 65.8133 552.925 66.6773 553.928 67.296C554.952 67.8933 556.115 68.192 557.416 68.192C558.632 68.192 559.699 67.9253 560.616 67.392C561.555 66.8373 562.28 66.0267 562.792 64.96H567.944C567.197 67.2427 565.885 69.024 564.008 70.304C562.152 71.5627 559.965 72.192 557.448 72.192C555.315 72.192 553.384 71.712 551.656 70.752C549.949 69.7707 548.595 68.416 547.592 66.688C546.611 64.96 546.12 62.9973 546.12 60.8ZM585.467 67.744H576.571L575.099 72H570.395L578.427 49.632H583.643L591.675 72H586.939L585.467 67.744ZM584.251 64.16L581.019 54.816L577.786 64.16H584.251ZM599.157 68.448H606.517V72H594.677V49.664H599.157V68.448ZM613.844 49.664V72H609.364V49.664H613.844ZM632.062 49.664V53.28H622.751V59.008H629.887V62.56H622.751V72H618.271V49.664H632.062ZM645.607 72.224C643.517 72.224 641.597 71.7333 639.847 70.752C638.098 69.7707 636.711 68.416 635.687 66.688C634.663 64.9387 634.151 62.9653 634.151 60.768C634.151 58.592 634.663 56.64 635.687 54.912C636.711 53.1627 638.098 51.7973 639.847 50.816C641.597 49.8347 643.517 49.344 645.607 49.344C647.719 49.344 649.639 49.8347 651.367 50.816C653.117 51.7973 654.493 53.1627 655.495 54.912C656.519 56.64 657.031 58.592 657.031 60.768C657.031 62.9653 656.519 64.9387 655.495 66.688C654.493 68.416 653.117 69.7707 651.367 70.752C649.618 71.7333 647.698 72.224 645.607 72.224ZM645.607 68.224C646.951 68.224 648.135 67.9253 649.159 67.328C650.183 66.7093 650.983 65.8347 651.559 64.704C652.135 63.5733 652.423 62.2613 652.423 60.768C652.423 59.2747 652.135 57.9733 651.559 56.864C650.983 55.7333 650.183 54.8693 649.159 54.272C648.135 53.6747 646.951 53.376 645.607 53.376C644.263 53.376 643.069 53.6747 642.023 54.272C640.999 54.8693 640.199 55.7333 639.623 56.864C639.047 57.9733 638.759 59.2747 638.759 60.768C638.759 62.2613 639.047 63.5733 639.623 64.704C640.199 65.8347 640.999 66.7093 642.023 67.328C643.069 67.9253 644.263 68.224 645.607 68.224ZM671.884 72L666.956 63.296H664.844V72H660.364V49.664H668.748C670.476 49.664 671.948 49.9733 673.164 50.592C674.38 51.1893 675.287 52.0107 675.884 53.056C676.503 54.08 676.812 55.232 676.812 56.512C676.812 57.984 676.386 59.3173 675.532 60.512C674.679 61.6853 673.41 62.496 671.724 62.944L677.068 72H671.884ZM664.844 59.936H668.588C669.804 59.936 670.711 59.648 671.308 59.072C671.906 58.4747 672.204 57.6533 672.204 56.608C672.204 55.584 671.906 54.7947 671.308 54.24C670.711 53.664 669.804 53.376 668.588 53.376H664.844V59.936ZM699.968 72H695.488L685.344 56.672V72H680.864V49.632H685.344L695.488 64.992V49.632H699.968V72ZM708.876 49.664V72H704.396V49.664H708.876ZM726.998 67.744H718.102L716.63 72H711.926L719.958 49.632H725.174L733.206 72H728.47L726.998 67.744ZM725.782 64.16L722.55 54.816L719.318 64.16H725.782Z" fill="#9A433E"/>
<g opacity="0.05" clip-path="url(#clip0_1_466)">
<path d="M937.597 420.69H927.229L917.667 392.396H927.694L937.597 420.69Z" fill="#003D5B"/>
<path d="M1320 403.254H1308.64L1311.37 406.68H1320V403.254Z" fill="#003D5B"/>
<path d="M1253.63 406.681H825.714L824.938 403.255H1251.14L1253.63 406.681Z" fill="#003D5B"/>
<path d="M1055.01 436.428H1044.45L1029.83 404.968H1039.98L1055.01 436.428Z" fill="#003D5B"/>
<path d="M834.003 420.69H823.665L817.891 394.109H727.118L726.745 390.667H827.142L834.003 420.69Z" fill="#003D5B"/>
<path d="M1320 390.667H822.144L822.92 394.109H1320V390.667Z" fill="#003D5B"/>
<path d="M1078.97 404.968H1068.79L1062.36 392.396H1072.39L1078.97 404.968Z" fill="#003D5B"/>
<path d="M1202.09 404.968H1191.94L1183.68 392.396H1193.68L1202.09 404.968Z" fill="#003D5B"/>
<path d="M1309.32 443.371H1298.7L1260.46 392.396H1270.48L1309.32 443.371Z" fill="#003D5B"/>
<path d="M1262.85 441.123H1252.23L1226.59 404.432H1236.74L1262.85 441.123Z" fill="#003D5B"/>
<path d="M1154.04 436.428H1143.48L1134.32 420.598H1042.28L1040.66 417.172H1142.64L1154.04 436.428Z" fill="#003D5B"/>
<path d="M1193.71 390.591H1183.72L1163.1 359.314H1172.73L1193.71 390.591Z" fill="#003D5B"/>
<path d="M1311.31 390.591H1301.31L1276.26 359.314H1285.88L1311.31 390.591Z" fill="#003D5B"/>
<path d="M1320 373.232H1292.31L1295.07 376.673H1320V373.232Z" fill="#003D5B"/>
<path d="M1093.75 390.591H1083.75L1066.93 359.314H1076.55L1093.75 390.591Z" fill="#003D5B"/>
<path d="M993.819 390.591H983.823L970.753 359.314H980.377L993.819 390.591Z" fill="#003D5B"/>
<path d="M1135.01 390.591H1125.01L1096.82 342.643H1106.23L1135.01 390.591Z" fill="#003D5B"/>
<path d="M893.856 390.591H883.859L874.577 359.314H884.201L893.856 390.591Z" fill="#003D5B"/>
<path d="M793.924 390.591H783.928L778.402 359.314H788.026L793.924 390.591Z" fill="#003D5B"/>
<path d="M1320 357.601H1132.52L1134.67 361.042H1320V357.601Z" fill="#003D5B"/>
<path d="M1095.05 361.042H720.008L719.636 357.601H1093.1L1095.05 361.042Z" fill="#003D5B"/>
<path d="M788.026 359.314H778.402L765.208 284.785H773.931L788.026 359.314Z" fill="#003D5B"/>
<path d="M749.003 359.314H739.379L736.368 335.685H778.899L779.52 339.11H746.178L749.003 359.314Z" fill="#003D5B"/>
<path d="M837.169 359.314H827.545L820.684 330.53H665.929L665.773 327.104H829.097L837.169 359.314Z" fill="#003D5B"/>
<path d="M1320 327.104H1290.48L1293.39 330.53H1320V327.104Z" fill="#003D5B"/>
<path d="M1078.63 330.53H935.456L934.121 327.104H1076.64L1078.63 330.53Z" fill="#003D5B"/>
<path d="M891.155 330.53H825.341L824.503 327.104H890.006L891.155 330.53Z" fill="#003D5B"/>
<path d="M1285.76 360.354L1276.41 358.289L1297.8 341.206L1260.67 297.372H1269.52L1308.17 342.353L1285.76 360.354Z" fill="#003D5B"/>
<path d="M980.377 359.314H970.753L958.025 328.817H967.245L980.377 359.314Z" fill="#003D5B"/>
<path d="M926.949 359.314H917.325L904.256 322.057H913.414L926.949 359.314Z" fill="#003D5B"/>
<path d="M1320 295.659H630.848L630.817 299.085H1320V295.659Z" fill="#003D5B"/>
<path d="M775.019 314.517H630.663L630.694 311.091H774.398L775.019 314.517Z" fill="#003D5B"/>
<path d="M880.414 328.817H871.163L861.57 297.372H870.449L880.414 328.817Z" fill="#003D5B"/>
<path d="M633.799 320.054H624.641L625.603 263.144H634.047L633.799 320.054Z" fill="#003D5B"/>
<path d="M1320 283.072H630.942L630.911 286.498H1320V283.072Z" fill="#003D5B"/>
<path d="M904.442 297.372H895.594L891.155 284.785H899.879L904.442 297.372Z" fill="#003D5B"/>
<path d="M1011.89 297.372H1003.01L996.769 284.785H1005.49L1011.89 297.372Z" fill="#003D5B"/>
<path d="M1079.9 297.372H1071.03L1063.61 284.785H1072.33L1079.9 297.372Z" fill="#003D5B"/>
<path d="M1180.46 297.372H1171.58L1162.45 284.785H1171.14L1180.46 297.372Z" fill="#003D5B"/>
<path d="M1262.47 298.412L1227.08 285.84L1232.24 283.745L1267.72 296.317L1262.47 298.412Z" fill="#003D5B"/>
<path d="M1320 327.441L1293.18 297.372H1284.33L1311.96 328.817H1320V327.441Z" fill="#003D5B"/>
<path d="M1059.75 328.817H1050.5L1038.86 307.176L1072.02 295.996L1078.91 298.749L1048.8 308.904L1059.75 328.817Z" fill="#003D5B"/>
<path d="M967.245 328.817H958.024L951.381 313.003H870.883L869.797 309.562H958.987L967.245 328.817Z" fill="#003D5B"/>
<path d="M1088.81 304.897H1254.34L1282.81 339.202L1264 352.936H1124.33L1113.77 335.776H1098.34L1092.29 325.728L1077.58 322.057L1071.34 311.29L1088.81 304.897Z" fill="#FFF4AD"/>
<path d="M1320 275.593L1298.89 253.523H1290.54L1320 284.724V275.593Z" fill="#003D5B"/>
<path d="M1241.58 284.785H1232.86L1207.12 253.523H1215.48L1241.58 284.785Z" fill="#003D5B"/>
<path d="M1154.38 284.785H1145.65L1123.71 253.523H1132.03L1154.38 284.785Z" fill="#003D5B"/>
<path d="M1067.21 284.785H1058.48L1040.26 253.523H1048.61L1067.21 284.785Z" fill="#003D5B"/>
<path d="M980.005 284.785H971.281L956.846 253.523H965.197L980.005 284.785Z" fill="#003D5B"/>
<path d="M877.341 285.121L868.556 284.464L873.398 253.187L881.811 253.845L877.341 285.121Z" fill="#003D5B"/>
<path d="M1320 251.811H876.999L878.179 255.236H1320V251.811Z" fill="#003D5B"/>
<path d="M1196.48 284.785H1187.75L1169.78 261.155H1216.62L1219.48 264.581H1180.86L1196.48 284.785Z" fill="#003D5B"/>
<path d="M792.963 265.637L787.654 262.777L825.373 251.811H877L878.179 255.236H828.819L792.963 265.637Z" fill="#003D5B"/>
<path d="M1108.12 284.785H1099.4L1089.31 268.971H968.239L966.655 265.53H1095.61L1108.12 284.785Z" fill="#003D5B"/>
<path d="M562.211 251L561.59 256.582H570.003L570.531 251H562.211Z" fill="#003D5B"/>
<path d="M635.63 251V259.917H585.617L585.369 263.342H644.074L643.949 251H635.63Z" fill="#003D5B"/>
<path d="M786.721 264.994C787.963 265.835 790.602 266.172 792.588 265.728C794.575 265.3 795.165 264.26 793.892 263.419L775.638 251H766.294L786.69 264.994H786.721Z" fill="#003D5B"/>
<path d="M874.173 272.106H668.039L667.139 251H658.819L659.533 273.819C659.533 274.767 661.52 275.532 663.88 275.532H875.322C877.712 275.532 879.357 274.767 879.047 273.819C878.737 272.871 876.532 272.106 874.173 272.106Z" fill="#003D5B"/>
<path d="M1320 442.286L1155.09 431.778L1084.65 437.009L979.817 418.885H789.237L721.281 385.987L728.825 355.429L668.444 325.04L593.689 308.767L596.452 261.614L558.64 251H533.712L582.141 264.673L578.416 312.07L657.92 329.353L712.371 356.898L704.176 387.349L780.886 424.605H977.489L1084.87 443.066L1158.69 437.621L1320 447.837V442.286Z" fill="#003D5B"/>
<path d="M81.087 251L62.6777 273.819H71.277L89.4068 251H81.087Z" fill="#003D5B"/>
<path d="M164.224 251L148.547 273.819H157.146L172.513 251H164.224Z" fill="#003D5B"/>
<path d="M247.329 251L234.415 273.819H243.014L255.649 251H247.329Z" fill="#003D5B"/>
<path d="M330.466 251L320.283 273.819H328.882L338.754 251H330.466Z" fill="#003D5B"/>
<path d="M413.57 251L406.182 273.819H414.75L421.89 251H413.57Z" fill="#003D5B"/>
<path d="M507.418 251L492.176 273.498L500.495 274.156L515.893 251H507.418Z" fill="#003D5B"/>
<path d="M0 272.106V275.547H495.993L496.676 272.106H0Z" fill="#003D5B"/>
<path d="M391.468 348.363H381.968L406.182 273.819H414.751L391.468 348.363Z" fill="#003D5B"/>
<path d="M452.221 297.464H402.923L404.04 294.038H444.243L449.582 273.819H458.182L452.221 297.464Z" fill="#003D5B"/>
<path d="M489.97 306.044H349.837L362.286 273.819H370.854L360.113 302.603H490.622L489.97 306.044Z" fill="#003D5B"/>
<path d="M0 302.603V306.044H354.339L355.642 302.603H0Z" fill="#003D5B"/>
<path d="M20.2098 273.819L0 297.173V304.331H2.76293L28.809 273.819H20.2098Z" fill="#003D5B"/>
<path d="M92.2944 304.331H83.3537L106.078 273.819H114.677L92.2944 304.331Z" fill="#003D5B"/>
<path d="M136.595 304.331H127.623L148.547 273.819H157.146L136.595 304.331Z" fill="#003D5B"/>
<path d="M226.127 304.331H217.187L234.416 273.819H243.015L226.127 304.331Z" fill="#003D5B"/>
<path d="M275.889 304.331H266.917L282.129 273.819H290.728L275.889 304.331Z" fill="#003D5B"/>
<path d="M0 334.063V337.489H37.8429L40.4817 334.063H0Z" fill="#003D5B"/>
<path d="M483.732 337.489H90.8359L93.2574 334.063H484.414L483.732 337.489Z" fill="#003D5B"/>
<path d="M486.774 322.057H395.101L396.187 318.616H487.457L486.774 322.057Z" fill="#003D5B"/>
<path d="M296.347 335.776H287.034L301.252 304.331H310.193L296.347 335.776Z" fill="#003D5B"/>
<path d="M549.42 275.547H495.993L496.676 272.106H547.247L587.077 261.721L591.547 264.581L549.42 275.547Z" fill="#003D5B"/>
<path d="M585.96 312.131H542.901L488.698 305.968L491.865 302.679L544.609 308.705H586.177L585.96 312.131Z" fill="#003D5B"/>
<path d="M629.421 322.057H486.773L487.456 318.616H629.452L629.421 322.057Z" fill="#003D5B"/>
<path d="M543.771 348.363H534.271L544.05 273.819H552.619L543.771 348.363Z" fill="#003D5B"/>
<path d="M704.859 350.076H476.498L492.051 273.819H500.619L486.649 346.65H704.58L704.859 350.076Z" fill="#003D5B"/>
<path d="M630.912 338.025H540.294L540.729 334.599H627.901L660.435 325.82L665.961 328.588L630.912 338.025Z" fill="#003D5B"/>
<path d="M0 346.65V350.076H481.247L481.93 346.65H0Z" fill="#003D5B"/>
<path d="M254.438 348.363H244.97L251.241 335.776H260.585L254.438 348.363Z" fill="#003D5B"/>
<path d="M139.576 348.364H130.076L138.21 335.776H147.523L139.576 348.364Z" fill="#003D5B"/>
<path d="M66.8387 348.363H57.3702L83.3542 313.095H92.4192L66.8387 348.363Z" fill="#003D5B"/>
<path d="M27.2263 335.776H17.882L43.0589 304.331H51.9996L27.2263 335.776Z" fill="#003D5B"/>
<path d="M115.02 336.311H105.676L127.624 304.331H136.596L115.02 336.311Z" fill="#003D5B"/>
<path d="M297.125 323.587H206.29L217.187 304.331H226.127L217.373 320.145H298.678L297.125 323.587Z" fill="#003D5B"/>
<path d="M117.44 381.43H107.568L127.747 350.168H137.246L117.44 381.43Z" fill="#003D5B"/>
<path d="M15.8946 350.168L0 370.326V381.43H1.14864L25.3942 350.168H15.8946Z" fill="#003D5B"/>
<path d="M0 364.086V367.512H7.07808L9.74788 364.086H0Z" fill="#003D5B"/>
<path d="M216.284 381.429H206.381L222.835 350.168H232.334L216.284 381.429Z" fill="#003D5B"/>
<path d="M315.129 381.429H305.226L317.892 350.168H327.422L315.129 381.429Z" fill="#003D5B"/>
<path d="M166.085 398.116H155.996L183.594 350.168H193.094L166.085 398.116Z" fill="#003D5B"/>
<path d="M413.976 381.429H404.072L412.982 350.168H422.482L413.976 381.429Z" fill="#003D5B"/>
<path d="M512.82 381.429H502.917L508.039 350.168H517.539L512.82 381.429Z" fill="#003D5B"/>
<path d="M611.54 381.751L601.885 381.093L620.108 349.832L629.452 350.489L611.54 381.751Z" fill="#003D5B"/>
<path d="M0 379.717V383.143H146.746L148.795 379.717H0Z" fill="#003D5B"/>
<path d="M606.634 383.143H187.444L189.338 379.717H606.759L606.634 383.143Z" fill="#003D5B"/>
<path d="M501.488 455.959H490.716L502.916 381.43H512.819L501.488 455.959Z" fill="#003D5B"/>
<path d="M560.627 405.059H504.127L504.686 401.633H550.817L552.897 381.43H562.769L560.627 405.059Z" fill="#003D5B"/>
<path d="M605.487 413.639H445.144L452.408 381.43H462.28L456.133 410.214H605.642L605.487 413.639Z" fill="#003D5B"/>
<path d="M328.262 413.639H169.595L171.488 410.213H329.503L328.262 413.639Z" fill="#003D5B"/>
<path d="M450.265 413.639H377.342L378.397 410.213H451.041L450.265 413.639Z" fill="#003D5B"/>
<path d="M303.146 411.926H292.901L305.226 381.43H315.129L303.146 411.926Z" fill="#003D5B"/>
<path d="M357.877 418.687H347.57L360.143 381.43H370.046L357.877 418.687Z" fill="#003D5B"/>
<path d="M0 441.658V445.1H604.338L604.462 441.658H0Z" fill="#003D5B"/>
<path d="M604.896 429.652H500.246L500.805 426.227H605.02L604.896 429.652Z" fill="#003D5B"/>
<path d="M390.598 443.372H379.95L389.139 411.927H399.384L390.598 443.372Z" fill="#003D5B"/>
<path d="M668.101 383.142H606.634L606.758 379.717H664.997L709.08 369.316L714.73 372.176L668.101 383.142Z" fill="#003D5B"/>
<path d="M668.537 419.864L604.059 413.578L607.07 410.275L667.203 416.178L743.82 401.847L749.066 404.86L668.537 419.864Z" fill="#003D5B"/>
<path d="M781.228 429.652H604.896L605.021 426.227H780.669L781.228 429.652Z" fill="#003D5B"/>
<path d="M674.592 455.959H663.819L661.615 381.43H671.487L674.592 455.959Z" fill="#003D5B"/>
<path d="M822.641 457.672H598.471L601.761 381.43H611.664L609.367 454.246H814.383L844.124 421.149L854.151 422.327L822.641 457.672Z" fill="#003D5B"/>
<path d="M774.336 445.635H668.848L668.724 442.194H765.706L779.986 421.287L790.169 422.189L774.336 445.635Z" fill="#003D5B"/>
<path d="M0 454.246V457.672H603.872L603.996 454.246H0Z" fill="#003D5B"/>
<path d="M345.74 455.959H334.968L339.221 443.372H349.838L345.74 455.959Z" fill="#003D5B"/>
<path d="M215.135 455.959H204.363L210.448 443.372H221.096L215.135 455.959Z" fill="#003D5B"/>
<path d="M132.498 455.959H121.694L128.959 443.372H139.576L132.498 455.959Z" fill="#003D5B"/>
<path d="M8.47507 443.372L0 455.255V455.959H10.2756L19.0922 443.372H8.47507Z" fill="#003D5B"/>
<path d="M136.626 444.763L131.907 441.995L179.902 431.839L190.364 411.926H200.608L189.494 433.568L136.626 444.763Z" fill="#003D5B"/>
<path d="M388.767 431.182H285.079L292.902 411.927H303.147L296.907 427.741H389.729L388.767 431.182Z" fill="#003D5B"/>
<path d="M150.502 415.016L156.183 404.968H139.357L149.478 387.823H3.66322L0 389V435.847H128.151L156.556 429.469L162.548 418.687L150.502 415.016Z" fill="#FFF4AD"/>
<path d="M20.2408 455.959L0 485.278V487.236H9.80997L31.0132 455.959H20.2408Z" fill="#003D5B"/>
<path d="M121.414 487.236H110.238L128.058 455.959H138.83L121.414 487.236Z" fill="#003D5B"/>
<path d="M233.018 487.236H221.842L235.874 455.959H246.677L233.018 487.236Z" fill="#003D5B"/>
<path d="M344.404 487.557L333.663 486.899L363.093 455.638L373.462 456.28L344.404 487.557Z" fill="#003D5B"/>
<path d="M0 485.507V488.949H338.475L339.562 485.507H0Z" fill="#003D5B"/>
<path d="M200.452 561.765H188.407L221.842 487.236H233.018L200.452 561.765Z" fill="#003D5B"/>
<path d="M280.547 510.865H216.968L218.489 507.439H270.426L278.249 487.236H289.425L280.547 510.865Z" fill="#003D5B"/>
<path d="M328.633 519.445H148.359L164.813 487.235H175.958L161.615 516.004H329.751L328.633 519.445Z" fill="#003D5B"/>
<path d="M0 516.004V519.445H154.135L155.873 516.004H0Z" fill="#003D5B"/>
<path d="M0 487.236V501.704L9.80997 487.236H0Z" fill="#003D5B"/>
<path d="M53.1787 517.717H41.6613L60.6604 487.236H71.8053L53.1787 517.717Z" fill="#003D5B"/>
<path d="M0 547.464V550.89H318.514L319.6 547.464H0Z" fill="#003D5B"/>
<path d="M323.481 535.458H206.072L207.593 532.017H324.598L323.481 535.458Z" fill="#003D5B"/>
<path d="M79.597 549.177H67.707L85.8369 517.717H97.3853L79.597 549.177Z" fill="#003D5B"/>
<path d="M407.858 488.949H338.475L339.561 485.507H405.344L458.181 475.123L463.738 477.983L407.858 488.949Z" fill="#003D5B"/>
<path d="M397.863 525.685L327.051 519.369L331.335 516.081L397.118 521.954L501.24 503.539L506.797 506.461L397.863 525.685Z" fill="#003D5B"/>
<path d="M550.973 535.458H323.481L324.599 532.017H551.284L550.973 535.458Z" fill="#003D5B"/>
<path d="M394.044 561.765H381.999L401.029 487.236H412.174L394.044 561.765Z" fill="#003D5B"/>
<path d="M598.594 563.477H308.424L333.445 487.235H344.59L321.587 560.036H598.718L598.594 563.477Z" fill="#003D5B"/>
<path d="M505.928 551.426H390.599L391.437 548H502.823L556.871 537.967L563.111 540.842L505.928 551.426Z" fill="#003D5B"/>
<path d="M0 560.036V563.478H314.447L315.564 560.036H0Z" fill="#003D5B"/>
<path d="M18.8128 574L33.9624 549.177H22.0724L6.61242 574H18.8128Z" fill="#003D5B"/>
<path d="M0 533.547V536.973H80.6218L82.5776 533.547H0Z" fill="#003D5B"/>
<path d="M232.738 475.214H65.3791L77.4243 455.959H88.2277L78.5108 471.788H234.26L232.738 475.214Z" fill="#003D5B"/>
<path d="M113.591 574L118.993 563.569H106.916L101.391 574H113.591Z" fill="#003D5B"/>
<path d="M235.657 574L239.786 563.569H227.709L223.456 574H235.657Z" fill="#003D5B"/>
<path d="M357.691 574L360.579 563.569H348.502L345.491 574H357.691Z" fill="#003D5B"/>
<path d="M486.525 574L492.331 561.918L480.379 561.596L474.294 574H486.525Z" fill="#003D5B"/>
<path d="M816.462 487.236H805.287L799.605 455.959H810.409L816.462 487.236Z" fill="#003D5B"/>
<path d="M928.036 487.236H916.891L905.343 449H916.053L928.036 487.236Z" fill="#003D5B"/>
<path d="M1039.64 487.236H1028.5L1010.74 445.222H1021.39L1039.64 487.236Z" fill="#003D5B"/>
<path d="M1151.24 487.235H1140.07L1121.81 453.573H1132.56L1151.24 487.235Z" fill="#003D5B"/>
<path d="M1262.85 487.235H1251.67L1229.35 453.573H1240.09L1262.85 487.235Z" fill="#003D5B"/>
<path d="M1320 485.507H657.082L657.144 488.949H1320V485.507Z" fill="#003D5B"/>
<path d="M1313.2 561.765H1301.13L1251.67 487.236H1262.85L1313.2 561.765Z" fill="#003D5B"/>
<path d="M1320 488.23L1319.25 487.236H1308.08L1320 503.646V488.23Z" fill="#003D5B"/>
<path d="M1320 507.439H1270.79L1273.09 510.865H1320V507.439Z" fill="#003D5B"/>
<path d="M982.891 479.589H921.424L920.337 476.163H970.567L956.535 437.621H967.09L982.891 479.589Z" fill="#003D5B"/>
<path d="M1320 516.004H1223.45L1205.79 487.236H1194.64L1214.01 519.445H1320V516.004Z" fill="#003D5B"/>
<path d="M1219.79 519.445H657.796L657.733 516.004H1217.71L1219.79 519.445Z" fill="#003D5B"/>
<path d="M765.364 517.717H753.846L750.121 487.236H761.266L765.364 517.717Z" fill="#003D5B"/>
<path d="M880.632 517.717H869.114L861.726 487.236H872.871L880.632 517.717Z" fill="#003D5B"/>
<path d="M937.628 517.717H926.08L916.891 487.236H928.035L937.628 517.717Z" fill="#003D5B"/>
<path d="M1052.9 517.717H1041.38L1028.49 487.236H1039.64L1052.9 517.717Z" fill="#003D5B"/>
<path d="M1116.94 517.717H1105.39L1090.49 487.235H1101.63L1116.94 517.717Z" fill="#003D5B"/>
<path d="M850.642 550.89H700.854L700.637 547.464H849.897L850.642 550.89Z" fill="#003D5B"/>
<path d="M1320 547.464H917.232L918.226 550.89H1320V547.464Z" fill="#003D5B"/>
<path d="M1320 532.017H1287.25L1289.55 535.458H1320V532.017Z" fill="#003D5B"/>
<path d="M1178.34 549.177H1166.45L1149.6 517.717H1161.11L1178.34 549.177Z" fill="#003D5B"/>
<path d="M1320 560.036H658.665L658.758 563.478H1320V560.036Z" fill="#003D5B"/>
<path d="M1145.16 574L1132.71 549.177H1120.79L1132.96 574H1145.16Z" fill="#003D5B"/>
<path d="M997.326 574L988.51 549.177H976.589L985.126 574H997.326Z" fill="#003D5B"/>
<path d="M903.758 574L891.247 526.496H879.637L891.558 574H903.758Z" fill="#003D5B"/>
<path d="M763.874 561.764H751.829L750.37 549.177H762.291L763.874 561.764Z" fill="#003D5B"/>
<path d="M734.507 549.177H722.617L719.885 517.717H731.402L734.507 549.177Z" fill="#003D5B"/>
<path d="M835.06 549.177H823.139L817.24 517.717H828.758L835.06 549.177Z" fill="#003D5B"/>
<path d="M947.655 549.712H935.765L926.079 517.717H937.628L947.655 549.712Z" fill="#003D5B"/>
<path d="M1165.8 536.972H1049.51L1041.38 517.717H1052.9L1059.79 533.546H1163.94L1165.8 536.972Z" fill="#003D5B"/>
<path d="M1249.22 475.214H1081.86L1071.34 453.573H1082.08L1091.14 471.788H1246.92L1249.22 475.214Z" fill="#003D5B"/>
<path d="M852.226 574L849.618 561.765H837.573L840.026 574H852.226Z" fill="#003D5B"/>
<path d="M736.958 574L735.933 563.569H723.857L724.758 574H736.958Z" fill="#003D5B"/>
<path d="M1239.94 574L1233.73 563.569H1221.65L1227.74 574H1239.94Z" fill="#003D5B"/>
<path d="M645.038 574L664.192 562.483L653.233 561.03L631.533 574H645.038Z" fill="#003D5B"/>
<path d="M664.75 561.764H652.674L651.06 455.958H661.832L664.75 561.764Z" fill="#003D5B"/>
<path d="M598.594 563.477C598.408 563.477 598.221 563.477 598.035 563.477C595.986 563.431 594.186 563.08 593.285 562.56L455.915 477.355C454.704 476.514 455.946 475.474 458.74 475.046C461.534 474.618 464.793 474.939 466.004 475.78L599.805 558.614L619.238 551.563L620.759 468.668H357.629C354.617 468.668 352.413 467.903 352.693 466.955C353.003 466.007 355.673 465.242 358.684 465.242H626.254C629.266 465.242 631.687 466.007 631.687 466.955L631.159 552.16C631.159 552.542 630.694 552.909 629.886 553.215L603.344 562.85C602.164 563.263 600.394 563.508 598.563 563.508L598.594 563.477Z" fill="#003D5B"/>
<path d="M1320 451.86H1077.02L940.113 432.742H837.698L838.505 436.168H938.996L1076.37 455.286H1320V451.86Z" fill="#003D5B"/>
<path d="M957.093 431.794C937.845 431.794 922.168 427.083 922.168 421.271C922.168 415.459 937.845 410.749 957.093 410.749C976.34 410.749 992.017 415.459 992.017 421.271C992.017 427.083 976.34 431.794 957.093 431.794ZM957.093 413.563C942.968 413.563 931.481 417.019 931.481 421.271C931.481 425.523 942.968 428.98 957.093 428.98C971.218 428.98 982.704 425.523 982.704 421.271C982.704 417.019 971.218 413.563 957.093 413.563Z" fill="#EE332A"/>
<path d="M976.496 421.287C976.496 424.514 967.803 427.129 957.093 427.129C946.383 427.129 937.69 424.514 937.69 421.287C937.69 418.059 946.383 415.444 957.093 415.444C967.803 415.444 976.496 418.059 976.496 421.287Z" fill="#EE332A"/>
<path d="M926.981 418.885H788.896L721.095 385.987L728.608 355.429L668.413 325.04L593.876 308.767L596.639 261.614L558.92 251H534.085L582.359 264.673L578.633 312.07L657.92 329.353L712.217 356.898L704.052 387.349L780.545 424.605H926.981V418.885Z" fill="url(#paint0_linear_1_466)"/>
<rect y="251" width="1320" height="181" fill="url(#paint1_linear_1_466)"/>
</g>
<path d="M282.152 263.168C281.048 263.168 280.056 262.976 279.176 262.592C278.312 262.192 277.632 261.648 277.136 260.96C276.64 260.256 276.384 259.448 276.368 258.536H278.696C278.776 259.32 279.096 259.984 279.656 260.528C280.232 261.056 281.064 261.32 282.152 261.32C283.192 261.32 284.008 261.064 284.6 260.552C285.208 260.024 285.512 259.352 285.512 258.536C285.512 257.896 285.336 257.376 284.984 256.976C284.632 256.576 284.192 256.272 283.664 256.064C283.136 255.856 282.424 255.632 281.528 255.392C280.424 255.104 279.536 254.816 278.864 254.528C278.208 254.24 277.64 253.792 277.16 253.184C276.696 252.56 276.464 251.728 276.464 250.688C276.464 249.776 276.696 248.968 277.16 248.264C277.624 247.56 278.272 247.016 279.104 246.632C279.952 246.248 280.92 246.056 282.008 246.056C283.576 246.056 284.856 246.448 285.848 247.232C286.856 248.016 287.424 249.056 287.552 250.352H285.152C285.072 249.712 284.736 249.152 284.144 248.672C283.552 248.176 282.768 247.928 281.792 247.928C280.88 247.928 280.136 248.168 279.56 248.648C278.984 249.112 278.696 249.768 278.696 250.616C278.696 251.224 278.864 251.72 279.2 252.104C279.552 252.488 279.976 252.784 280.472 252.992C280.984 253.184 281.696 253.408 282.608 253.664C283.712 253.968 284.6 254.272 285.272 254.576C285.944 254.864 286.52 255.32 287 255.944C287.48 256.552 287.72 257.384 287.72 258.44C287.72 259.256 287.504 260.024 287.072 260.744C286.64 261.464 286 262.048 285.152 262.496C284.304 262.944 283.304 263.168 282.152 263.168ZM290.118 256.376C290.118 255.032 290.39 253.856 290.934 252.848C291.478 251.824 292.222 251.032 293.166 250.472C294.126 249.912 295.19 249.632 296.358 249.632C297.51 249.632 298.51 249.88 299.358 250.376C300.206 250.872 300.838 251.496 301.254 252.248V249.848H303.462V263H301.254V260.552C300.822 261.32 300.174 261.96 299.31 262.472C298.462 262.968 297.47 263.216 296.334 263.216C295.166 263.216 294.11 262.928 293.166 262.352C292.222 261.776 291.478 260.968 290.934 259.928C290.39 258.888 290.118 257.704 290.118 256.376ZM301.254 256.4C301.254 255.408 301.054 254.544 300.654 253.808C300.254 253.072 299.71 252.512 299.022 252.128C298.35 251.728 297.606 251.528 296.79 251.528C295.974 251.528 295.23 251.72 294.558 252.104C293.886 252.488 293.35 253.048 292.95 253.784C292.55 254.52 292.35 255.384 292.35 256.376C292.35 257.384 292.55 258.264 292.95 259.016C293.35 259.752 293.886 260.32 294.558 260.72C295.23 261.104 295.974 261.296 296.79 261.296C297.606 261.296 298.35 261.104 299.022 260.72C299.71 260.32 300.254 259.752 300.654 259.016C301.054 258.264 301.254 257.392 301.254 256.4ZM306.337 256.4C306.337 255.04 306.609 253.856 307.153 252.848C307.697 251.824 308.449 251.032 309.409 250.472C310.385 249.912 311.497 249.632 312.745 249.632C314.361 249.632 315.689 250.024 316.729 250.808C317.785 251.592 318.481 252.68 318.817 254.072H316.465C316.241 253.272 315.801 252.64 315.145 252.176C314.505 251.712 313.705 251.48 312.745 251.48C311.497 251.48 310.489 251.912 309.721 252.776C308.953 253.624 308.569 254.832 308.569 256.4C308.569 257.984 308.953 259.208 309.721 260.072C310.489 260.936 311.497 261.368 312.745 261.368C313.705 261.368 314.505 261.144 315.145 260.696C315.785 260.248 316.225 259.608 316.465 258.776H318.817C318.465 260.12 317.761 261.2 316.705 262.016C315.649 262.816 314.329 263.216 312.745 263.216C311.497 263.216 310.385 262.936 309.409 262.376C308.449 261.816 307.697 261.024 307.153 260C306.609 258.976 306.337 257.776 306.337 256.4ZM323.915 251.984C324.299 251.232 324.843 250.648 325.547 250.232C326.267 249.816 327.139 249.608 328.163 249.608V251.864H327.587C325.139 251.864 323.915 253.192 323.915 255.848V263H321.731V249.848H323.915V251.984ZM329.868 256.376C329.868 255.032 330.14 253.856 330.684 252.848C331.228 251.824 331.972 251.032 332.916 250.472C333.876 249.912 334.94 249.632 336.108 249.632C337.26 249.632 338.26 249.88 339.108 250.376C339.956 250.872 340.588 251.496 341.004 252.248V249.848H343.212V263H341.004V260.552C340.572 261.32 339.924 261.96 339.06 262.472C338.212 262.968 337.22 263.216 336.084 263.216C334.916 263.216 333.86 262.928 332.916 262.352C331.972 261.776 331.228 260.968 330.684 259.928C330.14 258.888 329.868 257.704 329.868 256.376ZM341.004 256.4C341.004 255.408 340.804 254.544 340.404 253.808C340.004 253.072 339.46 252.512 338.772 252.128C338.1 251.728 337.356 251.528 336.54 251.528C335.724 251.528 334.98 251.72 334.308 252.104C333.636 252.488 333.1 253.048 332.7 253.784C332.3 254.52 332.1 255.384 332.1 256.376C332.1 257.384 332.3 258.264 332.7 259.016C333.1 259.752 333.636 260.32 334.308 260.72C334.98 261.104 335.724 261.296 336.54 261.296C337.356 261.296 338.1 261.104 338.772 260.72C339.46 260.32 340.004 259.752 340.404 259.016C340.804 258.264 341.004 257.392 341.004 256.4ZM362.719 249.608C363.743 249.608 364.655 249.824 365.455 250.256C366.255 250.672 366.887 251.304 367.351 252.152C367.815 253 368.047 254.032 368.047 255.248V263H365.887V255.56C365.887 254.248 365.559 253.248 364.903 252.56C364.263 251.856 363.391 251.504 362.287 251.504C361.151 251.504 360.247 251.872 359.575 252.608C358.903 253.328 358.567 254.376 358.567 255.752V263H356.407V255.56C356.407 254.248 356.079 253.248 355.423 252.56C354.783 251.856 353.911 251.504 352.807 251.504C351.671 251.504 350.767 251.872 350.095 252.608C349.423 253.328 349.087 254.376 349.087 255.752V263H346.903V249.848H349.087V251.744C349.519 251.056 350.095 250.528 350.815 250.16C351.551 249.792 352.359 249.608 353.239 249.608C354.343 249.608 355.319 249.856 356.167 250.352C357.015 250.848 357.647 251.576 358.063 252.536C358.431 251.608 359.039 250.888 359.887 250.376C360.735 249.864 361.679 249.608 362.719 249.608ZM383.629 255.92C383.629 256.336 383.605 256.776 383.557 257.24H373.045C373.125 258.536 373.565 259.552 374.365 260.288C375.181 261.008 376.165 261.368 377.317 261.368C378.261 261.368 379.045 261.152 379.669 260.72C380.309 260.272 380.757 259.68 381.013 258.944H383.365C383.013 260.208 382.309 261.24 381.253 262.04C380.197 262.824 378.885 263.216 377.317 263.216C376.069 263.216 374.949 262.936 373.957 262.376C372.981 261.816 372.213 261.024 371.653 260C371.093 258.96 370.813 257.76 370.813 256.4C370.813 255.04 371.085 253.848 371.629 252.824C372.173 251.8 372.933 251.016 373.909 250.472C374.901 249.912 376.037 249.632 377.317 249.632C378.565 249.632 379.669 249.904 380.629 250.448C381.589 250.992 382.325 251.744 382.837 252.704C383.365 253.648 383.629 254.72 383.629 255.92ZM381.373 255.464C381.373 254.632 381.189 253.92 380.821 253.328C380.453 252.72 379.949 252.264 379.309 251.96C378.685 251.64 377.989 251.48 377.221 251.48C376.117 251.48 375.173 251.832 374.389 252.536C373.621 253.24 373.181 254.216 373.069 255.464H381.373ZM392.92 249.608C394.52 249.608 395.816 250.096 396.808 251.072C397.8 252.032 398.296 253.424 398.296 255.248V263H396.136V255.56C396.136 254.248 395.808 253.248 395.152 252.56C394.496 251.856 393.6 251.504 392.464 251.504C391.312 251.504 390.392 251.864 389.704 252.584C389.032 253.304 388.696 254.352 388.696 255.728V263H386.512V249.848H388.696V251.72C389.128 251.048 389.712 250.528 390.448 250.16C391.2 249.792 392.024 249.608 392.92 249.608ZM404.528 251.648V259.4C404.528 260.04 404.664 260.496 404.936 260.768C405.208 261.024 405.68 261.152 406.352 261.152H407.96V263H405.992C404.776 263 403.864 262.72 403.256 262.16C402.648 261.6 402.344 260.68 402.344 259.4V251.648H400.64V249.848H402.344V246.536H404.528V249.848H407.96V251.648H404.528ZM416.342 263.216C415.11 263.216 413.99 262.936 412.982 262.376C411.99 261.816 411.206 261.024 410.63 260C410.07 258.96 409.79 257.76 409.79 256.4C409.79 255.056 410.078 253.872 410.654 252.848C411.246 251.808 412.046 251.016 413.054 250.472C414.062 249.912 415.19 249.632 416.438 249.632C417.686 249.632 418.814 249.912 419.822 250.472C420.83 251.016 421.622 251.8 422.198 252.824C422.79 253.848 423.086 255.04 423.086 256.4C423.086 257.76 422.782 258.96 422.174 260C421.582 261.024 420.774 261.816 419.75 262.376C418.726 262.936 417.59 263.216 416.342 263.216ZM416.342 261.296C417.126 261.296 417.862 261.112 418.55 260.744C419.238 260.376 419.79 259.824 420.206 259.088C420.638 258.352 420.854 257.456 420.854 256.4C420.854 255.344 420.646 254.448 420.23 253.712C419.814 252.976 419.27 252.432 418.598 252.08C417.926 251.712 417.198 251.528 416.414 251.528C415.614 251.528 414.878 251.712 414.206 252.08C413.55 252.432 413.022 252.976 412.622 253.712C412.222 254.448 412.022 255.344 412.022 256.4C412.022 257.472 412.214 258.376 412.598 259.112C412.998 259.848 413.526 260.4 414.182 260.768C414.838 261.12 415.558 261.296 416.342 261.296ZM446.18 246.272L439.868 263H437.348L431.036 246.272H433.364L438.62 260.696L443.876 246.272H446.18ZM447.759 256.376C447.759 255.032 448.031 253.856 448.575 252.848C449.119 251.824 449.863 251.032 450.807 250.472C451.767 249.912 452.831 249.632 453.999 249.632C455.151 249.632 456.151 249.88 456.999 250.376C457.847 250.872 458.479 251.496 458.895 252.248V249.848H461.103V263H458.895V260.552C458.463 261.32 457.815 261.96 456.951 262.472C456.103 262.968 455.111 263.216 453.975 263.216C452.807 263.216 451.751 262.928 450.807 262.352C449.863 261.776 449.119 260.968 448.575 259.928C448.031 258.888 447.759 257.704 447.759 256.376ZM458.895 256.4C458.895 255.408 458.695 254.544 458.295 253.808C457.895 253.072 457.351 252.512 456.663 252.128C455.991 251.728 455.247 251.528 454.431 251.528C453.615 251.528 452.871 251.72 452.199 252.104C451.527 252.488 450.991 253.048 450.591 253.784C450.191 254.52 449.991 255.384 449.991 256.376C449.991 257.384 450.191 258.264 450.591 259.016C450.991 259.752 451.527 260.32 452.199 260.72C452.871 261.104 453.615 261.296 454.431 261.296C455.247 261.296 455.991 261.104 456.663 260.72C457.351 260.32 457.895 259.752 458.295 259.016C458.695 258.264 458.895 257.392 458.895 256.4ZM466.977 245.24V263H464.793V245.24H466.977ZM472.884 245.24V263H470.7V245.24H472.884ZM488.606 255.92C488.606 256.336 488.582 256.776 488.534 257.24H478.022C478.102 258.536 478.542 259.552 479.342 260.288C480.158 261.008 481.142 261.368 482.294 261.368C483.238 261.368 484.022 261.152 484.646 260.72C485.286 260.272 485.734 259.68 485.99 258.944H488.342C487.99 260.208 487.286 261.24 486.23 262.04C485.174 262.824 483.862 263.216 482.294 263.216C481.046 263.216 479.926 262.936 478.934 262.376C477.958 261.816 477.19 261.024 476.63 260C476.07 258.96 475.79 257.76 475.79 256.4C475.79 255.04 476.062 253.848 476.606 252.824C477.15 251.8 477.91 251.016 478.886 250.472C479.878 249.912 481.014 249.632 482.294 249.632C483.542 249.632 484.646 249.904 485.606 250.448C486.566 250.992 487.302 251.744 487.814 252.704C488.342 253.648 488.606 254.72 488.606 255.92ZM486.35 255.464C486.35 254.632 486.166 253.92 485.798 253.328C485.43 252.72 484.926 252.264 484.286 251.96C483.662 251.64 482.966 251.48 482.198 251.48C481.094 251.48 480.15 251.832 479.366 252.536C478.598 253.24 478.158 254.216 478.046 255.464H486.35ZM502.817 249.848L494.897 269.192H492.641L495.233 262.856L489.929 249.848H492.353L496.481 260.504L500.561 249.848H502.817Z" fill="#797979"/>
<path d="M888.224 322.384C888.832 322.48 889.384 322.728 889.88 323.128C890.392 323.528 890.792 324.024 891.08 324.616C891.384 325.208 891.536 325.84 891.536 326.512C891.536 327.36 891.32 328.128 890.888 328.816C890.456 329.488 889.824 330.024 888.992 330.424C888.176 330.808 887.208 331 886.088 331H879.848V314.272H885.848C886.984 314.272 887.952 314.464 888.752 314.848C889.552 315.216 890.152 315.72 890.552 316.36C890.952 317 891.152 317.72 891.152 318.52C891.152 319.512 890.88 320.336 890.336 320.992C889.808 321.632 889.104 322.096 888.224 322.384ZM882.032 321.496H885.704C886.728 321.496 887.52 321.256 888.08 320.776C888.64 320.296 888.92 319.632 888.92 318.784C888.92 317.936 888.64 317.272 888.08 316.792C887.52 316.312 886.712 316.072 885.656 316.072H882.032V321.496ZM885.896 329.2C886.984 329.2 887.832 328.944 888.44 328.432C889.048 327.92 889.352 327.208 889.352 326.296C889.352 325.368 889.032 324.64 888.392 324.112C887.752 323.568 886.896 323.296 885.824 323.296H882.032V329.2H885.896ZM893.751 324.376C893.751 323.032 894.023 321.856 894.567 320.848C895.111 319.824 895.855 319.032 896.799 318.472C897.759 317.912 898.823 317.632 899.991 317.632C901.143 317.632 902.143 317.88 902.991 318.376C903.839 318.872 904.471 319.496 904.887 320.248V317.848H907.095V331H904.887V328.552C904.455 329.32 903.807 329.96 902.943 330.472C902.095 330.968 901.103 331.216 899.967 331.216C898.799 331.216 897.743 330.928 896.799 330.352C895.855 329.776 895.111 328.968 894.567 327.928C894.023 326.888 893.751 325.704 893.751 324.376ZM904.887 324.4C904.887 323.408 904.687 322.544 904.287 321.808C903.887 321.072 903.343 320.512 902.655 320.128C901.983 319.728 901.239 319.528 900.423 319.528C899.607 319.528 898.863 319.72 898.191 320.104C897.519 320.488 896.983 321.048 896.583 321.784C896.183 322.52 895.983 323.384 895.983 324.376C895.983 325.384 896.183 326.264 896.583 327.016C896.983 327.752 897.519 328.32 898.191 328.72C898.863 329.104 899.607 329.296 900.423 329.296C901.239 329.296 901.983 329.104 902.655 328.72C903.343 328.32 903.887 327.752 904.287 327.016C904.687 326.264 904.887 325.392 904.887 324.4ZM922.114 317.848L914.194 337.192H911.938L914.53 330.856L909.226 317.848H911.65L915.778 328.504L919.858 317.848H922.114ZM940.595 327.28H933.299L931.955 331H929.651L935.699 314.368H938.219L944.243 331H941.939L940.595 327.28ZM939.971 325.504L936.947 317.056L933.923 325.504H939.971ZM949.063 319.984C949.447 319.232 949.991 318.648 950.695 318.232C951.415 317.816 952.287 317.608 953.311 317.608V319.864H952.735C950.287 319.864 949.063 321.192 949.063 323.848V331H946.879V317.848H949.063V319.984ZM967.832 323.92C967.832 324.336 967.808 324.776 967.76 325.24H957.248C957.328 326.536 957.768 327.552 958.568 328.288C959.384 329.008 960.368 329.368 961.52 329.368C962.464 329.368 963.248 329.152 963.872 328.72C964.512 328.272 964.96 327.68 965.216 326.944H967.568C967.216 328.208 966.512 329.24 965.456 330.04C964.4 330.824 963.088 331.216 961.52 331.216C960.272 331.216 959.152 330.936 958.16 330.376C957.184 329.816 956.416 329.024 955.856 328C955.296 326.96 955.016 325.76 955.016 324.4C955.016 323.04 955.288 321.848 955.832 320.824C956.376 319.8 957.136 319.016 958.112 318.472C959.104 317.912 960.24 317.632 961.52 317.632C962.768 317.632 963.872 317.904 964.832 318.448C965.792 318.992 966.528 319.744 967.04 320.704C967.568 321.648 967.832 322.72 967.832 323.92ZM965.576 323.464C965.576 322.632 965.392 321.92 965.024 321.328C964.656 320.72 964.152 320.264 963.512 319.96C962.888 319.64 962.192 319.48 961.424 319.48C960.32 319.48 959.376 319.832 958.592 320.536C957.824 321.24 957.384 322.216 957.272 323.464H965.576ZM969.899 324.376C969.899 323.032 970.171 321.856 970.715 320.848C971.259 319.824 972.003 319.032 972.947 318.472C973.907 317.912 974.971 317.632 976.139 317.632C977.291 317.632 978.291 317.88 979.139 318.376C979.987 318.872 980.619 319.496 981.035 320.248V317.848H983.243V331H981.035V328.552C980.603 329.32 979.955 329.96 979.091 330.472C978.243 330.968 977.251 331.216 976.115 331.216C974.947 331.216 973.891 330.928 972.947 330.352C972.003 329.776 971.259 328.968 970.715 327.928C970.171 326.888 969.899 325.704 969.899 324.376ZM981.035 324.4C981.035 323.408 980.835 322.544 980.435 321.808C980.035 321.072 979.491 320.512 978.803 320.128C978.131 319.728 977.387 319.528 976.571 319.528C975.755 319.528 975.011 319.72 974.339 320.104C973.667 320.488 973.131 321.048 972.731 321.784C972.331 322.52 972.131 323.384 972.131 324.376C972.131 325.384 972.331 326.264 972.731 327.016C973.131 327.752 973.667 328.32 974.339 328.72C975.011 329.104 975.755 329.296 976.571 329.296C977.387 329.296 978.131 329.104 978.803 328.72C979.491 328.32 980.035 327.752 980.435 327.016C980.835 326.264 981.035 325.392 981.035 324.4Z" fill="#3A3A3A"/>
<path d="M940.032 411.624C940.032 409.992 940.4 408.528 941.136 407.232C941.872 405.92 942.872 404.896 944.136 404.16C945.416 403.424 946.832 403.056 948.384 403.056C950.208 403.056 951.8 403.496 953.16 404.376C954.52 405.256 955.512 406.504 956.136 408.12H953.52C953.056 407.112 952.384 406.336 951.504 405.792C950.64 405.248 949.6 404.976 948.384 404.976C947.216 404.976 946.168 405.248 945.24 405.792C944.312 406.336 943.584 407.112 943.056 408.12C942.528 409.112 942.264 410.28 942.264 411.624C942.264 412.952 942.528 414.12 943.056 415.128C943.584 416.12 944.312 416.888 945.24 417.432C946.168 417.976 947.216 418.248 948.384 418.248C949.6 418.248 950.64 417.984 951.504 417.456C952.384 416.912 953.056 416.136 953.52 415.128H956.136C955.512 416.728 954.52 417.968 953.16 418.848C951.8 419.712 950.208 420.144 948.384 420.144C946.832 420.144 945.416 419.784 944.136 419.064C942.872 418.328 941.872 417.312 941.136 416.016C940.4 414.72 940.032 413.256 940.032 411.624ZM971.387 412.92C971.387 413.336 971.363 413.776 971.315 414.24H960.803C960.883 415.536 961.323 416.552 962.123 417.288C962.939 418.008 963.923 418.368 965.075 418.368C966.019 418.368 966.803 418.152 967.427 417.72C968.067 417.272 968.515 416.68 968.771 415.944H971.123C970.771 417.208 970.067 418.24 969.011 419.04C967.955 419.824 966.643 420.216 965.075 420.216C963.827 420.216 962.707 419.936 961.715 419.376C960.739 418.816 959.971 418.024 959.411 417C958.851 415.96 958.571 414.76 958.571 413.4C958.571 412.04 958.843 410.848 959.387 409.824C959.931 408.8 960.691 408.016 961.667 407.472C962.659 406.912 963.795 406.632 965.075 406.632C966.323 406.632 967.427 406.904 968.387 407.448C969.347 407.992 970.083 408.744 970.595 409.704C971.123 410.648 971.387 411.72 971.387 412.92ZM969.131 412.464C969.131 411.632 968.947 410.92 968.579 410.328C968.211 409.72 967.707 409.264 967.067 408.96C966.443 408.64 965.747 408.48 964.979 408.48C963.875 408.48 962.931 408.832 962.147 409.536C961.379 410.24 960.939 411.216 960.827 412.464H969.131ZM980.678 406.608C982.278 406.608 983.574 407.096 984.566 408.072C985.558 409.032 986.054 410.424 986.054 412.248V420H983.894V412.56C983.894 411.248 983.566 410.248 982.91 409.56C982.254 408.856 981.358 408.504 980.222 408.504C979.07 408.504 978.15 408.864 977.462 409.584C976.79 410.304 976.454 411.352 976.454 412.728V420H974.27V406.848H976.454V408.72C976.886 408.048 977.47 407.528 978.206 407.16C978.958 406.792 979.782 406.608 980.678 406.608ZM992.285 408.648V416.4C992.285 417.04 992.421 417.496 992.693 417.768C992.965 418.024 993.437 418.152 994.109 418.152H995.717V420H993.749C992.533 420 991.621 419.72 991.013 419.16C990.405 418.6 990.101 417.68 990.101 416.4V408.648H988.397V406.848H990.101V403.536H992.285V406.848H995.717V408.648H992.285ZM1000.55 408.984C1000.93 408.232 1001.48 407.648 1002.18 407.232C1002.9 406.816 1003.77 406.608 1004.8 406.608V408.864H1004.22C1001.77 408.864 1000.55 410.192 1000.55 412.848V420H998.364V406.848H1000.55V408.984ZM1006.5 413.376C1006.5 412.032 1006.77 410.856 1007.32 409.848C1007.86 408.824 1008.6 408.032 1009.55 407.472C1010.51 406.912 1011.57 406.632 1012.74 406.632C1013.89 406.632 1014.89 406.88 1015.74 407.376C1016.59 407.872 1017.22 408.496 1017.64 409.248V406.848H1019.84V420H1017.64V417.552C1017.2 418.32 1016.56 418.96 1015.69 419.472C1014.84 419.968 1013.85 420.216 1012.72 420.216C1011.55 420.216 1010.49 419.928 1009.55 419.352C1008.6 418.776 1007.86 417.968 1007.32 416.928C1006.77 415.888 1006.5 414.704 1006.5 413.376ZM1017.64 413.4C1017.64 412.408 1017.44 411.544 1017.04 410.808C1016.64 410.072 1016.09 409.512 1015.4 409.128C1014.73 408.728 1013.99 408.528 1013.17 408.528C1012.36 408.528 1011.61 408.72 1010.94 409.104C1010.27 409.488 1009.73 410.048 1009.33 410.784C1008.93 411.52 1008.73 412.384 1008.73 413.376C1008.73 414.384 1008.93 415.264 1009.33 416.016C1009.73 416.752 1010.27 417.32 1010.94 417.72C1011.61 418.104 1012.36 418.296 1013.17 418.296C1013.99 418.296 1014.73 418.104 1015.4 417.72C1016.09 417.32 1016.64 416.752 1017.04 416.016C1017.44 415.264 1017.64 414.392 1017.64 413.4ZM1025.72 402.24V420H1023.54V402.24H1025.72ZM1035.02 411.624C1035.02 409.992 1035.39 408.528 1036.13 407.232C1036.86 405.92 1037.86 404.896 1039.13 404.16C1040.41 403.424 1041.82 403.056 1043.38 403.056C1045.2 403.056 1046.79 403.496 1048.15 404.376C1049.51 405.256 1050.5 406.504 1051.13 408.12H1048.51C1048.05 407.112 1047.38 406.336 1046.5 405.792C1045.63 405.248 1044.59 404.976 1043.38 404.976C1042.21 404.976 1041.16 405.248 1040.23 405.792C1039.3 406.336 1038.58 407.112 1038.05 408.12C1037.52 409.112 1037.26 410.28 1037.26 411.624C1037.26 412.952 1037.52 414.12 1038.05 415.128C1038.58 416.12 1039.3 416.888 1040.23 417.432C1041.16 417.976 1042.21 418.248 1043.38 418.248C1044.59 418.248 1045.63 417.984 1046.5 417.456C1047.38 416.912 1048.05 416.136 1048.51 415.128H1051.13C1050.5 416.728 1049.51 417.968 1048.15 418.848C1046.79 419.712 1045.2 420.144 1043.38 420.144C1041.82 420.144 1040.41 419.784 1039.13 419.064C1037.86 418.328 1036.86 417.312 1036.13 416.016C1035.39 414.72 1035.02 413.256 1035.02 411.624ZM1060.12 420.216C1058.88 420.216 1057.76 419.936 1056.76 419.376C1055.76 418.816 1054.98 418.024 1054.4 417C1053.84 415.96 1053.56 414.76 1053.56 413.4C1053.56 412.056 1053.85 410.872 1054.43 409.848C1055.02 408.808 1055.82 408.016 1056.83 407.472C1057.84 406.912 1058.96 406.632 1060.21 406.632C1061.46 406.632 1062.59 406.912 1063.6 407.472C1064.6 408.016 1065.4 408.8 1065.97 409.824C1066.56 410.848 1066.86 412.04 1066.86 413.4C1066.86 414.76 1066.56 415.96 1065.95 417C1065.36 418.024 1064.55 418.816 1063.52 419.376C1062.5 419.936 1061.36 420.216 1060.12 420.216ZM1060.12 418.296C1060.9 418.296 1061.64 418.112 1062.32 417.744C1063.01 417.376 1063.56 416.824 1063.98 416.088C1064.41 415.352 1064.63 414.456 1064.63 413.4C1064.63 412.344 1064.42 411.448 1064 410.712C1063.59 409.976 1063.04 409.432 1062.37 409.08C1061.7 408.712 1060.97 408.528 1060.19 408.528C1059.39 408.528 1058.65 408.712 1057.98 409.08C1057.32 409.432 1056.8 409.976 1056.4 410.712C1056 411.448 1055.8 412.344 1055.8 413.4C1055.8 414.472 1055.99 415.376 1056.37 416.112C1056.77 416.848 1057.3 417.4 1057.96 417.768C1058.61 418.12 1059.33 418.296 1060.12 418.296ZM1068.91 413.376C1068.91 412.032 1069.19 410.856 1069.73 409.848C1070.27 408.824 1071.02 408.032 1071.96 407.472C1072.92 406.912 1073.99 406.632 1075.15 406.632C1076.31 406.632 1077.31 406.88 1078.15 407.376C1079 407.872 1079.63 408.496 1080.05 409.248V406.848H1082.26V420H1080.05V417.552C1079.62 418.32 1078.97 418.96 1078.11 419.472C1077.26 419.968 1076.27 420.216 1075.13 420.216C1073.96 420.216 1072.91 419.928 1071.96 419.352C1071.02 418.776 1070.27 417.968 1069.73 416.928C1069.19 415.888 1068.91 414.704 1068.91 413.376ZM1080.05 413.4C1080.05 412.408 1079.85 411.544 1079.45 410.808C1079.05 410.072 1078.51 409.512 1077.82 409.128C1077.15 408.728 1076.4 408.528 1075.59 408.528C1074.77 408.528 1074.03 408.72 1073.35 409.104C1072.68 409.488 1072.15 410.048 1071.75 410.784C1071.35 411.52 1071.15 412.384 1071.15 413.376C1071.15 414.384 1071.35 415.264 1071.75 416.016C1072.15 416.752 1072.68 417.32 1073.35 417.72C1074.03 418.104 1074.77 418.296 1075.59 418.296C1076.4 418.296 1077.15 418.104 1077.82 417.72C1078.51 417.32 1079.05 416.752 1079.45 416.016C1079.85 415.264 1080.05 414.392 1080.05 413.4ZM1090.61 420.216C1089.6 420.216 1088.69 420.048 1087.89 419.712C1087.09 419.36 1086.46 418.88 1086 418.272C1085.53 417.648 1085.28 416.936 1085.23 416.136H1087.49C1087.55 416.792 1087.85 417.328 1088.4 417.744C1088.96 418.16 1089.69 418.368 1090.58 418.368C1091.41 418.368 1092.07 418.184 1092.55 417.816C1093.03 417.448 1093.27 416.984 1093.27 416.424C1093.27 415.848 1093.01 415.424 1092.5 415.152C1091.99 414.864 1091.2 414.584 1090.13 414.312C1089.15 414.056 1088.35 413.8 1087.73 413.544C1087.12 413.272 1086.59 412.88 1086.14 412.368C1085.71 411.84 1085.49 411.152 1085.49 410.304C1085.49 409.632 1085.69 409.016 1086.09 408.456C1086.49 407.896 1087.06 407.456 1087.8 407.136C1088.53 406.8 1089.37 406.632 1090.32 406.632C1091.77 406.632 1092.95 407 1093.85 407.736C1094.74 408.472 1095.22 409.48 1095.29 410.76H1093.1C1093.05 410.072 1092.77 409.52 1092.26 409.104C1091.77 408.688 1091.09 408.48 1090.25 408.48C1089.46 408.48 1088.84 408.648 1088.37 408.984C1087.91 409.32 1087.68 409.76 1087.68 410.304C1087.68 410.736 1087.81 411.096 1088.09 411.384C1088.37 411.656 1088.73 411.88 1089.14 412.056C1089.57 412.216 1090.17 412.4 1090.92 412.608C1091.86 412.864 1092.63 413.12 1093.22 413.376C1093.81 413.616 1094.32 413.984 1094.73 414.48C1095.17 414.976 1095.39 415.624 1095.41 416.424C1095.41 417.144 1095.21 417.792 1094.81 418.368C1094.41 418.944 1093.84 419.4 1093.1 419.736C1092.38 420.056 1091.55 420.216 1090.61 420.216ZM1101.15 408.648V416.4C1101.15 417.04 1101.29 417.496 1101.56 417.768C1101.83 418.024 1102.3 418.152 1102.98 418.152H1104.58V420H1102.62C1101.4 420 1100.49 419.72 1099.88 419.16C1099.27 418.6 1098.97 417.68 1098.97 416.4V408.648H1097.26V406.848H1098.97V403.536H1101.15V406.848H1104.58V408.648H1101.15Z" fill="#3A3A3A"/>
<path d="M193.152 367.168C192.048 367.168 191.056 366.976 190.176 366.592C189.312 366.192 188.632 365.648 188.136 364.96C187.64 364.256 187.384 363.448 187.368 362.536H189.696C189.776 363.32 190.096 363.984 190.656 364.528C191.232 365.056 192.064 365.32 193.152 365.32C194.192 365.32 195.008 365.064 195.6 364.552C196.208 364.024 196.512 363.352 196.512 362.536C196.512 361.896 196.336 361.376 195.984 360.976C195.632 360.576 195.192 360.272 194.664 360.064C194.136 359.856 193.424 359.632 192.528 359.392C191.424 359.104 190.536 358.816 189.864 358.528C189.208 358.24 188.64 357.792 188.16 357.184C187.696 356.56 187.464 355.728 187.464 354.688C187.464 353.776 187.696 352.968 188.16 352.264C188.624 351.56 189.272 351.016 190.104 350.632C190.952 350.248 191.92 350.056 193.008 350.056C194.576 350.056 195.856 350.448 196.848 351.232C197.856 352.016 198.424 353.056 198.552 354.352H196.152C196.072 353.712 195.736 353.152 195.144 352.672C194.552 352.176 193.768 351.928 192.792 351.928C191.88 351.928 191.136 352.168 190.56 352.648C189.984 353.112 189.696 353.768 189.696 354.616C189.696 355.224 189.864 355.72 190.2 356.104C190.552 356.488 190.976 356.784 191.472 356.992C191.984 357.184 192.696 357.408 193.608 357.664C194.712 357.968 195.6 358.272 196.272 358.576C196.944 358.864 197.52 359.32 198 359.944C198.48 360.552 198.72 361.384 198.72 362.44C198.72 363.256 198.504 364.024 198.072 364.744C197.64 365.464 197 366.048 196.152 366.496C195.304 366.944 194.304 367.168 193.152 367.168ZM201.118 360.376C201.118 359.032 201.39 357.856 201.934 356.848C202.478 355.824 203.222 355.032 204.166 354.472C205.126 353.912 206.19 353.632 207.358 353.632C208.51 353.632 209.51 353.88 210.358 354.376C211.206 354.872 211.838 355.496 212.254 356.248V353.848H214.462V367H212.254V364.552C211.822 365.32 211.174 365.96 210.31 366.472C209.462 366.968 208.47 367.216 207.334 367.216C206.166 367.216 205.11 366.928 204.166 366.352C203.222 365.776 202.478 364.968 201.934 363.928C201.39 362.888 201.118 361.704 201.118 360.376ZM212.254 360.4C212.254 359.408 212.054 358.544 211.654 357.808C211.254 357.072 210.71 356.512 210.022 356.128C209.35 355.728 208.606 355.528 207.79 355.528C206.974 355.528 206.23 355.72 205.558 356.104C204.886 356.488 204.35 357.048 203.95 357.784C203.55 358.52 203.35 359.384 203.35 360.376C203.35 361.384 203.55 362.264 203.95 363.016C204.35 363.752 204.886 364.32 205.558 364.72C206.23 365.104 206.974 365.296 207.79 365.296C208.606 365.296 209.35 365.104 210.022 364.72C210.71 364.32 211.254 363.752 211.654 363.016C212.054 362.264 212.254 361.392 212.254 360.4ZM224.561 353.608C226.161 353.608 227.457 354.096 228.449 355.072C229.441 356.032 229.937 357.424 229.937 359.248V367H227.777V359.56C227.777 358.248 227.449 357.248 226.793 356.56C226.137 355.856 225.241 355.504 224.105 355.504C222.953 355.504 222.033 355.864 221.345 356.584C220.673 357.304 220.337 358.352 220.337 359.728V367H218.153V353.848H220.337V355.72C220.769 355.048 221.353 354.528 222.089 354.16C222.841 353.792 223.665 353.608 224.561 353.608ZM248.327 350.272V362.632C248.327 364.008 247.903 365.112 247.055 365.944C246.207 366.76 245.087 367.168 243.695 367.168C242.287 367.168 241.159 366.752 240.311 365.92C239.463 365.072 239.039 363.92 239.039 362.464H241.223C241.239 363.28 241.447 363.944 241.847 364.456C242.263 364.968 242.879 365.224 243.695 365.224C244.511 365.224 245.119 364.984 245.519 364.504C245.919 364.008 246.119 363.384 246.119 362.632V350.272H248.327ZM258.365 367.216C257.133 367.216 256.013 366.936 255.005 366.376C254.013 365.816 253.229 365.024 252.653 364C252.093 362.96 251.813 361.76 251.813 360.4C251.813 359.056 252.101 357.872 252.677 356.848C253.269 355.808 254.069 355.016 255.077 354.472C256.085 353.912 257.213 353.632 258.461 353.632C259.709 353.632 260.837 353.912 261.845 354.472C262.853 355.016 263.645 355.8 264.221 356.824C264.813 357.848 265.109 359.04 265.109 360.4C265.109 361.76 264.805 362.96 264.197 364C263.605 365.024 262.797 365.816 261.773 366.376C260.749 366.936 259.613 367.216 258.365 367.216ZM258.365 365.296C259.149 365.296 259.885 365.112 260.573 364.744C261.261 364.376 261.813 363.824 262.229 363.088C262.661 362.352 262.877 361.456 262.877 360.4C262.877 359.344 262.669 358.448 262.253 357.712C261.837 356.976 261.293 356.432 260.621 356.08C259.949 355.712 259.221 355.528 258.437 355.528C257.637 355.528 256.901 355.712 256.229 356.08C255.573 356.432 255.045 356.976 254.645 357.712C254.245 358.448 254.045 359.344 254.045 360.4C254.045 361.472 254.237 362.376 254.621 363.112C255.021 363.848 255.549 364.4 256.205 364.768C256.861 365.12 257.581 365.296 258.365 365.296ZM267.165 360.376C267.165 359.032 267.437 357.856 267.981 356.848C268.525 355.824 269.269 355.032 270.213 354.472C271.173 353.912 272.237 353.632 273.405 353.632C274.557 353.632 275.557 353.88 276.405 354.376C277.253 354.872 277.885 355.496 278.301 356.248V353.848H280.509V367H278.301V364.552C277.869 365.32 277.221 365.96 276.357 366.472C275.509 366.968 274.517 367.216 273.381 367.216C272.213 367.216 271.157 366.928 270.213 366.352C269.269 365.776 268.525 364.968 267.981 363.928C267.437 362.888 267.165 361.704 267.165 360.376ZM278.301 360.4C278.301 359.408 278.101 358.544 277.701 357.808C277.301 357.072 276.757 356.512 276.069 356.128C275.397 355.728 274.653 355.528 273.837 355.528C273.021 355.528 272.277 355.72 271.605 356.104C270.933 356.488 270.397 357.048 269.997 357.784C269.597 358.52 269.397 359.384 269.397 360.376C269.397 361.384 269.597 362.264 269.997 363.016C270.397 363.752 270.933 364.32 271.605 364.72C272.277 365.104 273.021 365.296 273.837 365.296C274.653 365.296 275.397 365.104 276.069 364.72C276.757 364.32 277.301 363.752 277.701 363.016C278.101 362.264 278.301 361.392 278.301 360.4ZM283.384 360.376C283.384 359.032 283.656 357.856 284.2 356.848C284.744 355.824 285.488 355.032 286.432 354.472C287.392 353.912 288.464 353.632 289.648 353.632C290.784 353.632 291.776 353.888 292.624 354.4C293.488 354.896 294.12 355.512 294.52 356.248V353.848H296.728V373.24H294.52V364.576C294.104 365.312 293.464 365.936 292.6 366.448C291.736 366.96 290.728 367.216 289.576 367.216C288.424 367.216 287.376 366.928 286.432 366.352C285.488 365.776 284.744 364.968 284.2 363.928C283.656 362.888 283.384 361.704 283.384 360.376ZM294.52 360.4C294.52 359.408 294.32 358.544 293.92 357.808C293.52 357.072 292.976 356.512 292.288 356.128C291.616 355.728 290.872 355.528 290.056 355.528C289.24 355.528 288.496 355.72 287.824 356.104C287.152 356.488 286.616 357.048 286.216 357.784C285.816 358.52 285.616 359.384 285.616 360.376C285.616 361.384 285.816 362.264 286.216 363.016C286.616 363.752 287.152 364.32 287.824 364.72C288.496 365.104 289.24 365.296 290.056 365.296C290.872 365.296 291.616 365.104 292.288 364.72C292.976 364.32 293.52 363.752 293.92 363.016C294.32 362.264 294.52 361.392 294.52 360.4ZM312.082 353.848V367H309.898V365.056C309.482 365.728 308.898 366.256 308.146 366.64C307.41 367.008 306.594 367.192 305.698 367.192C304.674 367.192 303.754 366.984 302.938 366.568C302.122 366.136 301.474 365.496 300.994 364.648C300.53 363.8 300.298 362.768 300.298 361.552V353.848H302.458V361.264C302.458 362.56 302.786 363.56 303.442 364.264C304.098 364.952 304.994 365.296 306.13 365.296C307.298 365.296 308.218 364.936 308.89 364.216C309.562 363.496 309.898 362.448 309.898 361.072V353.848H312.082ZM316.898 351.712C316.482 351.712 316.13 351.568 315.842 351.28C315.554 350.992 315.41 350.64 315.41 350.224C315.41 349.808 315.554 349.456 315.842 349.168C316.13 348.88 316.482 348.736 316.898 348.736C317.298 348.736 317.634 348.88 317.906 349.168C318.194 349.456 318.338 349.808 318.338 350.224C318.338 350.64 318.194 350.992 317.906 351.28C317.634 351.568 317.298 351.712 316.898 351.712ZM317.954 353.848V367H315.77V353.848H317.954ZM328.084 353.608C329.684 353.608 330.98 354.096 331.972 355.072C332.964 356.032 333.46 357.424 333.46 359.248V367H331.3V359.56C331.3 358.248 330.972 357.248 330.316 356.56C329.66 355.856 328.764 355.504 327.628 355.504C326.476 355.504 325.556 355.864 324.868 356.584C324.196 357.304 323.86 358.352 323.86 359.728V367H321.676V353.848H323.86V355.72C324.292 355.048 324.876 354.528 325.612 354.16C326.364 353.792 327.188 353.608 328.084 353.608ZM357.25 350.272L350.938 367H348.418L342.106 350.272H344.434L349.69 364.696L354.946 350.272H357.25ZM358.829 360.376C358.829 359.032 359.101 357.856 359.645 356.848C360.189 355.824 360.933 355.032 361.877 354.472C362.837 353.912 363.901 353.632 365.069 353.632C366.221 353.632 367.221 353.88 368.069 354.376C368.917 354.872 369.549 355.496 369.965 356.248V353.848H372.173V367H369.965V364.552C369.533 365.32 368.885 365.96 368.021 366.472C367.173 366.968 366.181 367.216 365.045 367.216C363.877 367.216 362.821 366.928 361.877 366.352C360.933 365.776 360.189 364.968 359.645 363.928C359.101 362.888 358.829 361.704 358.829 360.376ZM369.965 360.4C369.965 359.408 369.765 358.544 369.365 357.808C368.965 357.072 368.421 356.512 367.733 356.128C367.061 355.728 366.317 355.528 365.501 355.528C364.685 355.528 363.941 355.72 363.269 356.104C362.597 356.488 362.061 357.048 361.661 357.784C361.261 358.52 361.061 359.384 361.061 360.376C361.061 361.384 361.261 362.264 361.661 363.016C362.061 363.752 362.597 364.32 363.269 364.72C363.941 365.104 364.685 365.296 365.501 365.296C366.317 365.296 367.061 365.104 367.733 364.72C368.421 364.32 368.965 363.752 369.365 363.016C369.765 362.264 369.965 361.392 369.965 360.4ZM378.048 349.24V367H375.864V349.24H378.048ZM383.954 349.24V367H381.77V349.24H383.954ZM399.676 359.92C399.676 360.336 399.652 360.776 399.604 361.24H389.092C389.172 362.536 389.612 363.552 390.412 364.288C391.228 365.008 392.212 365.368 393.364 365.368C394.308 365.368 395.092 365.152 395.716 364.72C396.356 364.272 396.804 363.68 397.06 362.944H399.412C399.06 364.208 398.356 365.24 397.3 366.04C396.244 366.824 394.932 367.216 393.364 367.216C392.116 367.216 390.996 366.936 390.004 366.376C389.028 365.816 388.26 365.024 387.7 364C387.14 362.96 386.86 361.76 386.86 360.4C386.86 359.04 387.132 357.848 387.676 356.824C388.22 355.8 388.98 355.016 389.956 354.472C390.948 353.912 392.084 353.632 393.364 353.632C394.612 353.632 395.716 353.904 396.676 354.448C397.636 354.992 398.372 355.744 398.884 356.704C399.412 357.648 399.676 358.72 399.676 359.92ZM397.42 359.464C397.42 358.632 397.236 357.92 396.868 357.328C396.5 356.72 395.996 356.264 395.356 355.96C394.732 355.64 394.036 355.48 393.268 355.48C392.164 355.48 391.22 355.832 390.436 356.536C389.668 357.24 389.228 358.216 389.116 359.464H397.42ZM413.887 353.848L405.967 373.192H403.711L406.303 366.856L400.999 353.848H403.423L407.551 364.504L411.631 353.848H413.887Z" fill="#3A3A3A"/>
<path d="M206.152 483.168C205.048 483.168 204.056 482.976 203.176 482.592C202.312 482.192 201.632 481.648 201.136 480.96C200.64 480.256 200.384 479.448 200.368 478.536H202.696C202.776 479.32 203.096 479.984 203.656 480.528C204.232 481.056 205.064 481.32 206.152 481.32C207.192 481.32 208.008 481.064 208.6 480.552C209.208 480.024 209.512 479.352 209.512 478.536C209.512 477.896 209.336 477.376 208.984 476.976C208.632 476.576 208.192 476.272 207.664 476.064C207.136 475.856 206.424 475.632 205.528 475.392C204.424 475.104 203.536 474.816 202.864 474.528C202.208 474.24 201.64 473.792 201.16 473.184C200.696 472.56 200.464 471.728 200.464 470.688C200.464 469.776 200.696 468.968 201.16 468.264C201.624 467.56 202.272 467.016 203.104 466.632C203.952 466.248 204.92 466.056 206.008 466.056C207.576 466.056 208.856 466.448 209.848 467.232C210.856 468.016 211.424 469.056 211.552 470.352H209.152C209.072 469.712 208.736 469.152 208.144 468.672C207.552 468.176 206.768 467.928 205.792 467.928C204.88 467.928 204.136 468.168 203.56 468.648C202.984 469.112 202.696 469.768 202.696 470.616C202.696 471.224 202.864 471.72 203.2 472.104C203.552 472.488 203.976 472.784 204.472 472.992C204.984 473.184 205.696 473.408 206.608 473.664C207.712 473.968 208.6 474.272 209.272 474.576C209.944 474.864 210.52 475.32 211 475.944C211.48 476.552 211.72 477.384 211.72 478.44C211.72 479.256 211.504 480.024 211.072 480.744C210.64 481.464 210 482.048 209.152 482.496C208.304 482.944 207.304 483.168 206.152 483.168ZM216.062 467.712C215.646 467.712 215.294 467.568 215.006 467.28C214.718 466.992 214.574 466.64 214.574 466.224C214.574 465.808 214.718 465.456 215.006 465.168C215.294 464.88 215.646 464.736 216.062 464.736C216.462 464.736 216.798 464.88 217.07 465.168C217.358 465.456 217.502 465.808 217.502 466.224C217.502 466.64 217.358 466.992 217.07 467.28C216.798 467.568 216.462 467.712 216.062 467.712ZM217.118 469.848V483H214.934V469.848H217.118ZM232.84 475.92C232.84 476.336 232.816 476.776 232.768 477.24H222.256C222.336 478.536 222.776 479.552 223.576 480.288C224.392 481.008 225.376 481.368 226.528 481.368C227.472 481.368 228.256 481.152 228.88 480.72C229.52 480.272 229.968 479.68 230.224 478.944H232.576C232.224 480.208 231.52 481.24 230.464 482.04C229.408 482.824 228.096 483.216 226.528 483.216C225.28 483.216 224.16 482.936 223.168 482.376C222.192 481.816 221.424 481.024 220.864 480C220.304 478.96 220.024 477.76 220.024 476.4C220.024 475.04 220.296 473.848 220.84 472.824C221.384 471.8 222.144 471.016 223.12 470.472C224.112 469.912 225.248 469.632 226.528 469.632C227.776 469.632 228.88 469.904 229.84 470.448C230.8 470.992 231.536 471.744 232.048 472.704C232.576 473.648 232.84 474.72 232.84 475.92ZM230.584 475.464C230.584 474.632 230.4 473.92 230.032 473.328C229.664 472.72 229.16 472.264 228.52 471.96C227.896 471.64 227.2 471.48 226.432 471.48C225.328 471.48 224.384 471.832 223.6 472.536C222.832 473.24 222.392 474.216 222.28 475.464H230.584ZM237.907 471.984C238.291 471.232 238.835 470.648 239.539 470.232C240.259 469.816 241.131 469.608 242.155 469.608V471.864H241.579C239.131 471.864 237.907 473.192 237.907 475.848V483H235.723V469.848H237.907V471.984ZM246.86 471.984C247.244 471.232 247.788 470.648 248.492 470.232C249.212 469.816 250.084 469.608 251.108 469.608V471.864H250.532C248.084 471.864 246.86 473.192 246.86 475.848V483H244.676V469.848H246.86V471.984ZM252.813 476.376C252.813 475.032 253.085 473.856 253.629 472.848C254.173 471.824 254.917 471.032 255.861 470.472C256.821 469.912 257.885 469.632 259.053 469.632C260.205 469.632 261.205 469.88 262.053 470.376C262.901 470.872 263.533 471.496 263.949 472.248V469.848H266.157V483H263.949V480.552C263.517 481.32 262.869 481.96 262.005 482.472C261.157 482.968 260.165 483.216 259.029 483.216C257.861 483.216 256.805 482.928 255.861 482.352C254.917 481.776 254.173 480.968 253.629 479.928C253.085 478.888 252.813 477.704 252.813 476.376ZM263.949 476.4C263.949 475.408 263.749 474.544 263.349 473.808C262.949 473.072 262.405 472.512 261.717 472.128C261.045 471.728 260.301 471.528 259.485 471.528C258.669 471.528 257.925 471.72 257.253 472.104C256.581 472.488 256.045 473.048 255.645 473.784C255.245 474.52 255.045 475.384 255.045 476.376C255.045 477.384 255.245 478.264 255.645 479.016C256.045 479.752 256.581 480.32 257.253 480.72C257.925 481.104 258.669 481.296 259.485 481.296C260.301 481.296 261.045 481.104 261.717 480.72C262.405 480.32 262.949 479.752 263.349 479.016C263.749 478.264 263.949 477.392 263.949 476.4ZM285.702 466.272V468.048H278.43V473.688H284.334V475.464H278.43V483H276.246V466.272H285.702ZM294.076 483.216C292.844 483.216 291.724 482.936 290.716 482.376C289.724 481.816 288.94 481.024 288.364 480C287.804 478.96 287.524 477.76 287.524 476.4C287.524 475.056 287.812 473.872 288.388 472.848C288.98 471.808 289.78 471.016 290.788 470.472C291.796 469.912 292.924 469.632 294.172 469.632C295.42 469.632 296.548 469.912 297.556 470.472C298.564 471.016 299.356 471.8 299.932 472.824C300.524 473.848 300.82 475.04 300.82 476.4C300.82 477.76 300.516 478.96 299.908 480C299.316 481.024 298.508 481.816 297.484 482.376C296.46 482.936 295.324 483.216 294.076 483.216ZM294.076 481.296C294.86 481.296 295.596 481.112 296.284 480.744C296.972 480.376 297.524 479.824 297.94 479.088C298.372 478.352 298.588 477.456 298.588 476.4C298.588 475.344 298.38 474.448 297.964 473.712C297.548 472.976 297.004 472.432 296.332 472.08C295.66 471.712 294.932 471.528 294.148 471.528C293.348 471.528 292.612 471.712 291.94 472.08C291.284 472.432 290.756 472.976 290.356 473.712C289.956 474.448 289.756 475.344 289.756 476.4C289.756 477.472 289.948 478.376 290.332 479.112C290.732 479.848 291.26 480.4 291.916 480.768C292.572 481.12 293.292 481.296 294.076 481.296ZM309.428 483.216C308.196 483.216 307.076 482.936 306.068 482.376C305.076 481.816 304.292 481.024 303.716 480C303.156 478.96 302.876 477.76 302.876 476.4C302.876 475.056 303.164 473.872 303.74 472.848C304.332 471.808 305.132 471.016 306.14 470.472C307.148 469.912 308.276 469.632 309.524 469.632C310.772 469.632 311.9 469.912 312.908 470.472C313.916 471.016 314.708 471.8 315.284 472.824C315.876 473.848 316.172 475.04 316.172 476.4C316.172 477.76 315.868 478.96 315.26 480C314.668 481.024 313.86 481.816 312.836 482.376C311.812 482.936 310.676 483.216 309.428 483.216ZM309.428 481.296C310.212 481.296 310.948 481.112 311.636 480.744C312.324 480.376 312.876 479.824 313.292 479.088C313.724 478.352 313.94 477.456 313.94 476.4C313.94 475.344 313.732 474.448 313.316 473.712C312.9 472.976 312.356 472.432 311.684 472.08C311.012 471.712 310.284 471.528 309.5 471.528C308.7 471.528 307.964 471.712 307.292 472.08C306.636 472.432 306.108 472.976 305.708 473.712C305.308 474.448 305.108 475.344 305.108 476.4C305.108 477.472 305.3 478.376 305.684 479.112C306.084 479.848 306.612 480.4 307.268 480.768C307.924 481.12 308.644 481.296 309.428 481.296ZM321.707 471.648V479.4C321.707 480.04 321.843 480.496 322.115 480.768C322.387 481.024 322.859 481.152 323.531 481.152H325.139V483H323.171C321.955 483 321.043 482.72 320.435 482.16C319.827 481.6 319.523 480.68 319.523 479.4V471.648H317.819V469.848H319.523V466.536H321.707V469.848H325.139V471.648H321.707ZM334.314 469.608C335.306 469.608 336.202 469.824 337.002 470.256C337.802 470.672 338.426 471.304 338.874 472.152C339.338 473 339.57 474.032 339.57 475.248V483H337.41V475.56C337.41 474.248 337.082 473.248 336.426 472.56C335.77 471.856 334.874 471.504 333.738 471.504C332.586 471.504 331.666 471.864 330.978 472.584C330.306 473.304 329.97 474.352 329.97 475.728V483H327.786V465.24H329.97V471.72C330.402 471.048 330.994 470.528 331.746 470.16C332.514 469.792 333.37 469.608 334.314 469.608ZM344.265 467.712C343.849 467.712 343.497 467.568 343.209 467.28C342.921 466.992 342.777 466.64 342.777 466.224C342.777 465.808 342.921 465.456 343.209 465.168C343.497 464.88 343.849 464.736 344.265 464.736C344.665 464.736 345.001 464.88 345.273 465.168C345.561 465.456 345.705 465.808 345.705 466.224C345.705 466.64 345.561 466.992 345.273 467.28C345.001 467.568 344.665 467.712 344.265 467.712ZM345.321 469.848V483H343.137V469.848H345.321ZM351.227 465.24V483H349.043V465.24H351.227ZM357.134 465.24V483H354.95V465.24H357.134ZM365.512 483.216C364.504 483.216 363.6 483.048 362.8 482.712C362 482.36 361.368 481.88 360.904 481.272C360.44 480.648 360.184 479.936 360.136 479.136H362.392C362.456 479.792 362.76 480.328 363.304 480.744C363.864 481.16 364.592 481.368 365.488 481.368C366.32 481.368 366.976 481.184 367.456 480.816C367.936 480.448 368.176 479.984 368.176 479.424C368.176 478.848 367.92 478.424 367.408 478.152C366.896 477.864 366.104 477.584 365.032 477.312C364.056 477.056 363.256 476.8 362.632 476.544C362.024 476.272 361.496 475.88 361.048 475.368C360.616 474.84 360.4 474.152 360.4 473.304C360.4 472.632 360.6 472.016 361 471.456C361.4 470.896 361.968 470.456 362.704 470.136C363.44 469.8 364.28 469.632 365.224 469.632C366.68 469.632 367.856 470 368.752 470.736C369.648 471.472 370.128 472.48 370.192 473.76H368.008C367.96 473.072 367.68 472.52 367.168 472.104C366.672 471.688 366 471.48 365.152 471.48C364.368 471.48 363.744 471.648 363.28 471.984C362.816 472.32 362.584 472.76 362.584 473.304C362.584 473.736 362.72 474.096 362.992 474.384C363.28 474.656 363.632 474.88 364.048 475.056C364.48 475.216 365.072 475.4 365.824 475.608C366.768 475.864 367.536 476.12 368.128 476.376C368.72 476.616 369.224 476.984 369.64 477.48C370.072 477.976 370.296 478.624 370.312 479.424C370.312 480.144 370.112 480.792 369.712 481.368C369.312 481.944 368.744 482.4 368.008 482.736C367.288 483.056 366.456 483.216 365.512 483.216Z" fill="#3A3A3A"/>
<path d="M768.061 216.561C768.061 314.613 674.744 369.377 642.284 435.846C639.934 440.656 633.066 440.656 630.716 435.846C598.256 369.377 504.938 314.613 504.938 216.561C504.938 143.904 563.842 85 636.5 85C709.158 85 768.061 143.904 768.061 216.561Z" fill="#EAEAEA"/>
<path d="M636.499 305.917C685.849 305.917 725.855 265.911 725.855 216.562C725.855 167.212 685.849 127.206 636.499 127.206C587.15 127.206 547.144 167.212 547.144 216.562C547.144 265.911 587.15 305.917 636.499 305.917Z" fill="white"/>
<path d="M636.5 280.938C672.054 280.938 700.876 252.115 700.876 216.561C700.876 181.007 672.054 152.185 636.5 152.185C600.946 152.185 572.124 181.007 572.124 216.561C572.124 252.115 600.946 280.938 636.5 280.938Z" fill="#EAEAEA"/>
<path d="M690.383 419.327C681.784 416.895 672.93 415.541 664.106 414.622C664.106 414.622 664.106 414.622 664.103 414.622C662.344 417.095 660.652 419.57 659.035 422.05C671.65 424.395 683.981 428.775 694.922 435.137C697.671 436.808 703.723 441.101 703.336 444.452C702.922 445.858 702.11 446.651 700.815 447.821C699.952 448.556 698.9 449.28 697.727 449.966C679.882 460.231 637.557 461.255 616.602 459.699C606.805 458.926 597.113 457.572 587.759 454.886C583.346 453.581 579.188 452.076 575.346 449.859C573.337 448.684 569.527 446.08 569.607 443.799C570.083 440.379 575.016 436.862 578.024 435.032C588.778 428.87 601.406 424.7 614.159 422.345C612.411 419.654 610.573 416.974 608.661 414.294C599.883 415.272 591.179 416.882 582.616 419.329C570.682 422.982 554.833 429.868 554.099 444.452C553.812 454.991 562.506 462.853 570.769 467.64C590.237 478.637 614.469 482.157 636.5 482.592C659.081 482.743 682.266 478.857 702.177 467.537C710.386 462.712 719.103 454.973 718.901 444.452C718.271 429.828 702.471 422.803 690.383 419.327Z" fill="#EAEAEA"/>
<path d="M830.63 477.813C830.63 502.877 806.776 516.876 798.478 533.867C797.878 535.096 796.122 535.096 795.522 533.867C787.224 516.876 763.37 502.877 763.37 477.813C763.37 459.24 778.427 444.183 797 444.183C815.573 444.183 830.63 459.24 830.63 477.813Z" fill="#E4E4E4"/>
<path d="M797 500.654C809.615 500.654 819.842 490.428 819.842 477.813C819.842 465.198 809.615 454.971 797 454.971C784.386 454.971 774.159 465.198 774.159 477.813C774.159 490.428 784.386 500.654 797 500.654Z" fill="white"/>
<path d="M797 494.269C806.088 494.269 813.456 486.901 813.456 477.813C813.456 468.725 806.088 461.357 797 461.357C787.912 461.357 780.544 468.725 780.544 477.813C780.544 486.901 787.912 494.269 797 494.269Z" fill="#E4E4E4"/>
<path d="M810.773 529.644C808.575 529.023 806.312 528.676 804.056 528.441C804.056 528.441 804.056 528.441 804.056 528.441C803.606 529.074 803.174 529.706 802.76 530.34C805.985 530.94 809.137 532.059 811.934 533.686C812.636 534.113 814.183 535.21 814.085 536.067C813.979 536.426 813.771 536.629 813.44 536.928C813.22 537.116 812.951 537.301 812.651 537.476C808.089 540.1 797.27 540.362 791.913 539.964C789.409 539.767 786.932 539.42 784.541 538.734C783.412 538.4 782.35 538.015 781.368 537.449C780.854 537.148 779.88 536.483 779.9 535.9C780.022 535.026 781.283 534.127 782.052 533.659C784.801 532.084 788.029 531.018 791.289 530.416C790.842 529.728 790.372 529.043 789.883 528.358C787.64 528.608 785.415 529.019 783.226 529.645C780.175 530.579 776.124 532.339 775.936 536.067C775.863 538.761 778.085 540.77 780.197 541.994C785.174 544.805 791.368 545.705 797 545.816C802.772 545.855 808.699 544.861 813.788 541.968C815.887 540.734 818.115 538.756 818.063 536.067C817.902 532.328 813.863 530.533 810.773 529.644Z" fill="#E4E4E4"/>
<g opacity="0.71">
<path d="M949.8 447.837C949.8 465.574 932.918 475.481 927.046 487.506C926.621 488.376 925.379 488.376 924.954 487.506C919.082 475.481 902.2 465.574 902.2 447.837C902.2 434.693 912.856 424.037 926 424.037C939.144 424.037 949.8 434.693 949.8 447.837Z" fill="#E4E4E4"/>
<path d="M926 464.002C934.927 464.002 942.164 456.764 942.164 447.837C942.164 438.91 934.927 431.672 926 431.672C917.072 431.672 909.835 438.91 909.835 447.837C909.835 456.764 917.072 464.002 926 464.002Z" fill="white"/>
<path d="M926 459.482C932.432 459.482 937.646 454.268 937.646 447.837C937.646 441.405 932.432 436.191 926 436.191C919.569 436.191 914.355 441.405 914.355 447.837C914.355 454.268 919.569 459.482 926 459.482Z" fill="#E4E4E4"/>
<path d="M935.747 484.517C934.192 484.077 932.59 483.832 930.994 483.666C930.994 483.666 930.994 483.666 930.993 483.666C930.675 484.114 930.369 484.561 930.076 485.01C932.358 485.434 934.589 486.227 936.568 487.377C937.066 487.68 938.16 488.456 938.09 489.063C938.015 489.317 937.869 489.46 937.634 489.672C937.478 489.805 937.288 489.936 937.076 490.06C933.848 491.917 926.191 492.102 922.4 491.821C920.628 491.681 918.874 491.436 917.182 490.95C916.384 490.714 915.632 490.442 914.937 490.041C914.573 489.828 913.884 489.357 913.899 488.945C913.985 488.326 914.877 487.69 915.421 487.358C917.367 486.244 919.651 485.489 921.958 485.063C921.642 484.577 921.309 484.092 920.963 483.607C919.376 483.784 917.801 484.075 916.252 484.518C914.093 485.179 911.226 486.424 911.093 489.063C911.041 490.969 912.614 492.391 914.109 493.257C917.631 495.247 922.014 495.883 926 495.962C930.085 495.99 934.279 495.287 937.881 493.239C939.366 492.366 940.943 490.966 940.906 489.063C940.792 486.417 937.934 485.146 935.747 484.517Z" fill="#E4E4E4"/>
</g>
<g opacity="0.2">
<path d="M867.63 328.813C867.63 353.877 843.776 367.876 835.478 384.867C834.878 386.096 833.122 386.096 832.522 384.867C824.224 367.876 800.37 353.877 800.37 328.813C800.37 310.24 815.427 295.183 834 295.183C852.573 295.183 867.63 310.24 867.63 328.813Z" fill="#E4E4E4"/>
<path d="M834 351.654C846.615 351.654 856.842 341.428 856.842 328.813C856.842 316.198 846.615 305.971 834 305.971C821.386 305.971 811.159 316.198 811.159 328.813C811.159 341.428 821.386 351.654 834 351.654Z" fill="white"/>
<path d="M834 345.269C843.088 345.269 850.456 337.901 850.456 328.813C850.456 319.725 843.088 312.357 834 312.357C824.912 312.357 817.544 319.725 817.544 328.813C817.544 337.901 824.912 345.269 834 345.269Z" fill="#E4E4E4"/>
<path d="M847.773 380.644C845.575 380.023 843.312 379.676 841.056 379.441C841.056 379.441 841.056 379.441 841.056 379.441C840.606 380.074 840.174 380.706 839.76 381.34C842.985 381.94 846.137 383.059 848.934 384.686C849.636 385.113 851.183 386.21 851.085 387.067C850.979 387.426 850.771 387.629 850.44 387.928C850.219 388.116 849.951 388.301 849.651 388.476C845.089 391.1 834.27 391.362 828.913 390.964C826.409 390.767 823.932 390.42 821.541 389.734C820.412 389.4 819.35 389.015 818.368 388.449C817.854 388.148 816.88 387.483 816.9 386.9C817.022 386.026 818.283 385.127 819.052 384.659C821.801 383.084 825.029 382.018 828.289 381.416C827.842 380.728 827.372 380.043 826.883 379.358C824.64 379.608 822.415 380.019 820.226 380.645C817.175 381.579 813.124 383.339 812.936 387.067C812.863 389.761 815.085 391.77 817.197 392.994C822.174 395.805 828.368 396.705 834 396.816C839.772 396.855 845.699 395.861 850.788 392.968C852.887 391.734 855.115 389.756 855.063 387.067C854.902 383.328 850.863 381.533 847.773 380.644Z" fill="#E4E4E4"/>
</g>
<g opacity="0.71">
<path d="M435.767 490.032C435.767 512.589 414.299 525.188 406.831 540.48C406.29 541.587 404.71 541.587 404.17 540.48C396.702 525.188 375.233 512.589 375.233 490.032C375.233 473.316 388.785 459.765 405.5 459.765C422.216 459.765 435.767 473.316 435.767 490.032Z" fill="#E4E4E4"/>
<path d="M405.5 510.589C416.854 510.589 426.058 501.385 426.058 490.032C426.058 478.678 416.854 469.474 405.5 469.474C394.147 469.474 384.943 478.678 384.943 490.032C384.943 501.385 394.147 510.589 405.5 510.589Z" fill="white"/>
<path d="M405.501 504.842C413.68 504.842 420.311 498.211 420.311 490.032C420.311 481.852 413.68 475.221 405.501 475.221C397.321 475.221 390.69 481.852 390.69 490.032C390.69 498.211 397.321 504.842 405.501 504.842Z" fill="#E4E4E4"/>
<path d="M417.897 536.68C415.919 536.12 413.882 535.809 411.852 535.597C411.852 535.597 411.852 535.597 411.851 535.597C411.446 536.166 411.057 536.736 410.685 537.306C413.587 537.846 416.424 538.854 418.941 540.317C419.574 540.702 420.966 541.689 420.877 542.46C420.782 542.784 420.595 542.966 420.297 543.235C420.098 543.404 419.856 543.571 419.587 543.729C415.481 546.09 405.744 546.326 400.923 545.968C398.669 545.79 396.439 545.478 394.287 544.861C393.272 544.56 392.316 544.214 391.432 543.704C390.969 543.434 390.093 542.835 390.111 542.31C390.221 541.523 391.356 540.714 392.048 540.293C394.522 538.875 397.427 537.916 400.361 537.374C399.959 536.755 399.536 536.139 399.096 535.522C397.077 535.747 395.074 536.117 393.104 536.68C390.359 537.521 386.713 539.105 386.544 542.46C386.478 544.885 388.478 546.693 390.379 547.795C394.857 550.325 400.432 551.135 405.501 551.235C410.696 551.269 416.03 550.375 420.61 547.771C422.499 546.661 424.504 544.881 424.458 542.46C424.313 539.096 420.678 537.48 417.897 536.68Z" fill="#E4E4E4"/>
</g>
<g opacity="0.36">
<path d="M449.42 376.32C449.42 391.165 435.291 399.457 430.376 409.521C430.02 410.249 428.98 410.249 428.625 409.521C423.71 399.457 409.581 391.165 409.581 376.32C409.581 365.319 418.499 356.4 429.5 356.4C440.501 356.4 449.42 365.319 449.42 376.32Z" fill="#E4E4E4"/>
<path d="M429.501 389.849C436.973 389.849 443.03 383.792 443.03 376.32C443.03 368.848 436.973 362.791 429.501 362.791C422.029 362.791 415.972 368.848 415.972 376.32C415.972 383.792 422.029 389.849 429.501 389.849Z" fill="white"/>
<path d="M429.5 386.067C434.883 386.067 439.247 381.703 439.247 376.32C439.247 370.937 434.883 366.573 429.5 366.573C424.117 366.573 419.753 370.937 419.753 376.32C419.753 381.703 424.117 386.067 429.5 386.067Z" fill="#E4E4E4"/>
<path d="M437.659 407.02C436.357 406.651 435.016 406.446 433.68 406.307C433.68 406.307 433.68 406.307 433.68 406.307C433.413 406.682 433.157 407.056 432.912 407.432C434.822 407.787 436.689 408.45 438.346 409.413C438.762 409.666 439.678 410.316 439.62 410.824C439.557 411.037 439.434 411.157 439.238 411.334C439.107 411.445 438.948 411.555 438.771 411.659C436.069 413.213 429.66 413.368 426.488 413.132C425.004 413.015 423.537 412.81 422.121 412.404C421.452 412.206 420.823 411.978 420.241 411.642C419.937 411.464 419.36 411.07 419.372 410.725C419.444 410.207 420.191 409.675 420.647 409.397C422.275 408.464 424.187 407.833 426.118 407.477C425.853 407.069 425.575 406.663 425.285 406.258C423.956 406.406 422.638 406.649 421.342 407.02C419.535 407.573 417.136 408.616 417.024 410.824C416.981 412.419 418.297 413.61 419.548 414.334C422.496 416 426.165 416.532 429.5 416.598C432.919 416.621 436.43 416.033 439.444 414.319C440.687 413.588 442.007 412.417 441.976 410.824C441.881 408.609 439.489 407.546 437.659 407.02Z" fill="#E4E4E4"/>
</g>
<path d="M855 480H852.816L844.032 466.68V480H841.848V463.248H844.032L852.816 476.544V463.248H855V480ZM864.459 480.216C863.227 480.216 862.107 479.936 861.099 479.376C860.107 478.816 859.323 478.024 858.747 477C858.187 475.96 857.907 474.76 857.907 473.4C857.907 472.056 858.195 470.872 858.771 469.848C859.363 468.808 860.163 468.016 861.171 467.472C862.179 466.912 863.307 466.632 864.555 466.632C865.803 466.632 866.931 466.912 867.939 467.472C868.947 468.016 869.739 468.8 870.315 469.824C870.907 470.848 871.203 472.04 871.203 473.4C871.203 474.76 870.899 475.96 870.291 477C869.699 478.024 868.891 478.816 867.867 479.376C866.843 479.936 865.707 480.216 864.459 480.216ZM864.459 478.296C865.243 478.296 865.979 478.112 866.667 477.744C867.355 477.376 867.907 476.824 868.323 476.088C868.755 475.352 868.971 474.456 868.971 473.4C868.971 472.344 868.763 471.448 868.347 470.712C867.931 469.976 867.387 469.432 866.715 469.08C866.043 468.712 865.315 468.528 864.531 468.528C863.731 468.528 862.995 468.712 862.323 469.08C861.667 469.432 861.139 469.976 860.739 470.712C860.339 471.448 860.139 472.344 860.139 473.4C860.139 474.472 860.331 475.376 860.715 476.112C861.115 476.848 861.643 477.4 862.299 477.768C862.955 478.12 863.675 478.296 864.459 478.296ZM876.259 468.984C876.643 468.232 877.187 467.648 877.891 467.232C878.611 466.816 879.483 466.608 880.507 466.608V468.864H879.931C877.483 468.864 876.259 470.192 876.259 472.848V480H874.075V466.848H876.259V468.984ZM885.692 468.648V476.4C885.692 477.04 885.828 477.496 886.1 477.768C886.372 478.024 886.844 478.152 887.516 478.152H889.124V480H887.156C885.94 480 885.028 479.72 884.42 479.16C883.812 478.6 883.508 477.68 883.508 476.4V468.648H881.804V466.848H883.508V463.536H885.692V466.848H889.124V468.648H885.692ZM898.298 466.608C899.29 466.608 900.186 466.824 900.986 467.256C901.786 467.672 902.41 468.304 902.858 469.152C903.322 470 903.554 471.032 903.554 472.248V480H901.394V472.56C901.394 471.248 901.066 470.248 900.41 469.56C899.754 468.856 898.858 468.504 897.722 468.504C896.57 468.504 895.65 468.864 894.962 469.584C894.29 470.304 893.954 471.352 893.954 472.728V480H891.77V462.24H893.954V468.72C894.386 468.048 894.978 467.528 895.73 467.16C896.498 466.792 897.354 466.608 898.298 466.608ZM921.896 471.384C922.504 471.48 923.056 471.728 923.552 472.128C924.064 472.528 924.464 473.024 924.752 473.616C925.056 474.208 925.208 474.84 925.208 475.512C925.208 476.36 924.992 477.128 924.56 477.816C924.128 478.488 923.496 479.024 922.664 479.424C921.848 479.808 920.88 480 919.76 480H913.52V463.272H919.52C920.656 463.272 921.624 463.464 922.424 463.848C923.224 464.216 923.824 464.72 924.224 465.36C924.624 466 924.824 466.72 924.824 467.52C924.824 468.512 924.552 469.336 924.008 469.992C923.48 470.632 922.776 471.096 921.896 471.384ZM915.704 470.496H919.376C920.4 470.496 921.192 470.256 921.752 469.776C922.312 469.296 922.592 468.632 922.592 467.784C922.592 466.936 922.312 466.272 921.752 465.792C921.192 465.312 920.384 465.072 919.328 465.072H915.704V470.496ZM919.568 478.2C920.656 478.2 921.504 477.944 922.112 477.432C922.72 476.92 923.024 476.208 923.024 475.296C923.024 474.368 922.704 473.64 922.064 473.112C921.424 472.568 920.568 472.296 919.496 472.296H915.704V478.2H919.568ZM927.423 473.376C927.423 472.032 927.695 470.856 928.239 469.848C928.783 468.824 929.527 468.032 930.471 467.472C931.431 466.912 932.495 466.632 933.663 466.632C934.815 466.632 935.815 466.88 936.663 467.376C937.511 467.872 938.143 468.496 938.559 469.248V466.848H940.767V480H938.559V477.552C938.127 478.32 937.479 478.96 936.615 479.472C935.767 479.968 934.775 480.216 933.639 480.216C932.471 480.216 931.415 479.928 930.471 479.352C929.527 478.776 928.783 477.968 928.239 476.928C927.695 475.888 927.423 474.704 927.423 473.376ZM938.559 473.4C938.559 472.408 938.359 471.544 937.959 470.808C937.559 470.072 937.015 469.512 936.327 469.128C935.655 468.728 934.911 468.528 934.095 468.528C933.279 468.528 932.535 468.72 931.863 469.104C931.191 469.488 930.655 470.048 930.255 470.784C929.855 471.52 929.655 472.384 929.655 473.376C929.655 474.384 929.855 475.264 930.255 476.016C930.655 476.752 931.191 477.32 931.863 477.72C932.535 478.104 933.279 478.296 934.095 478.296C934.911 478.296 935.655 478.104 936.327 477.72C937.015 477.32 937.559 476.752 937.959 476.016C938.359 475.264 938.559 474.392 938.559 473.4ZM955.785 466.848L947.865 486.192H945.609L948.201 479.856L942.897 466.848H945.321L949.449 477.504L953.529 466.848H955.785Z" fill="#3A3A3A"/>
<defs>
<linearGradient id="paint0_linear_1_466" x1="525.02" y1="243.751" x2="660.489" y2="549.918" gradientUnits="userSpaceOnUse">
<stop offset="0.2" stop-color="white"/>
<stop offset="0.29" stop-color="#FDEBEA"/>
<stop offset="0.48" stop-color="#F9B8B5"/>
<stop offset="0.74" stop-color="#F26861"/>
<stop offset="0.9" stop-color="#EE332A"/>
</linearGradient>
<linearGradient id="paint1_linear_1_466" x1="660" y1="251" x2="660" y2="432" gradientUnits="userSpaceOnUse">
<stop offset="0.197563" stop-color="white"/>
<stop offset="1" stop-color="white" stop-opacity="0"/>
</linearGradient>
<clipPath id="clip0_1_466">
<rect width="1320" height="323" fill="white" transform="translate(0 251)"/>
</clipPath>
</defs>
</svg>
