<svg width="1440" height="795" viewBox="0 0 1440 795" fill="none" xmlns="http://www.w3.org/2000/svg">
<path fill-rule="evenodd" clip-rule="evenodd" d="M1438.92 1117.6L720 398L1438.92 878.797V1117.6ZM1018.48 1116.92L720 398L1201.37 1116.92H1018.48ZM720.202 1116.92L720 398L863.446 1116.92H720.202ZM421.984 1116.92L720 398L576.985 1116.92H421.984ZM0.403536 1116.92L720 398L239.202 1116.92H0.403536ZM0 696.478L720 398L0 879.373V696.478ZM0 398.202L720 398L0 541.446V398.202ZM0 99.9837L720 398L0 254.986V99.9837ZM0 -321.596L720 398L0 -82.7978V-321.596ZM421.523 -322L720 398L238.627 -322H421.523ZM719.798 -322L720 398L576.554 -322H719.798ZM1018.02 -322L720 398L863.014 -322H1018.02ZM1439.6 -322L720 398L1200.8 -322H1439.6ZM1438.92 99.5225L720 398L1438.92 -83.3731V99.5225ZM1438.92 397.798L720 398L1438.92 254.554V397.798ZM1438.92 696.016L720 398L1438.92 541.014V696.016Z" fill="#243545"/>
</svg>
