<svg width="628" height="182" viewBox="0 0 628 182" fill="none" xmlns="http://www.w3.org/2000/svg">
<mask id="path-1-outside-1_1_178" maskUnits="userSpaceOnUse" x="0" y="0" width="628" height="182" fill="black">
<rect fill="white" width="628" height="182"/>
<path d="M32.912 92.896C26.9387 92.896 21.5627 91.872 16.784 89.824C12.0053 87.6907 8.25067 84.704 5.52 80.864C2.78933 77.024 1.424 72.544 1.424 67.424H17.04C17.3813 71.264 18.8747 74.4213 21.52 76.896C24.2507 79.3707 28.048 80.608 32.912 80.608C37.9467 80.608 41.872 79.4133 44.688 77.024C47.504 74.5493 48.912 71.392 48.912 67.552C48.912 64.5653 48.016 62.1333 46.224 60.256C44.5173 58.3787 42.3413 56.928 39.696 55.904C37.136 54.88 33.552 53.7707 28.944 52.576C23.1413 51.04 18.4053 49.504 14.736 47.968C11.152 46.3467 8.08 43.872 5.52 40.544C2.96 37.216 1.68 32.7787 1.68 27.232C1.68 22.112 2.96 17.632 5.52 13.792C8.08 9.952 11.664 7.008 16.272 4.96C20.88 2.91199 26.2133 1.88799 32.272 1.88799C40.8907 1.88799 47.9307 4.06399 53.392 8.41599C58.9387 12.6827 62.0107 18.5707 62.608 26.08H46.48C46.224 22.8373 44.688 20.064 41.872 17.76C39.056 15.456 35.344 14.304 30.736 14.304C26.5547 14.304 23.1413 15.3707 20.496 17.504C17.8507 19.6373 16.528 22.7093 16.528 26.72C16.528 29.4507 17.3387 31.712 18.96 33.504C20.6667 35.2107 22.8 36.576 25.36 37.6C27.92 38.624 31.4187 39.7333 35.856 40.928C41.744 42.5493 46.5227 44.1707 50.192 45.792C53.9467 47.4133 57.104 49.9307 59.664 53.344C62.3093 56.672 63.632 61.152 63.632 66.784C63.632 71.3067 62.3947 75.5733 59.92 79.584C57.5307 83.5947 53.9893 86.8373 49.296 89.312C44.688 91.7013 39.2267 92.896 32.912 92.896ZM87.762 14.816V40.928H118.482V52.832H87.762V80.096H122.322V92H73.17V2.91199H122.322V14.816H87.762ZM178.823 92L158.343 56.416H147.207V92H132.615V3.03999H163.335C170.162 3.03999 175.922 4.23466 180.615 6.62399C185.394 9.01333 188.935 12.2133 191.239 16.224C193.628 20.2347 194.823 24.7147 194.823 29.664C194.823 35.4667 193.116 40.7573 189.703 45.536C186.375 50.2293 181.212 53.4293 174.215 55.136L196.231 92H178.823ZM147.207 44.768H163.335C168.796 44.768 172.892 43.4027 175.623 40.672C178.439 37.9413 179.847 34.272 179.847 29.664C179.847 25.056 178.482 21.472 175.751 18.912C173.02 16.2667 168.882 14.944 163.335 14.944H147.207V44.768ZM282.482 3.03999L249.074 92H232.178L198.642 3.03999H214.258L240.626 77.024L267.122 3.03999H282.482ZM301.597 3.03999V92H287.005V3.03999H301.597ZM308.211 47.328C308.211 38.624 310.216 30.816 314.227 23.904C318.323 16.992 323.827 11.616 330.739 7.77599C337.736 3.85066 345.374 1.88799 353.651 1.88799C363.123 1.88799 371.528 4.23466 378.867 8.92799C386.291 13.536 391.667 20.1067 394.995 28.64H377.459C375.155 23.9467 371.955 20.448 367.859 18.144C363.763 15.84 359.027 14.688 353.651 14.688C347.763 14.688 342.515 16.0107 337.907 18.656C333.299 21.3013 329.672 25.0987 327.027 30.048C324.467 34.9973 323.187 40.7573 323.187 47.328C323.187 53.8987 324.467 59.6587 327.027 64.608C329.672 69.5573 333.299 73.3973 337.907 76.128C342.515 78.7733 347.763 80.096 353.651 80.096C359.027 80.096 363.763 78.944 367.859 76.64C371.955 74.336 375.155 70.8373 377.459 66.144H394.995C391.667 74.6773 386.291 81.248 378.867 85.856C371.528 90.464 363.123 92.768 353.651 92.768C345.288 92.768 337.651 90.848 330.739 87.008C323.827 83.0827 318.323 77.664 314.227 70.752C310.216 63.84 308.211 56.032 308.211 47.328ZM418.987 14.816V40.928H449.707V52.832H418.987V80.096H453.547V92H404.395V2.91199H453.547V14.816H418.987ZM389.642 162.824H352.394L345.994 181H330.762L362.634 91.912H379.53L411.402 181H396.042L389.642 162.824ZM385.546 150.92L371.082 109.576L356.49 150.92H385.546ZM463.788 181L443.308 145.416H432.172V181H417.58V92.04H448.3C455.127 92.04 460.887 93.2347 465.58 95.624C470.359 98.0133 473.9 101.213 476.204 105.224C478.593 109.235 479.788 113.715 479.788 118.664C479.788 124.467 478.081 129.757 474.668 134.536C471.34 139.229 466.177 142.429 459.18 144.136L481.196 181H463.788ZM432.172 133.768H448.3C453.761 133.768 457.857 132.403 460.588 129.672C463.404 126.941 464.812 123.272 464.812 118.664C464.812 114.056 463.447 110.472 460.716 107.912C457.985 105.267 453.847 103.944 448.3 103.944H432.172V133.768ZM505.367 103.816V129.928H536.087V141.832H505.367V169.096H539.927V181H490.775V91.912H539.927V103.816H505.367ZM603.852 162.824H566.604L560.204 181H544.972L576.844 91.912H593.74L625.612 181H610.252L603.852 162.824ZM599.756 150.92L585.292 109.576L570.7 150.92H599.756Z"/>
</mask>
<path d="M16.784 89.824L16.3764 90.7371L16.3832 90.7402L16.3901 90.7431L16.784 89.824ZM5.52 80.864L6.33496 80.2845L5.52 80.864ZM1.424 67.424V66.424H0.424V67.424H1.424ZM17.04 67.424L18.0361 67.3355L17.9551 66.424H17.04V67.424ZM21.52 76.896L20.8368 77.6263L20.8426 77.6317L20.8485 77.637L21.52 76.896ZM44.688 77.024L45.335 77.7865L45.3416 77.7809L45.3481 77.7752L44.688 77.024ZM46.224 60.256L45.4841 60.9287L45.4922 60.9377L45.5006 60.9465L46.224 60.256ZM39.696 55.904L39.3246 56.8325L39.335 56.8366L39.696 55.904ZM28.944 52.576L28.6881 53.5427L28.693 53.544L28.944 52.576ZM14.736 47.968L14.3238 48.8791L14.3368 48.885L14.3499 48.8904L14.736 47.968ZM5.52 13.792L6.35205 14.3467V14.3467L5.52 13.792ZM16.272 4.96L16.6781 5.87381L16.6781 5.87381L16.272 4.96ZM53.392 8.41599L52.7688 9.19805L52.7755 9.20339L52.7823 9.20862L53.392 8.41599ZM62.608 26.08V27.08H63.6907L63.6049 26.0007L62.608 26.08ZM46.48 26.08L45.4831 26.1587L45.5558 27.08H46.48V26.08ZM20.496 17.504L21.1238 18.2824V18.2824L20.496 17.504ZM18.96 33.504L18.2185 34.1749L18.2352 34.1934L18.2529 34.2111L18.96 33.504ZM35.856 40.928L36.1215 39.9639L36.116 39.9624L35.856 40.928ZM50.192 45.792L49.7878 46.7067L49.7956 46.7101L50.192 45.792ZM59.664 53.344L58.864 53.944L58.8724 53.9552L58.8812 53.9662L59.664 53.344ZM59.92 79.584L59.069 79.0589L59.0649 79.0655L59.0609 79.0722L59.92 79.584ZM49.296 89.312L49.7563 90.1998L49.7624 90.1966L49.296 89.312ZM32.912 92.896V91.896C27.0541 91.896 21.8149 90.8921 17.1779 88.9049L16.784 89.824L16.3901 90.7431C21.3104 92.8519 26.8233 93.896 32.912 93.896V92.896ZM16.784 89.824L17.1917 88.9109C12.5576 86.8421 8.95094 83.9632 6.33496 80.2845L5.52 80.864L4.70504 81.4435C7.5504 85.4448 11.4531 88.5392 16.3764 90.7371L16.784 89.824ZM5.52 80.864L6.33496 80.2845C3.73518 76.6285 2.424 72.3552 2.424 67.424H1.424H0.424C0.424 72.7328 1.84348 77.4194 4.70504 81.4435L5.52 80.864ZM1.424 67.424V68.424H17.04V67.424V66.424H1.424V67.424ZM17.04 67.424L16.0439 67.5125C16.4055 71.5805 17.9996 74.9721 20.8368 77.6263L21.52 76.896L22.2032 76.1657C19.7497 73.8706 18.3571 70.9475 18.0361 67.3355L17.04 67.424ZM21.52 76.896L20.8485 77.637C23.8154 80.3258 27.8809 81.608 32.912 81.608V80.608V79.608C28.2151 79.608 24.6859 78.4155 22.1915 76.155L21.52 76.896ZM32.912 80.608V81.608C38.0975 81.608 42.2819 80.377 45.335 77.7865L44.688 77.024L44.041 76.2615C41.4621 78.4497 37.7958 79.608 32.912 79.608V80.608ZM44.688 77.024L45.3481 77.7752C48.3861 75.1054 49.912 71.6716 49.912 67.552H48.912H47.912C47.912 71.1124 46.6219 73.9932 44.0279 76.2728L44.688 77.024ZM48.912 67.552H49.912C49.912 64.3499 48.9438 61.657 46.9474 59.5655L46.224 60.256L45.5006 60.9465C47.0882 62.6096 47.912 64.7808 47.912 67.552H48.912ZM46.224 60.256L46.9639 59.5833C45.1411 57.5782 42.8298 56.0448 40.057 54.9714L39.696 55.904L39.335 56.8366C41.8528 57.8112 43.8936 59.1792 45.4841 60.9287L46.224 60.256ZM39.696 55.904L40.0674 54.9755C37.4499 53.9285 33.8191 52.8069 29.195 51.608L28.944 52.576L28.693 53.544C33.2849 54.7345 36.8221 55.8315 39.3246 56.8325L39.696 55.904ZM28.944 52.576L29.1999 51.6093C23.4217 50.0798 18.7336 48.5573 15.1221 47.0456L14.736 47.968L14.3499 48.8904C18.077 50.4507 22.861 52.0002 28.6881 53.5427L28.944 52.576ZM14.736 47.968L15.1482 47.0569C11.7239 45.5078 8.77943 43.1411 6.31262 39.9343L5.52 40.544L4.72738 41.1537C7.38058 44.6029 10.5801 47.1855 14.3238 48.8791L14.736 47.968ZM5.52 40.544L6.31262 39.9343C3.92465 36.8299 2.68 32.6289 2.68 27.232H1.68H0.68C0.68 32.9285 1.99535 37.6021 4.72738 41.1537L5.52 40.544ZM1.68 27.232H2.68C2.68 22.287 3.91338 18.0047 6.35205 14.3467L5.52 13.792L4.68795 13.2373C2.00662 17.2593 0.68 21.937 0.68 27.232H1.68ZM5.52 13.792L6.35205 14.3467C8.7973 10.6788 12.2266 7.85227 16.6781 5.87381L16.272 4.96L15.8659 4.04619C11.1014 6.16373 7.36271 9.22517 4.68795 13.2373L5.52 13.792ZM16.272 4.96L16.6781 5.87381C21.1352 3.89289 26.3256 2.88799 32.272 2.88799V1.88799V0.887993C26.1011 0.887993 20.6248 1.9311 15.8659 4.04619L16.272 4.96ZM32.272 1.88799V2.88799C40.7187 2.88799 47.5229 5.01771 52.7688 9.19805L53.392 8.41599L54.0152 7.63393C48.3385 3.11027 41.0626 0.887993 32.272 0.887993V1.88799ZM53.392 8.41599L52.7823 9.20862C58.0863 13.2886 61.0343 18.9075 61.6112 26.1593L62.608 26.08L63.6049 26.0007C62.987 18.2338 59.791 12.0767 54.0017 7.62337L53.392 8.41599ZM62.608 26.08V25.08H46.48V26.08V27.08H62.608V26.08ZM46.48 26.08L47.4769 26.0013C47.1968 22.4535 45.5046 19.4401 42.5052 16.986L41.872 17.76L41.2388 18.534C43.8714 20.6879 45.2512 23.2212 45.4831 26.1587L46.48 26.08ZM41.872 17.76L42.5052 16.986C39.4673 14.5005 35.512 13.304 30.736 13.304V14.304V15.304C35.176 15.304 38.6447 16.4115 41.2388 18.534L41.872 17.76ZM30.736 14.304V13.304C26.3804 13.304 22.7294 14.4182 19.8682 16.7256L20.496 17.504L21.1238 18.2824C23.5532 16.3231 26.7289 15.304 30.736 15.304V14.304ZM20.496 17.504L19.8682 16.7256C16.944 19.0839 15.528 22.4677 15.528 26.72H16.528H17.528C17.528 22.951 18.7574 20.1908 21.1238 18.2824L20.496 17.504ZM16.528 26.72H15.528C15.528 29.664 16.4089 32.1749 18.2185 34.1749L18.96 33.504L19.7015 32.8331C18.2684 31.2491 17.528 29.2373 17.528 26.72H16.528ZM18.96 33.504L18.2529 34.2111C20.068 36.0262 22.3207 37.4613 24.9886 38.5285L25.36 37.6L25.7314 36.6715C23.2793 35.6907 21.2653 34.3951 19.6671 32.7969L18.96 33.504ZM25.36 37.6L24.9886 38.5285C27.6009 39.5734 31.1422 40.6945 35.596 41.8936L35.856 40.928L36.116 39.9624C31.6951 38.7722 28.2391 37.6746 25.7314 36.6715L25.36 37.6ZM35.856 40.928L35.5905 41.8921C41.4529 43.5064 46.1802 45.1126 49.7878 46.7067L50.192 45.792L50.5962 44.8773C46.8651 43.2287 42.0351 41.5923 36.1215 39.9639L35.856 40.928ZM50.192 45.792L49.7956 46.7101C53.3833 48.2593 56.4038 50.6637 58.864 53.944L59.664 53.344L60.464 52.744C57.8042 49.1976 54.5101 46.5674 50.5884 44.8739L50.192 45.792ZM59.664 53.344L58.8812 53.9662C61.3461 57.0672 62.632 61.3044 62.632 66.784H63.632H64.632C64.632 60.9996 63.2726 56.2768 60.4468 52.7218L59.664 53.344ZM63.632 66.784H62.632C62.632 71.1132 61.4505 75.1991 59.069 79.0589L59.92 79.584L60.771 80.1091C63.3388 75.9476 64.632 71.5001 64.632 66.784H63.632ZM59.92 79.584L59.0609 79.0722C56.778 82.9042 53.383 86.0266 48.8296 88.4274L49.296 89.312L49.7624 90.1966C54.5957 87.6481 58.2833 84.2852 60.7791 80.0958L59.92 79.584ZM49.296 89.312L48.8357 88.4242C44.3975 90.7255 39.1007 91.896 32.912 91.896V92.896V93.896C39.3526 93.896 44.9785 92.6771 49.7563 90.1998L49.296 89.312ZM87.762 14.816V13.816H86.762V14.816H87.762ZM87.762 40.928H86.762V41.928H87.762V40.928ZM118.482 40.928H119.482V39.928H118.482V40.928ZM118.482 52.832V53.832H119.482V52.832H118.482ZM87.762 52.832V51.832H86.762V52.832H87.762ZM87.762 80.096H86.762V81.096H87.762V80.096ZM122.322 80.096H123.322V79.096H122.322V80.096ZM122.322 92V93H123.322V92H122.322ZM73.17 92H72.17V93H73.17V92ZM73.17 2.91199V1.91199H72.17V2.91199H73.17ZM122.322 2.91199H123.322V1.91199H122.322V2.91199ZM122.322 14.816V15.816H123.322V14.816H122.322ZM87.762 14.816H86.762V40.928H87.762H88.762V14.816H87.762ZM87.762 40.928V41.928H118.482V40.928V39.928H87.762V40.928ZM118.482 40.928H117.482V52.832H118.482H119.482V40.928H118.482ZM118.482 52.832V51.832H87.762V52.832V53.832H118.482V52.832ZM87.762 52.832H86.762V80.096H87.762H88.762V52.832H87.762ZM87.762 80.096V81.096H122.322V80.096V79.096H87.762V80.096ZM122.322 80.096H121.322V92H122.322H123.322V80.096H122.322ZM122.322 92V91H73.17V92V93H122.322V92ZM73.17 92H74.17V2.91199H73.17H72.17V92H73.17ZM73.17 2.91199V3.91199H122.322V2.91199V1.91199H73.17V2.91199ZM122.322 2.91199H121.322V14.816H122.322H123.322V2.91199H122.322ZM122.322 14.816V13.816H87.762V14.816V15.816H122.322V14.816ZM178.823 92L177.956 92.4988L178.245 93H178.823V92ZM158.343 56.416L159.21 55.9172L158.921 55.416H158.343V56.416ZM147.207 56.416V55.416H146.207V56.416H147.207ZM147.207 92V93H148.207V92H147.207ZM132.615 92H131.615V93H132.615V92ZM132.615 3.03999V2.03999H131.615V3.03999H132.615ZM180.615 6.62399L180.161 7.51518L180.168 7.51842L180.615 6.62399ZM191.239 16.224L190.372 16.7221L190.376 16.729L190.38 16.7358L191.239 16.224ZM189.703 45.536L188.889 44.9548L188.887 44.9576L189.703 45.536ZM174.215 55.136L173.978 54.1645L172.662 54.4855L173.356 55.6487L174.215 55.136ZM196.231 92V93H197.993L197.09 91.4873L196.231 92ZM147.207 44.768H146.207V45.768H147.207V44.768ZM175.623 40.672L174.927 39.9541L174.921 39.9594L174.916 39.9649L175.623 40.672ZM175.751 18.912L175.055 19.6302L175.061 19.6359L175.067 19.6415L175.751 18.912ZM147.207 14.944V13.944H146.207V14.944H147.207ZM178.823 92L179.69 91.5012L159.21 55.9172L158.343 56.416L157.476 56.9148L177.956 92.4988L178.823 92ZM158.343 56.416V55.416H147.207V56.416V57.416H158.343V56.416ZM147.207 56.416H146.207V92H147.207H148.207V56.416H147.207ZM147.207 92V91H132.615V92V93H147.207V92ZM132.615 92H133.615V3.03999H132.615H131.615V92H132.615ZM132.615 3.03999V4.03999H163.335V3.03999V2.03999H132.615V3.03999ZM163.335 3.03999V4.03999C170.049 4.03999 175.644 5.21537 180.161 7.51516L180.615 6.62399L181.069 5.73283C176.199 3.25395 170.274 2.03999 163.335 2.03999V3.03999ZM180.615 6.62399L180.168 7.51842C184.799 9.83381 188.18 12.9072 190.372 16.7221L191.239 16.224L192.106 15.7259C189.69 11.5194 185.989 8.19284 181.062 5.72957L180.615 6.62399ZM191.239 16.224L190.38 16.7358C192.671 20.5823 193.823 24.8836 193.823 29.664H194.823H195.823C195.823 24.5458 194.585 19.8871 192.098 15.7122L191.239 16.224ZM194.823 29.664H193.823C193.823 35.2556 192.183 40.3435 188.889 44.9548L189.703 45.536L190.517 46.1172C194.05 41.1712 195.823 35.6778 195.823 29.664H194.823ZM189.703 45.536L188.887 44.9576C185.731 49.4087 180.802 52.5 173.978 54.1645L174.215 55.136L174.452 56.1075C181.622 54.3586 187.019 51.0499 190.519 46.1144L189.703 45.536ZM174.215 55.136L173.356 55.6487L195.372 92.5127L196.231 92L197.09 91.4873L175.074 54.6233L174.215 55.136ZM196.231 92V91H178.823V92V93H196.231V92ZM147.207 44.768V45.768H163.335V44.768V43.768H147.207V44.768ZM163.335 44.768V45.768C168.95 45.768 173.346 44.3634 176.33 41.3791L175.623 40.672L174.916 39.9649C172.439 42.4419 168.642 43.768 163.335 43.768V44.768ZM175.623 40.672L176.319 41.3899C179.363 38.438 180.847 34.4914 180.847 29.664H179.847H178.847C178.847 34.0526 177.515 37.4447 174.927 39.9541L175.623 40.672ZM179.847 29.664H180.847C180.847 24.8481 179.412 20.9738 176.435 18.1825L175.751 18.912L175.067 19.6415C177.551 21.9702 178.847 25.2639 178.847 29.664H179.847ZM175.751 18.912L176.447 18.1938C173.459 15.2993 169.023 13.944 163.335 13.944V14.944V15.944C168.74 15.944 172.582 17.234 175.055 19.6302L175.751 18.912ZM163.335 14.944V13.944H147.207V14.944V15.944H163.335V14.944ZM147.207 14.944H146.207V44.768H147.207H148.207V14.944H147.207ZM282.482 3.03999L283.418 3.39156L283.926 2.03999H282.482V3.03999ZM249.074 92V93H249.767L250.01 92.3516L249.074 92ZM232.178 92L231.242 92.3527L231.486 93H232.178V92ZM198.642 3.03999V2.03999H197.196L197.706 3.39274L198.642 3.03999ZM214.258 3.03999L215.2 2.70428L214.963 2.03999H214.258V3.03999ZM240.626 77.024L239.684 77.3597L240.624 79.9963L241.567 77.3612L240.626 77.024ZM267.122 3.03999V2.03999H266.418L266.181 2.70283L267.122 3.03999ZM282.482 3.03999L281.546 2.68843L248.138 91.6484L249.074 92L250.01 92.3516L283.418 3.39156L282.482 3.03999ZM249.074 92V91H232.178V92V93H249.074V92ZM232.178 92L233.114 91.6473L199.578 2.68725L198.642 3.03999L197.706 3.39274L231.242 92.3527L232.178 92ZM198.642 3.03999V4.03999H214.258V3.03999V2.03999H198.642V3.03999ZM214.258 3.03999L213.316 3.37571L239.684 77.3597L240.626 77.024L241.568 76.6883L215.2 2.70428L214.258 3.03999ZM240.626 77.024L241.567 77.3612L268.063 3.37716L267.122 3.03999L266.181 2.70283L239.685 76.6868L240.626 77.024ZM267.122 3.03999V4.03999H282.482V3.03999V2.03999H267.122V3.03999ZM301.597 3.03999H302.597V2.03999H301.597V3.03999ZM301.597 92V93H302.597V92H301.597ZM287.005 92H286.005V93H287.005V92ZM287.005 3.03999V2.03999H286.005V3.03999H287.005ZM301.597 3.03999H300.597V92H301.597H302.597V3.03999H301.597ZM301.597 92V91H287.005V92V93H301.597V92ZM287.005 92H288.005V3.03999H287.005H286.005V92H287.005ZM287.005 3.03999V4.03999H301.597V3.03999V2.03999H287.005V3.03999ZM314.227 23.904L313.367 23.3942L313.362 23.4021L314.227 23.904ZM330.739 7.77599L331.225 8.65016L331.228 8.64814L330.739 7.77599ZM378.867 8.92799L378.328 9.77052L378.34 9.77763L378.867 8.92799ZM394.995 28.64V29.64H396.458L395.927 28.2767L394.995 28.64ZM377.459 28.64L376.561 29.0807L376.836 29.64H377.459V28.64ZM367.859 18.144L368.349 17.2724L367.859 18.144ZM337.907 18.656L338.405 19.5233V19.5233L337.907 18.656ZM327.027 30.048L326.145 29.5766L326.139 29.5886L327.027 30.048ZM327.027 64.608L326.139 65.0675L326.145 65.0794L327.027 64.608ZM337.907 76.128L337.397 76.9884L337.409 76.9953L337.907 76.128ZM367.859 76.64L368.349 77.5116L367.859 76.64ZM377.459 66.144V65.144H376.836L376.561 65.7033L377.459 66.144ZM394.995 66.144L395.927 66.5073L396.458 65.144H394.995V66.144ZM378.867 85.856L378.34 85.0063L378.335 85.0091L378.867 85.856ZM330.739 87.008L330.245 87.8776L330.253 87.8822L330.739 87.008ZM314.227 70.752L313.362 71.2539L313.367 71.2618L314.227 70.752ZM308.211 47.328H309.211C309.211 38.7841 311.178 31.152 315.092 24.4059L314.227 23.904L313.362 23.4021C309.255 30.48 307.211 38.4639 307.211 47.328H308.211ZM314.227 23.904L315.087 24.4138C319.094 17.6517 324.47 12.4026 331.225 8.65015L330.739 7.77599L330.253 6.90184C323.184 10.8294 317.552 16.3323 313.367 23.3942L314.227 23.904ZM330.739 7.77599L331.228 8.64814C338.071 4.80936 345.539 2.88799 353.651 2.88799V1.88799V0.887993C345.208 0.887993 337.401 2.89196 330.25 6.90385L330.739 7.77599ZM353.651 1.88799V2.88799C362.949 2.88799 371.164 5.18896 378.328 9.77044L378.867 8.92799L379.406 8.08554C371.892 3.28036 363.297 0.887993 353.651 0.887993V1.88799ZM378.867 8.92799L378.34 9.77763C385.571 14.2658 390.81 20.6612 394.063 29.0033L394.995 28.64L395.927 28.2767C392.524 19.5522 387.011 12.8062 379.394 8.07835L378.867 8.92799ZM394.995 28.64V27.64H377.459V28.64V29.64H394.995V28.64ZM377.459 28.64L378.357 28.1993C375.974 23.3457 372.641 19.6866 368.349 17.2724L367.859 18.144L367.369 19.0156C371.269 21.2094 374.336 24.5476 376.561 29.0807L377.459 28.64ZM367.859 18.144L368.349 17.2724C364.083 14.8727 359.174 13.688 353.651 13.688V14.688V15.688C358.88 15.688 363.443 16.8073 367.369 19.0156L367.859 18.144ZM353.651 14.688V13.688C347.608 13.688 342.185 15.0473 337.409 17.7887L337.907 18.656L338.405 19.5233C342.845 16.9741 347.918 15.688 353.651 15.688V14.688ZM337.907 18.656L337.409 17.7887C332.629 20.5328 328.874 24.4717 326.145 29.5766L327.027 30.048L327.909 30.5194C330.471 25.7257 333.969 22.0699 338.405 19.5233L337.907 18.656ZM327.027 30.048L326.139 29.5886C323.493 34.7033 322.187 40.626 322.187 47.328H323.187H324.187C324.187 40.8886 325.441 35.2914 327.915 30.5074L327.027 30.048ZM323.187 47.328H322.187C322.187 54.03 323.493 59.9527 326.139 65.0674L327.027 64.608L327.915 64.1486C325.441 59.3646 324.187 53.7674 324.187 47.328H323.187ZM327.027 64.608L326.145 65.0794C328.872 70.1819 332.624 74.1599 337.397 76.9883L337.907 76.128L338.417 75.2677C333.974 72.6348 330.472 68.9328 327.909 64.1366L327.027 64.608ZM337.907 76.128L337.409 76.9953C342.185 79.7367 347.608 81.096 353.651 81.096V80.096V79.096C347.918 79.096 342.845 77.8099 338.405 75.2607L337.907 76.128ZM353.651 80.096V81.096C359.174 81.096 364.083 79.9113 368.349 77.5116L367.859 76.64L367.369 75.7684C363.443 77.9767 358.88 79.096 353.651 79.096V80.096ZM367.859 76.64L368.349 77.5116C372.641 75.0974 375.974 71.4383 378.357 66.5847L377.459 66.144L376.561 65.7033C374.336 70.2364 371.269 73.5746 367.369 75.7684L367.859 76.64ZM377.459 66.144V67.144H394.995V66.144V65.144H377.459V66.144ZM394.995 66.144L394.063 65.7807C390.81 74.1228 385.571 80.5182 378.34 85.0064L378.867 85.856L379.394 86.7056C387.011 81.9778 392.524 75.2318 395.927 66.5073L394.995 66.144ZM378.867 85.856L378.335 85.0091C371.171 89.5078 362.953 91.768 353.651 91.768V92.768V93.768C363.293 93.768 371.886 91.4202 379.399 86.7029L378.867 85.856ZM353.651 92.768V91.768C345.448 91.768 337.979 89.8865 331.225 86.1338L330.739 87.008L330.253 87.8822C337.323 91.8095 345.129 93.768 353.651 93.768V92.768ZM330.739 87.008L331.233 86.1384C324.474 82.3 319.096 77.0061 315.087 70.2422L314.227 70.752L313.367 71.2618C317.55 78.3219 323.18 83.8653 330.245 87.8776L330.739 87.008ZM314.227 70.752L315.092 70.2501C311.178 63.504 309.211 55.8719 309.211 47.328H308.211H307.211C307.211 56.1921 309.255 64.176 313.362 71.2539L314.227 70.752ZM418.987 14.816V13.816H417.987V14.816H418.987ZM418.987 40.928H417.987V41.928H418.987V40.928ZM449.707 40.928H450.707V39.928H449.707V40.928ZM449.707 52.832V53.832H450.707V52.832H449.707ZM418.987 52.832V51.832H417.987V52.832H418.987ZM418.987 80.096H417.987V81.096H418.987V80.096ZM453.547 80.096H454.547V79.096H453.547V80.096ZM453.547 92V93H454.547V92H453.547ZM404.395 92H403.395V93H404.395V92ZM404.395 2.91199V1.91199H403.395V2.91199H404.395ZM453.547 2.91199H454.547V1.91199H453.547V2.91199ZM453.547 14.816V15.816H454.547V14.816H453.547ZM418.987 14.816H417.987V40.928H418.987H419.987V14.816H418.987ZM418.987 40.928V41.928H449.707V40.928V39.928H418.987V40.928ZM449.707 40.928H448.707V52.832H449.707H450.707V40.928H449.707ZM449.707 52.832V51.832H418.987V52.832V53.832H449.707V52.832ZM418.987 52.832H417.987V80.096H418.987H419.987V52.832H418.987ZM418.987 80.096V81.096H453.547V80.096V79.096H418.987V80.096ZM453.547 80.096H452.547V92H453.547H454.547V80.096H453.547ZM453.547 92V91H404.395V92V93H453.547V92ZM404.395 92H405.395V2.91199H404.395H403.395V92H404.395ZM404.395 2.91199V3.91199H453.547V2.91199V1.91199H404.395V2.91199ZM453.547 2.91199H452.547V14.816H453.547H454.547V2.91199H453.547ZM453.547 14.816V13.816H418.987V14.816V15.816H453.547V14.816ZM389.642 162.824L390.585 162.492L390.35 161.824H389.642V162.824ZM352.394 162.824V161.824H351.686L351.451 162.492L352.394 162.824ZM345.994 181V182H346.702L346.937 181.332L345.994 181ZM330.762 181L329.82 180.663L329.342 182H330.762V181ZM362.634 91.912V90.912H361.93L361.692 91.5751L362.634 91.912ZM379.53 91.912L380.472 91.5751L380.234 90.912H379.53V91.912ZM411.402 181V182H412.822L412.344 180.663L411.402 181ZM396.042 181L395.099 181.332L395.334 182H396.042V181ZM385.546 150.92V151.92H386.955L386.49 150.59L385.546 150.92ZM371.082 109.576L372.026 109.246L371.086 106.56L370.139 109.243L371.082 109.576ZM356.49 150.92L355.547 150.587L355.077 151.92H356.49V150.92ZM389.642 162.824V161.824H352.394V162.824V163.824H389.642V162.824ZM352.394 162.824L351.451 162.492L345.051 180.668L345.994 181L346.937 181.332L353.337 163.156L352.394 162.824ZM345.994 181V180H330.762V181V182H345.994V181ZM330.762 181L331.704 181.337L363.576 92.2488L362.634 91.912L361.692 91.5751L329.82 180.663L330.762 181ZM362.634 91.912V92.912H379.53V91.912V90.912H362.634V91.912ZM379.53 91.912L378.588 92.2488L410.46 181.337L411.402 181L412.344 180.663L380.472 91.5751L379.53 91.912ZM411.402 181V180H396.042V181V182H411.402V181ZM396.042 181L396.985 180.668L390.585 162.492L389.642 162.824L388.699 163.156L395.099 181.332L396.042 181ZM385.546 150.92L386.49 150.59L372.026 109.246L371.082 109.576L370.138 109.906L384.602 151.25L385.546 150.92ZM371.082 109.576L370.139 109.243L355.547 150.587L356.49 150.92L357.433 151.253L372.025 109.909L371.082 109.576ZM356.49 150.92V151.92H385.546V150.92V149.92H356.49V150.92ZM463.788 181L462.921 181.499L463.21 182H463.788V181ZM443.308 145.416L444.175 144.917L443.886 144.416H443.308V145.416ZM432.172 145.416V144.416H431.172V145.416H432.172ZM432.172 181V182H433.172V181H432.172ZM417.58 181H416.58V182H417.58V181ZM417.58 92.04V91.04H416.58V92.04H417.58ZM465.58 95.624L465.126 96.5152L465.133 96.5184L465.58 95.624ZM476.204 105.224L475.337 105.722L475.341 105.729L475.345 105.736L476.204 105.224ZM474.668 134.536L473.854 133.955L473.852 133.958L474.668 134.536ZM459.18 144.136L458.943 143.164L457.627 143.486L458.321 144.649L459.18 144.136ZM481.196 181V182H482.958L482.055 180.487L481.196 181ZM432.172 133.768H431.172V134.768H432.172V133.768ZM460.588 129.672L459.892 128.954L459.886 128.959L459.881 128.965L460.588 129.672ZM460.716 107.912L460.02 108.63L460.026 108.636L460.032 108.642L460.716 107.912ZM432.172 103.944V102.944H431.172V103.944H432.172ZM463.788 181L464.655 180.501L444.175 144.917L443.308 145.416L442.441 145.915L462.921 181.499L463.788 181ZM443.308 145.416V144.416H432.172V145.416V146.416H443.308V145.416ZM432.172 145.416H431.172V181H432.172H433.172V145.416H432.172ZM432.172 181V180H417.58V181V182H432.172V181ZM417.58 181H418.58V92.04H417.58H416.58V181H417.58ZM417.58 92.04V93.04H448.3V92.04V91.04H417.58V92.04ZM448.3 92.04V93.04C455.014 93.04 460.609 94.2154 465.126 96.5152L465.58 95.624L466.034 94.7328C461.164 92.254 455.239 91.04 448.3 91.04V92.04ZM465.58 95.624L465.133 96.5184C469.764 98.8338 473.145 101.907 475.337 105.722L476.204 105.224L477.071 104.726C474.655 100.519 470.954 97.1928 466.027 94.7296L465.58 95.624ZM476.204 105.224L475.345 105.736C477.636 109.582 478.788 113.884 478.788 118.664H479.788H480.788C480.788 113.546 479.55 108.887 477.063 104.712L476.204 105.224ZM479.788 118.664H478.788C478.788 124.256 477.148 129.343 473.854 133.955L474.668 134.536L475.482 135.117C479.015 130.171 480.788 124.678 480.788 118.664H479.788ZM474.668 134.536L473.852 133.958C470.696 138.409 465.767 141.5 458.943 143.164L459.18 144.136L459.417 145.108C466.587 143.359 471.984 140.05 475.484 135.114L474.668 134.536ZM459.18 144.136L458.321 144.649L480.337 181.513L481.196 181L482.055 180.487L460.039 143.623L459.18 144.136ZM481.196 181V180H463.788V181V182H481.196V181ZM432.172 133.768V134.768H448.3V133.768V132.768H432.172V133.768ZM448.3 133.768V134.768C453.915 134.768 458.311 133.363 461.295 130.379L460.588 129.672L459.881 128.965C457.404 131.442 453.607 132.768 448.3 132.768V133.768ZM460.588 129.672L461.284 130.39C464.328 127.438 465.812 123.491 465.812 118.664H464.812H463.812C463.812 123.053 462.48 126.445 459.892 128.954L460.588 129.672ZM464.812 118.664H465.812C465.812 113.848 464.377 109.974 461.4 107.182L460.716 107.912L460.032 108.642C462.516 110.97 463.812 114.264 463.812 118.664H464.812ZM460.716 107.912L461.412 107.194C458.424 104.299 453.988 102.944 448.3 102.944V103.944V104.944C453.705 104.944 457.547 106.234 460.02 108.63L460.716 107.912ZM448.3 103.944V102.944H432.172V103.944V104.944H448.3V103.944ZM432.172 103.944H431.172V133.768H432.172H433.172V103.944H432.172ZM505.367 103.816V102.816H504.367V103.816H505.367ZM505.367 129.928H504.367V130.928H505.367V129.928ZM536.087 129.928H537.087V128.928H536.087V129.928ZM536.087 141.832V142.832H537.087V141.832H536.087ZM505.367 141.832V140.832H504.367V141.832H505.367ZM505.367 169.096H504.367V170.096H505.367V169.096ZM539.927 169.096H540.927V168.096H539.927V169.096ZM539.927 181V182H540.927V181H539.927ZM490.775 181H489.775V182H490.775V181ZM490.775 91.912V90.912H489.775V91.912H490.775ZM539.927 91.912H540.927V90.912H539.927V91.912ZM539.927 103.816V104.816H540.927V103.816H539.927ZM505.367 103.816H504.367V129.928H505.367H506.367V103.816H505.367ZM505.367 129.928V130.928H536.087V129.928V128.928H505.367V129.928ZM536.087 129.928H535.087V141.832H536.087H537.087V129.928H536.087ZM536.087 141.832V140.832H505.367V141.832V142.832H536.087V141.832ZM505.367 141.832H504.367V169.096H505.367H506.367V141.832H505.367ZM505.367 169.096V170.096H539.927V169.096V168.096H505.367V169.096ZM539.927 169.096H538.927V181H539.927H540.927V169.096H539.927ZM539.927 181V180H490.775V181V182H539.927V181ZM490.775 181H491.775V91.912H490.775H489.775V181H490.775ZM490.775 91.912V92.912H539.927V91.912V90.912H490.775V91.912ZM539.927 91.912H538.927V103.816H539.927H540.927V91.912H539.927ZM539.927 103.816V102.816H505.367V103.816V104.816H539.927V103.816ZM603.852 162.824L604.795 162.492L604.56 161.824H603.852V162.824ZM566.604 162.824V161.824H565.896L565.661 162.492L566.604 162.824ZM560.204 181V182H560.912L561.147 181.332L560.204 181ZM544.972 181L544.03 180.663L543.552 182H544.972V181ZM576.844 91.912V90.912H576.14L575.902 91.5751L576.844 91.912ZM593.74 91.912L594.682 91.5751L594.444 90.912H593.74V91.912ZM625.612 181V182H627.032L626.554 180.663L625.612 181ZM610.252 181L609.309 181.332L609.544 182H610.252V181ZM599.756 150.92V151.92H601.165L600.7 150.59L599.756 150.92ZM585.292 109.576L586.236 109.246L585.296 106.56L584.349 109.243L585.292 109.576ZM570.7 150.92L569.757 150.587L569.287 151.92H570.7V150.92ZM603.852 162.824V161.824H566.604V162.824V163.824H603.852V162.824ZM566.604 162.824L565.661 162.492L559.261 180.668L560.204 181L561.147 181.332L567.547 163.156L566.604 162.824ZM560.204 181V180H544.972V181V182H560.204V181ZM544.972 181L545.914 181.337L577.786 92.2488L576.844 91.912L575.902 91.5751L544.03 180.663L544.972 181ZM576.844 91.912V92.912H593.74V91.912V90.912H576.844V91.912ZM593.74 91.912L592.798 92.2488L624.67 181.337L625.612 181L626.554 180.663L594.682 91.5751L593.74 91.912ZM625.612 181V180H610.252V181V182H625.612V181ZM610.252 181L611.195 180.668L604.795 162.492L603.852 162.824L602.909 163.156L609.309 181.332L610.252 181ZM599.756 150.92L600.7 150.59L586.236 109.246L585.292 109.576L584.348 109.906L598.812 151.25L599.756 150.92ZM585.292 109.576L584.349 109.243L569.757 150.587L570.7 150.92L571.643 151.253L586.235 109.909L585.292 109.576ZM570.7 150.92V151.92H599.756V150.92V149.92H570.7V150.92Z" fill="#E6E6E6" mask="url(#path-1-outside-1_1_178)"/>
</svg>
