<svg width="622" height="70" viewBox="0 0 622 70" fill="none" xmlns="http://www.w3.org/2000/svg">
<mask id="path-1-outside-1_1_465" maskUnits="userSpaceOnUse" x="-0.5" y="0" width="623" height="70" fill="black">
<rect fill="white" x="-0.5" width="623" height="70"/>
<path d="M24.3654 68.658C19.9787 68.658 16.0307 67.906 12.5214 66.402C9.01203 64.8353 6.2547 62.642 4.24937 59.822C2.24403 57.002 1.24137 53.712 1.24137 49.952H12.7094C12.96 52.772 14.0567 55.0907 15.9994 56.908C18.0047 58.7253 20.7934 59.634 24.3654 59.634C28.0627 59.634 30.9454 58.7567 33.0134 57.002C35.0814 55.1847 36.1154 52.866 36.1154 50.046C36.1154 47.8527 35.4574 46.0667 34.1414 44.688C32.888 43.3093 31.29 42.244 29.3474 41.492C27.4674 40.74 24.8354 39.9253 21.4514 39.048C17.19 37.92 13.712 36.792 11.0174 35.664C8.38537 34.4733 6.12937 32.656 4.24937 30.212C2.36937 27.768 1.42937 24.5093 1.42937 20.436C1.42937 16.676 2.36937 13.386 4.24937 10.566C6.12937 7.746 8.76137 5.584 12.1454 4.08C15.5294 2.576 19.446 1.82399 23.8954 1.82399C30.2247 1.82399 35.3947 3.42199 39.4054 6.61799C43.4787 9.75133 45.7347 14.0753 46.1734 19.59H34.3294C34.1414 17.2087 33.0134 15.172 30.9454 13.48C28.8774 11.788 26.1514 10.942 22.7674 10.942C19.6967 10.942 17.19 11.7253 15.2474 13.292C13.3047 14.8587 12.3334 17.1147 12.3334 20.06C12.3334 22.0653 12.9287 23.726 14.1194 25.042C15.3727 26.2953 16.9394 27.298 18.8194 28.05C20.6994 28.802 23.2687 29.6167 26.5274 30.494C30.8514 31.6847 34.3607 32.8753 37.0554 34.066C39.8127 35.2567 42.1314 37.1053 44.0114 39.612C45.954 42.056 46.9254 45.346 46.9254 49.482C46.9254 52.8033 46.0167 55.9367 44.1994 58.882C42.4447 61.8273 39.844 64.2087 36.3974 66.026C33.0134 67.7807 29.0027 68.658 24.3654 68.658ZM64.6458 11.318V30.494H87.2058V39.236H64.6458V59.258H90.0258V68H53.9298V2.576H90.0258V11.318H64.6458ZM131.519 68L116.479 41.868H108.301V68H97.5848V2.67H120.145C125.158 2.67 129.388 3.54733 132.835 5.30199C136.344 7.05666 138.945 9.40666 140.637 12.352C142.391 15.2973 143.269 18.5873 143.269 22.222C143.269 26.4833 142.015 30.3687 139.509 33.878C137.065 37.3247 133.273 39.6747 128.135 40.928L144.303 68H131.519ZM108.301 33.314H120.145C124.155 33.314 127.163 32.3113 129.169 30.306C131.237 28.3007 132.271 25.606 132.271 22.222C132.271 18.838 131.268 16.206 129.263 14.326C127.257 12.3833 124.218 11.412 120.145 11.412H108.301V33.314ZM207.643 2.67L183.109 68H170.701L146.073 2.67H157.541L176.905 57.002L196.363 2.67H207.643ZM221.681 2.67V68H210.965V2.67H221.681ZM226.538 35.194C226.538 28.802 228.011 23.068 230.956 17.992C233.964 12.916 238.006 8.968 243.082 6.148C248.221 3.26533 253.829 1.82399 259.908 1.82399C266.864 1.82399 273.037 3.54733 278.426 6.994C283.878 10.378 287.826 15.2033 290.27 21.47H277.392C275.7 18.0233 273.35 15.454 270.342 13.762C267.334 12.07 263.856 11.224 259.908 11.224C255.584 11.224 251.73 12.1953 248.346 14.138C244.962 16.0807 242.299 18.8693 240.356 22.504C238.476 26.1387 237.536 30.3687 237.536 35.194C237.536 40.0193 238.476 44.2493 240.356 47.884C242.299 51.5187 244.962 54.3387 248.346 56.344C251.73 58.2867 255.584 59.258 259.908 59.258C263.856 59.258 267.334 58.412 270.342 56.72C273.35 55.028 275.7 52.4587 277.392 49.012H290.27C287.826 55.2787 283.878 60.104 278.426 63.488C273.037 66.872 266.864 68.564 259.908 68.564C253.767 68.564 248.158 67.154 243.082 64.334C238.006 61.4513 233.964 57.472 230.956 52.396C228.011 47.32 226.538 41.586 226.538 35.194ZM307.889 11.318V30.494H330.449V39.236H307.889V59.258H333.269V68H297.173V2.576H333.269V11.318H307.889ZM398.992 54.652H371.638L366.938 68H355.752L379.158 2.576H391.566L414.972 68H403.692L398.992 54.652ZM395.984 45.91L385.362 15.548L374.646 45.91H395.984ZM453.443 68L438.403 41.868H430.225V68H419.509V2.67H442.069C447.082 2.67 451.312 3.54733 454.759 5.30199C458.268 7.05666 460.869 9.40666 462.561 12.352C464.316 15.2973 465.193 18.5873 465.193 22.222C465.193 26.4833 463.94 30.3687 461.433 33.878C458.989 37.3247 455.198 39.6747 450.059 40.928L466.227 68H453.443ZM430.225 33.314H442.069C446.08 33.314 449.088 32.3113 451.093 30.306C453.161 28.3007 454.195 25.606 454.195 22.222C454.195 18.838 453.192 16.206 451.187 14.326C449.182 12.3833 446.142 11.412 442.069 11.412H430.225V33.314ZM483.978 11.318V30.494H506.538V39.236H483.978V59.258H509.358V68H473.262V2.576H509.358V11.318H483.978ZM556.303 54.652H528.949L524.249 68H513.063L536.469 2.576H548.877L572.283 68H561.003L556.303 54.652ZM553.295 45.91L542.673 15.548L531.957 45.91H553.295ZM598.346 68.658C593.959 68.658 590.011 67.906 586.502 66.402C582.992 64.8353 580.235 62.642 578.23 59.822C576.224 57.002 575.222 53.712 575.222 49.952H586.69C586.94 52.772 588.037 55.0907 589.98 56.908C591.985 58.7253 594.774 59.634 598.346 59.634C602.043 59.634 604.926 58.7567 606.994 57.002C609.062 55.1847 610.096 52.866 610.096 50.046C610.096 47.8527 609.438 46.0667 608.122 44.688C606.868 43.3093 605.27 42.244 603.328 41.492C601.448 40.74 598.816 39.9253 595.432 39.048C591.17 37.92 587.692 36.792 584.998 35.664C582.366 34.4733 580.11 32.656 578.23 30.212C576.35 27.768 575.41 24.5093 575.41 20.436C575.41 16.676 576.35 13.386 578.23 10.566C580.11 7.746 582.742 5.584 586.126 4.08C589.51 2.576 593.426 1.82399 597.876 1.82399C604.205 1.82399 609.375 3.42199 613.386 6.61799C617.459 9.75133 619.715 14.0753 620.154 19.59H608.31C608.122 17.2087 606.994 15.172 604.926 13.48C602.858 11.788 600.132 10.942 596.748 10.942C593.677 10.942 591.17 11.7253 589.228 13.292C587.285 14.8587 586.314 17.1147 586.314 20.06C586.314 22.0653 586.909 23.726 588.1 25.042C589.353 26.2953 590.92 27.298 592.8 28.05C594.68 28.802 597.249 29.6167 600.508 30.494C604.832 31.6847 608.341 32.8753 611.036 34.066C613.793 35.2567 616.112 37.1053 617.992 39.612C619.934 42.056 620.906 45.346 620.906 49.482C620.906 52.8033 619.997 55.9367 618.18 58.882C616.425 61.8273 613.824 64.2087 610.378 66.026C606.994 67.7807 602.983 68.658 598.346 68.658Z"/>
</mask>
<path d="M12.5214 66.402L12.1137 67.3151L12.1206 67.3182L12.1274 67.3211L12.5214 66.402ZM4.24937 59.822L5.06432 59.2425L4.24937 59.822ZM1.24137 49.952V48.952H0.241367V49.952H1.24137ZM12.7094 49.952L13.7054 49.8635L13.6244 48.952H12.7094V49.952ZM15.9994 56.908L15.3162 57.6383L15.322 57.6437L15.3279 57.649L15.9994 56.908ZM33.0134 57.002L33.6603 57.7645L33.667 57.7589L33.6735 57.7532L33.0134 57.002ZM34.1414 44.688L33.4014 45.3607L33.4096 45.3697L33.418 45.3785L34.1414 44.688ZM29.3474 41.492L28.976 42.4205L28.9864 42.4246L29.3474 41.492ZM21.4514 39.048L21.1955 40.0147L21.2004 40.016L21.4514 39.048ZM11.0174 35.664L10.6052 36.5751L10.6181 36.581L10.6312 36.5864L11.0174 35.664ZM4.24937 10.566L5.08142 11.1207V11.1207L4.24937 10.566ZM12.1454 4.08L12.5515 4.99381V4.99381L12.1454 4.08ZM39.4054 6.61799L38.7822 7.40005L38.7889 7.40539L38.7957 7.41062L39.4054 6.61799ZM46.1734 19.59V20.59H47.2561L47.1702 19.5107L46.1734 19.59ZM34.3294 19.59L33.3325 19.6687L33.4052 20.59H34.3294V19.59ZM15.2474 13.292L15.8751 14.0704V14.0704L15.2474 13.292ZM14.1194 25.042L13.3778 25.7129L13.3946 25.7314L13.4123 25.7491L14.1194 25.042ZM18.8194 28.05L19.1908 27.1215L18.8194 28.05ZM26.5274 30.494L26.7929 29.5299L26.7873 29.5284L26.5274 30.494ZM37.0554 34.066L36.6512 34.9807L36.6589 34.9841L37.0554 34.066ZM44.0114 39.612L43.2114 40.212L43.2198 40.2232L43.2285 40.2342L44.0114 39.612ZM44.1994 58.882L43.3483 58.3569L43.3443 58.3635L43.3403 58.3702L44.1994 58.882ZM36.3974 66.026L36.8577 66.9138L36.8638 66.9106L36.3974 66.026ZM24.3654 68.658V67.658C20.0941 67.658 16.283 66.9261 12.9153 65.4829L12.5214 66.402L12.1274 67.3211C15.7784 68.8859 19.8633 69.658 24.3654 69.658V68.658ZM12.5214 66.402L12.929 65.4889C9.56429 63.9868 6.95497 61.9012 5.06432 59.2425L4.24937 59.822L3.43441 60.4015C5.55443 63.3828 8.45978 65.6839 12.1137 67.3151L12.5214 66.402ZM4.24937 59.822L5.06432 59.2425C3.18989 56.6065 2.24137 53.5232 2.24137 49.952H1.24137H0.241367C0.241367 53.9008 1.29818 57.3975 3.43441 60.4015L4.24937 59.822ZM1.24137 49.952V50.952H12.7094V49.952V48.952H1.24137V49.952ZM12.7094 49.952L11.7133 50.0405C11.9842 53.0885 13.1816 55.6414 15.3162 57.6383L15.9994 56.908L16.6825 56.1777C14.9318 54.5399 13.9358 52.4555 13.7054 49.8635L12.7094 49.952ZM15.9994 56.908L15.3279 57.649C17.5695 59.6805 20.6263 60.634 24.3654 60.634V59.634V58.634C20.9605 58.634 18.4399 57.7702 16.6709 56.167L15.9994 56.908ZM24.3654 59.634V60.634C28.2135 60.634 31.3553 59.7203 33.6603 57.7645L33.0134 57.002L32.3664 56.2395C30.5354 57.793 27.9119 58.634 24.3654 58.634V59.634ZM33.0134 57.002L33.6735 57.7532C35.9635 55.7408 37.1154 53.1456 37.1154 50.046H36.1154H35.1154C35.1154 52.5864 34.1993 54.6286 32.3533 56.2508L33.0134 57.002ZM36.1154 50.046H37.1154C37.1154 47.6372 36.3852 45.5904 34.8647 43.9975L34.1414 44.688L33.418 45.3785C34.5296 46.543 35.1154 48.0681 35.1154 50.046H36.1154ZM34.1414 44.688L34.8813 44.0153C33.5118 42.5088 31.7785 41.3608 29.7084 40.5594L29.3474 41.492L28.9864 42.4246C30.8015 43.1272 32.2643 44.1098 33.4014 45.3607L34.1414 44.688ZM29.3474 41.492L29.7188 40.5635C27.7813 39.7885 25.1025 38.9615 21.7023 38.08L21.4514 39.048L21.2004 40.016C24.5683 40.8891 27.1534 41.6915 28.976 42.4205L29.3474 41.492ZM21.4514 39.048L21.7073 38.0813C17.4704 36.9598 14.0403 35.8453 11.4035 34.7416L11.0174 35.664L10.6312 36.5864C13.3837 37.7387 16.9097 38.8802 21.1955 40.0147L21.4514 39.048ZM11.0174 35.664L11.4295 34.7529C8.95723 33.6345 6.82879 31.9251 5.04199 29.6023L4.24937 30.212L3.45674 30.8217C5.42994 33.3869 7.81351 35.3122 10.6052 36.5751L11.0174 35.664ZM4.24937 30.212L5.04199 29.6023C3.33402 27.3819 2.42937 24.3595 2.42937 20.436H1.42937H0.429367C0.429367 24.6591 1.40471 28.1541 3.45674 30.8217L4.24937 30.212ZM1.42937 20.436H2.42937C2.42937 16.851 3.32275 13.7587 5.08142 11.1207L4.24937 10.566L3.41732 10.0113C1.41599 13.0133 0.429367 16.501 0.429367 20.436H1.42937ZM4.24937 10.566L5.08142 11.1207C6.84666 8.47283 9.32398 6.42827 12.5515 4.99381L12.1454 4.08L11.7392 3.16619C8.19876 4.73973 5.41207 7.01917 3.41732 10.0113L4.24937 10.566ZM12.1454 4.08L12.5515 4.99381C15.7846 3.55689 19.5583 2.82399 23.8954 2.82399V1.82399V0.823995C19.3338 0.823995 15.2742 1.5951 11.7392 3.16619L12.1454 4.08ZM23.8954 1.82399V2.82399C30.0527 2.82399 34.9869 4.37572 38.7822 7.40005L39.4054 6.61799L40.0286 5.83594C35.8025 2.46827 30.3967 0.823995 23.8954 0.823995V1.82399ZM39.4054 6.61799L38.7957 7.41062C42.6264 10.3573 44.7583 14.4122 45.1765 19.6693L46.1734 19.59L47.1702 19.5107C46.7111 13.7384 44.331 9.14535 40.0151 5.82537L39.4054 6.61799ZM46.1734 19.59V18.59H34.3294V19.59V20.59H46.1734V19.59ZM34.3294 19.59L35.3263 19.5113C35.1142 16.8248 33.83 14.5481 31.5786 12.706L30.9454 13.48L30.3121 14.254C32.1968 15.7959 33.1686 17.5925 33.3325 19.6687L34.3294 19.59ZM30.9454 13.48L31.5786 12.706C29.2887 10.8325 26.3194 9.942 22.7674 9.942V10.942V11.942C25.9834 11.942 28.466 12.7435 30.3121 14.254L30.9454 13.48ZM22.7674 10.942V9.942C19.5225 9.942 16.7781 10.7729 14.6196 12.5136L15.2474 13.292L15.8751 14.0704C17.602 12.6778 19.8709 11.942 22.7674 11.942V10.942ZM15.2474 13.292L14.6196 12.5136C12.398 14.3052 11.3334 16.873 11.3334 20.06H12.3334H13.3334C13.3334 17.3563 14.2114 15.4121 15.8751 14.0704L15.2474 13.292ZM12.3334 20.06H11.3334C11.3334 22.2787 11.999 24.1889 13.3778 25.7129L14.1194 25.042L14.8609 24.3711C13.8584 23.2631 13.3334 21.852 13.3334 20.06H12.3334ZM14.1194 25.042L13.4123 25.7491C14.774 27.1109 16.46 28.1833 18.448 28.9785L18.8194 28.05L19.1908 27.1215C17.4187 26.4127 15.9714 25.4798 14.8265 24.3349L14.1194 25.042ZM18.8194 28.05L18.448 28.9785C20.3803 29.7514 22.9922 30.5778 26.2674 31.4596L26.5274 30.494L26.7873 29.5284C23.5452 28.6555 21.0184 27.8526 19.1908 27.1215L18.8194 28.05ZM26.5274 30.494L26.2619 31.4581C30.5603 32.6417 34.0182 33.8173 36.6512 34.9807L37.0554 34.066L37.4595 33.1513C34.7032 31.9334 31.1425 30.7276 26.7929 29.5299L26.5274 30.494ZM37.0554 34.066L36.6589 34.9841C39.2493 36.1026 41.4312 37.8384 43.2114 40.212L44.0114 39.612L44.8114 39.012C42.8316 36.3722 40.3761 34.4107 37.4518 33.1479L37.0554 34.066ZM44.0114 39.612L43.2285 40.2342C44.9908 42.4512 45.9254 45.4984 45.9254 49.482H46.9254H47.9254C47.9254 45.1936 46.9173 41.6608 44.7942 38.9898L44.0114 39.612ZM46.9254 49.482H45.9254C45.9254 52.6099 45.0726 55.5624 43.3483 58.3569L44.1994 58.882L45.0504 59.4071C46.9608 56.3109 47.9254 52.9968 47.9254 49.482H46.9254ZM44.1994 58.882L43.3403 58.3702C41.6921 61.1368 39.2377 63.3979 35.931 65.1414L36.3974 66.026L36.8638 66.9106C40.4504 65.0194 43.1973 62.5178 45.0585 59.3938L44.1994 58.882ZM36.3974 66.026L35.937 65.1382C32.7229 66.8048 28.8768 67.658 24.3654 67.658V68.658V69.658C29.1286 69.658 33.3039 68.7565 36.8577 66.9138L36.3974 66.026ZM64.6458 11.318V10.318H63.6458V11.318H64.6458ZM64.6458 30.494H63.6458V31.494H64.6458V30.494ZM87.2058 30.494H88.2058V29.494H87.2058V30.494ZM87.2058 39.236V40.236H88.2058V39.236H87.2058ZM64.6458 39.236V38.236H63.6458V39.236H64.6458ZM64.6458 59.258H63.6458V60.258H64.6458V59.258ZM90.0258 59.258H91.0258V58.258H90.0258V59.258ZM90.0258 68V69H91.0258V68H90.0258ZM53.9298 68H52.9298V69H53.9298V68ZM53.9298 2.576V1.576H52.9298V2.576H53.9298ZM90.0258 2.576H91.0258V1.576H90.0258V2.576ZM90.0258 11.318V12.318H91.0258V11.318H90.0258ZM64.6458 11.318H63.6458V30.494H64.6458H65.6458V11.318H64.6458ZM64.6458 30.494V31.494H87.2058V30.494V29.494H64.6458V30.494ZM87.2058 30.494H86.2058V39.236H87.2058H88.2058V30.494H87.2058ZM87.2058 39.236V38.236H64.6458V39.236V40.236H87.2058V39.236ZM64.6458 39.236H63.6458V59.258H64.6458H65.6458V39.236H64.6458ZM64.6458 59.258V60.258H90.0258V59.258V58.258H64.6458V59.258ZM90.0258 59.258H89.0258V68H90.0258H91.0258V59.258H90.0258ZM90.0258 68V67H53.9298V68V69H90.0258V68ZM53.9298 68H54.9298V2.576H53.9298H52.9298V68H53.9298ZM53.9298 2.576V3.576H90.0258V2.576V1.576H53.9298V2.576ZM90.0258 2.576H89.0258V11.318H90.0258H91.0258V2.576H90.0258ZM90.0258 11.318V10.318H64.6458V11.318V12.318H90.0258V11.318ZM131.519 68L130.652 68.4988L130.941 69H131.519V68ZM116.479 41.868L117.345 41.3692L117.057 40.868H116.479V41.868ZM108.301 41.868V40.868H107.301V41.868H108.301ZM108.301 68V69H109.301V68H108.301ZM97.5848 68H96.5848V69H97.5848V68ZM97.5848 2.67V1.67H96.5848V2.67H97.5848ZM132.835 5.30199L132.381 6.19318L132.388 6.19642L132.835 5.30199ZM140.637 12.352L139.77 12.8501L139.774 12.857L139.778 12.8638L140.637 12.352ZM139.509 33.878L138.695 33.2968L138.693 33.2996L139.509 33.878ZM128.135 40.928L127.898 39.9565L126.582 40.2775L127.276 41.4407L128.135 40.928ZM144.303 68V69H146.065L145.161 67.4873L144.303 68ZM108.301 33.314H107.301V34.314H108.301V33.314ZM129.169 30.306L128.473 29.5881L128.467 29.5935L128.462 29.5989L129.169 30.306ZM129.263 14.326L128.567 15.0442L128.573 15.0499L128.579 15.0555L129.263 14.326ZM108.301 11.412V10.412H107.301V11.412H108.301ZM131.519 68L132.385 67.5012L117.345 41.3692L116.479 41.868L115.612 42.3668L130.652 68.4988L131.519 68ZM116.479 41.868V40.868H108.301V41.868V42.868H116.479V41.868ZM108.301 41.868H107.301V68H108.301H109.301V41.868H108.301ZM108.301 68V67H97.5848V68V69H108.301V68ZM97.5848 68H98.5848V2.67H97.5848H96.5848V68H97.5848ZM97.5848 2.67V3.67H120.145V2.67V1.67H97.5848V2.67ZM120.145 2.67V3.67C125.046 3.67 129.11 4.52804 132.381 6.19316L132.835 5.30199L133.288 4.41083C129.666 2.56662 125.271 1.67 120.145 1.67V2.67ZM132.835 5.30199L132.388 6.19642C135.749 7.87714 138.19 10.1006 139.77 12.8501L140.637 12.352L141.504 11.8539C139.699 8.71277 136.939 6.23618 133.282 4.40757L132.835 5.30199ZM140.637 12.352L139.778 12.8638C141.435 15.6449 142.269 18.7562 142.269 22.222H143.269H144.269C144.269 18.4184 143.348 14.9497 141.496 11.8402L140.637 12.352ZM143.269 22.222H142.269C142.269 26.2722 141.082 29.9548 138.695 33.2968L139.509 33.878L140.322 34.4592C142.949 30.7825 144.269 26.6944 144.269 22.222H143.269ZM139.509 33.878L138.693 33.2996C136.421 36.5041 132.863 38.7453 127.898 39.9565L128.135 40.928L128.372 41.8995C133.683 40.604 137.709 38.1453 140.324 34.4564L139.509 33.878ZM128.135 40.928L127.276 41.4407L143.444 68.5127L144.303 68L145.161 67.4873L128.993 40.4153L128.135 40.928ZM144.303 68V67H131.519V68V69H144.303V68ZM108.301 33.314V34.314H120.145V33.314V32.314H108.301V33.314ZM120.145 33.314V34.314C124.31 34.314 127.617 33.2721 129.876 31.0131L129.169 30.306L128.462 29.5989C126.71 31.3505 124.001 32.314 120.145 32.314V33.314ZM129.169 30.306L129.865 31.0239C132.161 28.7973 133.271 25.8254 133.271 22.222H132.271H131.271C131.271 25.3866 130.312 27.804 128.473 29.5881L129.169 30.306ZM132.271 22.222H133.271C133.271 18.6301 132.199 15.7078 129.947 13.5965L129.263 14.326L128.579 15.0555C130.337 16.7042 131.271 19.0459 131.271 22.222H132.271ZM129.263 14.326L129.959 13.6078C127.696 11.416 124.359 10.412 120.145 10.412V11.412V12.412C124.077 12.412 126.819 13.3507 128.567 15.0442L129.263 14.326ZM120.145 11.412V10.412H108.301V11.412V12.412H120.145V11.412ZM108.301 11.412H107.301V33.314H108.301H109.301V11.412H108.301ZM207.643 2.67L208.579 3.02156L209.087 1.67H207.643V2.67ZM183.109 68V69H183.802L184.046 68.3516L183.109 68ZM170.701 68L169.766 68.3527L170.01 69H170.701V68ZM146.073 2.67V1.67H144.628L145.138 3.02274L146.073 2.67ZM157.541 2.67L158.483 2.33428L158.247 1.67H157.541V2.67ZM176.905 57.002L175.963 57.3377L176.903 59.9743L177.847 57.3392L176.905 57.002ZM196.363 2.67V1.67H195.659L195.422 2.33283L196.363 2.67ZM207.643 2.67L206.707 2.31843L182.173 67.6484L183.109 68L184.046 68.3516L208.579 3.02156L207.643 2.67ZM183.109 68V67H170.701V68V69H183.109V68ZM170.701 68L171.637 67.6473L147.009 2.31725L146.073 2.67L145.138 3.02274L169.766 68.3527L170.701 68ZM146.073 2.67V3.67H157.541V2.67V1.67H146.073V2.67ZM157.541 2.67L156.599 3.00571L175.963 57.3377L176.905 57.002L177.847 56.6663L158.483 2.33428L157.541 2.67ZM176.905 57.002L177.847 57.3392L197.305 3.00716L196.363 2.67L195.422 2.33283L175.964 56.6648L176.905 57.002ZM196.363 2.67V3.67H207.643V2.67V1.67H196.363V2.67ZM221.681 2.67H222.681V1.67H221.681V2.67ZM221.681 68V69H222.681V68H221.681ZM210.965 68H209.965V69H210.965V68ZM210.965 2.67V1.67H209.965V2.67H210.965ZM221.681 2.67H220.681V68H221.681H222.681V2.67H221.681ZM221.681 68V67H210.965V68V69H221.681V68ZM210.965 68H211.965V2.67H210.965H209.965V68H210.965ZM210.965 2.67V3.67H221.681V2.67V1.67H210.965V2.67ZM230.956 17.992L230.096 17.4822L230.091 17.4901L230.956 17.992ZM243.082 6.14799L243.568 7.02216L243.571 7.02014L243.082 6.14799ZM278.426 6.994L277.887 7.83652L277.899 7.84364L278.426 6.994ZM290.27 21.47V22.47H291.733L291.202 21.1067L290.27 21.47ZM277.392 21.47L276.494 21.9107L276.769 22.47H277.392V21.47ZM270.342 13.762L270.832 12.8904L270.342 13.762ZM248.346 14.138L248.844 15.0053L248.346 14.138ZM240.356 22.504L239.474 22.0326L239.468 22.0446L240.356 22.504ZM240.356 47.884L239.468 48.3435L239.474 48.3554L240.356 47.884ZM248.346 56.344L247.836 57.2044L247.848 57.2113L248.346 56.344ZM270.342 56.72L270.832 57.5916L270.342 56.72ZM277.392 49.012V48.012H276.769L276.494 48.5713L277.392 49.012ZM290.27 49.012L291.202 49.3753L291.733 48.012H290.27V49.012ZM278.426 63.488L277.899 62.6383L277.894 62.6411L278.426 63.488ZM243.082 64.334L242.588 65.2036L242.596 65.2082L243.082 64.334ZM230.956 52.396L230.091 52.8979L230.096 52.9058L230.956 52.396ZM226.538 35.194H227.538C227.538 28.9621 228.972 23.404 231.821 18.4939L230.956 17.992L230.091 17.4901C227.05 22.732 225.538 28.6419 225.538 35.194H226.538ZM230.956 17.992L231.816 18.5018C234.736 13.5757 238.649 9.75461 243.568 7.02215L243.082 6.14799L242.596 5.27384C237.363 8.18138 233.193 12.2563 230.096 17.4822L230.956 17.992ZM243.082 6.14799L243.571 7.02014C248.556 4.22403 253.995 2.82399 259.908 2.82399V1.82399V0.823995C253.664 0.823995 247.886 2.30663 242.593 5.27585L243.082 6.14799ZM259.908 1.82399V2.82399C266.69 2.82399 272.673 4.50162 277.887 7.83644L278.426 6.994L278.965 6.15155C273.401 2.59303 267.038 0.823995 259.908 0.823995V1.82399ZM278.426 6.994L277.899 7.84364C283.158 11.1078 286.969 15.7578 289.338 21.8333L290.27 21.47L291.202 21.1067C288.683 14.6488 284.599 9.6482 278.953 6.14436L278.426 6.994ZM290.27 21.47V20.47H277.392V21.47V22.47H290.27V21.47ZM277.392 21.47L278.29 21.0293C276.519 17.4224 274.036 14.6926 270.832 12.8904L270.342 13.762L269.852 14.6336C272.664 16.2154 274.881 18.6243 276.494 21.9107L277.392 21.47ZM270.342 13.762L270.832 12.8904C267.654 11.1027 264.003 10.224 259.908 10.224V11.224V12.224C263.709 12.224 267.014 13.0373 269.852 14.6336L270.342 13.762ZM259.908 11.224V10.224C255.429 10.224 251.4 11.2319 247.848 13.2707L248.346 14.138L248.844 15.0053C252.06 13.1587 255.739 12.224 259.908 12.224V11.224ZM248.346 14.138L247.848 13.2707C244.292 15.3121 241.5 18.2423 239.474 22.0326L240.356 22.504L241.238 22.9754C243.098 19.4963 245.632 16.8492 248.844 15.0053L248.346 14.138ZM240.356 22.504L239.468 22.0446C237.502 25.8446 236.536 30.2374 236.536 35.194H237.536H238.536C238.536 30.5 239.45 26.4327 241.244 22.9634L240.356 22.504ZM237.536 35.194H236.536C236.536 40.1506 237.502 44.5434 239.468 48.3434L240.356 47.884L241.244 47.4246C239.45 43.9553 238.536 39.888 238.536 35.194H237.536ZM240.356 47.884L239.474 48.3554C241.499 52.1432 244.287 55.1012 247.836 57.2043L248.346 56.344L248.856 55.4837C245.637 53.5761 243.099 50.8941 241.238 47.4126L240.356 47.884ZM248.346 56.344L247.848 57.2113C251.4 59.2501 255.429 60.258 259.908 60.258V59.258V58.258C255.739 58.258 252.06 57.3233 248.844 55.4767L248.346 56.344ZM259.908 59.258V60.258C264.003 60.258 267.654 59.3793 270.832 57.5916L270.342 56.72L269.852 55.8484C267.014 57.4447 263.709 58.258 259.908 58.258V59.258ZM270.342 56.72L270.832 57.5916C274.036 55.7894 276.519 53.0596 278.29 49.4527L277.392 49.012L276.494 48.5713C274.881 51.8577 272.664 54.2666 269.852 55.8484L270.342 56.72ZM277.392 49.012V50.012H290.27V49.012V48.012H277.392V49.012ZM290.27 49.012L289.338 48.6487C286.969 54.7242 283.158 59.3742 277.899 62.6384L278.426 63.488L278.953 64.3376C284.599 60.8338 288.683 55.8332 291.202 49.3753L290.27 49.012ZM278.426 63.488L277.894 62.6411C272.679 65.9158 266.694 67.564 259.908 67.564V68.564V69.564C267.034 69.564 273.394 67.8282 278.958 64.3349L278.426 63.488ZM259.908 68.564V67.564C253.927 67.564 248.487 66.1925 243.568 63.4598L243.082 64.334L242.596 65.2082C247.83 68.1155 253.607 69.564 259.908 69.564V68.564ZM243.082 64.334L243.576 63.4644C238.653 60.6687 234.737 56.8141 231.816 51.8862L230.956 52.396L230.096 52.9058C233.192 58.1299 237.359 62.234 242.588 65.2036L243.082 64.334ZM230.956 52.396L231.821 51.8941C228.972 46.984 227.538 41.4259 227.538 35.194H226.538H225.538C225.538 41.7461 227.05 47.656 230.091 52.8979L230.956 52.396ZM307.889 11.318V10.318H306.889V11.318H307.889ZM307.889 30.494H306.889V31.494H307.889V30.494ZM330.449 30.494H331.449V29.494H330.449V30.494ZM330.449 39.236V40.236H331.449V39.236H330.449ZM307.889 39.236V38.236H306.889V39.236H307.889ZM307.889 59.258H306.889V60.258H307.889V59.258ZM333.269 59.258H334.269V58.258H333.269V59.258ZM333.269 68V69H334.269V68H333.269ZM297.173 68H296.173V69H297.173V68ZM297.173 2.576V1.576H296.173V2.576H297.173ZM333.269 2.576H334.269V1.576H333.269V2.576ZM333.269 11.318V12.318H334.269V11.318H333.269ZM307.889 11.318H306.889V30.494H307.889H308.889V11.318H307.889ZM307.889 30.494V31.494H330.449V30.494V29.494H307.889V30.494ZM330.449 30.494H329.449V39.236H330.449H331.449V30.494H330.449ZM330.449 39.236V38.236H307.889V39.236V40.236H330.449V39.236ZM307.889 39.236H306.889V59.258H307.889H308.889V39.236H307.889ZM307.889 59.258V60.258H333.269V59.258V58.258H307.889V59.258ZM333.269 59.258H332.269V68H333.269H334.269V59.258H333.269ZM333.269 68V67H297.173V68V69H333.269V68ZM297.173 68H298.173V2.576H297.173H296.173V68H297.173ZM297.173 2.576V3.576H333.269V2.576V1.576H297.173V2.576ZM333.269 2.576H332.269V11.318H333.269H334.269V2.576H333.269ZM333.269 11.318V10.318H307.889V11.318V12.318H333.269V11.318ZM398.992 54.652L399.935 54.3199L399.7 53.652H398.992V54.652ZM371.638 54.652V53.652H370.93L370.695 54.3199L371.638 54.652ZM366.938 68V69H367.646L367.881 68.3321L366.938 68ZM355.752 68L354.811 67.6631L354.332 69H355.752V68ZM379.158 2.576V1.576H378.454L378.217 2.23915L379.158 2.576ZM391.566 2.576L392.508 2.23915L392.27 1.576H391.566V2.576ZM414.972 68V69H416.392L415.914 67.6631L414.972 68ZM403.692 68L402.749 68.3321L402.984 69H403.692V68ZM395.984 45.91V46.91H397.393L396.928 45.5798L395.984 45.91ZM385.362 15.548L386.306 15.2178L385.366 12.5316L384.419 15.2152L385.362 15.548ZM374.646 45.91L373.703 45.5772L373.233 46.91H374.646V45.91ZM398.992 54.652V53.652H371.638V54.652V55.652H398.992V54.652ZM371.638 54.652L370.695 54.3199L365.995 67.6679L366.938 68L367.881 68.3321L372.581 54.9841L371.638 54.652ZM366.938 68V67H355.752V68V69H366.938V68ZM355.752 68L356.694 68.3369L380.1 2.91285L379.158 2.576L378.217 2.23915L354.811 67.6631L355.752 68ZM379.158 2.576V3.576H391.566V2.576V1.576H379.158V2.576ZM391.566 2.576L390.625 2.91285L414.031 68.3369L414.972 68L415.914 67.6631L392.508 2.23915L391.566 2.576ZM414.972 68V67H403.692V68V69H414.972V68ZM403.692 68L404.635 67.6679L399.935 54.3199L398.992 54.652L398.049 54.9841L402.749 68.3321L403.692 68ZM395.984 45.91L396.928 45.5798L386.306 15.2178L385.362 15.548L384.418 15.8782L395.04 46.2402L395.984 45.91ZM385.362 15.548L384.419 15.2152L373.703 45.5772L374.646 45.91L375.589 46.2428L386.305 15.8808L385.362 15.548ZM374.646 45.91V46.91H395.984V45.91V44.91H374.646V45.91ZM453.443 68L452.576 68.4988L452.865 69H453.443V68ZM438.403 41.868L439.27 41.3692L438.981 40.868H438.403V41.868ZM430.225 41.868V40.868H429.225V41.868H430.225ZM430.225 68V69H431.225V68H430.225ZM419.509 68H418.509V69H419.509V68ZM419.509 2.67V1.67H418.509V2.67H419.509ZM454.759 5.30199L454.305 6.19318L454.312 6.19642L454.759 5.30199ZM462.561 12.352L461.694 12.8501L461.698 12.857L461.702 12.8638L462.561 12.352ZM461.433 33.878L460.619 33.2968L460.617 33.2996L461.433 33.878ZM450.059 40.928L449.822 39.9565L448.506 40.2775L449.201 41.4407L450.059 40.928ZM466.227 68V69H467.989L467.086 67.4873L466.227 68ZM430.225 33.314H429.225V34.314H430.225V33.314ZM451.093 30.306L450.397 29.5881L450.391 29.5935L450.386 29.5989L451.093 30.306ZM451.187 14.326L450.491 15.0442L450.497 15.0499L450.503 15.0555L451.187 14.326ZM430.225 11.412V10.412H429.225V11.412H430.225ZM453.443 68L454.31 67.5012L439.27 41.3692L438.403 41.868L437.536 42.3668L452.576 68.4988L453.443 68ZM438.403 41.868V40.868H430.225V41.868V42.868H438.403V41.868ZM430.225 41.868H429.225V68H430.225H431.225V41.868H430.225ZM430.225 68V67H419.509V68V69H430.225V68ZM419.509 68H420.509V2.67H419.509H418.509V68H419.509ZM419.509 2.67V3.67H442.069V2.67V1.67H419.509V2.67ZM442.069 2.67V3.67C446.97 3.67 451.035 4.52804 454.305 6.19316L454.759 5.30199L455.213 4.41083C451.59 2.56662 447.195 1.67 442.069 1.67V2.67ZM454.759 5.30199L454.312 6.19642C457.673 7.87714 460.114 10.1006 461.694 12.8501L462.561 12.352L463.428 11.8539C461.624 8.71277 458.863 6.23618 455.206 4.40757L454.759 5.30199ZM462.561 12.352L461.702 12.8638C463.359 15.6449 464.193 18.7562 464.193 22.222H465.193H466.193C466.193 18.4184 465.273 14.9497 463.42 11.8402L462.561 12.352ZM465.193 22.222H464.193C464.193 26.2722 463.006 29.9548 460.619 33.2968L461.433 33.878L462.247 34.4592C464.873 30.7825 466.193 26.6944 466.193 22.222H465.193ZM461.433 33.878L460.617 33.2996C458.345 36.5041 454.788 38.7453 449.822 39.9565L450.059 40.928L450.296 41.8995C455.608 40.604 459.633 38.1453 462.249 34.4564L461.433 33.878ZM450.059 40.928L449.201 41.4407L465.368 68.5127L466.227 68L467.086 67.4873L450.918 40.4153L450.059 40.928ZM466.227 68V67H453.443V68V69H466.227V68ZM430.225 33.314V34.314H442.069V33.314V32.314H430.225V33.314ZM442.069 33.314V34.314C446.234 34.314 449.541 33.2721 451.8 31.0131L451.093 30.306L450.386 29.5989C448.634 31.3505 445.926 32.314 442.069 32.314V33.314ZM451.093 30.306L451.789 31.0239C454.085 28.7973 455.195 25.8254 455.195 22.222H454.195H453.195C453.195 25.3866 452.237 27.804 450.397 29.5881L451.093 30.306ZM454.195 22.222H455.195C455.195 18.6301 454.123 15.7078 451.871 13.5965L451.187 14.326L450.503 15.0555C452.262 16.7042 453.195 19.0459 453.195 22.222H454.195ZM451.187 14.326L451.883 13.6078C449.62 11.416 446.284 10.412 442.069 10.412V11.412V12.412C446.001 12.412 448.743 13.3507 450.491 15.0442L451.187 14.326ZM442.069 11.412V10.412H430.225V11.412V12.412H442.069V11.412ZM430.225 11.412H429.225V33.314H430.225H431.225V11.412H430.225ZM483.978 11.318V10.318H482.978V11.318H483.978ZM483.978 30.494H482.978V31.494H483.978V30.494ZM506.538 30.494H507.538V29.494H506.538V30.494ZM506.538 39.236V40.236H507.538V39.236H506.538ZM483.978 39.236V38.236H482.978V39.236H483.978ZM483.978 59.258H482.978V60.258H483.978V59.258ZM509.358 59.258H510.358V58.258H509.358V59.258ZM509.358 68V69H510.358V68H509.358ZM473.262 68H472.262V69H473.262V68ZM473.262 2.576V1.576H472.262V2.576H473.262ZM509.358 2.576H510.358V1.576H509.358V2.576ZM509.358 11.318V12.318H510.358V11.318H509.358ZM483.978 11.318H482.978V30.494H483.978H484.978V11.318H483.978ZM483.978 30.494V31.494H506.538V30.494V29.494H483.978V30.494ZM506.538 30.494H505.538V39.236H506.538H507.538V30.494H506.538ZM506.538 39.236V38.236H483.978V39.236V40.236H506.538V39.236ZM483.978 39.236H482.978V59.258H483.978H484.978V39.236H483.978ZM483.978 59.258V60.258H509.358V59.258V58.258H483.978V59.258ZM509.358 59.258H508.358V68H509.358H510.358V59.258H509.358ZM509.358 68V67H473.262V68V69H509.358V68ZM473.262 68H474.262V2.576H473.262H472.262V68H473.262ZM473.262 2.576V3.576H509.358V2.576V1.576H473.262V2.576ZM509.358 2.576H508.358V11.318H509.358H510.358V2.576H509.358ZM509.358 11.318V10.318H483.978V11.318V12.318H509.358V11.318ZM556.303 54.652L557.246 54.3199L557.011 53.652H556.303V54.652ZM528.949 54.652V53.652H528.241L528.005 54.3199L528.949 54.652ZM524.249 68V69H524.957L525.192 68.3321L524.249 68ZM513.063 68L512.121 67.6631L511.643 69H513.063V68ZM536.469 2.576V1.576H535.764L535.527 2.23915L536.469 2.576ZM548.877 2.576L549.818 2.23915L549.581 1.576H548.877V2.576ZM572.283 68V69H573.702L573.224 67.6631L572.283 68ZM561.003 68L560.059 68.3321L560.294 69H561.003V68ZM553.295 45.91V46.91H554.704L554.238 45.5798L553.295 45.91ZM542.673 15.548L543.616 15.2178L542.677 12.5316L541.73 15.2152L542.673 15.548ZM531.957 45.91L531.014 45.5772L530.543 46.91H531.957V45.91ZM556.303 54.652V53.652H528.949V54.652V55.652H556.303V54.652ZM528.949 54.652L528.005 54.3199L523.305 67.6679L524.249 68L525.192 68.3321L529.892 54.9841L528.949 54.652ZM524.249 68V67H513.063V68V69H524.249V68ZM513.063 68L514.004 68.3369L537.41 2.91285L536.469 2.576L535.527 2.23915L512.121 67.6631L513.063 68ZM536.469 2.576V3.576H548.877V2.576V1.576H536.469V2.576ZM548.877 2.576L547.935 2.91285L571.341 68.3369L572.283 68L573.224 67.6631L549.818 2.23915L548.877 2.576ZM572.283 68V67H561.003V68V69H572.283V68ZM561.003 68L561.946 67.6679L557.246 54.3199L556.303 54.652L555.359 54.9841L560.059 68.3321L561.003 68ZM553.295 45.91L554.238 45.5798L543.616 15.2178L542.673 15.548L541.729 15.8782L552.351 46.2402L553.295 45.91ZM542.673 15.548L541.73 15.2152L531.014 45.5772L531.957 45.91L532.9 46.2428L543.616 15.8808L542.673 15.548ZM531.957 45.91V46.91H553.295V45.91V44.91H531.957V45.91ZM586.502 66.402L586.094 67.3151L586.101 67.3182L586.108 67.3211L586.502 66.402ZM578.23 59.822L579.044 59.2425L578.23 59.822ZM575.222 49.952V48.952H574.222V49.952H575.222ZM586.69 49.952L587.686 49.8635L587.605 48.952H586.69V49.952ZM589.98 56.908L589.296 57.6383L589.302 57.6437L589.308 57.649L589.98 56.908ZM606.994 57.002L607.641 57.7645L607.647 57.7589L607.654 57.7532L606.994 57.002ZM608.122 44.688L607.382 45.3607L607.39 45.3697L607.398 45.3785L608.122 44.688ZM603.328 41.492L602.956 42.4205L602.967 42.4246L603.328 41.492ZM595.432 39.048L595.176 40.0147L595.181 40.016L595.432 39.048ZM584.998 35.664L584.585 36.5751L584.598 36.581L584.611 36.5864L584.998 35.664ZM578.23 10.566L579.062 11.1207V11.1207L578.23 10.566ZM586.126 4.08L586.532 4.99381V4.99381L586.126 4.08ZM613.386 6.61799L612.762 7.40005L612.769 7.40539L612.776 7.41062L613.386 6.61799ZM620.154 19.59V20.59H621.236L621.15 19.5107L620.154 19.59ZM608.31 19.59L607.313 19.6687L607.385 20.59H608.31V19.59ZM589.228 13.292L589.855 14.0704V14.0704L589.228 13.292ZM588.1 25.042L587.358 25.7129L587.375 25.7314L587.392 25.7491L588.1 25.042ZM592.8 28.05L593.171 27.1215L592.8 28.05ZM600.508 30.494L600.773 29.5299L600.768 29.5284L600.508 30.494ZM611.036 34.066L610.631 34.9807L610.639 34.9841L611.036 34.066ZM617.992 39.612L617.192 40.212L617.2 40.2232L617.209 40.2342L617.992 39.612ZM618.18 58.882L617.328 58.3569L617.324 58.3635L617.32 58.3702L618.18 58.882ZM610.378 66.026L610.838 66.9138L610.844 66.9106L610.378 66.026ZM598.346 68.658V67.658C594.074 67.658 590.263 66.9261 586.895 65.4829L586.502 66.402L586.108 67.3211C589.759 68.8859 593.843 69.658 598.346 69.658V68.658ZM586.502 66.402L586.909 65.4889C583.544 63.9868 580.935 61.9012 579.044 59.2425L578.23 59.822L577.415 60.4015C579.535 63.3828 582.44 65.6839 586.094 67.3151L586.502 66.402ZM578.23 59.822L579.044 59.2425C577.17 56.6065 576.222 53.5232 576.222 49.952H575.222H574.222C574.222 53.9008 575.278 57.3975 577.415 60.4015L578.23 59.822ZM575.222 49.952V50.952H586.69V49.952V48.952H575.222V49.952ZM586.69 49.952L585.693 50.0405C585.964 53.0885 587.162 55.6414 589.296 57.6383L589.98 56.908L590.663 56.1777C588.912 54.5399 587.916 52.4555 587.686 49.8635L586.69 49.952ZM589.98 56.908L589.308 57.649C591.55 59.6805 594.606 60.634 598.346 60.634V59.634V58.634C594.941 58.634 592.42 57.7702 590.651 56.167L589.98 56.908ZM598.346 59.634V60.634C602.194 60.634 605.335 59.7203 607.641 57.7645L606.994 57.002L606.347 56.2395C604.516 57.793 601.892 58.634 598.346 58.634V59.634ZM606.994 57.002L607.654 57.7532C609.944 55.7408 611.096 53.1456 611.096 50.046H610.096H609.096C609.096 52.5864 608.179 54.6286 606.333 56.2508L606.994 57.002ZM610.096 50.046H611.096C611.096 47.6372 610.365 45.5904 608.845 43.9975L608.122 44.688L607.398 45.3785C608.51 46.543 609.096 48.0681 609.096 50.046H610.096ZM608.122 44.688L608.861 44.0153C607.492 42.5088 605.759 41.3608 603.689 40.5594L603.328 41.492L602.967 42.4246C604.782 43.1272 606.244 44.1098 607.382 45.3607L608.122 44.688ZM603.328 41.492L603.699 40.5635C601.761 39.7885 599.083 38.9615 595.682 38.08L595.432 39.048L595.181 40.016C598.548 40.8891 601.134 41.6915 602.956 42.4205L603.328 41.492ZM595.432 39.048L595.687 38.0813C591.451 36.9598 588.021 35.8453 585.384 34.7416L584.998 35.664L584.611 36.5864C587.364 37.7387 590.89 38.8802 595.176 40.0147L595.432 39.048ZM584.998 35.664L585.41 34.7529C582.937 33.6345 580.809 31.9251 579.022 29.6023L578.23 30.212L577.437 30.8217C579.41 33.3869 581.794 35.3122 584.585 36.5751L584.998 35.664ZM578.23 30.212L579.022 29.6023C577.314 27.3819 576.41 24.3595 576.41 20.436H575.41H574.41C574.41 24.6591 575.385 28.1541 577.437 30.8217L578.23 30.212ZM575.41 20.436H576.41C576.41 16.851 577.303 13.7587 579.062 11.1207L578.23 10.566L577.397 10.0113C575.396 13.0133 574.41 16.501 574.41 20.436H575.41ZM578.23 10.566L579.062 11.1207C580.827 8.47283 583.304 6.42827 586.532 4.99381L586.126 4.08L585.719 3.16619C582.179 4.73973 579.392 7.01917 577.397 10.0113L578.23 10.566ZM586.126 4.08L586.532 4.99381C589.765 3.55689 593.538 2.82399 597.876 2.82399V1.82399V0.823995C593.314 0.823995 589.254 1.5951 585.719 3.16619L586.126 4.08ZM597.876 1.82399V2.82399C604.033 2.82399 608.967 4.37572 612.762 7.40005L613.386 6.61799L614.009 5.83594C609.783 2.46827 604.377 0.823995 597.876 0.823995V1.82399ZM613.386 6.61799L612.776 7.41062C616.607 10.3573 618.739 14.4122 619.157 19.6693L620.154 19.59L621.15 19.5107C620.691 13.7384 618.311 9.14535 613.995 5.82537L613.386 6.61799ZM620.154 19.59V18.59H608.31V19.59V20.59H620.154V19.59ZM608.31 19.59L609.306 19.5113C609.094 16.8248 607.81 14.5481 605.559 12.706L604.926 13.48L604.292 14.254C606.177 15.7959 607.149 17.5925 607.313 19.6687L608.31 19.59ZM604.926 13.48L605.559 12.706C603.269 10.8325 600.299 9.942 596.748 9.942V10.942V11.942C599.964 11.942 602.446 12.7435 604.292 14.254L604.926 13.48ZM596.748 10.942V9.942C593.503 9.942 590.758 10.7729 588.6 12.5136L589.228 13.292L589.855 14.0704C591.582 12.6778 593.851 11.942 596.748 11.942V10.942ZM589.228 13.292L588.6 12.5136C586.378 14.3052 585.314 16.873 585.314 20.06H586.314H587.314C587.314 17.3563 588.192 15.4121 589.855 14.0704L589.228 13.292ZM586.314 20.06H585.314C585.314 22.2787 585.979 24.1889 587.358 25.7129L588.1 25.042L588.841 24.3711C587.839 23.2631 587.314 21.852 587.314 20.06H586.314ZM588.1 25.042L587.392 25.7491C588.754 27.1109 590.44 28.1833 592.428 28.9785L592.8 28.05L593.171 27.1215C591.399 26.4127 589.952 25.4798 588.807 24.3349L588.1 25.042ZM592.8 28.05L592.428 28.9785C594.36 29.7514 596.972 30.5778 600.248 31.4596L600.508 30.494L600.768 29.5284C597.525 28.6555 594.999 27.8526 593.171 27.1215L592.8 28.05ZM600.508 30.494L600.242 31.4581C604.54 32.6417 607.998 33.8173 610.631 34.9807L611.036 34.066L611.44 33.1513C608.683 31.9334 605.123 30.7276 600.773 29.5299L600.508 30.494ZM611.036 34.066L610.639 34.9841C613.229 36.1026 615.411 37.8384 617.192 40.212L617.992 39.612L618.792 39.012C616.812 36.3722 614.356 34.4107 611.432 33.1479L611.036 34.066ZM617.992 39.612L617.209 40.2342C618.971 42.4512 619.906 45.4984 619.906 49.482H620.906H621.906C621.906 45.1936 620.897 41.6608 618.774 38.9898L617.992 39.612ZM620.906 49.482H619.906C619.906 52.6099 619.053 55.5624 617.328 58.3569L618.18 58.882L619.031 59.4071C620.941 56.3109 621.906 52.9968 621.906 49.482H620.906ZM618.18 58.882L617.32 58.3702C615.672 61.1368 613.218 63.3979 609.911 65.1414L610.378 66.026L610.844 66.9106C614.431 65.0194 617.177 62.5178 619.039 59.3938L618.18 58.882ZM610.378 66.026L609.917 65.1382C606.703 66.8048 602.857 67.658 598.346 67.658V68.658V69.658C603.109 69.658 607.284 68.7565 610.838 66.9138L610.378 66.026Z" fill="black" mask="url(#path-1-outside-1_1_465)"/>
</svg>
