<svg width="40" height="40" viewBox="0 0 40 40" fill="none" xmlns="http://www.w3.org/2000/svg">
<path d="M20 8.90449C20.4323 8.90449 20.7828 8.55402 20.7828 8.12168C20.7828 7.68934 20.4323 7.33887 20 7.33887C19.5676 7.33887 19.2172 7.68934 19.2172 8.12168C19.2172 8.55402 19.5676 8.90449 20 8.90449Z" fill="#9A433E"/>
<path d="M38.4345 9.53215H32.6043C32.5826 9.53215 32.5612 9.53363 32.54 9.53543C31.83 9.44277 31.3008 8.84519 31.3008 8.12152C31.3008 7.37926 31.8569 6.76809 32.5943 6.69996C32.8798 6.67355 33.128 6.49316 33.2413 6.2298C33.3547 5.96637 33.3149 5.66215 33.1377 5.43668C32.3065 4.37902 31.0591 3.77246 29.7155 3.77246C28.5805 3.77246 27.4969 4.21559 26.6888 4.99941H13.3113C12.5032 4.21559 11.4195 3.77246 10.2846 3.77246C8.94094 3.77246 7.69359 4.37902 6.86234 5.43668C6.68516 5.66215 6.64539 5.96637 6.75875 6.2298C6.87203 6.49316 7.12023 6.67355 7.40578 6.69996C8.14312 6.76809 8.6993 7.37926 8.6993 8.12152C8.6993 8.84512 8.17023 9.44254 7.46047 9.53543C7.43961 9.53379 7.41867 9.53223 7.39734 9.53223H1.56555C0.702266 9.53215 0 10.2344 0 11.0977V14.8357C0 15.699 0.702266 16.4013 1.56555 16.4013H1.69117V34.6618C1.69117 35.525 2.39344 36.2273 3.25672 36.2273H16.4912C16.9234 36.2273 17.274 35.8768 17.274 35.4445C17.274 35.0121 16.9235 34.6617 16.4912 34.6617H11.236V30.5439H28.764V34.6617H23.5088C23.0766 34.6617 22.726 35.0121 22.726 35.4445C22.726 35.8768 23.0765 36.2273 23.5088 36.2273H36.7433C37.6066 36.2273 38.3088 35.525 38.3088 34.6618V16.4013H38.4345C39.2977 16.4013 40 15.699 40 14.8357V11.0977C40 10.2344 39.2977 9.53215 38.4345 9.53215ZM8.98258 5.65934C9.37766 5.4502 9.82219 5.33793 10.2845 5.33793C11.09 5.33793 11.8555 5.68707 12.3845 6.29566C12.5331 6.46668 12.7486 6.56488 12.9753 6.56488H27.0247C27.2513 6.56488 27.4668 6.46668 27.6155 6.29559C28.1445 5.68691 28.9099 5.33793 29.7155 5.33793C30.1779 5.33793 30.6224 5.45012 31.0174 5.65934C30.2364 6.20004 29.7352 7.10176 29.7352 8.12144C29.7352 9.14105 30.2365 10.0428 31.0175 10.5836C30.6224 10.7927 30.1777 10.905 29.7155 10.905C28.91 10.905 28.1445 10.5558 27.6155 9.94723C27.4669 9.77613 27.2514 9.67793 27.0247 9.67793H12.9753C12.7487 9.67793 12.5331 9.77613 12.3845 9.94715C11.8554 10.5559 11.09 10.905 10.2845 10.905C9.82219 10.905 9.3775 10.7927 8.9825 10.5836C9.76352 10.0428 10.2648 9.14105 10.2648 8.12144C10.2648 7.10176 9.76367 6.20004 8.98258 5.65934ZM11.236 24.2817H28.764V25.8472H11.236V24.2817ZM28.764 22.7161H11.236V21.296C11.236 21.2158 11.3013 21.1506 11.3813 21.1506H28.6187C28.6987 21.1506 28.764 21.2158 28.764 21.296V22.7161ZM11.236 28.9784V27.4128H28.764V28.9784H11.236ZM36.7433 34.6618H30.3295V21.296C30.3295 20.3526 29.562 19.585 28.6187 19.585H11.3813C10.438 19.585 9.67047 20.3526 9.67047 21.296V34.6618H3.25672V16.4013H36.7433V34.6618ZM38.4345 14.8357H1.56555V11.0977H7.11484C7.93586 11.9737 9.07031 12.4705 10.2846 12.4705C11.4194 12.4705 12.5031 12.0274 13.3113 11.2435H26.6888C27.4968 12.0274 28.5805 12.4705 29.7155 12.4705C30.9298 12.4705 32.0642 11.9737 32.8852 11.0977H38.4345V14.8357H38.4345Z" fill="#9A433E"/>
<path d="M20 36.2272C20.4323 36.2272 20.7828 35.8768 20.7828 35.4444C20.7828 35.0121 20.4323 34.6616 20 34.6616C19.5676 34.6616 19.2172 35.0121 19.2172 35.4444C19.2172 35.8768 19.5676 36.2272 20 36.2272Z" fill="#9A433E"/>
</svg>
