<svg width="40" height="40" viewBox="0 0 40 40" fill="none" xmlns="http://www.w3.org/2000/svg">
<path d="M21.9833 9.7832C19.1833 9.7832 16.7333 11.1832 15.2333 13.2999H16.75C18.05 11.8665 19.9167 10.9665 21.9833 10.9665C24.05 10.9665 25.9167 11.8832 27.2167 13.2999H28.7333C27.2333 11.1832 24.7667 9.7832 21.9833 9.7832Z" fill="#9A433E"/>
<path d="M15.3 22.9331C16.8167 24.9998 19.2333 26.3664 21.9833 26.3664C24.7333 26.3664 27.1667 24.9998 28.6667 22.9331H27.15C25.85 24.3164 24.0167 25.1998 21.9833 25.1998C19.95 25.1998 18.1167 24.3164 16.8167 22.9331H15.3Z" fill="#9A433E"/>
<path d="M21.9833 4.2334C16.05 4.2334 11 7.9834 9.03333 13.2334C9.39999 13.3834 9.74999 13.6167 10.05 13.9001C11.7833 8.96673 16.4833 5.41673 22 5.41673C28.9833 5.41673 34.6667 11.1001 34.6667 18.0834C34.6667 23.6167 31.1 28.3167 26.1667 30.0334C26.4333 30.3334 26.65 30.6834 26.7833 31.0667C32.0667 29.1167 35.85 24.0334 35.85 18.0834C35.85 10.4501 29.6333 4.2334 22 4.2334H21.9833Z" fill="#9A433E"/>
<path d="M22.5 28.5669C21.9333 28.0002 21.05 27.9502 20.4167 28.4169L18.5333 29.8336C14.9333 27.9336 12 24.9836 10.0833 21.3836L11.5 19.5002C11.9833 18.8669 11.9167 17.9669 11.35 17.4169L8.94999 15.0169C8.24999 14.3169 7.08332 14.4169 6.51666 15.2336L4.78332 17.7002C4.01666 18.7836 3.93332 20.2002 4.54999 21.3836C7.69999 27.3336 12.5667 32.2002 18.5167 35.3502C19.6833 35.9669 21.1167 35.8836 22.2 35.1169L24.6667 33.3836C25.4833 32.8169 25.5833 31.6502 24.8833 30.9502L22.4833 28.5502L22.5 28.5669Z" fill="#9A433E"/>
<path d="M13.2167 16.9332H14.4667C14.55 16.4165 14.7667 16.0499 15.35 16.0499C15.85 16.0499 16.1 16.3332 16.1 16.8665C16.1 17.3999 15.85 17.5999 15 18.2165C13.7 19.1665 13.2333 19.9999 13.2333 21.0499V21.1332H17.4667L17.6333 20.0499H14.8C14.9 19.7832 15.2 19.4332 15.9333 18.9165C17.0333 18.1499 17.4 17.7165 17.4 16.8499C17.4 15.9832 16.8833 15.0332 15.3333 15.0332C13.9667 15.0332 13.2833 15.8999 13.2 16.9165L13.2167 16.9332Z" fill="#9A433E"/>
<path d="M20.6166 15.1499L18.1166 18.6499V19.7832H20.8166V21.1332H22.0166V19.7832H22.6166L22.7333 18.7332H22.0166V15.1499H20.6H20.6166ZM20.8333 17.6666V18.7332H19.2833C19.85 17.9166 20.6333 16.7832 20.8666 16.2832C20.85 16.6666 20.8333 17.0166 20.8333 17.6666Z" fill="#9A433E"/>
<path d="M25.7 14.7666L23.1833 21.5833H24.2667L26.7667 14.7666H25.7Z" fill="#9A433E"/>
<path d="M31.4 16.1166V15.1499H27.2667V16.2166H30.0833C29.2667 17.2666 28.2 19.3666 27.9667 21.1166H29.3C29.5333 19.3832 30.4667 17.4499 31.4167 16.0999L31.4 16.1166Z" fill="#9A433E"/>
</svg>
