<svg width="40" height="40" viewBox="0 0 40 40" fill="none" xmlns="http://www.w3.org/2000/svg">
<path d="M27.5 37.5H5.83336C5.39148 37.4995 4.96785 37.3237 4.6554 37.0113C4.34295 36.6988 4.16719 36.2752 4.16669 35.8333V16.1483C4.16611 15.7191 4.33178 15.3064 4.62893 14.9967L11.3013 8.01513C11.4571 7.85272 11.6441 7.72339 11.851 7.63488C12.058 7.54637 12.2806 7.5005 12.5057 7.5H20.8277C21.0527 7.5005 21.2754 7.54637 21.4823 7.63488C21.6893 7.72339 21.8763 7.85272 22.0321 8.01513L28.7044 14.9967C29.0016 15.3064 29.1673 15.7191 29.1667 16.1483V35.8333C29.1662 36.2752 28.9904 36.6988 28.678 37.0113C28.3655 37.3237 27.9419 37.4995 27.5 37.5ZM12.5057 9.16667L5.83336 16.1483V35.8333H27.5009L27.5 16.1483L20.8277 9.16667H12.5057Z" fill="#9A433E"/>
<path d="M16.6666 17.5002C16.0074 17.5002 15.3629 17.3047 14.8147 16.9384C14.2666 16.5721 13.8393 16.0515 13.587 15.4424C13.3348 14.8334 13.2687 14.1631 13.3974 13.5165C13.526 12.8699 13.8435 12.276 14.3096 11.8098C14.7758 11.3436 15.3697 11.0262 16.0163 10.8975C16.663 10.7689 17.3332 10.8349 17.9423 11.0872C18.5513 11.3395 19.0719 11.7668 19.4382 12.3149C19.8045 12.8631 20 13.5076 20 14.1668C19.999 15.0506 19.6475 15.8979 19.0226 16.5228C18.3977 17.1477 17.5504 17.4992 16.6666 17.5002ZM16.6666 12.5002C16.337 12.5002 16.0148 12.5979 15.7407 12.781C15.4666 12.9642 15.253 13.2245 15.1268 13.529C15.0007 13.8336 14.9677 14.1687 15.032 14.492C15.0963 14.8153 15.255 15.1123 15.4881 15.3453C15.7212 15.5784 16.0182 15.7372 16.3415 15.8015C16.6648 15.8658 16.9999 15.8328 17.3045 15.7066C17.609 15.5805 17.8693 15.3669 18.0524 15.0928C18.2356 14.8187 18.3333 14.4965 18.3333 14.1668C18.3328 13.725 18.1571 13.3013 17.8446 12.9889C17.5322 12.6764 17.1085 12.5007 16.6666 12.5002Z" fill="#9A433E"/>
<path d="M23.3334 33.3332H10C9.77901 33.3332 9.56705 33.2454 9.41076 33.0891C9.25448 32.9328 9.16669 32.7209 9.16669 32.4998C9.16669 32.2788 9.25448 32.0669 9.41076 31.9106C9.56705 31.7543 9.77901 31.6665 10 31.6665H23.3334C23.5544 31.6665 23.7663 31.7543 23.9226 31.9106C24.0789 32.0669 24.1667 32.2788 24.1667 32.4998C24.1667 32.7209 24.0789 32.9328 23.9226 33.0891C23.7663 33.2454 23.5544 33.3332 23.3334 33.3332Z" fill="#9A433E"/>
<path d="M16.6658 12.5001C16.457 12.4999 16.2558 12.4212 16.1022 12.2797C15.9486 12.1381 15.8538 11.9441 15.8366 11.7359C15.5404 8.1788 17.0117 4.924 19.5842 3.4445C22.4113 1.81935 25.468 2.87159 26.9385 3.379C29.9981 4.50517 32.5351 6.71981 34.0642 9.59925C34.1705 9.79307 34.1954 10.0212 34.1335 10.2334C34.0716 10.4456 33.928 10.6245 33.7342 10.7308C33.5404 10.8371 33.3123 10.8621 33.1 10.8002C32.8878 10.7383 32.7089 10.5947 32.6026 10.4009C31.2724 7.88467 29.0628 5.94601 26.3949 4.95448C25.0643 4.49509 22.5846 3.64145 20.4158 4.889C18.4001 6.04826 17.2542 8.68132 17.4967 11.5976C17.5151 11.8178 17.4452 12.0362 17.3025 12.2049C17.1598 12.3736 16.956 12.4788 16.7358 12.4972C16.7122 12.4993 16.6886 12.5001 16.6658 12.5001Z" fill="#9A433E"/>
<path d="M16.6667 25.4168C15.8794 25.464 15.1053 25.1988 14.5125 24.6787C13.9196 24.1585 13.5558 23.4256 13.5002 22.6389C13.5559 21.8522 13.9196 21.1193 14.5125 20.5992C15.1054 20.0792 15.8795 19.814 16.6667 19.8614C17.4539 19.814 18.228 20.0792 18.8209 20.5992C19.4137 21.1193 19.7775 21.8522 19.8332 22.6389C19.8332 22.8599 19.7454 23.0718 19.5891 23.2281C19.4328 23.3844 19.2209 23.4722 18.9999 23.4722C18.7788 23.4722 18.5669 23.3844 18.4106 23.2281C18.2543 23.0718 18.1665 22.8599 18.1665 22.6389C18.1665 22.0366 17.4797 21.528 16.6667 21.528C15.8537 21.528 15.1668 22.0366 15.1668 22.6389C15.1668 23.2411 15.8537 23.7501 16.6667 23.7501C16.8877 23.7501 17.0997 23.8379 17.2559 23.9942C17.4122 24.1505 17.5 24.3624 17.5 24.5834C17.5 24.8045 17.4122 25.0164 17.2559 25.1727C17.0997 25.329 16.8877 25.4168 16.6667 25.4168Z" fill="#9A433E"/>
<path d="M16.6667 29.3054C15.8795 29.3527 15.1054 29.0876 14.5125 28.5676C13.9196 28.0475 13.5559 27.3146 13.5002 26.5279C13.5002 26.3069 13.588 26.0949 13.7443 25.9387C13.9005 25.7824 14.1125 25.6946 14.3335 25.6946C14.5545 25.6946 14.7665 25.7824 14.9228 25.9387C15.0791 26.0949 15.1668 26.3069 15.1668 26.5279C15.1668 27.1301 15.8537 27.6388 16.6667 27.6388C17.4797 27.6388 18.1665 27.1301 18.1665 26.5279C18.1665 25.9257 17.4797 25.4167 16.6667 25.4167C16.4457 25.4167 16.2337 25.3289 16.0774 25.1726C15.9211 25.0163 15.8334 24.8044 15.8334 24.5833C15.8334 24.3623 15.9211 24.1504 16.0774 23.9941C16.2337 23.8378 16.4457 23.75 16.6667 23.75C17.4539 23.7028 18.228 23.968 18.8209 24.4881C19.4138 25.0082 19.7775 25.7412 19.8332 26.5279C19.7775 27.3146 19.4137 28.0475 18.8209 28.5676C18.228 29.0876 17.4539 29.3527 16.6667 29.3054Z" fill="#9A433E"/>
<path d="M16.6666 30.4167C16.5572 30.4167 16.4488 30.3952 16.3477 30.3533C16.2466 30.3114 16.1547 30.25 16.0773 30.1727C15.9999 30.0953 15.9386 30.0034 15.8967 29.9023C15.8548 29.8012 15.8333 29.6928 15.8333 29.5833V19.5833C15.8333 19.3623 15.9211 19.1504 16.0774 18.9941C16.2337 18.8378 16.4456 18.75 16.6666 18.75C16.8877 18.75 17.0996 18.8378 17.2559 18.9941C17.4122 19.1504 17.5 19.3623 17.5 19.5833V29.5833C17.5 29.6928 17.4785 29.8012 17.4366 29.9023C17.3947 30.0034 17.3334 30.0953 17.256 30.1727C17.1786 30.25 17.0867 30.3114 16.9856 30.3533C16.8845 30.3952 16.7761 30.4167 16.6666 30.4167Z" fill="#9A433E"/>
</svg>
