<svg width="40" height="40" viewBox="0 0 40 40" fill="none" xmlns="http://www.w3.org/2000/svg">
<path d="M28.1247 17.3234V10.6245C28.1247 10.4327 28.0361 10.2556 27.9108 10.1154L20.4004 2.22874C20.2602 2.08129 20.0609 2 19.8619 2H7.95426C5.75595 2 4 3.79268 4 5.99126V28.5078C4 30.7063 5.75595 32.4696 7.95426 32.4696H17.3535C19.1314 35.4206 22.3629 37.3977 26.0442 37.3977C31.6363 37.3977 36.2031 32.8531 36.2031 27.2536C36.2107 22.3622 32.6988 18.2751 28.1247 17.3234ZM20.5997 4.58963L25.6385 9.89394H22.3702C21.3964 9.89394 20.5997 9.08996 20.5997 8.11611V4.58963ZM7.95426 30.994C6.57478 30.994 5.47562 29.8872 5.47562 28.5078V5.99126C5.47562 4.60422 6.57478 3.47562 7.95426 3.47562H19.1241V8.11611C19.1241 9.90879 20.5775 11.3696 22.3702 11.3696H26.6491V17.1314C26.4279 17.1241 26.2508 17.1019 26.059 17.1019C23.4842 17.1019 21.116 18.0906 19.3307 19.64H9.9611C9.55519 19.64 9.22329 19.9719 9.22329 20.3775C9.22329 20.7834 9.55519 21.1153 9.9611 21.1153H17.9585C17.4345 21.8531 16.9992 22.5909 16.66 23.4025H9.9611C9.55519 23.4025 9.22329 23.7344 9.22329 24.1403C9.22329 24.5459 9.55519 24.8781 9.9611 24.8781H16.1804C15.9959 25.6159 15.9001 26.4348 15.9001 27.2536C15.9001 28.5815 16.1582 29.8948 16.623 31.0015H7.95426V30.994ZM26.0517 35.9296C21.2711 35.9296 17.383 32.0415 17.383 27.2609C17.383 22.4802 21.2635 18.5921 26.0517 18.5921C30.8397 18.5921 34.7202 22.4802 34.7202 27.2609C34.7202 32.0415 30.8324 35.9296 26.0517 35.9296Z" fill="#9A433E"/>
<path d="M9.96108 17.4195H17.4345C17.8404 17.4195 18.1723 17.0873 18.1723 16.6817C18.1723 16.2758 17.8404 15.9438 17.4345 15.9438H9.96108C9.55517 15.9438 9.22327 16.2758 9.22327 16.6817C9.22327 17.0873 9.55517 17.4195 9.96108 17.4195Z" fill="#9A433E"/>
<path d="M26.0369 28.3597C27.7853 28.3597 29.2093 26.936 29.2093 25.1876C29.2093 23.4392 27.7853 22.0151 26.0369 22.0151C24.2885 22.0151 22.8644 23.4392 22.8644 25.1876C22.8644 26.936 24.2885 28.3597 26.0369 28.3597ZM26.0369 23.4981C26.9737 23.4981 27.7337 24.258 27.7337 25.1949C27.7337 26.1317 26.9737 26.8917 26.0369 26.8917C25.1 26.8917 24.3401 26.132 24.3401 25.1949C24.3401 24.258 25.1073 23.4981 26.0369 23.4981Z" fill="#9A433E"/>
<path d="M31.2601 25.1879C31.2601 22.3107 28.914 19.9644 26.0368 19.9644C23.1595 19.9644 20.8135 22.3107 20.8135 25.1879C20.8135 26.8034 21.5513 28.2493 22.702 29.2013L21.4921 32.1966C21.3371 32.5728 21.4109 32.9933 21.6915 33.2957C21.9718 33.5982 22.3847 33.7016 22.7685 33.5761L23.5579 33.3179L23.8971 34.0038C24.0742 34.3582 24.4358 34.5869 24.8269 34.5869C24.8415 34.5869 24.849 34.5869 24.8636 34.5869C25.2695 34.5721 25.6382 34.3212 25.7859 33.945L26.0513 33.2957L26.2801 33.8564C26.4351 34.2329 26.7965 34.491 27.2024 34.4983C27.2172 34.4983 27.2245 34.4983 27.2394 34.4983C27.6377 34.4983 27.999 34.2696 28.1689 33.9155L28.5081 33.2293L29.2975 33.4875C29.6886 33.6131 30.1018 33.5023 30.3748 33.2072C30.6551 32.9047 30.7288 32.4842 30.5738 32.108L29.3788 29.2013C30.5298 28.2421 31.2601 26.8034 31.2601 25.1879ZM22.2888 25.1879C22.2888 23.1222 23.9711 21.44 26.0368 21.44C28.1025 21.44 29.7844 23.1222 29.7844 25.1879C29.7844 27.2536 28.1025 28.9356 26.0368 28.9356C23.9711 28.9356 22.2888 27.2536 22.2888 25.1879ZM24.7974 32.4918L24.7237 32.344C24.495 31.8793 23.9638 31.6505 23.4693 31.8128L23.2111 31.8941L23.9783 29.9907C24.2441 30.1087 24.5244 30.1973 24.812 30.271L25.2547 31.3553L24.7974 32.4918ZM28.8551 31.7982L28.6043 31.717C28.1173 31.5619 27.5788 31.7907 27.3501 32.2482L27.2764 32.3956L26.4573 30.3891C27.0403 30.3448 27.5861 30.2046 28.1025 29.9832L28.8551 31.7982Z" fill="#9A433E"/>
</svg>
