<svg width="40" height="40" viewBox="0 0 40 40" fill="none" xmlns="http://www.w3.org/2000/svg">
<path d="M15.5813 15.4062L14.75 20.525C14.7284 20.6427 14.741 20.7643 14.7864 20.8751C14.8319 20.9859 14.9082 21.0813 15.0063 21.15C15.1056 21.212 15.2204 21.245 15.3375 21.245C15.4547 21.245 15.5694 21.212 15.6688 21.15L20 18.75L24.3313 21.1437C24.4247 21.1966 24.5302 21.2246 24.6375 21.225C24.765 21.2246 24.8893 21.1854 24.9938 21.1125C25.0919 21.0438 25.1682 20.9484 25.2136 20.8376C25.259 20.7268 25.2717 20.6052 25.25 20.4875L24.4188 15.3687L27.95 11.7562C28.0282 11.6747 28.0829 11.5736 28.1082 11.4635C28.1335 11.3535 28.1285 11.2386 28.0938 11.1312C28.0571 11.0221 27.991 10.9253 27.9027 10.8514C27.8145 10.7775 27.7076 10.7295 27.5938 10.7125L22.7438 9.99995L20.5688 5.36245C20.5191 5.25333 20.439 5.16082 20.3382 5.09595C20.2373 5.03108 20.1199 4.99658 20 4.99658C19.8801 4.99658 19.7627 5.03108 19.6619 5.09595C19.5611 5.16082 19.481 5.25333 19.4313 5.36245L17.2563 9.99995L12.4063 10.7437C12.2925 10.7607 12.1856 10.8088 12.0973 10.8827C12.0091 10.9566 11.943 11.0534 11.9063 11.1625C11.8715 11.2699 11.8666 11.3847 11.8919 11.4948C11.9172 11.6048 11.9718 11.706 12.05 11.7875L15.5813 15.4062ZM16.7 14.7812L14.6 12.6312L19.0063 14.1L16.475 17.7125L16.875 15.3C16.8901 15.2029 16.8822 15.1037 16.8518 15.0103C16.8214 14.9169 16.7694 14.832 16.7 14.7625V14.7812ZM20 17.4375C19.8944 17.4362 19.7905 17.4643 19.7 17.5187L17.1375 18.9312L20 14.8375L22.8625 18.9312L20.3 17.5C20.2076 17.4521 20.1039 17.4304 20 17.4375ZM23.525 17.6937L21.025 14.0812L25.4 12.6125L23.3 14.7625C23.2318 14.8326 23.181 14.9178 23.1517 15.0111C23.1223 15.1045 23.1154 15.2034 23.1313 15.3L23.525 17.6937ZM22.225 11.1812L24.6313 11.55L20.625 12.8812V8.42495L21.75 10.8312C21.7943 10.9241 21.8608 11.0047 21.9436 11.0658C22.0265 11.1268 22.1232 11.1665 22.225 11.1812ZM17.775 11.1812C17.8769 11.1665 17.9736 11.1268 18.0564 11.0658C18.1393 11.0047 18.2058 10.9241 18.25 10.8312L19.375 8.42495V12.8812L15.3688 11.55L17.775 11.1812Z" fill="#9A433E"/>
<path d="M4.01876 18.6373L3.39376 22.3873C3.37211 22.505 3.38475 22.6266 3.43018 22.7374C3.47561 22.8482 3.55191 22.9436 3.65001 23.0123C3.74934 23.0743 3.86412 23.1073 3.98126 23.1073C4.0984 23.1073 4.21318 23.0743 4.31251 23.0123L7.50001 21.2935L10.675 23.0435C10.7659 23.097 10.8695 23.1251 10.975 23.1248C11.0662 23.1259 11.1566 23.1071 11.2398 23.0697C11.3229 23.0322 11.3969 22.977 11.4565 22.9079C11.516 22.8388 11.5597 22.7575 11.5845 22.6697C11.6093 22.5819 11.6146 22.4898 11.6 22.3998L10.975 18.6498L13.5688 15.9935C13.6478 15.9109 13.7028 15.8082 13.7275 15.6966C13.7523 15.585 13.746 15.4687 13.7092 15.3604C13.6725 15.2521 13.6068 15.156 13.5192 15.0825C13.4316 15.009 13.3255 14.9609 13.2125 14.9435L9.66251 14.3748L8.06876 10.9748C8.01905 10.8656 7.93899 10.7731 7.83814 10.7083C7.7373 10.6434 7.61992 10.6089 7.50001 10.6089C7.3801 10.6089 7.26272 10.6434 7.16188 10.7083C7.06103 10.7731 6.98098 10.8656 6.93126 10.9748L5.33751 14.3748L1.78126 14.9185C1.66825 14.9359 1.56218 14.984 1.4746 15.0575C1.38702 15.131 1.32128 15.2271 1.28454 15.3354C1.2478 15.4437 1.24147 15.56 1.26624 15.6716C1.29101 15.7832 1.34593 15.8859 1.42501 15.9685L4.01876 18.6373ZM5.85626 15.5685C5.95702 15.5528 6.05241 15.5127 6.13411 15.4517C6.21582 15.3907 6.28136 15.3107 6.32501 15.2185L7.50001 12.7185L8.67501 15.2185C8.71867 15.3107 8.7842 15.3907 8.86591 15.4517C8.94761 15.5127 9.043 15.5528 9.14376 15.5685L11.825 15.981L9.86251 17.9935C9.79427 18.0636 9.74345 18.1488 9.71414 18.2422C9.68483 18.3355 9.67785 18.4345 9.69376 18.531L10.15 21.331L7.80001 20.031C7.705 19.9762 7.59722 19.9473 7.48751 19.9473C7.3778 19.9473 7.27002 19.9762 7.17501 20.031L4.85001 21.331L5.30626 18.531C5.32217 18.4345 5.31519 18.3355 5.28588 18.2422C5.25657 18.1488 5.20575 18.0636 5.13751 17.9935L3.17501 15.981L5.85626 15.5685Z" fill="#9A433E"/>
<path d="M26.2813 15.3498C26.2465 15.4572 26.2416 15.5721 26.2669 15.6821C26.2922 15.7921 26.3468 15.8933 26.425 15.9748L29.0188 18.631L28.3938 22.381C28.3721 22.4988 28.3848 22.6203 28.4302 22.7311C28.4756 22.8419 28.5519 22.9373 28.65 23.006C28.7494 23.0681 28.8641 23.101 28.9813 23.101C29.0984 23.101 29.2132 23.0681 29.3125 23.006L32.5 21.2935L35.675 23.0435C35.7659 23.097 35.8696 23.1251 35.975 23.1248C36.0662 23.1259 36.1566 23.1071 36.2398 23.0697C36.323 23.0322 36.3969 22.977 36.4565 22.9079C36.516 22.8388 36.5597 22.7575 36.5845 22.6697C36.6093 22.5819 36.6146 22.4898 36.6 22.3998L35.975 18.6498L38.5688 15.9935C38.6479 15.9109 38.7028 15.8082 38.7275 15.6966C38.7523 15.585 38.746 15.4687 38.7092 15.3604C38.6725 15.2521 38.6068 15.156 38.5192 15.0825C38.4316 15.009 38.3255 14.9609 38.2125 14.9435L34.6625 14.3748L33.0688 10.9748C33.0191 10.8656 32.939 10.7731 32.8382 10.7083C32.7373 10.6434 32.6199 10.6089 32.5 10.6089C32.3801 10.6089 32.2627 10.6434 32.1619 10.7083C32.0611 10.7731 31.981 10.8656 31.9313 10.9748L30.3375 14.3748L26.7813 14.9185C26.666 14.9365 26.558 14.9865 26.4697 15.0627C26.3813 15.1389 26.3161 15.2384 26.2813 15.3498ZM30.8563 15.5685C30.957 15.5528 31.0524 15.5127 31.1341 15.4517C31.2158 15.3907 31.2814 15.3107 31.325 15.2185L32.5 12.7185L33.675 15.2185C33.7187 15.3107 33.7842 15.3907 33.8659 15.4517C33.9476 15.5127 34.043 15.5528 34.1438 15.5685L36.825 15.981L34.8625 17.9935C34.7943 18.0636 34.7435 18.1488 34.7142 18.2422C34.6848 18.3355 34.6779 18.4345 34.6938 18.531L35.15 21.331L32.8 20.031C32.705 19.9762 32.5972 19.9473 32.4875 19.9473C32.3778 19.9473 32.27 19.9762 32.175 20.031L29.825 21.331L30.2813 18.531C30.2972 18.4345 30.2902 18.3355 30.2609 18.2422C30.2316 18.1488 30.1808 18.0636 30.1125 17.9935L28.15 15.981L30.8563 15.5685Z" fill="#9A433E"/>
<path d="M19.3751 27.2252C19.3384 27.1162 19.2722 27.0194 19.184 26.9455C19.0958 26.8716 18.9889 26.8235 18.8751 26.8065L15.2876 26.2502L13.6938 22.8502C13.6441 22.7411 13.5641 22.6486 13.4632 22.5837C13.3624 22.5189 13.245 22.4844 13.1251 22.4844C13.0052 22.4844 12.8878 22.5189 12.7869 22.5837C12.6861 22.6486 12.606 22.7411 12.5563 22.8502L10.9626 26.2502L7.40632 26.794C7.29331 26.8114 7.18724 26.8595 7.09966 26.933C7.01208 27.0065 6.94634 27.1026 6.9096 27.2109C6.87287 27.3192 6.86654 27.4355 6.8913 27.5471C6.91607 27.6587 6.97099 27.7614 7.05007 27.844L9.64382 30.5002L9.01882 34.2502C8.99717 34.368 9.00981 34.4895 9.05524 34.6003C9.10067 34.7111 9.17697 34.8066 9.27507 34.8752C9.3744 34.9373 9.48918 34.9702 9.60632 34.9702C9.72346 34.9702 9.83824 34.9373 9.93757 34.8752L13.1251 33.169L16.3001 34.919C16.391 34.9725 16.4946 35.0006 16.6001 35.0002C16.6913 35.0014 16.7816 34.9826 16.8648 34.9452C16.948 34.9077 17.022 34.8525 17.0815 34.7834C17.1411 34.7143 17.1848 34.633 17.2096 34.5452C17.2344 34.4574 17.2397 34.3653 17.2251 34.2752L16.6001 30.5252L19.1938 27.869C19.2819 27.7899 19.3457 27.6874 19.3778 27.5734C19.4099 27.4594 19.4089 27.3387 19.3751 27.2252ZM15.5188 29.869C15.4506 29.9391 15.3998 30.0243 15.3705 30.1177C15.3411 30.211 15.3342 30.3099 15.3501 30.4065L15.8063 33.2065L13.4563 31.9065C13.3613 31.8516 13.2535 31.8228 13.1438 31.8228C13.0341 31.8228 12.9263 31.8516 12.8313 31.9065L10.4813 33.2065L10.9376 30.4065C10.9535 30.3099 10.9465 30.211 10.9172 30.1177C10.8879 30.0243 10.8371 29.9391 10.7688 29.869L8.80632 27.8565L11.4876 27.444C11.5883 27.4283 11.6837 27.3882 11.7654 27.3272C11.8471 27.2662 11.9127 27.1861 11.9563 27.094L13.1313 24.594L14.3063 27.094C14.35 27.1861 14.4155 27.2662 14.4972 27.3272C14.5789 27.3882 14.6743 27.4283 14.7751 27.444L17.4563 27.8565L15.5188 29.869Z" fill="#9A433E"/>
<path d="M33.1251 27.2252C33.0884 27.1162 33.0222 27.0194 32.934 26.9455C32.8458 26.8716 32.7389 26.8235 32.6251 26.8065L29.0376 26.2502L27.4438 22.8502C27.3941 22.7411 27.3141 22.6486 27.2132 22.5837C27.1124 22.5189 26.995 22.4844 26.8751 22.4844C26.7552 22.4844 26.6378 22.5189 26.5369 22.5837C26.4361 22.6486 26.356 22.7411 26.3063 22.8502L24.7126 26.2502L21.1563 26.794C21.0433 26.8114 20.9372 26.8595 20.8497 26.933C20.7621 27.0065 20.6963 27.1026 20.6596 27.2109C20.6229 27.3192 20.6165 27.4355 20.6413 27.5471C20.6661 27.6587 20.721 27.7614 20.8001 27.844L23.3938 30.5002L22.7688 34.2502C22.7472 34.368 22.7598 34.4895 22.8052 34.6003C22.8507 34.7111 22.927 34.8066 23.0251 34.8752C23.1244 34.9373 23.2392 34.9702 23.3563 34.9702C23.4735 34.9702 23.5882 34.9373 23.6876 34.8752L26.8751 33.169L30.0501 34.919C30.141 34.9725 30.2446 35.0006 30.3501 35.0002C30.4413 35.0014 30.5316 34.9826 30.6148 34.9452C30.698 34.9077 30.772 34.8525 30.8315 34.7834C30.8911 34.7143 30.9348 34.633 30.9596 34.5452C30.9844 34.4574 30.9897 34.3653 30.9751 34.2752L30.3501 30.5252L32.9438 27.869C33.0319 27.7899 33.0957 27.6874 33.1278 27.5734C33.1599 27.4594 33.1589 27.3387 33.1251 27.2252ZM29.2688 29.869C29.2006 29.9391 29.1498 30.0243 29.1205 30.1177C29.0911 30.211 29.0842 30.3099 29.1001 30.4065L29.5563 33.2065L27.2063 31.9065C27.1113 31.8516 27.0035 31.8228 26.8938 31.8228C26.7841 31.8228 26.6763 31.8516 26.5813 31.9065L24.2313 33.2065L24.6876 30.4065C24.7035 30.3099 24.6965 30.211 24.6672 30.1177C24.6379 30.0243 24.5871 29.9391 24.5188 29.869L22.5563 27.8565L25.2376 27.444C25.3383 27.4283 25.4337 27.3882 25.5154 27.3272C25.5971 27.2662 25.6627 27.1861 25.7063 27.094L26.8813 24.594L28.0563 27.094C28.1 27.1861 28.1655 27.2662 28.2472 27.3272C28.3289 27.3882 28.4243 27.4283 28.5251 27.444L31.2063 27.8565L29.2688 29.869Z" fill="#9A433E"/>
</svg>
