<svg width="449" height="94" viewBox="0 0 449 94" fill="none" xmlns="http://www.w3.org/2000/svg">
<mask id="path-1-outside-1_1_845" maskUnits="userSpaceOnUse" x="0" y="0" width="449" height="94" fill="black">
<rect fill="white" width="449" height="94"/>
<path d="M124.44 3.03999L98.072 92H81.56L62.872 24.672L43.032 92L26.648 92.128L1.432 3.03999H16.92L35.352 75.488L55.32 3.03999H71.704L90.264 75.104L108.824 3.03999H124.44ZM199.835 3.03999V92H185.243V53.088H143.387V92H128.795V3.03999H143.387V41.184H185.243V3.03999H199.835ZM277.285 3.03999L247.845 59.744V92H233.253V59.744L203.685 3.03999H219.941L240.549 46.688L261.157 3.03999H277.285ZM321.219 3.03999V59.744C321.219 66.4853 322.968 71.5627 326.467 74.976C330.051 78.3893 335 80.096 341.315 80.096C347.715 80.096 352.664 78.3893 356.163 74.976C359.747 71.5627 361.539 66.4853 361.539 59.744V3.03999H376.131V59.488C376.131 66.7413 374.552 72.8853 371.395 77.92C368.238 82.9547 364.014 86.7093 358.723 89.184C353.432 91.6587 347.587 92.896 341.187 92.896C334.787 92.896 328.942 91.6587 323.651 89.184C318.446 86.7093 314.307 82.9547 311.235 77.92C308.163 72.8853 306.627 66.7413 306.627 59.488V3.03999H321.219ZM416.762 92.896C410.789 92.896 405.413 91.872 400.634 89.824C395.855 87.6907 392.101 84.704 389.37 80.864C386.639 77.024 385.274 72.544 385.274 67.424H400.89C401.231 71.264 402.725 74.4213 405.37 76.896C408.101 79.3707 411.898 80.608 416.762 80.608C421.797 80.608 425.722 79.4133 428.538 77.024C431.354 74.5493 432.762 71.392 432.762 67.552C432.762 64.5653 431.866 62.1333 430.074 60.256C428.367 58.3787 426.191 56.928 423.546 55.904C420.986 54.88 417.402 53.7707 412.794 52.576C406.991 51.04 402.255 49.504 398.586 47.968C395.002 46.3467 391.93 43.872 389.37 40.544C386.81 37.216 385.53 32.7787 385.53 27.232C385.53 22.112 386.81 17.632 389.37 13.792C391.93 9.952 395.514 7.008 400.122 4.96C404.73 2.91199 410.063 1.88799 416.122 1.88799C424.741 1.88799 431.781 4.06399 437.242 8.41599C442.789 12.6827 445.861 18.5707 446.458 26.08H430.33C430.074 22.8373 428.538 20.064 425.722 17.76C422.906 15.456 419.194 14.304 414.586 14.304C410.405 14.304 406.991 15.3707 404.346 17.504C401.701 19.6373 400.378 22.7093 400.378 26.72C400.378 29.4507 401.189 31.712 402.81 33.504C404.517 35.2107 406.65 36.576 409.21 37.6C411.77 38.624 415.269 39.7333 419.706 40.928C425.594 42.5493 430.373 44.1707 434.042 45.792C437.797 47.4133 440.954 49.9307 443.514 53.344C446.159 56.672 447.482 61.152 447.482 66.784C447.482 71.3067 446.245 75.5733 443.77 79.584C441.381 83.5947 437.839 86.8373 433.146 89.312C428.538 91.7013 423.077 92.896 416.762 92.896Z"/>
</mask>
<path d="M124.44 3.03999L125.399 3.32418L125.779 2.03999H124.44V3.03999ZM98.072 92V93H98.8186L99.0308 92.2842L98.072 92ZM81.56 92L80.5964 92.2675L80.7998 93H81.56V92ZM62.872 24.672L63.8356 24.4045L62.9007 21.0366L61.9128 24.3893L62.872 24.672ZM43.032 92L43.0398 93L43.7816 92.9942L43.9912 92.2827L43.032 92ZM26.648 92.128L25.6858 92.4003L25.8934 93.1339L26.6558 93.128L26.648 92.128ZM1.432 3.03999V2.03999H0.109668L0.469801 3.31234L1.432 3.03999ZM16.92 3.03999L17.8891 2.79343L17.6974 2.03999H16.92V3.03999ZM35.352 75.488L34.3829 75.7346L35.3133 79.3918L36.3161 75.7537L35.352 75.488ZM55.32 3.03999V2.03999H54.5583L54.3559 2.77428L55.32 3.03999ZM71.704 3.03999L72.6724 2.79058L72.4791 2.03999H71.704V3.03999ZM90.264 75.104L89.2956 75.3534H91.2324L90.264 75.104ZM108.824 3.03999V2.03999H108.049L107.856 2.79058L108.824 3.03999ZM124.44 3.03999L123.481 2.75581L97.1132 91.7158L98.072 92L99.0308 92.2842L125.399 3.32418L124.44 3.03999ZM98.072 92V91H81.56V92V93H98.072V92ZM81.56 92L82.5236 91.7325L63.8356 24.4045L62.872 24.672L61.9084 24.9395L80.5964 92.2675L81.56 92ZM62.872 24.672L61.9128 24.3893L42.0728 91.7173L43.032 92L43.9912 92.2827L63.8312 24.9547L62.872 24.672ZM43.032 92L43.0242 91L26.6402 91.128L26.648 92.128L26.6558 93.128L43.0398 93L43.032 92ZM26.648 92.128L27.6102 91.8557L2.3942 2.76765L1.432 3.03999L0.469801 3.31234L25.6858 92.4003L26.648 92.128ZM1.432 3.03999V4.03999H16.92V3.03999V2.03999H1.432V3.03999ZM16.92 3.03999L15.9509 3.28656L34.3829 75.7346L35.352 75.488L36.3211 75.2414L17.8891 2.79343L16.92 3.03999ZM35.352 75.488L36.3161 75.7537L56.2841 3.3057L55.32 3.03999L54.3559 2.77428L34.3879 75.2223L35.352 75.488ZM55.32 3.03999V4.03999H71.704V3.03999V2.03999H55.32V3.03999ZM71.704 3.03999L70.7356 3.2894L89.2956 75.3534L90.264 75.104L91.2324 74.8546L72.6724 2.79058L71.704 3.03999ZM90.264 75.104L91.2324 75.3534L109.792 3.2894L108.824 3.03999L107.856 2.79058L89.2956 74.8546L90.264 75.104ZM108.824 3.03999V4.03999H124.44V3.03999V2.03999H108.824V3.03999ZM199.835 3.03999H200.835V2.03999H199.835V3.03999ZM199.835 92V93H200.835V92H199.835ZM185.243 92H184.243V93H185.243V92ZM185.243 53.088H186.243V52.088H185.243V53.088ZM143.387 53.088V52.088H142.387V53.088H143.387ZM143.387 92V93H144.387V92H143.387ZM128.795 92H127.795V93H128.795V92ZM128.795 3.03999V2.03999H127.795V3.03999H128.795ZM143.387 3.03999H144.387V2.03999H143.387V3.03999ZM143.387 41.184H142.387V42.184H143.387V41.184ZM185.243 41.184V42.184H186.243V41.184H185.243ZM185.243 3.03999V2.03999H184.243V3.03999H185.243ZM199.835 3.03999H198.835V92H199.835H200.835V3.03999H199.835ZM199.835 92V91H185.243V92V93H199.835V92ZM185.243 92H186.243V53.088H185.243H184.243V92H185.243ZM185.243 53.088V52.088H143.387V53.088V54.088H185.243V53.088ZM143.387 53.088H142.387V92H143.387H144.387V53.088H143.387ZM143.387 92V91H128.795V92V93H143.387V92ZM128.795 92H129.795V3.03999H128.795H127.795V92H128.795ZM128.795 3.03999V4.03999H143.387V3.03999V2.03999H128.795V3.03999ZM143.387 3.03999H142.387V41.184H143.387H144.387V3.03999H143.387ZM143.387 41.184V42.184H185.243V41.184V40.184H143.387V41.184ZM185.243 41.184H186.243V3.03999H185.243H184.243V41.184H185.243ZM185.243 3.03999V4.03999H199.835V3.03999V2.03999H185.243V3.03999ZM277.285 3.03999L278.173 3.50078L278.931 2.03999H277.285V3.03999ZM247.845 59.744L246.957 59.2832L246.845 59.4999V59.744H247.845ZM247.845 92V93H248.845V92H247.845ZM233.253 92H232.253V93H233.253V92ZM233.253 59.744H234.253V59.4989L234.14 59.2816L233.253 59.744ZM203.685 3.03999V2.03999H202.036L202.798 3.50235L203.685 3.03999ZM219.941 3.03999L220.845 2.61305L220.575 2.03999H219.941V3.03999ZM240.549 46.688L239.645 47.1149L240.549 49.0302L241.453 47.1149L240.549 46.688ZM261.157 3.03999V2.03999H260.523L260.253 2.61305L261.157 3.03999ZM277.285 3.03999L276.397 2.57921L246.957 59.2832L247.845 59.744L248.733 60.2048L278.173 3.50078L277.285 3.03999ZM247.845 59.744H246.845V92H247.845H248.845V59.744H247.845ZM247.845 92V91H233.253V92V93H247.845V92ZM233.253 92H234.253V59.744H233.253H232.253V92H233.253ZM233.253 59.744L234.14 59.2816L204.572 2.57763L203.685 3.03999L202.798 3.50235L232.366 60.2064L233.253 59.744ZM203.685 3.03999V4.03999H219.941V3.03999V2.03999H203.685V3.03999ZM219.941 3.03999L219.037 3.46694L239.645 47.1149L240.549 46.688L241.453 46.2611L220.845 2.61305L219.941 3.03999ZM240.549 46.688L241.453 47.1149L262.061 3.46694L261.157 3.03999L260.253 2.61305L239.645 46.2611L240.549 46.688ZM261.157 3.03999V4.03999H277.285V3.03999V2.03999H261.157V3.03999ZM321.219 3.03999H322.219V2.03999H321.219V3.03999ZM326.467 74.976L325.769 75.6918L325.777 75.7001L326.467 74.976ZM356.163 74.976L355.473 74.2518L355.465 74.2602L356.163 74.976ZM361.539 3.03999V2.03999H360.539V3.03999H361.539ZM376.131 3.03999H377.131V2.03999H376.131V3.03999ZM371.395 77.92L372.242 78.4513L371.395 77.92ZM358.723 89.184L358.299 88.2782L358.723 89.184ZM323.651 89.184L323.222 90.0872L323.227 90.0898L323.651 89.184ZM311.235 77.92L310.381 78.4409L311.235 77.92ZM306.627 3.03999V2.03999H305.627V3.03999H306.627ZM321.219 3.03999H320.219V59.744H321.219H322.219V3.03999H321.219ZM321.219 59.744H320.219C320.219 66.6501 322.013 72.0279 325.769 75.6918L326.467 74.976L327.165 74.2602C323.923 71.0974 322.219 66.3205 322.219 59.744H321.219ZM326.467 74.976L325.777 75.7001C329.595 79.3356 334.817 81.096 341.315 81.096V80.096V79.096C335.183 79.096 330.507 77.4431 327.157 74.2519L326.467 74.976ZM341.315 80.096V81.096C347.892 81.096 353.124 79.3384 356.861 75.6918L356.163 74.976L355.465 74.2602C352.205 77.4403 347.538 79.096 341.315 79.096V80.096ZM356.163 74.976L356.853 75.7001C360.698 72.0375 362.539 66.6566 362.539 59.744H361.539H360.539C360.539 66.314 358.796 71.0878 355.473 74.2519L356.163 74.976ZM361.539 59.744H362.539V3.03999H361.539H360.539V59.744H361.539ZM361.539 3.03999V4.03999H376.131V3.03999V2.03999H361.539V3.03999ZM376.131 3.03999H375.131V59.488H376.131H377.131V3.03999H376.131ZM376.131 59.488H375.131C375.131 66.595 373.585 72.5452 370.548 77.3887L371.395 77.92L372.242 78.4513C375.519 73.2255 377.131 66.8877 377.131 59.488H376.131ZM371.395 77.92L370.548 77.3887C367.491 82.2634 363.413 85.8865 358.299 88.2782L358.723 89.184L359.147 90.0898C364.615 87.5321 368.985 83.6459 372.242 78.4513L371.395 77.92ZM358.723 89.184L358.299 88.2782C353.154 90.6851 347.455 91.896 341.187 91.896V92.896V93.896C347.719 93.896 353.711 92.6323 359.147 90.0898L358.723 89.184ZM341.187 92.896V91.896C334.919 91.896 329.22 90.6851 324.075 88.2782L323.651 89.184L323.227 90.0898C328.663 92.6323 334.655 93.896 341.187 93.896V92.896ZM323.651 89.184L324.08 88.2809C319.055 85.8917 315.062 82.2719 312.089 77.3991L311.235 77.92L310.381 78.4409C313.552 83.6374 317.836 87.527 323.222 90.0871L323.651 89.184ZM311.235 77.92L312.089 77.3991C309.132 72.5538 307.627 66.5997 307.627 59.488H306.627H305.627C305.627 66.8829 307.194 73.2169 310.381 78.4409L311.235 77.92ZM306.627 59.488H307.627V3.03999H306.627H305.627V59.488H306.627ZM306.627 3.03999V4.03999H321.219V3.03999V2.03999H306.627V3.03999ZM400.634 89.824L400.226 90.7371L400.233 90.7402L400.24 90.7431L400.634 89.824ZM389.37 80.864L390.185 80.2845L389.37 80.864ZM385.274 67.424V66.424H384.274V67.424H385.274ZM400.89 67.424L401.886 67.3355L401.805 66.424H400.89V67.424ZM405.37 76.896L404.687 77.6263L404.693 77.6317L404.698 77.637L405.37 76.896ZM428.538 77.024L429.185 77.7865L429.192 77.7809L429.198 77.7752L428.538 77.024ZM430.074 60.256L429.334 60.9287L429.342 60.9377L429.351 60.9465L430.074 60.256ZM423.546 55.904L423.175 56.8325L423.185 56.8366L423.546 55.904ZM412.794 52.576L412.538 53.5427L412.543 53.544L412.794 52.576ZM398.586 47.968L398.174 48.8791L398.187 48.885L398.2 48.8904L398.586 47.968ZM389.37 13.792L390.202 14.3467V14.3467L389.37 13.792ZM400.122 4.96L400.528 5.87381V5.87381L400.122 4.96ZM437.242 8.41599L436.619 9.19805L436.626 9.20339L436.632 9.20862L437.242 8.41599ZM446.458 26.08V27.08H447.541L447.455 26.0007L446.458 26.08ZM430.33 26.08L429.333 26.1587L429.406 27.08H430.33V26.08ZM404.346 17.504L404.974 18.2824V18.2824L404.346 17.504ZM402.81 33.504L402.068 34.1749L402.085 34.1934L402.103 34.2111L402.81 33.504ZM419.706 40.928L419.971 39.9639L419.966 39.9624L419.706 40.928ZM434.042 45.792L433.638 46.7067L433.646 46.7101L434.042 45.792ZM443.514 53.344L442.714 53.944L442.722 53.9552L442.731 53.9662L443.514 53.344ZM443.77 79.584L442.919 79.0589L442.915 79.0655L442.911 79.0722L443.77 79.584ZM433.146 89.312L433.606 90.1998L433.612 90.1966L433.146 89.312ZM416.762 92.896V91.896C410.904 91.896 405.665 90.8921 401.028 88.9049L400.634 89.824L400.24 90.7431C405.16 92.8519 410.673 93.896 416.762 93.896V92.896ZM400.634 89.824L401.042 88.9109C396.408 86.8421 392.801 83.9632 390.185 80.2845L389.37 80.864L388.555 81.4435C391.4 85.4448 395.303 88.5392 400.226 90.7371L400.634 89.824ZM389.37 80.864L390.185 80.2845C387.585 76.6285 386.274 72.3552 386.274 67.424H385.274H384.274C384.274 72.7328 385.693 77.4194 388.555 81.4435L389.37 80.864ZM385.274 67.424V68.424H400.89V67.424V66.424H385.274V67.424ZM400.89 67.424L399.894 67.5125C400.256 71.5805 401.85 74.9721 404.687 77.6263L405.37 76.896L406.053 76.1657C403.6 73.8706 402.207 70.9475 401.886 67.3355L400.89 67.424ZM405.37 76.896L404.698 77.637C407.665 80.3258 411.731 81.608 416.762 81.608V80.608V79.608C412.065 79.608 408.536 78.4155 406.042 76.155L405.37 76.896ZM416.762 80.608V81.608C421.948 81.608 426.132 80.377 429.185 77.7865L428.538 77.024L427.891 76.2615C425.312 78.4497 421.646 79.608 416.762 79.608V80.608ZM428.538 77.024L429.198 77.7752C432.236 75.1054 433.762 71.6716 433.762 67.552H432.762H431.762C431.762 71.1124 430.472 73.9932 427.878 76.2728L428.538 77.024ZM432.762 67.552H433.762C433.762 64.3499 432.794 61.657 430.797 59.5655L430.074 60.256L429.351 60.9465C430.938 62.6096 431.762 64.7808 431.762 67.552H432.762ZM430.074 60.256L430.814 59.5833C428.991 57.5782 426.68 56.0448 423.907 54.9714L423.546 55.904L423.185 56.8366C425.703 57.8112 427.744 59.1792 429.334 60.9287L430.074 60.256ZM423.546 55.904L423.917 54.9755C421.3 53.9285 417.669 52.8069 413.045 51.608L412.794 52.576L412.543 53.544C417.135 54.7345 420.672 55.8315 423.175 56.8325L423.546 55.904ZM412.794 52.576L413.05 51.6093C407.272 50.0798 402.584 48.5573 398.972 47.0456L398.586 47.968L398.2 48.8904C401.927 50.4507 406.711 52.0002 412.538 53.5427L412.794 52.576ZM398.586 47.968L398.998 47.0569C395.574 45.5078 392.629 43.1411 390.163 39.9343L389.37 40.544L388.577 41.1537C391.231 44.6029 394.43 47.1855 398.174 48.8791L398.586 47.968ZM389.37 40.544L390.163 39.9343C387.775 36.8299 386.53 32.6289 386.53 27.232H385.53H384.53C384.53 32.9285 385.845 37.6021 388.577 41.1537L389.37 40.544ZM385.53 27.232H386.53C386.53 22.287 387.763 18.0047 390.202 14.3467L389.37 13.792L388.538 13.2373C385.857 17.2593 384.53 21.937 384.53 27.232H385.53ZM389.37 13.792L390.202 14.3467C392.647 10.6788 396.077 7.85227 400.528 5.87381L400.122 4.96L399.716 4.04619C394.951 6.16373 391.213 9.22517 388.538 13.2373L389.37 13.792ZM400.122 4.96L400.528 5.87381C404.985 3.89289 410.176 2.88799 416.122 2.88799V1.88799V0.887993C409.951 0.887993 404.475 1.9311 399.716 4.04619L400.122 4.96ZM416.122 1.88799V2.88799C424.569 2.88799 431.373 5.01771 436.619 9.19805L437.242 8.41599L437.865 7.63393C432.188 3.11027 424.913 0.887993 416.122 0.887993V1.88799ZM437.242 8.41599L436.632 9.20862C441.936 13.2886 444.884 18.9075 445.461 26.1593L446.458 26.08L447.455 26.0007C446.837 18.2338 443.641 12.0767 437.852 7.62337L437.242 8.41599ZM446.458 26.08V25.08H430.33V26.08V27.08H446.458V26.08ZM430.33 26.08L431.327 26.0013C431.047 22.4535 429.355 19.4401 426.355 16.986L425.722 17.76L425.089 18.534C427.721 20.6879 429.101 23.2212 429.333 26.1587L430.33 26.08ZM425.722 17.76L426.355 16.986C423.317 14.5005 419.362 13.304 414.586 13.304V14.304V15.304C419.026 15.304 422.495 16.4115 425.089 18.534L425.722 17.76ZM414.586 14.304V13.304C410.23 13.304 406.579 14.4182 403.718 16.7256L404.346 17.504L404.974 18.2824C407.403 16.3231 410.579 15.304 414.586 15.304V14.304ZM404.346 17.504L403.718 16.7256C400.794 19.0839 399.378 22.4677 399.378 26.72H400.378H401.378C401.378 22.951 402.607 20.1908 404.974 18.2824L404.346 17.504ZM400.378 26.72H399.378C399.378 29.664 400.259 32.1749 402.068 34.1749L402.81 33.504L403.552 32.8331C402.118 31.2491 401.378 29.2373 401.378 26.72H400.378ZM402.81 33.504L402.103 34.2111C403.918 36.0262 406.171 37.4613 408.839 38.5285L409.21 37.6L409.581 36.6715C407.129 35.6907 405.115 34.3951 403.517 32.7969L402.81 33.504ZM409.21 37.6L408.839 38.5285C411.451 39.5734 414.992 40.6945 419.446 41.8936L419.706 40.928L419.966 39.9624C415.545 38.7722 412.089 37.6746 409.581 36.6715L409.21 37.6ZM419.706 40.928L419.441 41.8921C425.303 43.5064 430.03 45.1126 433.638 46.7067L434.042 45.792L434.446 44.8773C430.715 43.2287 425.885 41.5923 419.971 39.9639L419.706 40.928ZM434.042 45.792L433.646 46.7101C437.233 48.2593 440.254 50.6637 442.714 53.944L443.514 53.344L444.314 52.744C441.654 49.1976 438.36 46.5674 434.438 44.8739L434.042 45.792ZM443.514 53.344L442.731 53.9662C445.196 57.0672 446.482 61.3044 446.482 66.784H447.482H448.482C448.482 60.9996 447.123 56.2768 444.297 52.7218L443.514 53.344ZM447.482 66.784H446.482C446.482 71.1132 445.301 75.1991 442.919 79.0589L443.77 79.584L444.621 80.1091C447.189 75.9476 448.482 71.5001 448.482 66.784H447.482ZM443.77 79.584L442.911 79.0722C440.628 82.9042 437.233 86.0266 432.68 88.4274L433.146 89.312L433.612 90.1966C438.446 87.6481 442.133 84.2852 444.629 80.0958L443.77 79.584ZM433.146 89.312L432.686 88.4242C428.248 90.7255 422.951 91.896 416.762 91.896V92.896V93.896C423.203 93.896 428.828 92.6771 433.606 90.1998L433.146 89.312Z" fill="#E6E6E6" mask="url(#path-1-outside-1_1_845)"/>
</svg>
