<svg width="40" height="40" viewBox="0 0 40 40" fill="none" xmlns="http://www.w3.org/2000/svg">
<g clip-path="url(#clip0_1_874)">
<path d="M16.6837 10.5724C17.7292 10.5724 18.7512 10.2624 19.6205 9.68152C20.4898 9.10067 21.1674 8.27509 21.5675 7.30916C21.9676 6.34324 22.0722 5.28037 21.8683 4.25495C21.6643 3.22954 21.1608 2.28763 20.4216 1.54835C19.6823 0.809061 18.7404 0.305602 17.715 0.101634C16.6895 -0.102334 15.6267 0.00234953 14.6607 0.402447C13.6948 0.802545 12.8692 1.48009 12.2884 2.34939C11.7075 3.2187 11.3975 4.24073 11.3975 5.28623C11.3991 6.68772 11.9565 8.03136 12.9475 9.02236C13.9385 10.0134 15.2822 10.5708 16.6837 10.5724ZM16.6837 1.09412C17.5128 1.09412 18.3233 1.33999 19.0127 1.80062C19.7021 2.26126 20.2394 2.91597 20.5567 3.68198C20.874 4.44799 20.957 5.29088 20.7952 6.10407C20.6335 6.91726 20.2342 7.66423 19.6479 8.2505C19.0617 8.83678 18.3147 9.23604 17.5015 9.39779C16.6883 9.55955 15.8454 9.47653 15.0794 9.15924C14.3134 8.84195 13.6587 8.30463 13.1981 7.61524C12.7374 6.92586 12.4916 6.11535 12.4916 5.28623C12.4928 4.1748 12.9349 3.10926 13.7208 2.32336C14.5067 1.53746 15.5722 1.09539 16.6837 1.09412ZM32.0837 23.5055H25.8453V18.0533C25.8453 14.4439 22.6584 11.5069 18.741 11.5069H14.6263C10.709 11.5069 7.52195 14.4437 7.52195 18.0533V23.5055H1.28125C1.13621 23.5055 0.99711 23.5631 0.894551 23.6656C0.791993 23.7682 0.734375 23.9073 0.734375 24.0523C0.734147 25.0177 0.821669 25.9812 0.99586 26.9308C1.01445 27.0317 1.06106 27.1253 1.13035 27.201C1.19965 27.2767 1.28884 27.3313 1.38773 27.3587L4.26656 28.1565C4.46689 28.7642 4.71205 29.3562 5 29.9276L3.52914 32.5286C3.47855 32.618 3.45418 32.7199 3.45882 32.8225C3.46346 32.9252 3.49693 33.0245 3.55539 33.109C4.65446 34.7006 6.03336 36.0796 7.625 37.1787C7.7095 37.2371 7.80874 37.2705 7.91136 37.2751C8.01398 37.2798 8.11582 37.2554 8.20524 37.2048L10.8068 35.734C11.3783 36.0221 11.9702 36.2679 12.5777 36.4694L13.3777 39.3487C13.4052 39.4478 13.4601 39.537 13.536 39.6063C13.6119 39.6756 13.7058 39.7221 13.8069 39.7405C15.7094 40.0859 17.6586 40.0859 19.5612 39.7405C19.6623 39.7221 19.7563 39.6756 19.8322 39.6062C19.9081 39.5369 19.9629 39.4475 19.9904 39.3484L20.7882 36.4695C21.3964 36.2683 21.989 36.0224 22.561 35.734L25.1599 37.2048C25.2493 37.2553 25.3511 37.2797 25.4537 37.2751C25.5563 37.2705 25.6555 37.2372 25.7401 37.1789C27.333 36.0809 28.7124 34.7015 29.8104 33.1086C29.8687 33.0241 29.9021 32.9249 29.9067 32.8223C29.9112 32.7198 29.8869 32.618 29.8363 32.5287L28.366 29.9284C28.655 29.3571 28.9007 28.7648 29.101 28.1567L31.9799 27.359C32.0791 27.3315 32.1685 27.2766 32.2379 27.2006C32.3073 27.1246 32.3538 27.0305 32.3721 26.9293C32.5441 25.98 32.6308 25.0172 32.6311 24.0524C32.6311 23.9805 32.617 23.9094 32.5894 23.843C32.5619 23.7766 32.5216 23.7163 32.4708 23.6655C32.4199 23.6147 32.3596 23.5744 32.2932 23.547C32.2268 23.5195 32.1556 23.5054 32.0837 23.5055ZM24.7322 24.5992C24.5937 26.6395 23.6855 28.5511 22.1914 29.9473C20.6972 31.3435 18.7285 32.1201 16.6835 32.1201C14.6385 32.1201 12.6699 31.3435 11.1757 29.9473C9.68149 28.5511 8.77332 26.6395 8.63484 24.5992H24.7322ZM17.6398 20.2842L16.6832 21.2602L15.7251 20.2837L16.1223 15.329C16.1411 15.3296 16.1596 15.3309 16.1786 15.3309H17.1864C17.2054 15.3309 17.2239 15.3296 17.2427 15.329L17.6398 20.2842ZM17.6193 14.0545C17.5927 14.1083 17.5469 14.1501 17.491 14.1717C17.4883 14.173 17.4855 14.1743 17.4832 14.1757C17.3899 14.2176 17.2886 14.2385 17.1863 14.2368H16.1785C15.9363 14.2368 15.7702 14.1287 15.7475 14.0537L15.3069 12.6006H18.0601L17.6193 14.0545ZM14.1691 12.618L14.7003 14.3712C14.7664 14.5854 14.8896 14.7776 15.0567 14.927L14.6145 20.4452C14.6082 20.5233 14.6188 20.6018 14.6455 20.6755C14.6722 20.7491 14.7144 20.8162 14.7693 20.8721L16.2927 22.4245C16.3437 22.4765 16.4044 22.5177 16.4715 22.5459C16.5386 22.5741 16.6106 22.5886 16.6834 22.5886C16.7561 22.5886 16.8281 22.5741 16.8952 22.5459C16.9623 22.5177 17.0231 22.4765 17.074 22.4245L18.5954 20.8721C18.6502 20.8162 18.6923 20.7492 18.719 20.6756C18.7457 20.602 18.7563 20.5236 18.75 20.4455L18.3077 14.929C18.4758 14.7795 18.5998 14.5868 18.6662 14.3719L19.1978 12.6183C22.2989 12.8312 24.7509 15.1865 24.7509 18.0533V23.5055H22.5656V18.4319C22.5656 18.2869 22.508 18.1478 22.4054 18.0452C22.3029 17.9427 22.1638 17.8851 22.0187 17.8851C21.8737 17.8851 21.7346 17.9427 21.6321 18.0452C21.5295 18.1478 21.4719 18.2869 21.4719 18.4319V23.5055H11.8938V18.4319C11.8938 18.2869 11.8361 18.1478 11.7336 18.0452C11.631 17.9427 11.4919 17.8851 11.3469 17.8851C11.2018 17.8851 11.0627 17.9427 10.9602 18.0452C10.8576 18.1478 10.8 18.2869 10.8 18.4319V23.5055H8.61641V18.0533C8.61602 15.1865 11.068 12.8312 14.1692 12.6183L14.1691 12.618ZM31.3524 26.3976L28.5228 27.1816C28.434 27.2062 28.3529 27.2529 28.2869 27.3172C28.221 27.3815 28.1723 27.4615 28.1455 27.5497C27.9219 28.2871 27.6257 29.0005 27.2614 29.6795C27.2177 29.7609 27.1953 29.852 27.1963 29.9444C27.1973 30.0368 27.2217 30.1274 27.2671 30.2078L28.713 32.7654C27.7908 34.0402 26.6712 35.1598 25.3965 36.082L22.8418 34.6362C22.7617 34.5909 22.6714 34.5665 22.5793 34.5653C22.4873 34.5642 22.3964 34.5863 22.3152 34.6296C21.6341 34.993 20.9194 35.2894 20.1811 35.5146C20.0929 35.5414 20.013 35.59 19.9486 35.656C19.8843 35.7219 19.8376 35.8031 19.813 35.8919L19.0289 38.7216C17.4751 38.9663 15.8925 38.9663 14.3387 38.7216L13.5525 35.8916C13.5279 35.803 13.4814 35.722 13.4172 35.6562C13.353 35.5903 13.2733 35.5417 13.1853 35.5148C12.4476 35.2892 11.7335 34.9927 11.0529 34.6297C10.9717 34.5864 10.8809 34.5643 10.7888 34.5654C10.6968 34.5666 10.6066 34.5909 10.5265 34.6362L7.96875 36.0817C6.69479 35.1585 5.57533 34.039 4.65211 32.765L6.09789 30.208C6.14326 30.1278 6.16763 30.0374 6.16872 29.9453C6.16981 29.8531 6.1476 29.7622 6.10414 29.6809C5.74113 29.001 5.44545 28.2872 5.22133 27.5497C5.19454 27.4615 5.14591 27.3815 5.07996 27.3172C5.014 27.2529 4.93286 27.2062 4.84406 27.1816L2.01352 26.3972C1.91857 25.8021 1.85992 25.2018 1.83789 24.5995H7.53906C7.67841 26.9304 8.70257 29.1202 10.4023 30.7213C12.102 32.3224 14.3489 33.214 16.684 33.214C19.0191 33.214 21.266 32.3224 22.9657 30.7213C24.6654 29.1202 25.6896 26.9304 25.8289 24.5995H31.527C31.5048 25.2018 31.4464 25.8022 31.3524 26.3976ZM39.247 15.5487L37.6545 9.60592C38.2795 8.67865 38.6405 7.59881 38.6988 6.48207C38.7571 5.36534 38.5105 4.25378 37.9855 3.26645C37.4604 2.27912 36.6767 1.45322 35.7182 0.877214C34.7597 0.301208 33.6626 -0.00320423 32.5443 -0.00341786C31.426 -0.00363148 30.3288 0.300362 29.3701 0.876002C28.4114 1.45164 27.6273 2.27724 27.1019 3.26437C26.5764 4.2515 26.3294 5.36296 26.3873 6.47972C26.4452 7.59648 26.8058 8.67645 27.4305 9.60397L25.8374 15.5487C25.8107 15.6481 25.8126 15.7531 25.843 15.8515C25.8733 15.95 25.9308 16.0378 26.0089 16.105C26.0869 16.1722 26.1824 16.216 26.2842 16.2313C26.3861 16.2466 26.4902 16.2329 26.5845 16.1916L28.5698 15.3253L29.8565 17.0692C29.9176 17.1522 30.0008 17.2162 30.0967 17.2539C30.1926 17.2916 30.2972 17.3015 30.3984 17.2824C30.4996 17.2633 30.5934 17.2159 30.6689 17.1458C30.7444 17.0758 30.7986 16.9858 30.8252 16.8862L32.0534 12.3074C32.215 12.3202 32.3777 12.3287 32.5424 12.3287C32.7072 12.3287 32.8713 12.3201 33.0334 12.3073L34.2599 16.886C34.2865 16.9855 34.3407 17.0756 34.4162 17.1457C34.4917 17.2158 34.5854 17.2632 34.6867 17.2823C34.7879 17.3014 34.8925 17.2916 34.9884 17.2539C35.0843 17.2162 35.1676 17.1522 35.2287 17.0692L36.5155 15.3253L38.5006 16.1916C38.595 16.2329 38.6991 16.2466 38.8009 16.2313C38.9028 16.216 38.9982 16.1722 39.0763 16.105C39.1544 16.0378 39.2119 15.95 39.2422 15.8515C39.2725 15.7531 39.2744 15.6481 39.2477 15.5487H39.247ZM30.0626 15.5059L29.191 14.3246C29.1174 14.2248 29.0121 14.1531 28.8924 14.121C28.7727 14.0889 28.6456 14.0985 28.532 14.1481L27.1883 14.7345L28.2908 10.6204C29.0423 11.3401 29.9639 11.8577 30.9695 12.1248L30.0626 15.5059ZM31.7634 11.1746C31.7487 11.1714 31.734 11.1687 31.7193 11.1668C30.4626 10.96 29.3297 10.288 28.5458 9.28425C27.762 8.28051 27.3845 7.01855 27.4884 5.74922C27.5923 4.47989 28.1701 3.29614 29.1068 2.43327C30.0435 1.5704 31.2706 1.09159 32.5442 1.09201C33.8177 1.09243 35.0445 1.57206 35.9807 2.43556C36.9168 3.29905 37.4938 4.48319 37.5969 5.75258C37.6999 7.02198 37.3216 8.28369 36.537 9.28691C35.7525 10.2901 34.6192 10.9614 33.3623 11.1673C33.3525 11.1687 33.3426 11.1707 33.3327 11.1726C32.8129 11.2547 32.2834 11.2553 31.7634 11.1746ZM36.5524 14.1481C36.4388 14.0985 36.3118 14.089 36.1921 14.121C36.0724 14.1531 35.9671 14.2249 35.8935 14.3246L35.0223 15.5054L34.1168 12.124C35.1217 11.8571 36.0428 11.3403 36.7941 10.6215L37.8962 14.7342L36.5524 14.1481ZM36.3867 6.16326C36.3866 5.40311 36.161 4.66007 35.7386 4.02809C35.3162 3.3961 34.7159 2.90356 34.0135 2.61273C33.3112 2.32191 32.5384 2.24585 31.7929 2.39419C31.0474 2.54253 30.3625 2.90859 29.825 3.4461C29.2875 3.98362 28.9215 4.66843 28.7731 5.41398C28.6248 6.15952 28.7008 6.9323 28.9917 7.63462C29.2825 8.33695 29.775 8.93727 30.407 9.35968C31.039 9.7821 31.782 10.0076 32.5422 10.0078C33.5616 10.0069 34.5389 9.6016 35.2597 8.8808C35.9805 8.16 36.3858 7.18263 36.3867 6.16326ZM29.7939 6.16326C29.7942 5.6195 29.9556 5.08801 30.2579 4.63602C30.5602 4.18403 30.9898 3.83183 31.4923 3.62396C31.9947 3.41609 32.5476 3.36189 33.0808 3.4682C33.6141 3.57452 34.1039 3.83658 34.4882 4.22124C34.8726 4.60591 35.1342 5.0959 35.2401 5.62927C35.3459 6.16263 35.2912 6.71541 35.0829 7.2177C34.8746 7.71999 34.5221 8.14924 34.0698 8.45115C33.6176 8.75307 33.086 8.91411 32.5422 8.91389C31.8131 8.91308 31.1142 8.62295 30.5989 8.10722C30.0836 7.59148 29.7941 6.89231 29.7939 6.16326ZM34.2158 5.6242L32.3642 7.47576C32.3134 7.52655 32.2531 7.56684 32.1868 7.59433C32.1204 7.62181 32.0493 7.63596 31.9775 7.63596C31.9057 7.63596 31.8346 7.62181 31.7682 7.59433C31.7019 7.56684 31.6416 7.52655 31.5908 7.47576L30.871 6.75608C30.7685 6.65351 30.7108 6.51441 30.7108 6.36936C30.7108 6.22431 30.7685 6.0852 30.871 5.98264C30.9736 5.88008 31.1127 5.82245 31.2577 5.82245C31.4028 5.82245 31.5419 5.88008 31.6445 5.98264L31.9774 6.31569L33.442 4.85108C33.5445 4.74851 33.6836 4.69089 33.8287 4.69089C33.9737 4.69089 34.1128 4.74851 34.2154 4.85108C34.318 4.95364 34.3756 5.09275 34.3756 5.2378C34.3756 5.38284 34.318 5.52195 34.2154 5.62451L34.2158 5.6242Z" fill="#9A433E"/>
</g>
<defs>
<clipPath id="clip0_1_874">
<rect width="40" height="40" fill="white"/>
</clipPath>
</defs>
</svg>
